<svg width="40" height="40" viewBox="0 0 40 40" fill="none" xmlns="http://www.w3.org/2000/svg">
<path fill-rule="evenodd" clip-rule="evenodd" d="M30 6L20.9375 6L10 6.00001C8.88016 6.00001 7.76753 6.41787 6.92991 7.11589C6.08969 7.81607 5.5 8.82321 5.5 10V10.0085V10.0171V10.0257V10.0343V10.0429V10.0516V10.0602V10.0689V10.0776V10.0863V10.0951V10.1038V10.1126V10.1214V10.1302V10.139V10.1479V10.1567V10.1656V10.1745V10.1834V10.1924V10.2013V10.2103V10.2193V10.2283V10.2373V10.2463V10.2554V10.2645V10.2736V10.2827V10.2918V10.3009V10.3101V10.3193V10.3285V10.3377V10.3469V10.3561V10.3654V10.3747V10.384V10.3933V10.4026V10.4119V10.4213V10.4307V10.44V10.4494V10.4589V10.4683V10.4778V10.4872V10.4967V10.5062V10.5157V10.5252V10.5348V10.5443V10.5539V10.5635V10.5731V10.5827V10.5923V10.602V10.6116V10.6213V10.631V10.6407V10.6504V10.6601V10.6699V10.6796V10.6894V10.6992V10.709V10.7188V10.7286V10.7385V10.7483V10.7582V10.7681V10.778V10.7879V10.7978V10.8077V10.8177V10.8276V10.8376V10.8476V10.8576V10.8676V10.8776V10.8876V10.8977V10.9077V10.9178V10.9279V10.938V10.9481V10.9582V10.9683V10.9785V10.9886V10.9988V11.009V11.0192V11.0294V11.0396V11.0498V11.06V11.0703V11.0805V11.0908V11.1011V11.1114V11.1217V11.132V11.1423V11.1526V11.163V11.1733V11.1837V11.194V11.2044V11.2148V11.2252V11.2356V11.2461V11.2565V11.2669V11.2774V11.2878V11.2983V11.3088V11.3193V11.3298V11.3403V11.3508V11.3613V11.3719V11.3824V11.3929V11.4035V11.4141V11.4246V11.4352V11.4458V11.4564V11.467V11.4777V11.4883V11.4989V11.5096V11.5202V11.5309V11.5415V11.5522V11.5629V11.5736V11.5843V11.595V11.6057V11.6164V11.6272V11.6379V11.6486V11.6594V11.6701V11.6809V11.6917V11.7024V11.7132V11.724V11.7348V11.7456V11.7564V11.7672V11.778V11.7889V11.7997V11.8105V11.8214V11.8322V11.8431V11.8539V11.8648V11.8757V11.8865V11.8974V11.9083V11.9192V11.9301V11.941V11.9519V11.9628V11.9738V11.9847V11.9956V12.0065V12.0175V12.0284V12.0394V12.0503V12.0613V12.0722V12.0832V12.0941V12.1051V12.1161V12.1271V12.138V12.149V12.16V12.171V12.182V12.193V12.204V12.215V12.226V12.237V12.248V12.2591V12.2701V12.2811V12.2921V12.3032V12.3142V12.3252V12.3363V12.3473V12.3583V12.3694V12.3804V12.3915V12.4025V12.4136V12.4246V12.4357V12.4467V12.4578V12.4689V12.4799V12.491V12.502V12.5131V12.5242V12.5352V12.5463V12.5574V12.5684V12.5795V12.5906V12.6017V12.6127V12.6238V12.6349V12.646V12.657V12.6681V12.6792V12.6903V12.7013V12.7124V12.7235V12.7345V12.7456V12.7567V12.7678V12.7788V12.7899V12.801V12.8121V12.8231V12.8342V12.8453V12.8563V12.8674V12.8785V12.8895V12.9006V12.9116V12.9227V12.9338V12.9448V12.9559V12.9669V12.978V12.989V13.0001V13.0111V13.0222V13.0332V13.0442V13.0553V13.0663V13.0773V13.0884V13.0994V13.1104V13.1214V13.1324V13.1435V13.1545V13.1655V13.1765V13.1875V13.1985V13.2095V13.2205V13.2314V13.2424V13.2534V13.2644V13.2754V13.2863V13.2973V13.3083V13.3192V13.3302V13.3411V13.3521V13.363V13.3739V13.3849V13.3958V13.4067V13.4176V13.4285V13.4394V13.4503V13.4612V13.4721V13.483V13.4939V13.5048V13.5156V13.5265V13.5374V13.5482V13.5591V13.5699V13.5807V13.5916V13.6024V13.6132V13.624V13.6348V13.6456V13.6564V13.6672V13.678V13.6888V13.6995V13.7103V13.721V13.7318V13.7425V13.7532V13.764V13.7747V13.7854V13.7961V13.8068V13.8175V13.8282V13.8388V13.8495V13.8602V13.8708V13.8814V13.8921V13.9027V13.9133V13.9239V13.9345V13.9451V13.9557V13.9663V13.9768V13.9874V13.9979V14.0085V14.019V14.0295V14.04V14.0506V14.061V14.0715V14.082V14.0925V14.1029V14.1134V14.1238V14.1342V14.1447V14.1551V14.1655V14.1759V14.1862V14.1966V14.207V14.2173V14.2276V14.238V14.2483V14.2586V14.2689V14.2792V14.2895V14.2997V14.31V14.3202V14.3304V14.3407V14.3509V14.3611V14.3712V14.3814V14.3916V14.4017V14.4119V14.422V14.4321V14.4422V14.4523V14.4624V14.4724V14.4825V14.4925V14.5026V14.5126V14.5226V14.5326V14.5426V14.5525V14.5625V14.5724V14.5824V14.5923V14.6022V14.6121V14.6219V14.6318V14.6416V14.6515V14.6613V14.6711V14.6809V14.6907V14.7005V14.7102V14.7199V14.7297V14.7394V14.7491V14.7588V14.7684V14.7781V14.7877V14.7973V14.807V14.8166V14.8261V14.8357V14.8453V14.8548V14.8643V14.8738V14.8833V14.8928V14.9022V14.9117V14.9211V14.9305V14.9399V14.9493V14.9587V14.968V14.9774V14.9867V14.996V15.0053V15.0145V15.0238V15.033V15.0422V15.0514V15.0606V15.0698V15.079V15.0881V15.0972V15.1063V15.1154V15.1245V15.1335V15.1426V15.1516V15.1606V15.1696V15.1785V15.1875V15.1964V15.2053V15.2142V15.2231V15.2319V15.2408V15.2496V15.2584C5.5 16.2238 6.39321 16.9363 7.33164 16.7356C9.9112 16.1837 15.9277 15 20 15C24.0723 15 30.0888 16.1837 32.6684 16.7356C33.6075 16.9365 34.5 16.2222 34.5 15.2574V10C34.5 8.92294 34.2304 7.8983 33.4786 7.14646C32.7267 6.39461 31.5771 6 30 6ZM10 7.00001L20.9375 7L30 7C31.4229 7 32.2733 7.3554 32.7714 7.85356C33.2696 8.35173 33.5 9.07709 33.5 10V15.2574C33.5 15.5813 33.1985 15.8264 32.8776 15.7577C30.3094 15.2083 24.1935 14 20 14C15.8065 14 9.69058 15.2083 7.12244 15.7577C6.80083 15.8265 6.5 15.5816 6.5 15.2584V15.2496V15.2408V15.2319V15.2231V15.2142V15.2053V15.1964V15.1875V15.1785V15.1696V15.1606V15.1516V15.1426V15.1335V15.1245V15.1154V15.1063V15.0972V15.0881V15.079V15.0698V15.0606V15.0514V15.0422V15.033V15.0238V15.0145V15.0053V14.996V14.9867V14.9774V14.968V14.9587V14.9493V14.9399V14.9305V14.9211V14.9117V14.9022V14.8928V14.8833V14.8738V14.8643V14.8548V14.8453V14.8357V14.8261V14.8166V14.807V14.7973V14.7877V14.7781V14.7684V14.7588V14.7491V14.7394V14.7297V14.7199V14.7102V14.7005V14.6907V14.6809V14.6711V14.6613V14.6515V14.6416V14.6318V14.6219V14.6121V14.6022V14.5923V14.5824V14.5724V14.5625V14.5525V14.5426V14.5326V14.5226V14.5126V14.5026V14.4925V14.4825V14.4724V14.4624V14.4523V14.4422V14.4321V14.422V14.4119V14.4017V14.3916V14.3814V14.3712V14.3611V14.3509V14.3407V14.3304V14.3202V14.31V14.2997V14.2895V14.2792V14.2689V14.2586V14.2483V14.238V14.2276V14.2173V14.207V14.1966V14.1862V14.1759V14.1655V14.1551V14.1447V14.1342V14.1238V14.1134V14.1029V14.0925V14.082V14.0715V14.061V14.0506V14.04V14.0295V14.019V14.0085V13.9979V13.9874V13.9768V13.9663V13.9557V13.9451V13.9345V13.9239V13.9133V13.9027V13.8921V13.8814V13.8708V13.8602V13.8495V13.8388V13.8282V13.8175V13.8068V13.7961V13.7854V13.7747V13.764V13.7532V13.7425V13.7318V13.721V13.7103V13.6995V13.6888V13.678V13.6672V13.6564V13.6456V13.6348V13.624V13.6132V13.6024V13.5916V13.5807V13.5699V13.5591V13.5482V13.5374V13.5265V13.5156V13.5048V13.4939V13.483V13.4721V13.4612V13.4503V13.4394V13.4285V13.4176V13.4067V13.3958V13.3849V13.3739V13.363V13.3521V13.3411V13.3302V13.3192V13.3083V13.2973V13.2863V13.2754V13.2644V13.2534V13.2424V13.2314V13.2205V13.2095V13.1985V13.1875V13.1765V13.1655V13.1545V13.1435V13.1324V13.1214V13.1104V13.0994V13.0884V13.0773V13.0663V13.0553V13.0442V13.0332V13.0222V13.0111V13.0001V12.989V12.978V12.9669V12.9559V12.9448V12.9338V12.9227V12.9116V12.9006V12.8895V12.8785V12.8674V12.8563V12.8453V12.8342V12.8231V12.8121V12.801V12.7899V12.7788V12.7678V12.7567V12.7456V12.7345V12.7235V12.7124V12.7013V12.6903V12.6792V12.6681V12.657V12.646V12.6349V12.6238V12.6127V12.6017V12.5906V12.5795V12.5684V12.5574V12.5463V12.5352V12.5242V12.5131V12.502V12.491V12.4799V12.4689V12.4578V12.4467V12.4357V12.4246V12.4136V12.4025V12.3915V12.3804V12.3694V12.3583V12.3473V12.3363V12.3252V12.3142V12.3032V12.2921V12.2811V12.2701V12.2591V12.248V12.237V12.226V12.215V12.204V12.193V12.182V12.171V12.16V12.149V12.138V12.1271V12.1161V12.1051V12.0941V12.0832V12.0722V12.0613V12.0503V12.0394V12.0284V12.0175V12.0065V11.9956V11.9847V11.9738V11.9628V11.9519V11.941V11.9301V11.9192V11.9083V11.8974V11.8865V11.8757V11.8648V11.8539V11.8431V11.8322V11.8214V11.8105V11.7997V11.7889V11.778V11.7672V11.7564V11.7456V11.7348V11.724V11.7132V11.7024V11.6917V11.6809V11.6701V11.6594V11.6486V11.6379V11.6272V11.6164V11.6057V11.595V11.5843V11.5736V11.5629V11.5522V11.5415V11.5309V11.5202V11.5096V11.4989V11.4883V11.4777V11.467V11.4564V11.4458V11.4352V11.4246V11.4141V11.4035V11.3929V11.3824V11.3719V11.3613V11.3508V11.3403V11.3298V11.3193V11.3088V11.2983V11.2878V11.2774V11.2669V11.2565V11.2461V11.2356V11.2252V11.2148V11.2044V11.194V11.1837V11.1733V11.163V11.1526V11.1423V11.132V11.1217V11.1114V11.1011V11.0908V11.0805V11.0703V11.06V11.0498V11.0396V11.0294V11.0192V11.009V10.9988V10.9886V10.9785V10.9683V10.9582V10.9481V10.938V10.9279V10.9178V10.9077V10.8977V10.8876V10.8776V10.8676V10.8576V10.8476V10.8376V10.8276V10.8177V10.8077V10.7978V10.7879V10.778V10.7681V10.7582V10.7483V10.7385V10.7286V10.7188V10.709V10.6992V10.6894V10.6796V10.6699V10.6601V10.6504V10.6407V10.631V10.6213V10.6116V10.602V10.5923V10.5827V10.5731V10.5635V10.5539V10.5443V10.5348V10.5252V10.5157V10.5062V10.4967V10.4872V10.4778V10.4683V10.4589V10.4494V10.44V10.4307V10.4213V10.4119V10.4026V10.3933V10.384V10.3747V10.3654V10.3561V10.3469V10.3377V10.3285V10.3193V10.3101V10.3009V10.2918V10.2827V10.2736V10.2645V10.2554V10.2463V10.2373V10.2283V10.2193V10.2103V10.2013V10.1924V10.1834V10.1745V10.1656V10.1567V10.1479V10.139V10.1302V10.1214V10.1126V10.1038V10.0951V10.0863V10.0776V10.0689V10.0602V10.0516V10.0429V10.0343V10.0257V10.0171V10.0085V10C6.5 9.17679 6.91031 8.43393 7.57009 7.88412C8.23247 7.33214 9.11984 7.00001 10 7.00001ZM33.348 18.9391L33.3493 18.9397C34.2851 19.3489 35.0814 20.0218 35.6409 20.8763C36.2005 21.7307 36.499 22.7297 36.5 23.751V32.5C36.5 32.5663 36.4737 32.6299 36.4268 32.6768C36.3799 32.7237 36.3163 32.75 36.25 32.75C36.1837 32.75 36.1201 32.7237 36.0732 32.6768C36.0263 32.6299 36 32.5663 36 32.5V31.875H36.0001L35.9999 31.8627C35.9947 31.4367 35.8231 31.0295 35.5218 30.7282C35.2205 30.4269 34.8134 30.2553 34.3873 30.2501L34.3873 30.25H34.375H5.625V30.2499L5.61273 30.2501C5.18665 30.2553 4.7795 30.4269 4.47819 30.7282C4.17689 31.0295 4.0053 31.4367 4.00008 31.8627H4V31.875V32.5C4 32.5663 3.97366 32.6299 3.92678 32.6768C3.87989 32.7237 3.8163 32.75 3.75 32.75C3.6837 32.75 3.62011 32.7237 3.57322 32.6768C3.52634 32.6299 3.5 32.5663 3.5 32.5V23.7505C3.50097 22.7292 3.79942 21.7302 4.35888 20.8758C4.91842 20.0212 5.71479 19.3482 6.65067 18.9389L6.6515 18.9385C7.31276 18.6486 8.02703 18.4993 8.74903 18.5H8.75H31.25H31.2509C31.9728 18.4994 32.687 18.6489 33.348 18.9391ZM37.5 32.5V23.75C37.4988 22.5344 37.1435 21.3454 36.4775 20.3285C35.8116 19.3115 34.8638 18.5105 33.75 18.0234C32.962 17.6775 32.1106 17.4993 31.25 17.5H8.75C7.88946 17.4992 7.03813 17.6772 6.25 18.0227C5.1361 18.5098 4.18823 19.3109 3.52226 20.328C2.85629 21.3451 2.50106 22.5342 2.5 23.75V32.5C2.5 32.8315 2.6317 33.1495 2.86612 33.3839C3.10054 33.6183 3.41848 33.75 3.75 33.75C4.08152 33.75 4.39946 33.6183 4.63388 33.3839C4.8683 33.1495 5 32.8315 5 32.5V31.875C5.00203 31.7099 5.06853 31.5521 5.1853 31.4353C5.30207 31.3185 5.45987 31.252 5.625 31.25H34.375C34.5401 31.252 34.6979 31.3185 34.8147 31.4353C34.9315 31.5521 34.998 31.7099 35 31.875V32.5C35 32.8315 35.1317 33.1495 35.3661 33.3839C35.6005 33.6183 35.9185 33.75 36.25 33.75C36.5815 33.75 36.8995 33.6183 37.1339 33.3839C37.3683 33.1495 37.5 32.8315 37.5 32.5Z" fill="#8D8D8F"/>
</svg>
