<svg width="20" height="20" viewBox="0 0 20 20" fill="none" xmlns="http://www.w3.org/2000/svg">
<g clip-path="url(#clip0_3296_45358)">
<path d="M14.1666 16.25H5.83329V17.0834C5.83329 17.3044 5.7455 17.5163 5.58922 17.6726C5.43293 17.8289 5.22097 17.9167 4.99996 17.9167H3.33329C3.11228 17.9167 2.90032 17.8289 2.74404 17.6726C2.58776 17.5163 2.49996 17.3044 2.49996 17.0834V9.58337H1.66663V6.25004H2.49996V3.75004C2.49996 3.30801 2.67555 2.88409 2.98811 2.57153C3.30068 2.25897 3.7246 2.08337 4.16663 2.08337H15.8333C16.2753 2.08337 16.6992 2.25897 17.0118 2.57153C17.3244 2.88409 17.5 3.30801 17.5 3.75004V6.25004H18.3333V9.58337H17.5V17.0834C17.5 17.3044 17.4122 17.5163 17.2559 17.6726C17.0996 17.8289 16.8876 17.9167 16.6666 17.9167H15C14.7789 17.9167 14.567 17.8289 14.4107 17.6726C14.2544 17.5163 14.1666 17.3044 14.1666 17.0834V16.25ZM4.16663 3.75004V9.58337H15.8333V3.75004H4.16663ZM6.24996 14.5834C6.58148 14.5834 6.89942 14.4517 7.13384 14.2173C7.36826 13.9828 7.49996 13.6649 7.49996 13.3334C7.49996 13.0019 7.36826 12.6839 7.13384 12.4495C6.89942 12.2151 6.58148 12.0834 6.24996 12.0834C5.91844 12.0834 5.6005 12.2151 5.36608 12.4495C5.13166 12.6839 4.99996 13.0019 4.99996 13.3334C4.99996 13.6649 5.13166 13.9828 5.36608 14.2173C5.6005 14.4517 5.91844 14.5834 6.24996 14.5834ZM13.75 14.5834C14.0815 14.5834 14.3994 14.4517 14.6338 14.2173C14.8683 13.9828 15 13.6649 15 13.3334C15 13.0019 14.8683 12.6839 14.6338 12.4495C14.3994 12.2151 14.0815 12.0834 13.75 12.0834C13.4184 12.0834 13.1005 12.2151 12.8661 12.4495C12.6317 12.6839 12.5 13.0019 12.5 13.3334C12.5 13.6649 12.6317 13.9828 12.8661 14.2173C13.1005 14.4517 13.4184 14.5834 13.75 14.5834Z" fill="#151414"/>
</g>
<defs>
<clipPath id="clip0_3296_45358">
<rect width="20" height="20" fill="white"/>
</clipPath>
</defs>
</svg>
