<svg width="81" height="40" viewBox="0 0 81 40" fill="none" xmlns="http://www.w3.org/2000/svg">
<g clip-path="url(#clip0_1270_48546)">
<path d="M37.7805 31.472C37.0752 32.3267 36.2025 33.0244 35.2172 33.5211C34.2711 33.9852 33.2319 34.2227 32.1803 34.2151C30.3505 34.2151 28.8496 33.5188 27.6775 32.1264C26.5054 30.7339 25.919 28.9263 25.9183 26.7037C25.9183 23.9187 26.7122 21.6063 28.3001 19.7662C29.888 17.9262 31.8705 17.0066 34.2475 17.0074C35.2772 16.99 36.2954 17.2283 37.2128 17.7013C38.0862 18.1647 38.875 18.8798 39.5789 19.8466L39.9418 17.5179H45.2732L43.3203 29.9822C43.1613 30.9971 42.6494 31.9214 41.8765 32.5888C41.1037 33.2563 40.1206 33.6229 39.1041 33.623H37.514L37.7805 31.472ZM31.5789 26.1433C31.5789 27.1742 31.8891 28.0044 32.5095 28.6339C33.1299 29.2633 33.9511 29.5769 34.9731 29.5746C36.0877 29.5746 37.0157 29.1361 37.757 28.2592C38.4983 27.3822 38.869 26.2844 38.869 24.9659C38.869 23.9667 38.5588 23.1561 37.9384 22.5342C37.318 21.9123 36.5084 21.601 35.5095 21.6002C34.9755 21.5891 34.4457 21.6992 33.9593 21.9223C33.4729 22.1455 33.0422 22.476 32.6988 22.8897C31.9522 23.7516 31.5789 24.8361 31.5789 26.1433Z" fill="#F04935"/>
<path d="M58.0067 33.6229L60.5297 17.5156H65.925L65.5285 20.2643C66.0228 19.2447 66.6853 18.4684 67.5162 17.9356C68.3471 17.4027 69.3147 17.1386 70.4188 17.1431C70.5505 17.1441 70.6821 17.152 70.813 17.1669C70.9608 17.1827 71.1915 17.2178 71.5073 17.271L70.3875 22.3258C70.0194 22.2413 69.6879 22.1775 69.3931 22.1345C69.1112 22.0933 68.8268 22.0722 68.542 22.0711C67.458 22.0711 66.6032 22.4141 65.9776 23.1002C65.352 23.7862 64.9235 24.8466 64.692 26.2813L64.0649 30.341C63.9233 31.2588 63.4617 32.095 62.7634 32.6988C62.0652 33.3025 61.1764 33.6339 60.2576 33.6331L58.0067 33.6229Z" fill="#F04935"/>
<path d="M71.7436 33.6229L74.252 17.5156H79.9149L77.9709 29.9222C77.8091 30.9539 77.2885 31.8934 76.5027 32.5718C75.7169 33.2502 74.7175 33.6229 73.6842 33.6229H71.7436Z" fill="#F04935"/>
<path d="M74.6775 12.7156C74.6787 11.9123 74.9949 11.1423 75.5569 10.5744C76.1189 10.0065 76.8807 9.68706 77.6753 9.68616C78.5472 9.68616 79.2729 9.97295 79.8522 10.5465C80.1372 10.8279 80.3615 11.1659 80.5108 11.5392C80.6602 11.9125 80.7314 12.3131 80.72 12.7156C80.7238 13.1209 80.6476 13.5229 80.4959 13.898C80.3442 14.2732 80.1201 14.614 79.8366 14.9006C79.5531 15.1872 79.216 15.4138 78.8449 15.5671C78.4738 15.7205 78.0761 15.7975 77.6753 15.7938C77.2788 15.7996 76.8854 15.7222 76.5201 15.5663C76.1548 15.4104 75.8256 15.1794 75.5532 14.8881C75.2701 14.6042 75.0467 14.2654 74.8962 13.8921C74.7458 13.5188 74.6714 13.1187 74.6775 12.7156Z" fill="#F04935"/>
<path d="M55.888 16.5387H50.2967L50.1478 17.5157H47.4983L46.8511 21.6308H49.5017L47.6237 33.623H49.8219C50.7698 33.6231 51.6864 33.2809 52.4069 32.6583C53.1273 32.0356 53.6041 31.1733 53.7514 30.2268L55.0851 21.632H57.9406L58.5879 17.5168H55.7324L55.888 16.5387Z" fill="#F04935"/>
<path d="M56.4737 12.8435H50.8578L50.2968 16.5386H55.8869L56.4737 12.8435Z" fill="#F04935"/>
<path d="M12.3012 3.72112C12.2951 3.24656 12.3845 2.77569 12.5641 2.33719C12.7437 1.89869 13.0098 1.50175 13.346 1.17053C13.673 0.826265 14.0667 0.553875 14.5026 0.370385C14.9384 0.186894 15.407 0.0962476 15.8791 0.104109C16.9205 0.104109 17.7865 0.446753 18.477 1.13204C19.1676 1.81733 19.5129 2.68036 19.5129 3.72112C19.522 4.20492 19.4331 4.68548 19.2517 5.13326C19.0703 5.58104 18.8002 5.98657 18.458 6.32492C18.1233 6.67084 17.7222 6.94389 17.2793 7.12729C16.8363 7.31068 16.361 7.40054 15.8824 7.39135C15.4096 7.39886 14.9404 7.30717 14.5044 7.12206C14.0684 6.93694 13.6751 6.66243 13.3494 6.31587C13.0108 5.977 12.7435 5.5725 12.5634 5.12662C12.3833 4.68075 12.2941 4.20269 12.3012 3.72112Z" fill="#F04935"/>
<path d="M3.21053 23.253C2.77268 23.3153 2.41098 23.3662 2.08287 23.5462C1.76479 23.6938 1.49191 23.9253 1.29289 24.2163C1.09387 24.5074 0.976064 24.8472 0.951851 25.2002L2.26092 35.2916L2.57559 37.8399C2.58744 38.004 2.61787 38.1662 2.6663 38.3233C2.70595 38.4496 2.76367 38.5694 2.83763 38.6788C2.98589 38.8994 3.19065 39.0751 3.43001 39.1871C3.68379 39.3041 3.96029 39.3621 4.23916 39.3568C4.51803 39.3515 4.79218 39.2831 5.04144 39.1565C5.26953 39.0469 5.46335 38.8758 5.60162 38.6622C5.7399 38.4485 5.81729 38.2004 5.82531 37.9452L4.75924 27.8787L4.64726 26.7953L5.72565 26.6821L11.9429 26.013L13.4983 25.8557C13.9335 25.8187 14.363 25.731 14.7783 25.5942C15.5252 25.327 15.9261 24.8911 16.2083 24.0681C16.4647 23.3017 16.5857 22.1515 16.7962 21.1428L17.3449 18.0295L18.4435 11.8031L18.7189 10.2714C18.7972 9.86034 18.8006 9.43833 18.729 9.02607C18.7079 8.87517 18.6544 8.73078 18.5722 8.60306C18.49 8.47534 18.381 8.36739 18.2531 8.28682C17.9888 8.1204 17.5734 8.03889 17.1333 8.0287C15.2889 8.0004 13.3505 8.77814 12.131 10.2714C11.5052 11.0179 11.0529 11.8969 10.8074 12.8435C10.6941 13.3531 10.6107 13.8691 10.5577 14.3888L10.3449 15.9873L9.49608 22.1979C7.83315 22.5851 6.14894 22.7922 4.47481 23.0617L3.21053 23.253Z" fill="#F04935"/>
<path d="M26.6383 8.95251H21.2889L20.6976 12.7269L20.654 13.0031L20.2576 15.4563C19.766 18.513 19.2576 21.6692 18.7245 24.7757C18.3886 26.7399 16.9328 28.1029 14.9171 28.335C13.8701 28.4561 12.5554 28.6033 7.88466 28.7369L9.13998 34.146C12.8802 34.1278 14.8186 33.7735 15.2822 33.7033C20.0437 32.981 23.0997 30.315 23.8869 26.1965C24.5588 22.6994 25.1019 19.1311 25.6394 15.6182C25.8186 14.4462 25.9996 13.2737 26.1825 12.1008C26.1915 12.0476 26.1881 11.9978 26.1937 11.9457L26.6383 8.95251Z" fill="#F04935"/>
</g>
<defs>
<clipPath id="clip0_1270_48546">
<rect width="81" height="40" fill="white"/>
</clipPath>
</defs>
</svg>
