<svg width="20" height="20" viewBox="0 0 20 20" fill="none" xmlns="http://www.w3.org/2000/svg">
<g clip-path="url(#clip0_1546_23745)">
<path d="M9.16663 17.5C9.16663 17.1685 9.03493 16.8505 8.80051 16.6161C8.56609 16.3817 8.24815 16.25 7.91663 16.25C7.58511 16.25 7.26716 16.3817 7.03274 16.6161C6.79832 16.8505 6.66663 17.1685 6.66663 17.5H2.49996C2.27895 17.5 2.06698 17.4122 1.9107 17.2559C1.75442 17.0996 1.66663 16.8877 1.66663 16.6667V3.33333C1.66663 3.11232 1.75442 2.90036 1.9107 2.74408C2.06698 2.5878 2.27895 2.5 2.49996 2.5H6.66663C6.66663 2.83152 6.79832 3.14946 7.03274 3.38388C7.26716 3.6183 7.58511 3.75 7.91663 3.75C8.24815 3.75 8.56609 3.6183 8.80051 3.38388C9.03493 3.14946 9.16663 2.83152 9.16663 2.5H17.5C17.721 2.5 17.9329 2.5878 18.0892 2.74408C18.2455 2.90036 18.3333 3.11232 18.3333 3.33333V7.91667C17.7808 7.91667 17.2509 8.13616 16.8602 8.52686C16.4695 8.91756 16.25 9.44747 16.25 10C16.25 10.5525 16.4695 11.0824 16.8602 11.4731C17.2509 11.8638 17.7808 12.0833 18.3333 12.0833V16.6667C18.3333 16.8877 18.2455 17.0996 18.0892 17.2559C17.9329 17.4122 17.721 17.5 17.5 17.5H9.16663ZM7.91663 8.75C8.24815 8.75 8.56609 8.6183 8.80051 8.38388C9.03493 8.14946 9.16663 7.83152 9.16663 7.5C9.16663 7.16848 9.03493 6.85054 8.80051 6.61612C8.56609 6.3817 8.24815 6.25 7.91663 6.25C7.58511 6.25 7.26716 6.3817 7.03274 6.61612C6.79832 6.85054 6.66663 7.16848 6.66663 7.5C6.66663 7.83152 6.79832 8.14946 7.03274 8.38388C7.26716 8.6183 7.58511 8.75 7.91663 8.75ZM7.91663 13.75C8.24815 13.75 8.56609 13.6183 8.80051 13.3839C9.03493 13.1495 9.16663 12.8315 9.16663 12.5C9.16663 12.1685 9.03493 11.8505 8.80051 11.6161C8.56609 11.3817 8.24815 11.25 7.91663 11.25C7.58511 11.25 7.26716 11.3817 7.03274 11.6161C6.79832 11.8505 6.66663 12.1685 6.66663 12.5C6.66663 12.8315 6.79832 13.1495 7.03274 13.3839C7.26716 13.6183 7.58511 13.75 7.91663 13.75Z" fill="white"/>
</g>
<defs>
<clipPath id="clip0_1546_23745">
<rect width="20" height="20" fill="white"/>
</clipPath>
</defs>
</svg>
