<svg width="108" height="129" viewBox="0 0 108 129" fill="none" xmlns="http://www.w3.org/2000/svg">
<g clip-path="url(#clip0_9_221)">
<mask id="mask0_9_221" style="mask-type:luminance" maskUnits="userSpaceOnUse" x="-20" y="-3" width="136" height="132">
<path d="M116 -3H-20V129H116V-3Z" fill="white"/>
</mask>
<g mask="url(#mask0_9_221)">
<mask id="mask1_9_221" style="mask-type:luminance" maskUnits="userSpaceOnUse" x="-737" y="-1261" width="1440" height="1767">
<path d="M703 -1261H-737V506H703V-1261Z" fill="white"/>
</mask>
<g mask="url(#mask1_9_221)">
<path d="M703 -1261H-737V506H703V-1261Z" fill="white"/>
<mask id="mask2_9_221" style="mask-type:luminance" maskUnits="userSpaceOnUse" x="-19" y="-37" width="132" height="166">
<path d="M113 -37H-19V129H113V-37Z" fill="white"/>
</mask>
<g mask="url(#mask2_9_221)">
<path d="M0.998899 7L2.1807 10.8205H6L2.9097 13.1795L4.0892 17L0.998899 14.6387L-2.0892 17L-0.9097 13.1795L-4 10.8205H-0.1807L0.998899 7Z" fill="#FEF2F0"/>
<path d="M96.499 4L95.435 7.0564H91.998L94.779 8.9436L93.718 12L96.499 10.1109L99.278 12L98.217 8.9436L100.998 7.0564H97.561L96.499 4Z" fill="#FEF2F0"/>
<path d="M17.5011 21L18.3266 23.2927H21L18.8367 24.7073L19.6644 27L17.5011 25.5834L15.3378 27L16.1633 24.7073L14 23.2927H16.6734L17.5011 21Z" fill="#FEF2F0"/>
<path d="M82.997 16L82.29 17.9106H79.998L81.852 19.0894L81.143 21L82.997 19.8195L84.851 21L84.144 19.0894L85.998 17.9106H83.707L82.997 16Z" fill="#FEF2F0"/>
<path d="M31.0756 9C32.28 9.9853 33.04 11.4293 33.04 13.0434C33.04 16.0094 30.4689 18.4142 27.2978 18.4142C27.1993 18.4142 27.0985 18.4121 27 18.408C27.7599 18.7849 28.6272 19 29.5469 19C32.5582 19 35 16.7161 35 13.8996C35 11.5789 33.3422 9.6206 31.0734 9.0021L31.0756 9Z" fill="#FEF2F0"/>
<path d="M71.9414 6C71.038 6.7882 70.4681 7.9435 70.4681 9.2347C70.4681 11.6075 72.3963 13.5313 74.7747 13.5313C74.8486 13.5313 74.9241 13.5297 74.998 13.5264C74.4281 13.8279 73.7777 14 73.0878 14C70.8294 14 68.998 12.1729 68.998 9.9197C68.998 8.0631 70.2414 6.4965 71.943 6.0016L71.9414 6Z" fill="#FEF2F0"/>
<path fill-rule="evenodd" clip-rule="evenodd" d="M17.4 -24V23H17V-24H17.4Z" fill="#FEF2F0"/>
<path fill-rule="evenodd" clip-rule="evenodd" d="M82.996 -27V20H83.396V-27H82.996Z" fill="#FEF2F0"/>
<path fill-rule="evenodd" clip-rule="evenodd" d="M32.4 -24V10H32V-24H32.4Z" fill="#FEF2F0"/>
<path fill-rule="evenodd" clip-rule="evenodd" d="M69.9965 -24V10H70.3965V-24H69.9965Z" fill="#FEF2F0"/>
<path fill-rule="evenodd" clip-rule="evenodd" d="M8.4 -12V41H8V-12H8.4Z" fill="#FEF2F0"/>
<path fill-rule="evenodd" clip-rule="evenodd" d="M6.1893 44.7943H10.8107C10.7643 43.3498 9.7436 42.2057 8.5011 42.2057H8.4989C7.2564 42.2057 6.2357 43.3498 6.1893 44.7943ZM6 44.8972C6 43.3024 7.1133 42 8.4989 42H8.5011C9.8867 42 11 43.3024 11 44.8972V45H6V44.8972Z" fill="#FEF2F0"/>
<path fill-rule="evenodd" clip-rule="evenodd" d="M91.847 34.8629H88.149C88.187 33.8999 89.003 33.1371 89.997 33.1371H89.999C90.993 33.1371 91.809 33.8999 91.847 34.8629ZM91.998 34.9314C91.998 33.8682 91.107 33 89.999 33H89.997C88.889 33 87.998 33.8682 87.998 34.9314V35H91.998V34.9314Z" fill="#FEF2F0"/>
<path fill-rule="evenodd" clip-rule="evenodd" d="M5.7893 45H11.3503V46.7968L13 48H4L5.7893 46.795V45ZM5.9793 45.1511V46.8651L4.5185 47.8489H12.5116L11.1602 46.8633V45.1511H5.9793Z" fill="#FEF2F0"/>
<path fill-rule="evenodd" clip-rule="evenodd" d="M92.606 35H88.281V36.7968L86.998 38H93.998L92.606 36.795V35ZM92.459 35.1511V36.8651L93.595 37.8489H87.378L88.429 36.8633V35.1511H92.459Z" fill="#FEF2F0"/>
<path fill-rule="evenodd" clip-rule="evenodd" d="M4 56H13L11.2102 57.5296V58H5.6477V57.5273L4 56ZM4.488 56.1918L5.8378 57.443V57.8082H11.0202V57.4406L12.4814 56.1918H4.488Z" fill="#FEF2F0"/>
<path fill-rule="evenodd" clip-rule="evenodd" d="M93.998 44H86.998L88.39 45.5296V46H92.716V45.5273L93.998 44ZM93.619 44.1918L92.569 45.443V45.8082H88.538V45.4406L87.401 44.1918H93.619Z" fill="#FEF2F0"/>
<path fill-rule="evenodd" clip-rule="evenodd" d="M8 41.1094C7.5686 41.1094 7.2189 41.2843 7.2189 41.5C7.2189 41.7157 7.5686 41.8906 8 41.8906C8.4314 41.8906 8.7811 41.7157 8.7811 41.5C8.7811 41.2843 8.4314 41.1094 8 41.1094ZM7 41.5C7 41.2239 7.4477 41 8 41C8.5523 41 9 41.2239 9 41.5C9 41.7761 8.5523 42 8 42C7.4477 42 7 41.7761 7 41.5Z" fill="#FEF2F0"/>
<path fill-rule="evenodd" clip-rule="evenodd" d="M90.998 32.1094C91.429 32.1094 91.779 32.2843 91.779 32.5C91.779 32.7157 91.429 32.8906 90.998 32.8906C90.567 32.8906 90.217 32.7157 90.217 32.5C90.217 32.2843 90.567 32.1094 90.998 32.1094ZM91.998 32.5C91.998 32.2239 91.55 32 90.998 32C90.446 32 89.998 32.2239 89.998 32.5C89.998 32.7761 90.446 33 90.998 33C91.55 33 91.998 32.7761 91.998 32.5Z" fill="#FEF2F0"/>
<path fill-rule="evenodd" clip-rule="evenodd" d="M4 49L12.9684 49.0098L13 56H4.0384L4 49ZM4.1925 49.1679L4.2291 55.8323H12.8076L12.7776 49.1773L4.1925 49.1679Z" fill="#FEF2F0"/>
<path fill-rule="evenodd" clip-rule="evenodd" d="M93.998 39L87.023 39.007L86.998 44H93.968L93.998 39ZM93.848 39.1199L93.82 43.8802H87.148L87.171 39.1266L93.848 39.1199Z" fill="#FEF2F0"/>
<path fill-rule="evenodd" clip-rule="evenodd" d="M11 49L12 49.7706V55.2294L11 56L10 55.2294V49.7706L11 49ZM10.1598 49.8642V55.1358L11 55.7833L11.8402 55.1358V49.8642L11 49.2167L10.1598 49.8642Z" fill="#FEF2F0"/>
<path fill-rule="evenodd" clip-rule="evenodd" d="M88.498 39L87.998 39.5505V43.4495L88.498 44L88.998 43.4495V39.5505L88.498 39ZM88.918 39.6173V43.3827L88.498 43.8452L88.078 43.3827V39.6173L88.498 39.1548L88.918 39.6173Z" fill="#FEF2F0"/>
<path fill-rule="evenodd" clip-rule="evenodd" d="M8.5 49L10 49.7706V55.2294L8.5 56L7 55.2294V49.7706L8.5 49ZM7.2397 49.8642V55.1358L8.5 55.7833L9.7603 55.1358V49.8642L8.5 49.2167L7.2397 49.8642Z" fill="#FEF2F0"/>
<path fill-rule="evenodd" clip-rule="evenodd" d="M90.498 39L88.998 39.5505V43.4495L90.498 44L91.998 43.4495V39.5505L90.498 39ZM91.758 39.6173V43.3827L90.498 43.8452L89.238 43.3827V39.6173L90.498 39.1548L91.758 39.6173Z" fill="#FEF2F0"/>
<path fill-rule="evenodd" clip-rule="evenodd" d="M5.999 49L7 49.7706V55.2294L5.999 56L5 55.2294V49.7706L5.999 49ZM5.9991 49.2166L5.1596 49.8642V55.1358L5.9991 55.7834L6.8404 55.1358V49.8642L5.9991 49.2166Z" fill="#FEF2F0"/>
<path fill-rule="evenodd" clip-rule="evenodd" d="M92.499 39L91.998 39.5504V43.4496L92.499 44L92.998 43.4496V39.5504L92.499 39ZM92.498 39.1547L92.918 39.6173V43.3827L92.498 43.8453L92.078 43.3827V39.6173L92.498 39.1547Z" fill="#FEF2F0"/>
<path fill-rule="evenodd" clip-rule="evenodd" d="M1.1513 29.9316H4.8487C4.8117 29.4495 3.994 29.0684 3 29.0684C2.0061 29.0684 1.1884 29.4504 1.1513 29.9316ZM1 29.9658C1 29.4348 1.8916 29 3 29C4.1083 29 5 29.4337 5 29.9658V30H1V29.9658Z" fill="#FEF2F0"/>
<path fill-rule="evenodd" clip-rule="evenodd" d="M96.847 22.9316H93.149C93.186 22.4495 94.004 22.0684 94.998 22.0684C95.992 22.0684 96.81 22.4504 96.847 22.9316ZM96.998 22.9658C96.998 22.4348 96.106 22 94.998 22C93.89 22 92.998 22.4337 92.998 22.9658V23H96.998V22.9658Z" fill="#FEF2F0"/>
<path fill-rule="evenodd" clip-rule="evenodd" d="M1.1937 30H4.9021V31.7975L6 33H0L1.1937 31.7956V30ZM1.3202 30.1509V31.8656L0.3454 32.8491H5.6752L4.7757 31.8638V30.1509H1.3202Z" fill="#FEF2F0"/>
<path fill-rule="evenodd" clip-rule="evenodd" d="M96.003 23H92.913V24.1983L91.998 25H96.998L96.003 24.1971V23ZM95.898 23.1006V24.2437L96.71 24.8994H92.269L93.018 24.2425V23.1006H95.898Z" fill="#FEF2F0"/>
<path fill-rule="evenodd" clip-rule="evenodd" d="M0 39H6L4.8061 40.5262V41H1.1V40.5239L0 39ZM0.3256 39.1915L1.2265 40.4395V40.8085H4.6797V40.4372L5.6541 39.1915H0.3256Z" fill="#FEF2F0"/>
<path fill-rule="evenodd" clip-rule="evenodd" d="M96.998 30H91.998L92.993 31.5262V32H96.081V31.5239L96.998 30ZM96.727 30.1915L95.976 31.4395V31.8085H93.098V31.4372L92.286 30.1915H96.727Z" fill="#FEF2F0"/>
<path fill-rule="evenodd" clip-rule="evenodd" d="M3.5 27.2186C3.2842 27.2186 3.1093 27.5685 3.1093 28C3.1093 28.4315 3.2842 28.7814 3.5 28.7814C3.7158 28.7814 3.8907 28.4315 3.8907 28C3.8907 27.5685 3.7158 27.2186 3.5 27.2186ZM3 28C3 27.4477 3.2239 27 3.5 27C3.7761 27 4 27.4477 4 28C4 28.5523 3.7761 29 3.5 29C3.2239 29 3 28.5523 3 28Z" fill="#FEF2F0"/>
<path fill-rule="evenodd" clip-rule="evenodd" d="M94.498 21.1093C94.714 21.1093 94.889 21.2842 94.889 21.5C94.889 21.7158 94.714 21.8907 94.498 21.8907C94.282 21.8907 94.107 21.7158 94.107 21.5C94.107 21.2842 94.282 21.1093 94.498 21.1093ZM94.998 21.5C94.998 21.2239 94.774 21 94.498 21C94.222 21 93.998 21.2239 93.998 21.5C93.998 21.7761 94.222 22 94.498 22C94.774 22 94.998 21.7761 94.998 21.5Z" fill="#FEF2F0"/>
<path fill-rule="evenodd" clip-rule="evenodd" d="M0 33L5.9789 33.0086L6 38.9978L0.0249996 39L0 33ZM0.128099 33.1436L0.151899 38.8565L5.872 38.8544L5.8518 33.1519L0.128099 33.1436Z" fill="#FEF2F0"/>
<path fill-rule="evenodd" clip-rule="evenodd" d="M96.998 25L92.016 25.0072L91.998 29.9982L96.977 30L96.998 25ZM96.891 25.1197L96.871 29.8804L92.105 29.8787L92.122 25.1266L96.891 25.1197Z" fill="#FEF2F0"/>
<path fill-rule="evenodd" clip-rule="evenodd" d="M4.9988 33L6 33.6581V38.3394L4.9988 39L4 38.3394V33.6582L4.9988 33ZM4.9989 33.1852L4.1594 33.7384V38.2594L4.9989 38.8146L5.8406 38.2593V33.7384L4.9989 33.1852Z" fill="#FEF2F0"/>
<path fill-rule="evenodd" clip-rule="evenodd" d="M92.999 25L91.998 25.5485V29.4495L92.999 30L93.998 29.4495V25.5485L92.999 25ZM92.999 25.1543L93.839 25.6153V29.3828L92.999 29.8455L92.157 29.3828V25.6154L92.999 25.1543Z" fill="#FEF2F0"/>
<path fill-rule="evenodd" clip-rule="evenodd" d="M3.0012 33L4 33.6582V38.3394L3.0012 39L2 38.3394V33.6581L3.0012 33ZM2.1594 33.7384V38.2593L3.0011 38.8146L3.8406 38.2594V33.7384L3.0011 33.1852L2.1594 33.7384Z" fill="#FEF2F0"/>
<path fill-rule="evenodd" clip-rule="evenodd" d="M94.997 25L93.998 25.5485V29.4495L94.997 30L95.998 29.4495V25.5485L94.997 25ZM95.839 25.6154V29.3828L94.997 29.8455L94.157 29.3828V25.6153L94.997 25.1543L95.839 25.6154Z" fill="#FEF2F0"/>
<path fill-rule="evenodd" clip-rule="evenodd" d="M1.0012 33L2 33.6582V38.3394L1.0012 39L0 38.3394V33.6581L1.0012 33ZM0.159401 33.7384V38.2593L1.0011 38.8146L1.8406 38.2594V33.7384L1.0011 33.1852L0.159401 33.7384Z" fill="#FEF2F0"/>
<path fill-rule="evenodd" clip-rule="evenodd" d="M96.497 25L95.998 25.5485V29.4495L96.497 30L96.998 29.4495V25.5485L96.497 25ZM96.918 25.6154V29.3828L96.497 29.8455L96.078 29.3828V25.6153L96.497 25.1543L96.918 25.6154Z" fill="#FEF2F0"/>
<mask id="mask3_9_221" style="mask-type:luminance" maskUnits="userSpaceOnUse" x="98" y="-4" width="11" height="45">
<path d="M108.998 -4H98.998V41H108.998V-4Z" fill="white"/>
</mask>
<g mask="url(#mask3_9_221)">
<path d="M99.583 30.1074V34.7106H99.499C99.294 34.7106 99.129 34.8692 99.129 35.0655V35.3247C99.129 35.521 99.294 35.6796 99.499 35.6796H99.62C99.421 36.9379 100.127 37.9673 100.789 38.3524C101.515 38.7727 103.932 39.6158 103.998 40.995C104.063 39.6158 106.48 38.7727 107.206 38.3524C107.868 37.9673 108.575 36.9379 108.375 35.6796H108.496C108.701 35.6796 108.866 35.521 108.866 35.3247V35.0655C108.866 34.8692 108.701 34.7106 108.496 34.7106H108.412V30.1074H108.464C108.685 30.1074 108.866 29.9363 108.866 29.7223V29.5235C108.866 29.3121 108.687 29.1384 108.464 29.1384H108.375C108.575 27.8801 107.868 26.8507 107.206 26.4656C106.575 26.1007 104.673 25.4161 104.137 24.339C104.379 24.2785 104.557 24.0722 104.557 23.8205C104.557 23.5235 104.308 23.2844 103.998 23.2844C103.687 23.2844 103.438 23.5235 103.438 23.8205C103.438 24.0697 103.617 24.2785 103.858 24.339C103.322 25.4161 101.42 26.0982 100.789 26.4656C100.127 26.8507 99.421 27.8801 99.62 29.1384H99.531C99.31 29.1384 99.129 29.3096 99.129 29.5235V29.7223C99.129 29.9338 99.308 30.1074 99.531 30.1074H99.583ZM105.803 31.7408C105.803 31.3884 105.879 31.4136 105.937 31.4136H105.976L105.96 31.3532C105.931 31.2425 105.931 31.1292 105.96 31.021C106.013 30.8373 106.149 30.6737 106.325 30.5881C106.383 30.5604 106.496 30.5 106.593 30.422C106.678 30.3541 106.733 30.2886 106.762 30.2181C106.79 30.2861 106.848 30.3541 106.93 30.422C107.027 30.5 107.14 30.5604 107.198 30.5881C107.374 30.6737 107.51 30.8348 107.563 31.021C107.594 31.1317 107.594 31.2425 107.563 31.3532L107.547 31.4136H107.587C107.644 31.4136 107.721 31.3884 107.721 31.7408V34.7081H105.8V31.7408H105.803ZM103.039 31.7408C103.039 31.3884 103.115 31.4136 103.173 31.4136H103.212L103.196 31.3532C103.167 31.2425 103.167 31.1292 103.196 31.021C103.249 30.8373 103.385 30.6737 103.561 30.5881C103.619 30.5604 103.732 30.5 103.829 30.422C103.913 30.3541 103.969 30.2886 103.998 30.2181C104.026 30.2861 104.084 30.3541 104.166 30.422C104.263 30.5 104.376 30.5604 104.434 30.5881C104.61 30.6737 104.746 30.8348 104.799 31.021C104.83 31.1317 104.83 31.2425 104.799 31.3532L104.783 31.4136H104.823C104.88 31.4136 104.957 31.3884 104.957 31.7408V34.7081H103.036V31.7408H103.039ZM100.274 31.7408C100.274 31.3884 100.351 31.4136 100.408 31.4136H100.448L100.432 31.3532C100.403 31.2425 100.403 31.1292 100.432 31.021C100.485 30.8373 100.621 30.6737 100.797 30.5881C100.855 30.5604 100.968 30.5 101.065 30.422C101.149 30.3541 101.205 30.2886 101.233 30.2181C101.262 30.2861 101.32 30.3541 101.402 30.422C101.499 30.5 101.612 30.5604 101.67 30.5881C101.846 30.6737 101.982 30.8348 102.035 31.021C102.066 31.1317 102.066 31.2425 102.035 31.3532L102.019 31.4136H102.058C102.116 31.4136 102.192 31.3884 102.192 31.7408V34.7081H100.272V31.7408H100.274Z" stroke="#FDE5E2" stroke-width="0.2" stroke-miterlimit="10"/>
<path d="M103.704 -1.18869C103.704 -1.31199 103.785 -1.41519 103.898 -1.45299V-2.02429C103.898 -2.02429 103.888 -2.02679 103.882 -2.02929C103.864 -2.03689 103.848 -2.04689 103.833 -2.05449C103.817 -2.06449 103.801 -2.07709 103.791 -2.08969C103.777 -2.10229 103.764 -2.11739 103.754 -2.13249C103.743 -2.14759 103.735 -2.16519 103.727 -2.18029C103.72 -2.19789 103.714 -2.21299 103.712 -2.23319C103.709 -2.25079 103.706 -2.26839 103.706 -2.28849C103.706 -2.30619 103.706 -2.32629 103.712 -2.34389C103.712 -2.36149 103.72 -2.37909 103.727 -2.39679C103.735 -2.41439 103.746 -2.42949 103.754 -2.44459C103.764 -2.45969 103.777 -2.47479 103.791 -2.48739C103.801 -2.49989 103.817 -2.51249 103.833 -2.52259C103.848 -2.53269 103.867 -2.54019 103.882 -2.54779C103.901 -2.55529 103.919 -2.56029 103.938 -2.56539C103.977 -2.57289 104.016 -2.57289 104.053 -2.56539C104.072 -2.56289 104.09 -2.55529 104.108 -2.54779C104.127 -2.54269 104.143 -2.53269 104.158 -2.52259C104.174 -2.51249 104.19 -2.49989 104.203 -2.48739C104.214 -2.47479 104.229 -2.45969 104.237 -2.44459C104.25 -2.42949 104.256 -2.41189 104.263 -2.39679C104.271 -2.37909 104.277 -2.36399 104.282 -2.34389C104.282 -2.32629 104.284 -2.30869 104.284 -2.28849C104.284 -2.21299 104.253 -2.14259 104.2 -2.08969C104.169 -2.05949 104.132 -2.03939 104.09 -2.02429V-1.45299C104.206 -1.41519 104.287 -1.31199 104.287 -1.18869C104.287 -1.06539 104.206 -0.962189 104.09 -0.924389V-0.350589C104.206 -0.312889 104.287 -0.209689 104.287 -0.0863898C104.287 0.0370102 104.206 0.140211 104.09 0.177911V0.74921C104.206 0.78701 104.287 0.890211 104.287 1.01351C104.287 1.13681 104.206 1.24001 104.09 1.27771V1.84901C104.206 1.88681 104.287 1.99001 104.287 2.11331C104.287 2.13341 104.284 2.15611 104.279 2.17621C104.269 2.23161 104.24 2.27941 104.2 2.31971C104.169 2.34991 104.132 2.37001 104.09 2.38511V2.94891C104.206 2.98661 104.287 3.09231 104.287 3.21311C104.287 3.21311 104.287 3.21311 104.287 3.21571C104.287 3.21571 104.287 3.21571 104.287 3.21821C104.287 3.34151 104.206 3.44471 104.09 3.48241V4.04871C104.206 4.08651 104.287 4.18971 104.287 4.31301C104.287 4.31301 104.287 4.31301 104.287 4.31551C104.287 4.31551 104.287 4.31551 104.287 4.31801C104.287 4.43881 104.206 4.54451 104.09 4.58231V5.14601C104.206 5.18381 104.287 5.28701 104.287 5.41031C104.287 5.41031 104.287 5.41031 104.287 5.41281C104.287 5.41281 104.287 5.41281 104.287 5.41531C104.287 5.53861 104.206 5.64181 104.09 5.67961V6.24331C104.206 6.28111 104.287 6.38431 104.287 6.50761C104.287 6.50761 104.287 6.50761 104.287 6.51011C104.287 6.51011 104.287 6.51011 104.287 6.51261C104.287 6.63601 104.206 6.73911 104.09 6.77691V7.3407C104.206 7.3784 104.287 7.4841 104.287 7.6049C104.287 7.6049 104.287 7.6049 104.287 7.6074C104.287 7.6074 104.287 7.6074 104.287 7.61C104.287 7.7333 104.206 7.8365 104.09 7.8742V8.4405C104.206 8.4782 104.287 8.5814 104.287 8.7048C104.287 8.7048 104.287 8.7048 104.287 8.7073C104.287 8.7073 104.287 8.7073 104.287 8.7098C104.287 8.8331 104.206 8.9363 104.09 8.974V9.5378C104.206 9.5756 104.287 9.6787 104.287 9.8021C104.287 9.8021 104.287 9.8021 104.287 9.8046C104.287 9.8046 104.287 9.8046 104.287 9.8071C104.287 9.9304 104.206 10.0336 104.09 10.0714V10.6351C104.206 10.6729 104.287 10.7761 104.287 10.8994C104.287 10.8994 104.287 10.8994 104.287 10.9019C104.287 10.9019 104.287 10.9019 104.287 10.9044C104.287 11.0277 104.206 11.1309 104.09 11.1687V11.735C104.206 11.7727 104.287 11.8759 104.287 11.9992C104.287 12.1225 104.206 12.2257 104.09 12.2635V12.8298C104.206 12.8675 104.287 12.9707 104.287 13.094C104.287 13.094 104.287 13.094 104.287 13.0965C104.287 13.0965 104.287 13.0965 104.287 13.099C104.287 13.2224 104.206 13.3256 104.09 13.3633V13.9271C104.206 13.9648 104.287 14.068 104.287 14.1913C104.287 14.1913 104.287 14.1913 104.287 14.1938C104.287 14.1938 104.287 14.1938 104.287 14.1964C104.287 14.3197 104.206 14.4229 104.09 14.4606V15.0244C104.206 15.0621 104.287 15.1678 104.287 15.2886C104.287 15.2886 104.287 15.2886 104.287 15.2912C104.287 15.2912 104.287 15.2912 104.287 15.2937C104.287 15.417 104.206 15.5202 104.09 15.5579V16.1242C104.206 16.162 104.287 16.2652 104.287 16.3885C104.287 16.3885 104.287 16.3885 104.287 16.391C104.287 16.391 104.287 16.391 104.287 16.3935C104.287 16.5143 104.206 16.62 104.09 16.6578V17.2215C104.206 17.2593 104.287 17.3625 104.287 17.4858C104.287 17.4858 104.287 17.4858 104.287 17.4883C104.287 17.4883 104.287 17.4883 104.287 17.4908C104.287 17.6141 104.206 17.7173 104.09 17.7551V18.3188C104.132 18.3339 104.169 18.3541 104.2 18.3843C104.235 18.4195 104.258 18.4623 104.274 18.5101C104.282 18.5353 104.287 18.563 104.287 18.5907C104.287 18.714 104.206 18.8172 104.09 18.8549V19.4262C104.206 19.464 104.287 19.5697 104.287 19.6905C104.287 19.8113 104.206 19.917 104.09 19.9548V20.5286C104.206 20.5663 104.287 20.6695 104.287 20.7928C104.287 20.9162 104.206 21.0194 104.09 21.0571V21.6284C104.206 21.6662 104.287 21.7694 104.287 21.8927C104.287 22.016 104.206 22.1192 104.09 22.1569V22.7282C104.132 22.7433 104.169 22.7635 104.2 22.7937C104.253 22.8465 104.284 22.9195 104.284 22.9925C104.284 23.0101 104.284 23.0303 104.282 23.0479C104.277 23.0655 104.271 23.0831 104.263 23.1007C104.256 23.1183 104.248 23.1334 104.237 23.1485C104.227 23.1636 104.214 23.1787 104.203 23.1888C104.19 23.2014 104.174 23.214 104.158 23.224C104.143 23.2341 104.124 23.2417 104.108 23.2492C104.09 23.2568 104.072 23.2618 104.053 23.2643C104.035 23.2668 104.014 23.2694 103.995 23.2694C103.977 23.2694 103.956 23.2694 103.938 23.2643C103.919 23.2643 103.901 23.2568 103.882 23.2492C103.864 23.2417 103.848 23.2316 103.833 23.224C103.817 23.214 103.801 23.2014 103.791 23.1888C103.777 23.1787 103.764 23.1636 103.754 23.1485C103.743 23.1309 103.735 23.1158 103.727 23.1007C103.72 23.0831 103.714 23.0655 103.712 23.0479C103.709 23.0303 103.706 23.0101 103.706 22.9925C103.706 22.9749 103.706 22.9573 103.712 22.9371C103.712 22.9195 103.72 22.9019 103.727 22.8843C103.735 22.8667 103.746 22.8516 103.754 22.8365C103.764 22.8214 103.777 22.8063 103.791 22.7937C103.801 22.7811 103.817 22.7685 103.833 22.761C103.848 22.7509 103.867 22.7433 103.882 22.7358C103.888 22.7358 103.893 22.7333 103.898 22.7308V22.1595C103.785 22.1217 103.704 22.0185 103.704 21.8952C103.704 21.7719 103.785 21.6687 103.898 21.6309V21.0596C103.785 21.0219 103.704 20.9187 103.704 20.7954C103.704 20.672 103.785 20.5688 103.898 20.5311V19.9573C103.785 19.9195 103.704 19.8163 103.704 19.693C103.704 19.5697 103.785 19.469 103.898 19.4287V18.8574C103.785 18.8197 103.704 18.7165 103.704 18.5932C103.704 18.5932 103.704 18.5932 103.704 18.5907C103.704 18.5907 103.704 18.5907 103.704 18.5881C103.704 18.5705 103.704 18.5529 103.709 18.5328C103.709 18.5152 103.717 18.4975 103.725 18.4799C103.733 18.4623 103.743 18.4472 103.751 18.4321C103.762 18.417 103.775 18.4019 103.788 18.3893C103.798 18.3767 103.814 18.3642 103.83 18.3566C103.846 18.3465 103.864 18.339 103.88 18.3314C103.885 18.3314 103.89 18.3289 103.896 18.3264V17.7601C103.783 17.7224 103.701 17.6192 103.701 17.4959C103.701 17.4959 103.701 17.4959 103.701 17.4933C103.701 17.4933 103.701 17.4933 103.701 17.4908C103.701 17.3675 103.783 17.2643 103.896 17.2266V16.6628C103.783 16.6225 103.701 16.5194 103.701 16.3985C103.701 16.3985 103.701 16.3985 103.701 16.396C103.701 16.396 103.701 16.396 103.701 16.3935C103.701 16.2702 103.783 16.167 103.896 16.1293V15.563C103.783 15.5252 103.701 15.422 103.701 15.2987C103.701 15.2987 103.701 15.2987 103.701 15.2962C103.701 15.2962 103.701 15.2962 103.701 15.2937C103.701 15.1729 103.783 15.0697 103.896 15.0294V14.4657C103.783 14.4279 103.701 14.3247 103.701 14.2014C103.701 14.2014 103.701 14.2014 103.701 14.1989C103.701 14.1989 103.701 14.1989 103.701 14.1964C103.701 14.073 103.783 13.9699 103.896 13.9321V13.3683C103.783 13.3306 103.701 13.2274 103.701 13.1041C103.701 13.1041 103.701 13.1041 103.701 13.1016C103.701 13.1016 103.701 13.1016 103.701 13.099C103.701 12.9757 103.783 12.8725 103.896 12.8348V12.2685C103.783 12.2308 103.701 12.1276 103.701 12.0042C103.701 11.8809 103.783 11.7777 103.896 11.74V11.1737C103.783 11.136 103.701 11.0328 103.701 10.9095C103.701 10.9095 103.701 10.9095 103.701 10.9069C103.701 10.9069 103.701 10.9069 103.701 10.9044C103.701 10.7811 103.783 10.6779 103.896 10.6402V10.0764C103.783 10.0386 103.701 9.9355 103.701 9.8121C103.701 9.8121 103.701 9.8121 103.701 9.8096C103.701 9.8096 103.701 9.8096 103.701 9.8071C103.701 9.6838 103.783 9.5806 103.896 9.5428V8.9791C103.783 8.9413 103.701 8.8381 103.701 8.7148C103.701 8.7148 103.701 8.7148 103.701 8.7123C103.701 8.7123 103.701 8.7123 103.701 8.7098C103.701 8.5865 103.783 8.4833 103.896 8.4455V7.8792C103.783 7.8415 103.701 7.7383 103.701 7.615C103.701 7.615 103.701 7.615 103.701 7.6125C103.701 7.6125 103.701 7.6125 103.701 7.61C103.701 7.4891 103.783 7.386 103.896 7.3457V6.78191C103.783 6.74421 103.701 6.64101 103.701 6.51771C103.701 6.51771 103.701 6.51771 103.701 6.51521C103.701 6.51521 103.701 6.51521 103.701 6.51261C103.701 6.38931 103.783 6.28611 103.896 6.24841V5.68461C103.783 5.64691 103.701 5.54371 103.701 5.42041C103.701 5.42041 103.701 5.42041 103.701 5.41781C103.701 5.41781 103.701 5.41781 103.701 5.41531C103.701 5.29201 103.783 5.18881 103.896 5.15111V4.58731C103.783 4.54701 103.701 4.44381 103.701 4.32301C103.701 4.32301 103.701 4.32301 103.701 4.32051C103.701 4.32051 103.701 4.32051 103.701 4.31801C103.701 4.19471 103.783 4.09151 103.896 4.05371V3.48751C103.783 3.44971 103.701 3.34651 103.701 3.22321C103.701 3.22321 103.701 3.22321 103.701 3.22071C103.701 3.22071 103.701 3.22071 103.701 3.21821C103.701 3.09741 103.783 2.99421 103.896 2.95391V2.39021C103.896 2.39021 103.885 2.38761 103.88 2.38511C103.861 2.37761 103.846 2.36751 103.83 2.36001C103.814 2.34991 103.798 2.33731 103.788 2.32471C103.775 2.31211 103.762 2.29701 103.751 2.28191C103.741 2.26681 103.733 2.24921 103.725 2.23411C103.717 2.21651 103.712 2.20141 103.709 2.18131C103.706 2.16361 103.704 2.14601 103.704 2.12591C103.704 2.12591 103.704 2.12591 103.704 2.12341C103.704 2.12341 103.704 2.12341 103.704 2.12091C103.704 1.99751 103.785 1.89431 103.898 1.85661V1.28531C103.785 1.24751 103.704 1.14431 103.704 1.02101C103.704 0.89771 103.785 0.79451 103.898 0.75681V0.18551C103.785 0.14521 103.704 0.0420103 103.704 -0.0787897C103.704 -0.199589 103.785 -0.30529 103.898 -0.34309V-0.916889C103.785 -0.954589 103.704 -1.05779 103.704 -1.18119V-1.18869Z" stroke="#FDE5E2" stroke-width="0.2" stroke-miterlimit="10"/>
</g>
<mask id="mask4_9_221" style="mask-type:luminance" maskUnits="userSpaceOnUse" x="106" y="-4" width="7" height="26">
<path d="M112.998 -4H106.998V22H112.998V-4Z" fill="white"/>
</mask>
<g mask="url(#mask4_9_221)">
<path d="M107.351 15.7066V18.3662H107.3C107.177 18.3662 107.078 18.4578 107.078 18.5712V18.721C107.078 18.8344 107.177 18.926 107.3 18.926H107.373C107.253 19.6531 107.677 20.2478 108.074 20.4703C108.51 20.7132 109.96 21.2003 109.999 21.9972C110.039 21.2003 111.489 20.7132 111.924 20.4703C112.321 20.2478 112.745 19.6531 112.626 18.926H112.698C112.821 18.926 112.92 18.8344 112.92 18.721V18.5712C112.92 18.4578 112.821 18.3662 112.698 18.3662H112.648V15.7066H112.679C112.812 15.7066 112.92 15.6077 112.92 15.4841V15.3692C112.92 15.2471 112.813 15.1467 112.679 15.1467H112.626C112.745 14.4197 112.321 13.8249 111.924 13.6024C111.546 13.3916 110.404 12.9961 110.083 12.3737C110.228 12.3388 110.335 12.2195 110.335 12.0741C110.335 11.9025 110.185 11.7644 109.999 11.7644C109.813 11.7644 109.664 11.9025 109.664 12.0741C109.664 12.2181 109.771 12.3388 109.916 12.3737C109.594 12.9961 108.453 13.3901 108.074 13.6024C107.677 13.8249 107.253 14.4197 107.373 15.1467H107.319C107.187 15.1467 107.078 15.2456 107.078 15.3692V15.4841C107.078 15.6062 107.185 15.7066 107.319 15.7066H107.351ZM111.082 16.6503C111.082 16.4467 111.128 16.4613 111.163 16.4613H111.186L111.177 16.4264C111.16 16.3624 111.16 16.297 111.177 16.2344C111.208 16.1283 111.29 16.0338 111.396 15.9843C111.431 15.9683 111.499 15.9334 111.557 15.8883C111.607 15.8491 111.64 15.8113 111.658 15.7706C111.675 15.8098 111.71 15.8491 111.759 15.8883C111.817 15.9334 111.885 15.9683 111.919 15.9843C112.025 16.0338 112.107 16.1268 112.139 16.2344C112.157 16.2984 112.157 16.3624 112.139 16.4264L112.129 16.4613H112.153C112.187 16.4613 112.233 16.4467 112.233 16.6503V18.3647H111.081L111.082 16.6503ZM109.424 16.6503C109.424 16.4467 109.47 16.4613 109.504 16.4613H109.528L109.518 16.4264C109.501 16.3624 109.501 16.297 109.518 16.2344C109.55 16.1283 109.632 16.0338 109.738 15.9843C109.772 15.9683 109.84 15.9334 109.898 15.8883C109.949 15.8491 109.982 15.8113 109.999 15.7706C110.017 15.8098 110.051 15.8491 110.1 15.8883C110.159 15.9334 110.226 15.9683 110.261 15.9843C110.367 16.0338 110.449 16.1268 110.48 16.2344C110.499 16.2984 110.499 16.3624 110.48 16.4264L110.471 16.4613H110.494C110.529 16.4613 110.575 16.4467 110.575 16.6503V18.3647H109.422V16.6503H109.424ZM107.765 16.6503C107.765 16.4467 107.811 16.4613 107.846 16.4613H107.87L107.86 16.4264C107.843 16.3624 107.843 16.297 107.86 16.2344C107.892 16.1283 107.974 16.0338 108.079 15.9843C108.114 15.9683 108.182 15.9334 108.24 15.8883C108.29 15.8491 108.324 15.8113 108.341 15.7706C108.358 15.8098 108.393 15.8491 108.442 15.8883C108.5 15.9334 108.568 15.9683 108.603 15.9843C108.708 16.0338 108.79 16.1268 108.822 16.2344C108.841 16.2984 108.841 16.3624 108.822 16.4264L108.812 16.4613H108.836C108.871 16.4613 108.916 16.4467 108.916 16.6503V18.3647H107.764L107.765 16.6503Z" stroke="#FDE5E2" stroke-width="0.116364" stroke-miterlimit="10"/>
</g>
<path d="M47.1106 21.8101C48.4519 21.122 49.5938 20.4446 50.5761 19.7779H50.5834C50.3623 19.4464 50.2463 19.0684 50.2463 18.6656C50.2463 17.6352 51.0546 16.7511 52.2437 16.3019L52.849 9.2178C52.3597 8.8613 52.0443 8.298 52.0443 7.6563C52.0443 6.9005 52.4865 6.2445 53.1282 5.9236L53.7227 -1L54.2954 -0.7932L54.8791 5.9236C55.5207 6.2445 55.963 6.8969 55.963 7.6563C55.963 8.298 55.6476 8.8613 55.1582 9.2178L55.7636 16.3019C56.9562 16.7475 57.761 17.6317 57.761 18.6656C57.761 19.0649 57.645 19.4464 57.4239 19.7779C58.4026 20.4446 59.5481 21.122 60.8894 21.8101C72.2612 27.6285 82.346 26.8477 89.549 37.8713C96.752 48.8948 90.412 63.074 90.412 63.074L92.996 63.081C100.736 63.102 107 69.281 107 76.892V129H1V76.892C1 69.281 7.2641 63.102 15.0036 63.081L17.5882 63.074C17.5882 63.074 11.248 48.8913 18.451 37.8713C25.6539 26.8513 35.7388 27.632 47.1106 21.8101Z" fill="#FEF2F0"/>
<mask id="mask5_9_221" style="mask-type:luminance" maskUnits="userSpaceOnUse" x="19" y="37" width="74" height="62">
<path d="M93 37H19V99H93V37Z" fill="white"/>
</mask>
<g mask="url(#mask5_9_221)">
<path d="M43.8152 51.3218C42.9634 51.9674 41.9253 52.3227 40.8922 52.6123C33.6618 54.636 25.6592 53.8192 19 50.3776C22.2529 53.6367 26.804 55.0132 31.4133 55.4585C33.4009 55.6507 35.3941 55.6459 37.3866 55.5291C36.4666 55.9825 35.6304 56.6184 35.0651 57.462C34.4127 58.4345 34.1607 59.7064 34.576 60.7989C34.942 61.7626 35.7847 62.4991 36.7366 62.9176C37.8691 63.415 39.2009 63.496 40.3572 63.055C41.5134 62.6134 42.4653 61.6328 42.7796 60.4477C43.0939 59.2627 42.7246 57.9049 41.7949 57.0953C42.5621 57.1724 43.2949 57.5212 43.5674 58.2342C43.8398 58.9471 43.7717 59.7558 43.5149 60.4745C43.258 61.194 42.8255 61.838 42.3701 62.4536C41.6808 63.385 40.9168 64.279 39.9698 64.953C39.022 65.626 37.8707 66.067 36.7046 66.006C35.5394 65.945 34.3757 65.325 33.8374 64.302C32.7362 64.953 31.653 65.619 30.5517 66.27C31.5438 67.337 32.5212 68.268 33.7865 69C35.0519 69.733 36.488 70.21 37.9536 70.232C39.5078 70.254 41.035 69.766 42.4136 69.055C43.7914 68.343 45.0395 67.413 46.2811 66.487C46.1342 67.682 46.1539 69.842 46.4141 71.018C46.675 72.193 47.4226 73.334 48.5682 73.741C49.516 74.079 50.5745 73.87 51.5207 73.527C53.8931 72.668 55.8781 71.029 57.8099 69.42C57.585 69.042 57.4086 68.657 57.1837 68.279C56.5609 68.641 55.9315 69.153 55.3086 69.514C54.6735 69.884 53.8923 70.261 53.2366 69.928C52.6802 69.646 52.4726 68.063 52.3955 67.45C52.0541 64.737 53.3039 61.8842 55.5392 60.2741C55.5286 62.1584 55.5163 64.049 55.5384 65.696C57.4094 66.641 59.3403 67.659 61.2113 68.605C61.821 66.669 62.8984 63.81 64.2713 62.3028C63.5919 63.528 63.0092 64.748 62.7023 66.113C62.3954 67.477 62.5144 69 63.3457 70.131C63.9899 71.008 65.0049 71.57 66.0668 71.84C67.1287 72.11 68.2414 72.111 69.3353 72.037C76.2941 71.569 82.98 67.998 87.189 62.5015C87.214 61.8972 87.122 61.0974 86.984 60.5078C86.846 59.9181 86.525 59.3454 86 59.0339C85.52 58.7484 84.924 58.7127 84.372 58.8084C83.562 58.9488 82.787 59.3787 82.326 60.0511C81.864 60.7243 81.755 61.6458 82.137 62.366C82.518 63.086 83.415 63.53 84.208 63.314C82.893 64.228 81.752 65.271 80.437 66.185C78.8429 67.291 77.241 68.403 75.4915 69.247C73.7411 70.091 71.8209 70.663 69.8744 70.622C68.7207 70.597 67.5078 70.323 66.6798 69.528C65.8338 68.716 65.5244 67.464 65.6672 66.307C65.81 65.151 66.3557 64.077 67.0146 63.111C68.0026 61.6604 69.2655 60.3934 70.7172 59.3941C68.9217 57.8229 67.2296 56.1293 65.4341 54.559C63.9743 55.5153 62.7655 56.7936 61.9621 58.3323C61.9621 56.9712 61.9088 55.6013 61.9047 54.2394C65.5769 53.1557 69.0169 51.5472 72.1426 49.4481L70.3898 46.8987C64.8457 50.6234 58.2538 52.6471 51.5732 52.7169C52.4636 52.0583 53.1833 51.1952 53.5246 50.1578C54.1401 48.2881 53.3958 46.1711 52.0459 44.7273C50.696 43.2835 48.8283 42.418 46.9401 41.8024C43.9211 40.8185 40.719 40.3862 37.5441 40.5338C36.2008 40.5962 34.8 40.7528 33.5576 40.2458C32.3144 39.7389 31.369 38.1994 31.9476 36.9989C30.5213 38.1288 30.6617 40.4738 31.8319 41.8608C33.002 43.2478 34.8689 43.8529 36.6726 44.1474C38.4755 44.4418 40.335 44.4953 42.064 45.0801C43.6962 45.6317 45.312 46.9238 45.3153 48.6288C45.3169 49.6906 44.6686 50.6753 43.816 51.3209L43.8152 51.3218ZM51.2007 55.8016C52.649 55.8016 54.0982 55.7156 55.5433 55.5461C55.5581 57.0037 55.5499 58.6324 55.5401 60.2668C54.7137 58.8425 53.8742 57.3087 52.814 56.0441C51.0727 57.273 49.3379 58.531 47.5957 59.7599C47.4718 58.8928 47.2035 57.9154 46.9015 57.0921C46.6644 56.4456 46.3082 55.8276 45.8126 55.3522C47.5916 55.6451 50.0395 55.9119 51.2007 55.8V55.8016ZM35.4376 90.41C32.8913 89.609 30.9522 87.343 30.2735 84.789C29.5941 82.235 30.0897 79.456 31.3296 77.116C32.5696 74.777 34.5111 72.852 36.6948 71.33C31.8122 72.022 27.4679 75.676 26.1221 80.366C24.7763 85.056 26.209 90.357 29.5341 93.959C32.8584 97.56 37.4957 99.216 42.4226 98.978L42.5794 88.188C41.0547 90.357 37.9848 91.21 35.4384 90.409L35.4376 90.41ZM92.978 64.962C92.878 64.09 92.362 63.257 91.58 62.8422C90.799 62.4277 89.765 62.4796 89.077 63.034C88.451 63.537 88.169 64.389 88.249 65.184C88.313 65.819 88.585 66.412 88.957 66.929C89.197 67.264 89.307 67.274 89.036 67.59C88.813 67.848 88.474 68.059 88.211 68.277C87.108 69.184 85.974 70.061 84.747 70.8C84.425 70.994 84.082 71.151 83.732 71.289C81.839 72.04 78.0124 72.923 78.0124 72.923C75.9256 73.384 73.8946 73.756 71.9169 74.053C71.8784 74.01 71.8382 73.968 71.7971 73.927C71.482 73.616 71.1012 73.38 70.7246 73.145C69.9754 73.549 69.2417 74.004 68.5295 74.493C66.6552 74.699 64.8318 74.838 63.0593 74.917V74.529C62.2272 74.52 61.4271 74.548 60.595 74.548V74.993C60.1379 75 59.6849 75.003 59.2352 75.003C59.1647 74.593 58.9275 74.222 58.628 73.928C58.3129 73.617 57.9321 73.38 57.5555 73.146C56.6101 73.655 55.691 74.246 54.8072 74.884C51.0103 74.683 47.4817 74.243 44.2083 73.688C44.0515 73.661 43.9087 73.78 43.9087 73.938V81.96C42.9306 80.762 41.6094 79.834 40.1389 79.329C40.0888 79.007 40.0412 78.687 40.0027 78.368C39.7901 76.604 40.0404 74.518 41.5528 73.559C43.0652 72.599 45.051 73.231 46.721 73.886C44.5808 72.835 42.1912 71.611 39.8057 71.468C38.9039 71.414 37.9347 71.447 37.1937 71.958C36.2935 72.581 35.9628 73.784 36.0982 74.862C36.2344 75.939 36.5028 77.052 37.0148 78.013C34.7967 77.469 32.2758 78.928 31.6702 81.107C31.0646 83.285 32.4769 85.813 34.6638 86.467C36.8515 87.121 39.4438 85.79 40.1602 83.644C40.3604 83.044 40.4253 82.426 40.4154 81.8C41.6143 82.054 42.8321 82.424 43.9079 82.993V88.597C44.5193 88.597 44.9197 89.067 45.5286 88.997C45.7723 88.969 46.1326 88.883 46.3722 88.826V75.789C46.7316 75.816 47.0935 75.841 47.4603 75.866V88.596C48.0717 88.596 48.4722 89.067 49.081 88.996C49.3248 88.968 49.685 88.883 49.9246 88.825V76.008C50.9865 76.061 52.0746 76.105 53.1915 76.134C52.9674 76.319 52.7451 76.506 52.5276 76.695C51.8383 77.292 51.1703 77.933 50.7083 78.715C50.2463 79.497 50.0067 80.443 50.2274 81.322C50.49 82.368 51.3574 83.171 52.3093 83.695C53.2612 84.219 54.3198 84.522 55.3152 84.959C55.7518 85.151 56.1842 85.377 56.5773 85.649V88.595C57.1887 88.595 57.5891 89.066 58.198 88.995C58.4417 88.967 58.802 88.882 59.0416 88.824V76.203C59.0473 76.189 59.0531 76.175 59.0588 76.162C59.5668 76.153 60.0772 76.142 60.5934 76.127V88.595C61.2047 88.595 61.6052 89.066 62.2141 88.995C62.4578 88.967 62.818 88.882 63.0576 88.824V76.03C64.2754 75.971 65.517 75.892 66.7791 75.793C66.4098 76.088 66.0488 76.389 65.6959 76.694C65.0066 77.291 64.3386 77.932 63.8766 78.714C63.4146 79.496 63.175 80.442 63.3957 81.321C63.6583 82.367 64.5257 83.17 65.4776 83.694C66.4295 84.218 67.4881 84.521 68.4835 84.958C68.8626 85.125 69.2376 85.317 69.5872 85.542V88.595C70.1986 88.595 70.599 89.065 71.2079 88.994C71.4516 88.966 71.8119 88.881 72.0515 88.823V76.567C72.2476 76.137 72.4364 75.684 72.4241 75.22C74.1556 75.003 75.9231 74.744 77.7219 74.438C76.7027 75.133 75.7254 75.9 74.8088 76.694C74.1194 77.291 73.4515 77.932 72.9895 78.714C72.5275 79.496 72.2878 80.442 72.5086 81.321C72.7712 82.367 73.6386 83.17 74.5905 83.694C75.5424 84.218 76.601 84.521 77.5964 84.958C77.9755 85.125 78.3505 85.317 78.7001 85.542V88.595C79.3114 88.595 79.7119 89.065 80.321 88.994C80.565 88.966 80.925 88.881 81.164 88.823V76.567C81.182 76.53 81.198 76.493 81.214 76.456C82.391 76.31 83.602 76.431 84.723 76.812C85.734 77.157 86.712 77.749 87.239 78.67C87.765 79.592 87.723 80.9 86.932 81.613C87.006 80.529 86.299 79.51 85.278 79.105C84.257 78.7 83.01 78.974 82.225 79.735C81.441 80.497 81.139 81.695 81.426 82.745C81.59 83.345 81.942 83.905 82.456 84.264C82.967 84.622 83.606 84.764 84.233 84.782C85.784 84.825 87.339 84.104 88.296 82.898C88.975 82.043 89.443 81.048 89.372 79.963C89.243 77.992 88.252 76.092 86.703 74.845C85.422 73.814 83.775 73.244 82.124 73.233C84.356 72.469 86.759 71.487 88.187 70.577C89.315 69.859 90.384 69.052 91.381 68.166C92.372 67.283 93.14 66.394 92.975 64.964L92.978 64.962ZM56.5781 84.061C56.1982 83.678 55.7468 83.364 55.2454 83.155C54.6686 82.914 53.976 82.751 53.6814 82.205C53.4524 81.78 53.555 81.241 53.8135 80.835C54.072 80.428 54.4659 80.125 54.8507 79.831C55.3636 79.439 55.9783 79.096 56.5773 78.735V84.062L56.5781 84.061ZM69.5889 83.91C69.2434 83.595 68.8479 83.336 68.4146 83.155C67.8377 82.914 67.1451 82.751 66.8505 82.205C66.6215 81.78 66.7241 81.241 66.9826 80.835C67.2411 80.428 67.635 80.125 68.0199 79.831C68.4884 79.473 69.0399 79.156 69.5889 78.83V83.91ZM78.7025 83.91C78.3571 83.595 77.9615 83.336 77.5282 83.155C76.9514 82.914 76.2588 82.751 75.9642 82.205C75.7352 81.78 75.8378 81.241 76.0963 80.835C76.3548 80.428 76.7487 80.125 77.1335 79.831C77.6021 79.473 78.1536 79.156 78.7025 78.83V83.91ZM65.8436 84.686C64.5799 84.686 63.5558 85.698 63.5558 86.947C63.5558 88.196 64.5799 89.209 65.8436 89.209C67.1073 89.209 68.1315 88.196 68.1315 86.947C68.1315 85.698 67.1073 84.686 65.8436 84.686Z" fill="#EF4136"/>
</g>
<path d="M54.9087 113.513V113.963H54.2445V117.448H53.7575V114.481C53.7069 114.338 53.631 114.216 53.5297 114.114C53.4328 114.013 53.3062 113.963 53.1502 113.963H53.0996V113.513H53.1945C53.2957 113.513 53.4011 113.547 53.5108 113.615C53.6204 113.678 53.709 113.777 53.7764 113.912C53.7722 113.891 53.768 113.842 53.7638 113.766C53.7596 113.691 53.7575 113.625 53.7575 113.57V113.096H54.099L54.2382 113.513H54.9087Z" fill="#F04935"/>
<path d="M49.3566 113.515V113.964H47.946V114.223L47.9143 114.394C47.9228 114.44 47.9291 114.51 47.9333 114.603C47.9418 114.695 47.946 114.797 47.946 114.906V115.735C47.946 115.916 47.9734 116.043 48.0282 116.114C48.083 116.186 48.1842 116.222 48.3318 116.222C48.4879 116.222 48.627 116.192 48.7493 116.133C48.8758 116.074 48.9876 115.998 49.0846 115.906C49.1816 115.817 49.2596 115.714 49.3186 115.596C49.3819 115.478 49.4135 115.359 49.4135 115.241C49.4135 115.123 49.3798 115.047 49.3123 115.014C49.2448 114.976 49.1499 114.957 49.0276 114.957H48.9897C48.8083 114.957 48.6692 114.948 48.5722 114.931C48.4794 114.91 48.3845 114.877 48.2875 114.83C48.2074 114.792 48.1294 114.744 48.0535 114.685C47.9776 114.626 47.9164 114.569 47.8701 114.514L47.9396 114.077C48.0155 114.17 48.0957 114.25 48.18 114.318C48.2686 114.381 48.3719 114.43 48.49 114.463C48.608 114.493 48.7535 114.508 48.9264 114.508H49.034C49.152 114.508 49.2469 114.514 49.3186 114.527C49.3903 114.539 49.4493 114.556 49.4957 114.577C49.5421 114.598 49.5843 114.621 49.6222 114.647C49.7066 114.702 49.7677 114.773 49.8057 114.862C49.8436 114.946 49.8626 115.054 49.8626 115.184C49.8626 115.265 49.8542 115.364 49.8373 115.482C49.8204 115.596 49.7677 115.726 49.6792 115.874C49.5231 116.14 49.3207 116.338 49.0719 116.469C48.8273 116.595 48.568 116.658 48.2939 116.658C48.1505 116.658 48.0282 116.641 47.927 116.608C47.83 116.57 47.7478 116.521 47.6803 116.462C47.6213 116.403 47.5685 116.325 47.5222 116.228C47.48 116.127 47.4589 115.963 47.4589 115.735V113.964H46.877V113.515H49.3566ZM52.7154 115.488C52.7154 115.72 52.6711 115.918 52.5826 116.083C52.494 116.243 52.3781 116.376 52.2347 116.481C52.0913 116.587 51.9311 116.669 51.7539 116.728C51.581 116.783 51.406 116.819 51.2289 116.835L51.0961 116.69C51.328 116.724 51.5515 116.77 51.7666 116.829C51.9859 116.884 52.2094 116.958 52.4371 117.051C52.6648 117.139 52.9031 117.249 53.1519 117.379L52.9305 117.759C52.6016 117.582 52.2642 117.434 51.9184 117.316C51.5768 117.194 51.2226 117.097 50.8557 117.025C50.4931 116.949 50.1177 116.892 49.7298 116.854L49.7867 116.399C49.909 116.424 50.0376 116.445 50.1726 116.462C50.3117 116.479 50.4741 116.488 50.6596 116.488C51.0349 116.488 51.3365 116.439 51.5642 116.342C51.7961 116.245 51.9648 116.121 52.0702 115.969C52.1756 115.813 52.2284 115.653 52.2284 115.488C52.2284 115.265 52.1567 115.094 52.0133 114.976C51.8741 114.858 51.6801 114.799 51.4313 114.799C51.4018 114.799 51.3702 114.801 51.3365 114.805C51.3069 114.805 51.2753 114.809 51.2416 114.818L51.1783 114.406C51.2205 114.402 51.2732 114.4 51.3365 114.4C51.4039 114.396 51.4588 114.394 51.5009 114.394C51.7455 114.394 51.9458 114.432 52.1018 114.508C52.2621 114.579 52.3865 114.672 52.4751 114.786C52.5636 114.9 52.6248 115.02 52.6585 115.147C52.6964 115.273 52.7154 115.387 52.7154 115.488ZM50.2611 116.076C50.122 116.076 50.0018 116.06 49.9006 116.026C49.7994 115.992 49.7171 115.941 49.6539 115.874C49.5948 115.811 49.5463 115.728 49.5084 115.627C49.4704 115.526 49.4514 115.376 49.4514 115.178V114.925L49.4008 114.754V113.913H49.8879V114.141L49.8753 114.438C49.8795 114.489 49.8816 114.543 49.8816 114.603C49.8858 114.657 49.8879 114.721 49.8879 114.792V115.178C49.8879 115.288 49.8963 115.368 49.9132 115.419C49.9343 115.469 49.9596 115.511 49.9891 115.545C50.0524 115.608 50.1557 115.64 50.2991 115.64C50.4804 115.64 50.6364 115.606 50.7672 115.539C50.9021 115.471 51.0054 115.391 51.0771 115.298C51.153 115.201 51.191 115.109 51.191 115.02C51.191 114.94 51.1614 114.889 51.1024 114.868C51.0434 114.847 50.9633 114.837 50.862 114.837H50.8241C50.6048 114.837 50.4087 114.799 50.2358 114.723C50.0629 114.647 49.9195 114.543 49.8057 114.413L49.8879 114.008C49.9596 114.088 50.0355 114.16 50.1156 114.223C50.1958 114.282 50.2949 114.328 50.4129 114.362C50.531 114.392 50.6828 114.406 50.8684 114.406H51.1783C51.2247 114.406 51.2542 114.419 51.2669 114.444C51.2837 114.47 51.3175 114.495 51.3681 114.52C51.4524 114.562 51.5241 114.621 51.5832 114.697C51.6422 114.773 51.6717 114.872 51.6717 114.995C51.6717 115.201 51.6085 115.387 51.4819 115.551C51.3597 115.712 51.191 115.84 50.9759 115.937C50.765 116.03 50.5268 116.076 50.2611 116.076ZM53.2341 113.515V113.964H49.2996V113.515H53.2341Z" fill="#F04935"/>
<path d="M45.0471 117.177C44.773 117.177 44.5157 117.133 44.2754 117.044C44.035 116.956 43.8094 116.808 43.5985 116.601C43.3919 116.395 43.2021 116.121 43.0292 115.779C42.8563 115.437 42.7003 115.014 42.5611 114.508L43.0419 114.381C43.1937 114.938 43.3645 115.387 43.5543 115.728C43.7482 116.066 43.9654 116.313 44.2058 116.469C44.4504 116.62 44.7266 116.696 45.0344 116.696C45.2579 116.696 45.4477 116.656 45.6037 116.576C45.764 116.496 45.8863 116.386 45.9706 116.247C46.055 116.104 46.0971 115.941 46.0971 115.76C46.0971 115.634 46.0845 115.52 46.0592 115.419C46.0339 115.317 45.998 115.227 45.9516 115.147C45.9095 115.062 45.861 114.99 45.8062 114.931L46.1098 114.438C46.27 114.67 46.3881 114.896 46.464 115.115C46.5399 115.334 46.5779 115.551 46.5779 115.766C46.5779 116.032 46.5188 116.272 46.4007 116.488C46.2827 116.698 46.1098 116.867 45.8821 116.994C45.6586 117.116 45.3802 117.177 45.0471 117.177ZM44.8067 115.653C44.541 115.653 44.3323 115.587 44.1805 115.456C44.0287 115.322 43.9528 115.138 43.9528 114.906C43.9528 114.809 43.9675 114.714 43.997 114.621C44.0266 114.525 44.0582 114.442 44.0919 114.375L44.598 114.527C44.5685 114.569 44.541 114.621 44.5157 114.685C44.4904 114.748 44.4778 114.813 44.4778 114.881C44.4778 114.995 44.5094 115.077 44.5727 115.128C44.6359 115.178 44.7182 115.203 44.8194 115.203C44.9079 115.203 44.9965 115.187 45.085 115.153C45.1736 115.119 45.2685 115.054 45.3697 114.957C45.4751 114.856 45.589 114.704 45.7113 114.501L46.1098 114.438L46.0592 114.78C45.9453 114.969 45.8251 115.13 45.6986 115.26C45.5763 115.387 45.4414 115.484 45.2938 115.551C45.1504 115.619 44.988 115.653 44.8067 115.653ZM47.0017 113.515V113.964H42.3145V113.515H47.0017Z" fill="#F04935"/>
<path d="M42.446 113.515V113.964H42.3195C42.1888 113.993 42.0475 114.059 41.8957 114.16C41.7439 114.257 41.6005 114.385 41.4655 114.546C41.3306 114.702 41.2189 114.885 41.1303 115.096C41.046 115.307 41.0038 115.539 41.0038 115.792C41.0038 116.095 41.0481 116.338 41.1366 116.519C41.2294 116.696 41.3433 116.823 41.4782 116.899C41.6131 116.975 41.7481 117.013 41.883 117.013C41.9885 117.013 42.077 117.002 42.1487 116.981C42.2204 116.96 42.3026 116.922 42.3954 116.867L42.6168 117.253C42.5072 117.337 42.387 117.396 42.2562 117.43C42.1255 117.464 41.9948 117.481 41.8641 117.481C41.5984 117.481 41.3622 117.411 41.1556 117.272C40.9532 117.133 40.7929 116.939 40.6749 116.69C40.561 116.437 40.5041 116.142 40.5041 115.804C40.5041 115.459 40.5694 115.147 40.7002 114.868C40.8309 114.586 41.0059 114.347 41.2252 114.153C41.4487 113.959 41.6954 113.818 41.9653 113.73L41.5604 113.938C41.4845 113.947 41.4023 113.953 41.3137 113.957C41.2252 113.962 41.1261 113.964 41.0164 113.964H40.1309V113.515H42.446Z" fill="#F04935"/>
<path d="M37.7526 113.47C37.9213 113.47 38.0647 113.51 38.1827 113.59C38.305 113.67 38.4189 113.814 38.5243 114.02L38.8659 113.603L39.2518 113.514C39.3867 113.62 39.5048 113.753 39.606 113.913C39.7072 114.069 39.7578 114.254 39.7578 114.469C39.7578 114.693 39.7051 114.893 39.5997 115.07C39.4985 115.247 39.3572 115.401 39.1759 115.532C38.9945 115.663 38.7858 115.775 38.5496 115.867L38.3535 115.406C38.6361 115.3 38.8596 115.178 39.024 115.039C39.1927 114.895 39.2771 114.708 39.2771 114.476C39.2771 114.37 39.2539 114.269 39.2075 114.172C39.1611 114.071 39.0831 113.984 38.9734 113.913L39.2834 113.774L38.6508 114.545L38.265 114.558C38.227 114.339 38.1638 114.181 38.0752 114.084C37.9909 113.982 37.8812 113.932 37.7463 113.932C37.6704 113.932 37.6008 113.949 37.5375 113.982C37.4743 114.012 37.4237 114.058 37.3857 114.122C37.352 114.181 37.3351 114.256 37.3351 114.349C37.3351 114.484 37.3857 114.594 37.4869 114.678C37.5881 114.762 37.7526 114.809 37.9803 114.817L37.9487 115.304C37.7168 115.288 37.527 115.237 37.3794 115.153C37.236 115.064 37.1306 114.95 37.0631 114.811C36.9956 114.668 36.9619 114.507 36.9619 114.33C36.9619 114.132 36.9978 113.97 37.0694 113.843C37.1454 113.717 37.2423 113.624 37.3604 113.565C37.4827 113.502 37.6134 113.47 37.7526 113.47ZM36.2788 113.47C36.4306 113.47 36.5739 113.504 36.7089 113.571C36.8438 113.634 36.9535 113.736 37.0378 113.875C37.1264 114.014 37.1707 114.193 37.1707 114.412C37.1707 114.564 37.1369 114.71 37.0694 114.849C37.002 114.988 36.8966 115.102 36.7532 115.191C36.614 115.275 36.4327 115.317 36.2092 115.317L36.1649 114.83C36.4095 114.826 36.5761 114.775 36.6646 114.678C36.7532 114.581 36.7974 114.48 36.7974 114.375C36.7974 114.235 36.7511 114.128 36.6583 114.052C36.5697 113.972 36.4348 113.932 36.2535 113.932C36.1775 113.932 36.1101 113.938 36.051 113.951C35.9962 113.963 35.933 113.98 35.8613 114.001L35.8107 113.527C35.8992 113.506 35.9793 113.491 36.051 113.483C36.1227 113.474 36.1986 113.47 36.2788 113.47ZM38.2523 117.246C37.7927 117.246 37.3625 117.156 36.9619 116.974C36.5655 116.793 36.2134 116.502 35.9055 116.101C35.5977 115.701 35.3447 115.172 35.1465 114.514L35.6146 114.368C35.8001 114.933 36.0173 115.393 36.2661 115.747C36.5149 116.097 36.8017 116.354 37.1264 116.519C37.4553 116.683 37.8264 116.766 38.2397 116.766C38.5644 116.766 38.8237 116.711 39.0177 116.601C39.2159 116.487 39.315 116.31 39.315 116.07C39.315 115.897 39.2602 115.753 39.1505 115.64C39.0409 115.522 38.9039 115.429 38.7394 115.361L39.2518 115.153C39.4415 115.258 39.5849 115.391 39.6819 115.551C39.7789 115.711 39.8274 115.897 39.8274 116.108C39.8274 116.335 39.7641 116.536 39.6376 116.709C39.5111 116.877 39.3298 117.01 39.0936 117.107C38.8617 117.2 38.5813 117.246 38.2523 117.246Z" fill="#F04935"/>
<path d="M33.2559 113.515V113.964H32.5917V117.449H32.1047C31.9781 117.196 31.8031 116.964 31.5796 116.753C31.3604 116.538 31.1073 116.357 30.8206 116.209C30.5338 116.062 30.2281 115.963 29.9034 115.912L29.6567 115.305C30.0615 115.06 30.479 114.839 30.9091 114.64C31.3435 114.442 31.7905 114.274 32.2501 114.134L32.1047 114.4V113.964H29.3594V113.515H33.2559ZM32.1047 114.451L32.2375 114.628C31.917 114.733 31.5796 114.864 31.2254 115.02C30.8712 115.172 30.5444 115.34 30.245 115.526C30.4727 115.577 30.7151 115.663 30.9724 115.785C31.2296 115.908 31.4679 116.062 31.6872 116.247C31.9065 116.433 32.0751 116.648 32.1932 116.892H32.1363C32.1279 116.795 32.1194 116.698 32.111 116.601C32.1068 116.504 32.1047 116.388 32.1047 116.253V114.451ZM30.5929 117.487C30.4874 117.487 30.3968 117.453 30.3209 117.386C30.2492 117.318 30.2133 117.23 30.2133 117.12C30.2133 117.01 30.2492 116.92 30.3209 116.848C30.3968 116.776 30.4874 116.741 30.5929 116.741C30.6983 116.741 30.7868 116.776 30.8585 116.848C30.9344 116.92 30.9724 117.01 30.9724 117.12C30.9724 117.23 30.9344 117.318 30.8585 117.386C30.7868 117.453 30.6983 117.487 30.5929 117.487Z" fill="#F04935"/>
<path d="M29.4838 113.515V113.964H26.612V115.849L26.5234 115.722C26.6921 115.532 26.884 115.355 27.0991 115.191C27.3141 115.026 27.5482 114.877 27.8012 114.742C28.0542 114.603 28.3241 114.48 28.6109 114.375L29.022 114.78C28.9419 114.927 28.8765 115.071 28.8259 115.21C28.7795 115.349 28.7437 115.494 28.7184 115.646C28.6973 115.798 28.6868 115.967 28.6868 116.152C28.6868 116.359 28.7036 116.557 28.7374 116.747C28.7711 116.937 28.828 117.15 28.9082 117.386L28.4337 117.493C28.3578 117.249 28.2988 117.01 28.2566 116.779C28.2145 116.542 28.1934 116.298 28.1934 116.045C28.1934 115.872 28.206 115.709 28.2313 115.558C28.2566 115.406 28.2904 115.271 28.3325 115.153C28.3789 115.031 28.4253 114.931 28.4717 114.856L28.5476 114.887C28.3072 114.984 28.0732 115.102 27.8455 115.241C27.6177 115.381 27.3942 115.541 27.175 115.722C26.9557 115.903 26.7301 116.11 26.4981 116.342L26.1249 116.089V113.964H25.543V113.515H29.4838Z" fill="#F04935"/>
<path d="M25.6726 113.515V113.964H25.5461C25.4153 113.993 25.2741 114.059 25.1222 114.16C24.9704 114.257 24.8271 114.385 24.6921 114.546C24.5572 114.702 24.4454 114.885 24.3569 115.096C24.2725 115.307 24.2303 115.539 24.2303 115.792C24.2303 116.095 24.2746 116.338 24.3632 116.519C24.456 116.696 24.5698 116.823 24.7048 116.899C24.8397 116.975 24.9747 117.013 25.1096 117.013C25.215 117.013 25.3036 117.002 25.3753 116.981C25.447 116.96 25.5292 116.922 25.622 116.867L25.8434 117.253C25.7337 117.337 25.6135 117.396 25.4828 117.43C25.3521 117.464 25.2213 117.481 25.0906 117.481C24.8249 117.481 24.5888 117.411 24.3822 117.272C24.1797 117.133 24.0195 116.939 23.9014 116.69C23.7876 116.437 23.7306 116.142 23.7306 115.804C23.7306 115.459 23.796 115.147 23.9267 114.868C24.0574 114.586 24.2325 114.347 24.4517 114.153C24.6752 113.959 24.9219 113.818 25.1918 113.73L24.787 113.938C24.7111 113.947 24.6289 113.953 24.5403 113.957C24.4517 113.962 24.3526 113.964 24.243 113.964H23.3574V113.515H25.6726Z" fill="#F04935"/>
<path d="M20.4043 116.874C20.2525 116.874 20.1091 116.825 19.9741 116.728C19.8392 116.631 19.7085 116.482 19.5819 116.279L19.9488 116.045C20.0332 116.176 20.1049 116.267 20.1639 116.317C20.2272 116.368 20.2988 116.393 20.379 116.393C20.4507 116.393 20.5202 116.37 20.5877 116.323C20.6594 116.273 20.748 116.178 20.8534 116.039C20.9293 115.938 20.9841 115.845 21.0178 115.761C21.0558 115.672 21.0748 115.581 21.0748 115.489C21.0748 115.358 21.0474 115.235 20.9925 115.122C20.9377 115.004 20.8555 114.909 20.7458 114.837C20.6404 114.761 20.5097 114.723 20.3537 114.723C20.2187 114.723 20.1196 114.753 20.0564 114.812C19.9931 114.871 19.9615 114.947 19.9615 115.039C19.9615 115.09 19.9678 115.139 19.9805 115.185C19.9931 115.227 20.0079 115.271 20.0247 115.318L19.5693 115.425C19.5271 115.337 19.4976 115.252 19.4807 115.172C19.4681 115.092 19.4618 115.023 19.4618 114.963C19.4618 114.803 19.5039 114.675 19.5883 114.578C19.6726 114.476 19.7823 114.403 19.9172 114.356C20.0521 114.31 20.1934 114.287 20.341 114.287C20.5898 114.287 20.7986 114.337 20.9672 114.438C21.1401 114.54 21.2709 114.681 21.3594 114.862C21.4522 115.039 21.4986 115.246 21.4986 115.482C21.4986 115.507 21.4965 115.537 21.4923 115.571C21.4923 115.6 21.4902 115.626 21.4859 115.647L21.1507 115.735C21.2477 115.579 21.3552 115.425 21.4733 115.273C21.5914 115.122 21.7368 114.974 21.9097 114.831C22.0869 114.687 22.3061 114.554 22.5676 114.432L23.0167 114.837C22.8986 115.056 22.8143 115.267 22.7637 115.47C22.7131 115.672 22.6878 115.908 22.6878 116.178C22.6878 116.38 22.7047 116.574 22.7384 116.76C22.7763 116.945 22.8333 117.154 22.9092 117.386L22.4348 117.494C22.3631 117.258 22.304 117.024 22.2577 116.792C22.2155 116.56 22.1944 116.321 22.1944 116.077C22.1944 115.853 22.2134 115.647 22.2513 115.457C22.2935 115.263 22.3631 115.082 22.4601 114.913L22.7004 114.837C22.5908 114.896 22.4854 114.957 22.3842 115.02C22.2872 115.079 22.186 115.153 22.0805 115.242C21.9793 115.326 21.8697 115.438 21.7516 115.577C21.6335 115.712 21.5007 115.887 21.3531 116.102C21.2266 116.288 21.1148 116.437 21.0178 116.551C20.9251 116.665 20.8323 116.747 20.7395 116.798C20.6467 116.849 20.535 116.874 20.4043 116.874ZM23.4848 113.515V113.964H19V113.515H23.4848ZM19.9994 114.508C19.9783 114.373 19.9151 114.255 19.8097 114.154C19.7042 114.048 19.5524 113.975 19.3542 113.932L19.506 113.648L19.797 113.724C20.0332 113.816 20.204 113.922 20.3094 114.04C20.419 114.158 20.4823 114.308 20.4992 114.489L19.9994 114.508ZM22.0869 113.515C22.0826 113.342 22.0405 113.218 21.9604 113.142C21.8844 113.066 21.7579 113.028 21.5808 113.028H20.7205C20.4422 113.028 20.2272 113.009 20.0753 112.971C19.9277 112.933 19.8012 112.874 19.6958 112.794C19.5819 112.709 19.4955 112.602 19.4365 112.471C19.3816 112.336 19.3542 112.184 19.3542 112.016C19.3542 111.961 19.3563 111.906 19.3606 111.851C19.369 111.797 19.3774 111.74 19.3859 111.681L19.8539 111.712C19.8455 111.763 19.8392 111.807 19.835 111.845C19.8308 111.883 19.8286 111.919 19.8286 111.953C19.8286 112.045 19.8371 112.128 19.8539 112.199C19.875 112.271 19.9067 112.33 19.9488 112.376C20.0079 112.444 20.0922 112.494 20.2019 112.528C20.3157 112.558 20.476 112.572 20.6826 112.572H21.4417C21.6652 112.572 21.8444 112.589 21.9793 112.623C22.1143 112.657 22.226 112.718 22.3146 112.806C22.3863 112.874 22.4411 112.967 22.479 113.085C22.517 113.199 22.5381 113.342 22.5423 113.515H22.0869Z" fill="#F04935"/>
<path d="M92.999 105.284V105.733H90.943V106.126V106.227V109.219H90.456C90.334 108.97 90.163 108.736 89.944 108.517C89.724 108.297 89.473 108.114 89.191 107.966C88.913 107.815 88.619 107.72 88.312 107.682L88.065 107.074C88.474 106.838 88.883 106.627 89.292 106.442C89.701 106.256 90.135 106.092 90.595 105.948L90.456 106.214V105.733H87.768V105.284H92.999ZM90.456 106.265L90.589 106.448C90.374 106.507 90.15 106.585 89.918 106.682C89.691 106.779 89.467 106.88 89.248 106.986C89.033 107.091 88.834 107.195 88.653 107.296C88.889 107.342 89.132 107.431 89.381 107.561C89.634 107.692 89.863 107.852 90.07 108.042C90.281 108.228 90.437 108.43 90.538 108.649L90.488 108.662C90.479 108.565 90.471 108.468 90.462 108.371C90.458 108.274 90.456 108.158 90.456 108.023V106.265ZM92.645 107.397C92.645 107.536 92.617 107.669 92.562 107.796C92.508 107.918 92.417 108.019 92.29 108.099C92.164 108.179 91.995 108.219 91.784 108.219C91.717 108.219 91.651 108.217 91.588 108.213C91.529 108.209 91.47 108.2 91.411 108.188L91.449 107.732C91.474 107.737 91.504 107.741 91.538 107.745C91.576 107.745 91.618 107.745 91.664 107.745C91.867 107.745 91.997 107.707 92.056 107.631C92.12 107.551 92.151 107.456 92.151 107.346C92.151 107.123 92.042 106.933 91.822 106.777C91.607 106.617 91.287 106.507 90.861 106.448L90.88 105.974C91.204 106.008 91.5 106.09 91.765 106.22C92.031 106.347 92.244 106.511 92.404 106.714C92.564 106.912 92.645 107.14 92.645 107.397Z" fill="#F04935"/>
<path d="M87.895 105.284V105.733H87.769C87.638 105.763 87.497 105.828 87.345 105.93C87.193 106.026 87.05 106.155 86.915 106.315C86.78 106.471 86.668 106.655 86.58 106.866C86.495 107.077 86.453 107.308 86.453 107.561C86.453 107.865 86.497 108.108 86.586 108.289C86.679 108.466 86.792 108.593 86.927 108.668C87.062 108.744 87.197 108.782 87.332 108.782C87.438 108.782 87.526 108.772 87.598 108.751C87.67 108.73 87.752 108.692 87.845 108.637L88.066 109.023C87.956 109.107 87.836 109.166 87.705 109.2C87.575 109.234 87.444 109.25 87.313 109.25C87.048 109.25 86.811 109.181 86.605 109.042C86.402 108.903 86.242 108.709 86.124 108.46C86.01 108.207 85.953 107.912 85.953 107.574C85.953 107.228 86.019 106.916 86.149 106.638C86.28 106.355 86.455 106.117 86.674 105.923C86.898 105.729 87.145 105.588 87.414 105.499L87.01 105.708C86.934 105.717 86.852 105.723 86.763 105.727C86.674 105.731 86.575 105.733 86.466 105.733H85.58V105.284H87.895Z" fill="#F04935"/>
<path d="M85.708 105.285V105.734H85.043V109.219H84.556C84.396 108.987 84.206 108.77 83.987 108.568C83.768 108.361 83.517 108.184 83.234 108.036C82.956 107.884 82.642 107.777 82.292 107.714L82.146 107.125L82.475 107.347C82.829 107.414 83.139 107.515 83.405 107.65C83.675 107.781 83.907 107.931 84.101 108.099C84.295 108.264 84.451 108.433 84.569 108.605C84.565 108.508 84.561 108.411 84.556 108.314C84.556 108.217 84.556 108.112 84.556 107.998V104.867H84.892L85.037 105.285H85.708ZM82.899 105.266C83.165 105.266 83.386 105.312 83.563 105.405C83.74 105.493 83.873 105.616 83.962 105.772C84.05 105.923 84.095 106.094 84.095 106.284C84.095 106.613 83.957 106.881 83.683 107.087C83.413 107.294 83.04 107.425 82.564 107.48L82.26 107.416L82.146 107.125C82.5 107.1 82.783 107.049 82.994 106.973C83.205 106.893 83.354 106.794 83.443 106.676C83.536 106.554 83.582 106.419 83.582 106.271C83.582 106.09 83.523 105.951 83.405 105.854C83.287 105.757 83.114 105.708 82.886 105.708C82.676 105.708 82.524 105.751 82.431 105.835C82.342 105.915 82.298 106.001 82.298 106.094C82.298 106.153 82.313 106.208 82.342 106.259C82.376 106.309 82.433 106.356 82.513 106.398L82.235 106.79C82.155 106.735 82.081 106.676 82.013 106.613C81.95 106.545 81.9 106.467 81.862 106.379C81.824 106.29 81.805 106.189 81.805 106.075C81.805 105.928 81.847 105.793 81.931 105.67C82.016 105.548 82.14 105.451 82.304 105.379C82.469 105.304 82.667 105.266 82.899 105.266Z" fill="#F04935"/>
<path d="M81.639 105.284V105.733H81.513C81.382 105.763 81.241 105.828 81.089 105.93C80.937 106.026 80.794 106.155 80.659 106.315C80.524 106.471 80.412 106.655 80.324 106.866C80.239 107.077 80.197 107.308 80.197 107.561C80.197 107.865 80.241 108.108 80.33 108.289C80.423 108.466 80.537 108.593 80.671 108.668C80.806 108.744 80.941 108.782 81.076 108.782C81.182 108.782 81.27 108.772 81.342 108.751C81.414 108.73 81.496 108.692 81.589 108.637L81.81 109.023C81.7 109.107 81.58 109.166 81.449 109.2C81.319 109.234 81.186 109.25 81.051 109.25C80.785 109.25 80.551 109.181 80.349 109.042C80.146 108.903 79.9861 108.709 79.8681 108.46C79.7542 108.207 79.6973 107.912 79.6973 107.574C79.6973 107.249 79.7479 106.961 79.8491 106.708C79.9545 106.45 80.089 106.227 80.254 106.037C80.423 105.847 80.604 105.691 80.798 105.569C80.992 105.442 81.18 105.348 81.361 105.284H81.639Z" fill="#F04935"/>
<path d="M77.6662 105.284V105.733H75.6737V109.219H75.1866V108.687L75.2183 108.523C75.2098 108.472 75.2014 108.392 75.193 108.283C75.1887 108.169 75.1866 108.055 75.1866 107.941V106.568V106.492V105.733H71.7266V105.284H77.6662ZM77.331 107.505C77.331 107.631 77.3036 107.755 77.2488 107.878C77.1982 107.996 77.1117 108.093 76.9894 108.169C76.8713 108.245 76.709 108.283 76.5023 108.283C76.4433 108.283 76.3822 108.28 76.3189 108.276C76.2599 108.272 76.2029 108.264 76.1481 108.251L76.1861 107.796C76.2072 107.8 76.2388 107.804 76.2809 107.808C76.3231 107.808 76.3611 107.808 76.3948 107.808C76.5804 107.808 76.7005 107.774 76.7554 107.707C76.8144 107.635 76.8439 107.557 76.8439 107.473C76.8439 107.393 76.8292 107.323 76.7996 107.264C76.7701 107.201 76.728 107.148 76.6731 107.106C76.5677 107.022 76.4222 106.961 76.2367 106.923C76.0511 106.885 75.8213 106.866 75.5472 106.866H75.3321C75.0833 106.866 74.8598 106.836 74.6616 106.777C74.4676 106.714 74.3137 106.608 74.1999 106.461C74.0902 106.313 74.0354 106.113 74.0354 105.86C74.0354 105.822 74.0375 105.778 74.0417 105.727C74.0501 105.672 74.0586 105.62 74.067 105.569L74.5414 105.607C74.5372 105.645 74.5309 105.683 74.5225 105.721C74.5182 105.759 74.5161 105.795 74.5161 105.828C74.5161 106.077 74.5899 106.239 74.7375 106.315C74.8851 106.387 75.0875 106.423 75.3448 106.423H75.5409C75.9541 106.423 76.2746 106.459 76.5023 106.53C76.7301 106.598 76.9114 106.693 77.0463 106.815C77.1518 106.908 77.2256 107.013 77.2677 107.131C77.3099 107.245 77.331 107.37 77.331 107.505ZM73.9848 107.543C74.1661 107.543 74.3348 107.583 74.4908 107.663C74.6511 107.739 74.7987 107.844 74.9336 107.979C75.0686 108.11 75.1866 108.257 75.2878 108.422L75.2942 108.871L75.2246 109.004C75.0896 108.789 74.9568 108.607 74.8261 108.46C74.6954 108.308 74.5625 108.192 74.4276 108.112C74.2968 108.032 74.1577 107.992 74.0101 107.992C73.9384 107.992 73.8772 108.004 73.8266 108.03C73.7803 108.051 73.7444 108.082 73.7191 108.124C73.6938 108.167 73.6812 108.219 73.6812 108.283C73.6812 108.35 73.6896 108.409 73.7065 108.46C73.7233 108.51 73.7402 108.555 73.7571 108.593L73.27 108.694C73.2405 108.635 73.2152 108.567 73.1941 108.491C73.173 108.415 73.1625 108.342 73.1625 108.27C73.1625 108.152 73.1835 108.049 73.2257 107.96C73.2679 107.867 73.3248 107.791 73.3965 107.732C73.4724 107.669 73.5589 107.623 73.6558 107.593C73.7571 107.559 73.8667 107.543 73.9848 107.543ZM72.96 106.29C73.1793 106.29 73.3775 106.339 73.5546 106.436C73.7318 106.533 73.873 106.674 73.9785 106.859C74.0839 107.045 74.1366 107.273 74.1366 107.543C74.1366 107.623 74.1324 107.694 74.1239 107.758C74.1155 107.821 74.1071 107.874 74.0986 107.916L73.6052 107.903C73.6221 107.848 73.6327 107.793 73.6369 107.739C73.6453 107.684 73.6495 107.637 73.6495 107.599C73.6495 107.46 73.6284 107.325 73.5863 107.195C73.5441 107.064 73.4745 106.956 73.3775 106.872C73.2848 106.783 73.1561 106.739 72.9917 106.739C72.8567 106.739 72.7597 106.769 72.7007 106.828C72.6459 106.887 72.6185 106.963 72.6185 107.055C72.6185 107.089 72.6227 107.127 72.6311 107.169C72.6438 107.211 72.6585 107.254 72.6754 107.296L72.182 107.397C72.1525 107.334 72.1293 107.268 72.1124 107.201C72.0998 107.133 72.0934 107.07 72.0934 107.011C72.0934 106.902 72.1145 106.802 72.1567 106.714C72.1989 106.625 72.2579 106.549 72.3338 106.486C72.4097 106.423 72.5004 106.374 72.6058 106.341C72.7112 106.307 72.8293 106.29 72.96 106.29ZM72.5679 106.657C72.5763 106.623 72.5805 106.583 72.5805 106.537C72.5847 106.486 72.5868 106.433 72.5868 106.379C72.5868 106.206 72.5447 106.037 72.4603 105.873C72.376 105.704 72.241 105.592 72.0555 105.537L72.6438 105.411C72.7871 105.529 72.8926 105.662 72.96 105.809C73.0317 105.957 73.0676 106.145 73.0676 106.372C73.0676 106.431 73.0634 106.486 73.0549 106.537C73.0507 106.583 73.0444 106.634 73.036 106.689L72.5679 106.657Z" fill="#F04935"/>
<path d="M71.8594 105.285V105.734H71.1952V109.219H70.7082V106.714L70.8473 107.119C70.6744 106.866 70.5163 106.651 70.3729 106.474C70.2295 106.292 70.0925 106.145 69.9618 106.031C69.8353 105.917 69.7066 105.835 69.5759 105.784C69.4452 105.729 69.3039 105.702 69.1521 105.702C68.9834 105.702 68.8295 105.734 68.6903 105.797C68.5554 105.86 68.431 105.945 68.3171 106.05C68.2033 106.155 68.0978 106.269 68.0009 106.392L67.9502 106.404C68.0177 106.362 68.0831 106.33 68.1463 106.309C68.2138 106.288 68.2876 106.278 68.3677 106.278C68.6123 106.278 68.7915 106.345 68.9054 106.48C69.0193 106.611 69.0762 106.773 69.0762 106.967C69.0762 107.014 69.0741 107.058 69.0699 107.1C69.0657 107.142 69.0593 107.174 69.0509 107.195L68.9434 107.157C68.994 107.102 69.0425 107.049 69.0888 106.999C69.1352 106.948 69.1837 106.898 69.2343 106.847C69.2892 106.796 69.344 106.744 69.3988 106.689L70.1832 105.955L70.4931 106.29L68.6967 107.986L68.3235 107.638L68.8421 107.144L68.6144 107.416L68.4247 107.562C68.4879 107.49 68.5406 107.414 68.5828 107.334C68.6292 107.25 68.6524 107.155 68.6524 107.049C68.6524 106.944 68.6208 106.86 68.5575 106.796C68.4942 106.733 68.4015 106.701 68.2792 106.701C68.2117 106.701 68.1463 106.71 68.0831 106.727C68.0198 106.744 67.9545 106.773 67.887 106.815L67.4062 106.36C67.5749 106.136 67.7478 105.942 67.9249 105.778C68.1021 105.609 68.2876 105.479 68.4816 105.386C68.6756 105.289 68.8843 105.24 69.1078 105.24C69.344 105.24 69.5569 105.285 69.7467 105.373C69.9365 105.462 70.1199 105.595 70.297 105.772C70.4741 105.945 70.6597 106.164 70.8537 106.429L70.7398 106.398C70.7272 106.297 70.7187 106.187 70.7145 106.069C70.7103 105.951 70.7082 105.824 70.7082 105.689V104.867H71.0434L71.1889 105.285H71.8594Z" fill="#F04935"/>
<path d="M65.5489 105.284V105.733H64.8847V109.219H64.3976C64.2711 108.966 64.0961 108.734 63.8726 108.523C63.6533 108.308 63.4003 108.127 63.1135 107.979C62.8268 107.831 62.521 107.732 62.1963 107.682L61.9496 107.074C62.3545 106.83 62.772 106.608 63.2021 106.41C63.6365 106.212 64.0835 106.043 64.5431 105.904L64.3976 106.17V105.733H61.6523V105.284H65.5489ZM64.3976 106.22L64.5305 106.398C64.21 106.503 63.8726 106.634 63.5184 106.79C63.1641 106.942 62.8373 107.11 62.5379 107.296C62.7656 107.346 63.0081 107.433 63.2654 107.555C63.5226 107.677 63.7609 107.831 63.9801 108.017C64.1994 108.202 64.3681 108.418 64.4862 108.662H64.4293C64.4208 108.565 64.4124 108.468 64.404 108.371C64.3997 108.274 64.3976 108.158 64.3976 108.023V106.22ZM62.8858 109.257C62.7804 109.257 62.6897 109.223 62.6138 109.156C62.5421 109.088 62.5063 109 62.5063 108.89C62.5063 108.78 62.5421 108.69 62.6138 108.618C62.6897 108.546 62.7804 108.51 62.8858 108.51C62.9912 108.51 63.0798 108.546 63.1515 108.618C63.2274 108.69 63.2654 108.78 63.2654 108.89C63.2654 109 63.2274 109.088 63.1515 109.156C63.0798 109.223 62.9912 109.257 62.8858 109.257Z" fill="#F04935"/>
<path d="M60.1582 105.246C60.3311 105.246 60.4744 105.265 60.5883 105.303C60.7064 105.337 60.8055 105.389 60.8856 105.461C60.9657 105.529 61.029 105.613 61.0754 105.714C61.1218 105.811 61.145 105.946 61.145 106.119V109.219H60.6705C60.6368 109.092 60.5883 108.989 60.5251 108.909C60.4618 108.828 60.3838 108.769 60.291 108.731C60.2025 108.689 60.0949 108.668 59.9684 108.668C59.8166 108.668 59.6753 108.677 59.5446 108.694C59.4139 108.71 59.2768 108.729 59.1334 108.75C58.9943 108.767 58.8319 108.776 58.6464 108.776C58.503 108.776 58.3491 108.761 58.1846 108.731C58.0201 108.698 57.8641 108.637 57.7165 108.548C57.5689 108.459 57.4487 108.329 57.356 108.156C57.2632 107.979 57.2168 107.747 57.2168 107.46C57.2168 107.359 57.2252 107.253 57.2421 107.144C57.259 107.03 57.2758 106.927 57.2927 106.834L57.7798 106.903C57.7629 106.967 57.746 107.043 57.7292 107.131C57.7165 107.22 57.7102 107.325 57.7102 107.447C57.7102 107.633 57.7376 107.783 57.7924 107.896C57.8472 108.01 57.921 108.097 58.0138 108.156C58.1066 108.215 58.2099 108.255 58.3238 108.276C58.4376 108.297 58.5536 108.308 58.6717 108.308C58.8825 108.308 59.0744 108.291 59.2473 108.257C59.4244 108.219 59.6226 108.2 59.8419 108.2C60.0232 108.2 60.1814 108.228 60.3163 108.282C60.4513 108.333 60.5651 108.422 60.6579 108.548V106.29C60.6579 106.134 60.6473 106.022 60.6263 105.955C60.6052 105.887 60.5714 105.832 60.5251 105.79C60.4491 105.727 60.3332 105.695 60.1771 105.695C60.0253 105.695 59.8798 105.729 59.7407 105.796C59.6057 105.864 59.4834 105.95 59.3738 106.056C59.2684 106.161 59.184 106.275 59.1208 106.397C59.0617 106.515 59.0322 106.627 59.0322 106.733C59.0322 106.775 59.0407 106.819 59.0575 106.865C59.0744 106.912 59.1102 106.952 59.1651 106.986C59.2199 107.019 59.3 107.036 59.4054 107.036C59.4518 107.036 59.4961 107.034 59.5383 107.03C59.5804 107.026 59.6247 107.021 59.6711 107.017L59.7154 107.46C59.6732 107.477 59.6163 107.49 59.5446 107.498C59.4771 107.506 59.397 107.511 59.3042 107.511C59.0976 107.511 58.9163 107.447 58.7602 107.321C58.6084 107.194 58.5325 107 58.5325 106.739C58.5325 106.57 58.5747 106.399 58.659 106.227C58.7476 106.049 58.8678 105.887 59.0196 105.739C59.1714 105.592 59.3443 105.474 59.5383 105.385C59.7365 105.292 59.9431 105.246 60.1582 105.246Z" fill="#F04935"/>
<path d="M56.4795 107V107.494H54.4668V107H56.4795Z" fill="#F04935"/>
<path d="M54.0786 105.734H53.4144V109.219H52.9273V105.734H52.2695V105.285H52.9273C52.9104 105.011 52.8388 104.781 52.7122 104.595C52.59 104.41 52.4297 104.264 52.2315 104.159C52.0291 104.049 51.8014 103.971 51.5483 103.925C51.2911 103.878 51.0212 103.855 50.7387 103.855C50.4899 103.855 50.2769 103.87 50.0998 103.899C49.9185 103.925 49.7793 103.963 49.6823 104.013C49.5853 104.064 49.5368 104.129 49.5368 104.209C49.5368 104.289 49.5874 104.34 49.6886 104.361C49.7898 104.382 49.9016 104.393 50.0239 104.393H50.6311C50.8546 104.393 51.0318 104.412 51.1625 104.45C51.2932 104.488 51.3986 104.549 51.4788 104.633C51.5589 104.713 51.6158 104.808 51.6496 104.918C51.6833 105.027 51.7002 105.164 51.7002 105.329H51.2764C51.2721 105.228 51.2595 105.145 51.2384 105.082C51.2173 105.015 51.1836 104.964 51.1372 104.93C51.095 104.897 51.0444 104.873 50.9854 104.861C50.9221 104.848 50.8357 104.842 50.726 104.842H50.0998C49.9269 104.842 49.7751 104.831 49.6444 104.81C49.5136 104.785 49.4061 104.751 49.3218 104.709C49.2163 104.65 49.1425 104.578 49.1004 104.494C49.0582 104.41 49.0371 104.321 49.0371 104.228C49.0371 103.984 49.1742 103.788 49.4483 103.64C49.7224 103.492 50.1399 103.419 50.7007 103.419C51.5568 103.419 52.2146 103.57 52.6743 103.874C53.1382 104.173 53.3912 104.644 53.4334 105.285H54.0786V105.734Z" fill="#F04935"/>
<path d="M50.7887 105.879C50.9489 105.879 51.0818 105.894 51.1872 105.923C51.2926 105.953 51.3833 105.997 51.4592 106.056C51.5477 106.123 51.6152 106.21 51.6616 106.315C51.708 106.417 51.7312 106.564 51.7312 106.758V109.219H51.2441C51.2062 109.029 51.1387 108.89 51.0417 108.801C50.9447 108.713 50.8161 108.668 50.6558 108.668C50.5125 108.668 50.3796 108.677 50.2573 108.694C50.135 108.711 50.0064 108.73 49.8715 108.751C49.7407 108.768 49.5847 108.776 49.4034 108.776C49.2727 108.776 49.1314 108.761 48.9796 108.732C48.8278 108.702 48.6844 108.647 48.5494 108.567C48.4187 108.483 48.3112 108.361 48.2268 108.2C48.1425 108.04 48.1003 107.827 48.1003 107.561C48.1003 107.469 48.1067 107.37 48.1193 107.264C48.132 107.159 48.1467 107.066 48.1636 106.986L48.6506 107.062C48.6338 107.129 48.619 107.199 48.6064 107.271C48.5979 107.342 48.5937 107.433 48.5937 107.543C48.5937 107.77 48.6359 107.939 48.7202 108.049C48.8046 108.158 48.9079 108.23 49.0302 108.264C49.1567 108.293 49.279 108.308 49.3971 108.308C49.5531 108.308 49.6923 108.299 49.8145 108.283C49.9368 108.262 50.0549 108.243 50.1688 108.226C50.2869 108.209 50.4113 108.2 50.542 108.2C50.6896 108.2 50.8224 108.228 50.9405 108.283C51.0628 108.333 51.164 108.422 51.2441 108.548V106.802C51.2441 106.693 51.2336 106.611 51.2125 106.556C51.1956 106.497 51.1661 106.45 51.1239 106.417C51.0902 106.387 51.0459 106.366 50.9911 106.353C50.9405 106.336 50.873 106.328 50.7887 106.328C50.6622 106.328 50.5441 106.353 50.4344 106.404C50.329 106.45 50.2341 106.509 50.1498 106.581C50.0655 106.653 49.998 106.733 49.9474 106.821C49.8968 106.906 49.8715 106.988 49.8715 107.068C49.8715 107.131 49.8905 107.188 49.9284 107.239C49.9664 107.289 50.0549 107.315 50.1941 107.315C50.2531 107.315 50.3037 107.313 50.3459 107.308C50.3923 107.304 50.4366 107.298 50.4787 107.289L50.523 107.739C50.4808 107.751 50.4239 107.764 50.3522 107.777C50.2847 107.785 50.2004 107.789 50.0992 107.789C49.9094 107.789 49.7407 107.737 49.5932 107.631C49.4456 107.526 49.3718 107.353 49.3718 107.112C49.3718 106.973 49.4076 106.832 49.4793 106.689C49.5552 106.541 49.6606 106.406 49.7956 106.284C49.9263 106.166 50.076 106.069 50.2447 105.993C50.4134 105.917 50.5947 105.879 50.7887 105.879ZM52.3954 105.284V105.733H47.7461V105.284H52.3954Z" fill="#F04935"/>
<path d="M47.8775 105.285V105.734H47.2133V109.219H46.7262V106.252C46.6756 106.109 46.5997 105.987 46.4985 105.885C46.4015 105.784 46.275 105.734 46.119 105.734H46.0684V105.285H46.1632C46.2645 105.285 46.3699 105.318 46.4795 105.386C46.5892 105.449 46.6777 105.548 46.7452 105.683C46.741 105.662 46.7368 105.613 46.7325 105.538C46.7283 105.462 46.7262 105.396 46.7262 105.341V104.867H47.0678L47.207 105.285H47.8775Z" fill="#F04935"/>
<path d="M46.1957 105.284V105.733H45.5315V109.219H45.0444C44.8673 108.983 44.6712 108.776 44.4561 108.599C44.2411 108.418 43.9923 108.266 43.7097 108.143C43.4272 108.021 43.0919 107.933 42.704 107.878L42.4763 107.302C42.607 107.214 42.744 107.129 42.8874 107.049C43.0308 106.969 43.1763 106.891 43.3239 106.815C43.4757 106.739 43.6233 106.667 43.7667 106.6C43.6064 106.478 43.4209 106.37 43.21 106.277C43.0034 106.18 42.7588 106.102 42.4763 106.043L42.6723 105.613L42.685 105.733H42.1094V105.284H46.1957ZM45.0444 105.733H43.0266L42.8937 105.676C43.0709 105.719 43.248 105.786 43.4251 105.879C43.6064 105.972 43.773 106.073 43.9248 106.183C44.0808 106.288 44.2052 106.389 44.298 106.486L44.3296 106.84C44.1778 106.908 44.0176 106.982 43.8489 107.062C43.6844 107.142 43.5242 107.222 43.3682 107.302C43.2163 107.382 43.0814 107.462 42.9633 107.543L42.8874 107.448C43.2501 107.498 43.5664 107.583 43.8362 107.701C44.1104 107.819 44.3528 107.962 44.5637 108.131C44.7745 108.299 44.9685 108.487 45.1456 108.694L45.0634 108.719C45.0592 108.631 45.055 108.536 45.0508 108.434C45.0465 108.329 45.0444 108.23 45.0444 108.137V105.733Z" fill="#F04935"/>
<path d="M40.4578 105.284V105.733H38.402V106.126V106.227V109.219H37.9149C37.7926 108.97 37.6218 108.736 37.4025 108.517C37.1833 108.297 36.9323 108.114 36.6498 107.966C36.3715 107.815 36.0784 107.72 35.7706 107.682L35.5239 107.074C35.9329 106.838 36.342 106.627 36.751 106.442C37.1601 106.256 37.5944 106.092 38.0541 105.948L37.9149 106.214V105.733H35.2266V105.284H40.4578ZM37.9149 106.265L38.0478 106.448C37.8327 106.507 37.6092 106.585 37.3772 106.682C37.1495 106.779 36.926 106.88 36.7067 106.986C36.4917 107.091 36.2935 107.195 36.1121 107.296C36.3483 107.342 36.5908 107.431 36.8396 107.561C37.0926 107.692 37.3224 107.852 37.5291 108.042C37.7399 108.228 37.8959 108.43 37.9971 108.649L37.9465 108.662C37.9381 108.565 37.9297 108.468 37.9212 108.371C37.917 108.274 37.9149 108.158 37.9149 108.023V106.265ZM40.1035 107.397C40.1035 107.536 40.0761 107.669 40.0213 107.796C39.9665 107.918 39.8758 108.019 39.7493 108.099C39.6228 108.179 39.4541 108.219 39.2433 108.219C39.1758 108.219 39.1104 108.217 39.0472 108.213C38.9881 108.209 38.9291 108.2 38.8701 108.188L38.908 107.732C38.9333 107.737 38.9628 107.741 38.9966 107.745C39.0345 107.745 39.0767 107.745 39.1231 107.745C39.3255 107.745 39.4562 107.707 39.5153 107.631C39.5785 107.551 39.6102 107.456 39.6102 107.346C39.6102 107.123 39.5005 106.933 39.2812 106.777C39.0662 106.617 38.7457 106.507 38.3198 106.448L38.3387 105.974C38.6634 106.008 38.9586 106.09 39.2243 106.22C39.49 106.347 39.7029 106.511 39.8632 106.714C40.0234 106.912 40.1035 107.14 40.1035 107.397Z" fill="#F04935"/>
<path d="M35.3562 105.284V105.733H35.2297C35.0989 105.763 34.9577 105.828 34.8058 105.93C34.654 106.026 34.5106 106.155 34.3757 106.315C34.2408 106.471 34.129 106.655 34.0405 106.866C33.9561 107.077 33.9139 107.308 33.9139 107.561C33.9139 107.865 33.9582 108.108 34.0468 108.289C34.1395 108.466 34.2534 108.593 34.3884 108.668C34.5233 108.744 34.6582 108.782 34.7932 108.782C34.8986 108.782 34.9872 108.772 35.0589 108.751C35.1306 108.73 35.2128 108.692 35.3056 108.637L35.527 109.023C35.4173 109.107 35.2971 109.166 35.1664 109.2C35.0357 109.234 34.9049 109.25 34.7742 109.25C34.5085 109.25 34.2724 109.181 34.0658 109.042C33.8633 108.903 33.7031 108.709 33.585 108.46C33.4712 108.207 33.4142 107.912 33.4142 107.574C33.4142 107.228 33.4796 106.916 33.6103 106.638C33.741 106.355 33.916 106.117 34.1353 105.923C34.3588 105.729 34.6055 105.588 34.8754 105.499L34.4706 105.708C34.3947 105.717 34.3124 105.723 34.2239 105.727C34.1353 105.731 34.0362 105.733 33.9266 105.733H33.041V105.284H35.3562Z" fill="#F04935"/>
<path d="M33.1645 105.284V105.733H32.5004V109.219H32.0133V107.1L32.0512 107.264C31.9585 107.129 31.8594 107.022 31.7539 106.942C31.6527 106.861 31.541 106.821 31.4187 106.821C31.3554 106.821 31.2901 106.834 31.2226 106.859C31.1593 106.88 31.1045 106.923 31.0581 106.986C31.016 107.049 30.9949 107.146 30.9949 107.277C30.9949 107.323 30.9949 107.365 30.9949 107.403C30.9991 107.437 31.0033 107.471 31.0075 107.505L30.5964 107.536C30.5795 107.363 30.5331 107.218 30.4572 107.1C30.3813 106.977 30.2885 106.885 30.1789 106.821C30.0692 106.758 29.9512 106.727 29.8247 106.727C29.7108 106.727 29.6138 106.75 29.5337 106.796C29.4536 106.838 29.3924 106.897 29.3502 106.973C29.3081 107.045 29.287 107.127 29.287 107.22C29.287 107.389 29.3481 107.532 29.4704 107.65C29.5969 107.768 29.7741 107.867 30.0018 107.947L29.831 108.415C29.6286 108.352 29.4472 108.266 29.287 108.156C29.1267 108.046 29.0002 107.912 28.9075 107.751C28.8147 107.591 28.7683 107.405 28.7683 107.195C28.7683 107.005 28.8147 106.842 28.9075 106.708C29.0002 106.568 29.1246 106.461 29.2807 106.385C29.4367 106.309 29.6075 106.271 29.793 106.271C30.0165 106.271 30.2084 106.313 30.3687 106.398C30.5289 106.478 30.6765 106.608 30.8114 106.79L30.7166 106.796C30.7587 106.657 30.8389 106.552 30.9569 106.48C31.0792 106.404 31.2057 106.366 31.3365 106.366C31.4883 106.366 31.619 106.395 31.7286 106.455C31.8383 106.514 31.9585 106.598 32.0892 106.708L32.0323 106.802C32.0281 106.714 32.0238 106.625 32.0196 106.537C32.0154 106.448 32.0133 106.358 32.0133 106.265V105.733H28.4141V105.284H33.1645Z" fill="#F04935"/>
<path d="M28.5457 105.284V105.733H26.4899V106.126V106.227V109.219H26.0028C25.8805 108.97 25.7097 108.736 25.4904 108.517C25.2712 108.297 25.0202 108.114 24.7377 107.966C24.4594 107.815 24.1663 107.72 23.8584 107.682L23.6118 107.074C24.0208 106.838 24.4299 106.627 24.8389 106.442C25.248 106.256 25.6823 106.092 26.142 105.948L26.0028 106.214V105.733H23.3145V105.284H28.5457ZM26.0028 106.265L26.1356 106.448C25.9206 106.507 25.6971 106.585 25.4651 106.682C25.2374 106.779 25.0139 106.88 24.7946 106.986C24.5796 107.091 24.3814 107.195 24.2 107.296C24.4362 107.342 24.6787 107.431 24.9275 107.561C25.1805 107.692 25.4103 107.852 25.6169 108.042C25.8278 108.228 25.9838 108.43 26.085 108.649L26.0344 108.662C26.026 108.565 26.0176 108.468 26.0091 108.371C26.0049 108.274 26.0028 108.158 26.0028 108.023V106.265ZM28.1914 107.397C28.1914 107.536 28.164 107.669 28.1092 107.796C28.0544 107.918 27.9637 108.019 27.8372 108.099C27.7107 108.179 27.542 108.219 27.3312 108.219C27.2637 108.219 27.1983 108.217 27.1351 108.213C27.076 108.209 27.017 108.2 26.958 108.188L26.9959 107.732C27.0212 107.737 27.0507 107.741 27.0845 107.745C27.1224 107.745 27.1646 107.745 27.211 107.745C27.4134 107.745 27.5441 107.707 27.6032 107.631C27.6664 107.551 27.6981 107.456 27.6981 107.346C27.6981 107.123 27.5884 106.933 27.3691 106.777C27.1541 106.617 26.8336 106.507 26.4076 106.448L26.4266 105.974C26.7513 106.008 27.0465 106.09 27.3122 106.22C27.5779 106.347 27.7908 106.511 27.9511 106.714C28.1113 106.912 28.1914 107.14 28.1914 107.397Z" fill="#F04935"/>
<path d="M23.4405 105.284V105.733H22.7763V109.219H22.2893V106.986L22.4348 107.384C22.304 107.211 22.1902 107.079 22.0932 106.986C22.0004 106.893 21.9097 106.847 21.8212 106.847C21.7622 106.847 21.7073 106.864 21.6567 106.897C21.6061 106.931 21.5492 106.996 21.4859 107.093C21.4227 107.186 21.3383 107.33 21.2329 107.524C21.1191 107.73 21.0157 107.901 20.923 108.036C20.8302 108.167 20.7311 108.264 20.6257 108.327C20.5245 108.386 20.4001 108.415 20.2525 108.415C20.1386 108.415 20.029 108.392 19.9235 108.346C19.8223 108.299 19.719 108.224 19.6136 108.118C19.5124 108.008 19.4027 107.861 19.2846 107.675L19.6705 107.441C19.7844 107.644 19.8792 107.777 19.9552 107.84C20.0311 107.903 20.1133 107.935 20.2019 107.935C20.2735 107.935 20.341 107.914 20.4043 107.871C20.4717 107.825 20.5434 107.747 20.6193 107.637C20.6995 107.528 20.7901 107.378 20.8913 107.188L21.0368 106.98C21.1465 106.752 21.2519 106.596 21.3531 106.511C21.4543 106.423 21.5661 106.379 21.6884 106.379C21.8275 106.379 21.9519 106.419 22.0616 106.499C22.1754 106.575 22.3061 106.693 22.4537 106.853L22.3272 106.859C22.3104 106.762 22.2998 106.672 22.2956 106.587C22.2914 106.499 22.2893 106.41 22.2893 106.322V105.733H19V105.284H23.4405ZM20.7775 107.505C20.7353 107.218 20.691 106.99 20.6446 106.821C20.6025 106.653 20.5266 106.522 20.4169 106.429C20.3115 106.332 20.1681 106.261 19.9868 106.214C19.8055 106.164 19.5777 106.121 19.3036 106.088L19.3985 105.607L19.7401 105.733C19.9805 105.771 20.1808 105.82 20.341 105.879C20.5013 105.938 20.6299 106.016 20.7269 106.113C20.8281 106.206 20.904 106.322 20.9546 106.461C21.0052 106.6 21.0389 106.769 21.0558 106.967L20.7775 107.505Z" fill="#F04935"/>
</g>
</g>
</g>
</g>
<defs>
<clipPath id="clip0_9_221">
<rect width="108" height="129" fill="white"/>
</clipPath>
</defs>
</svg>
