<svg width="597" height="44" viewBox="0 0 597 44" fill="none" xmlns="http://www.w3.org/2000/svg">
<path fill-rule="evenodd" clip-rule="evenodd" d="M597 0V44H575.525V42.0961H573.651C573.642 41.7462 573.612 41.4594 573.574 41.299C573.52 41.0998 573.452 39.6418 573.443 38.6163H573.666V37.7755H573.457C573.467 37.6832 573.472 37.62 573.486 37.6054V37.2749C573.486 37.2749 573.307 36.9056 573.229 34.4513C573.171 32.5704 573.253 28.3665 573.176 26.3836H573.404V25.674H573.127C573.103 25.4456 573.069 25.3144 573.03 25.3144C572.729 25.3144 572.501 12.8533 572.142 12.7269C571.783 12.8533 571.555 25.3144 571.254 25.3144C571.215 25.3144 571.181 25.4456 571.157 25.674H570.88V26.3836H571.108C571.031 28.3665 571.118 32.5704 571.055 34.4513C570.977 36.9056 570.798 37.2749 570.798 37.2749V37.6054C570.798 37.6054 570.822 37.6832 570.827 37.7755H570.618V38.6163H570.841C570.841 38.7815 570.836 38.9565 570.832 39.1363C570.007 37.6394 568.478 36.3515 565.881 35.3066C563.304 34.2666 562.44 32.7357 562.164 32.0164C562.581 31.9726 562.892 31.7685 562.892 31.5255C562.892 31.2971 562.615 31.1076 562.241 31.0444L562.178 29.4066C562.3 29.3725 562.387 29.2996 562.387 29.217C562.387 29.1295 562.295 29.0566 562.164 29.0177L562.106 27.4139C562.683 27.5403 563.299 27.5209 563.896 27.3167C564.799 27.0106 565.483 26.369 565.867 25.5769C565.547 25.8539 565.168 26.0726 564.746 26.2135C562.974 26.8113 561.043 25.8587 560.446 24.08C560.15 23.2003 560.232 22.2866 560.606 21.5139C559.587 22.3887 559.14 23.8272 559.596 25.1832C559.975 26.3107 560.887 27.1029 561.96 27.3848L561.863 29.008C561.698 29.0372 561.577 29.1149 561.577 29.217C561.577 29.3093 561.683 29.392 561.839 29.426L561.737 31.0444C561.358 31.1027 561.077 31.2971 561.077 31.5255C561.077 31.7782 561.412 31.9824 561.848 32.0212C561.572 32.7405 560.708 34.2666 558.131 35.3066C556.592 35.9238 555.432 36.6286 554.569 37.411C554.355 35.3747 553.195 33.6882 550.094 32.4441C548.075 31.6324 547.4 30.432 547.187 29.8683C547.512 29.8342 547.755 29.6739 547.755 29.4843C547.755 29.3045 547.541 29.1587 547.245 29.1101L547.197 27.827C547.294 27.7979 547.362 27.7444 547.362 27.6764C547.362 27.6083 547.289 27.55 547.187 27.5209L547.119 25.7324H547.056L546.949 27.5111C546.823 27.5354 546.726 27.5986 546.726 27.6764C546.726 27.7493 546.813 27.8125 546.93 27.8416L546.852 29.1101C546.556 29.1538 546.333 29.3045 546.333 29.4843C546.333 29.6836 546.595 29.844 546.939 29.8731C546.721 30.4369 546.046 31.6324 544.027 32.4441C543.455 32.6725 542.95 32.9204 542.504 33.1828C541.344 30.3737 538.825 27.9826 534.122 26.092C530.011 24.4347 528.628 21.995 528.191 20.8432C528.852 20.7703 529.351 20.4447 529.351 20.0607C529.351 19.6768 528.91 19.39 528.308 19.2928L528.211 16.683C528.41 16.6198 528.546 16.508 528.546 16.372C528.546 16.2359 528.4 16.1144 528.191 16.0512L528.094 13.4948C529.017 13.6941 529.997 13.6601 530.958 13.3393C532.394 12.8533 533.486 11.8278 534.103 10.5642C533.588 11.0016 532.987 11.3515 532.312 11.58C529.478 12.5325 526.401 11.0065 525.445 8.17308C524.974 6.76367 525.105 5.30566 525.702 4.07122C524.071 5.4709 523.363 7.7697 524.091 9.93242C524.697 11.7306 526.153 12.9991 527.861 13.4462L527.706 16.0318C527.444 16.0755 527.255 16.2116 527.255 16.372C527.255 16.5226 527.425 16.6538 527.667 16.7024L527.512 19.288C526.901 19.3852 526.449 19.6914 526.449 20.0607C526.449 20.4592 526.983 20.7897 527.682 20.848C527.24 21.9999 525.857 24.4396 521.746 26.092C517.272 27.8951 514.777 30.1453 513.545 32.7843C513.302 32.6676 513.05 32.551 512.778 32.4441C510.764 31.6324 510.084 30.432 509.871 29.8683C510.196 29.8342 510.439 29.6739 510.439 29.4843C510.439 29.3045 510.225 29.1587 509.929 29.1101L509.88 27.827C509.977 27.7979 510.045 27.7444 510.045 27.6764C510.045 27.6083 509.973 27.55 509.871 27.5209L509.803 25.7324H509.74L509.633 27.5111C509.507 27.5354 509.415 27.5986 509.415 27.6764C509.415 27.7493 509.497 27.8125 509.613 27.8416L509.536 29.1101C509.24 29.1538 509.017 29.3045 509.017 29.4843C509.017 29.6836 509.279 29.844 509.623 29.8731C509.405 30.4369 508.73 31.6324 506.716 32.4441C503.251 33.834 502.203 35.7781 502.203 38.1497C502.203 38.5142 502.242 38.8739 502.29 39.2238H502.203V41.3817C501.606 39.3453 500.024 37.6346 496.738 36.3127C494.156 35.2726 493.292 33.7466 493.02 33.0273C493.433 32.9787 493.748 32.7745 493.748 32.5315C493.748 32.308 493.472 32.1136 493.093 32.0553L493.035 30.4174C493.156 30.3786 493.244 30.3057 493.244 30.223C493.244 30.1356 493.151 30.0627 493.02 30.0286L492.962 28.4248C493.535 28.5463 494.151 28.5269 494.753 28.3228C495.651 28.0214 496.34 27.3799 496.723 26.5877C496.403 26.8599 496.025 27.0786 495.602 27.2244C493.826 27.8222 491.899 26.8648 491.302 25.086C491.006 24.2063 491.089 23.2926 491.463 22.5199C490.443 23.3947 489.997 24.8333 490.453 26.1892C490.832 27.3167 491.744 28.1089 492.817 28.3908L492.715 30.0141C492.555 30.0432 492.433 30.1258 492.433 30.223C492.433 30.3202 492.54 30.398 492.69 30.432L492.593 32.0504C492.21 32.1136 491.928 32.3031 491.928 32.5315C491.928 32.7843 492.263 32.9933 492.7 33.0273C492.423 33.7466 491.56 35.2775 488.987 36.3127C486.677 37.2409 485.217 38.3636 484.338 39.6515C484.324 39.2724 484.319 38.8885 484.314 38.5434H484.532V37.7026H484.328C484.333 37.6103 484.343 37.5471 484.358 37.5325V37.202C484.358 37.202 484.178 36.8327 484.1 34.3832C484.037 32.4975 484.125 28.2936 484.047 26.3107H484.275V25.6012H483.998C483.974 25.3776 483.94 25.2415 483.896 25.2415C483.6 25.2415 483.367 12.7804 483.013 12.654C482.654 12.7804 482.426 25.2415 482.125 25.2415C482.081 25.2415 482.052 25.3776 482.028 25.6012H481.751V26.3107H481.979C481.897 28.2936 481.984 32.4975 481.926 34.3832C481.848 36.8327 481.669 37.202 481.669 37.202V37.5325C481.669 37.5325 481.688 37.6103 481.698 37.7026H481.489V38.5434H481.712C481.703 39.5689 481.635 41.0269 481.581 41.2261C481.538 41.3962 481.514 41.7121 481.499 42.0961H479.99V44L0.5 44V2.64623e-06L597 0Z" fill="#F04935"/>
<path d="M56.5218 27.7853C56.1387 28.2411 55.6646 28.6132 55.1294 28.8781C54.6155 29.1256 54.051 29.2523 53.4797 29.2482C52.4858 29.2482 51.6704 28.8769 51.0338 28.1343C50.3971 27.3916 50.0785 26.4276 50.0781 25.2422C50.0781 23.7569 50.5094 22.5235 51.372 21.5422C52.2345 20.5609 53.3114 20.0704 54.6026 20.0708C55.162 20.0615 55.7151 20.1886 56.2134 20.4409C56.6879 20.688 57.1163 21.0694 57.4987 21.5851L57.6958 20.3431H60.5919L59.5311 26.9907C59.4447 27.532 59.1667 28.025 58.7468 28.3809C58.327 28.7369 57.793 28.9324 57.2408 28.9325H56.377L56.5218 27.7853ZM53.1531 24.9433C53.1531 25.4931 53.3216 25.9359 53.6586 26.2716C53.9956 26.6073 54.4416 26.7745 54.9968 26.7733C55.6023 26.7733 56.1064 26.5395 56.509 26.0717C56.9117 25.604 57.1131 25.0186 57.1131 24.3154C57.1131 23.7824 56.9446 23.3501 56.6076 23.0184C56.2706 22.6868 55.8308 22.5207 55.2882 22.5203C54.9981 22.5144 54.7103 22.5731 54.4461 22.6921C54.1819 22.8111 53.9479 22.9874 53.7614 23.208C53.3558 23.6677 53.1531 24.2461 53.1531 24.9433Z" fill="white"/>
<path d="M67.5117 28.9318L68.8822 20.3413H71.813L71.5977 21.8072C71.8661 21.2634 72.226 20.8494 72.6774 20.5653C73.1287 20.2811 73.6543 20.1402 74.2541 20.1426C74.3256 20.1431 74.3971 20.1473 74.4682 20.1553C74.5485 20.1637 74.6738 20.1825 74.8454 20.2108L74.2371 22.9067C74.0371 22.8616 73.8571 22.8276 73.6969 22.8047C73.5438 22.7827 73.3893 22.7714 73.2346 22.7709C72.6458 22.7709 72.1814 22.9538 71.8416 23.3197C71.5017 23.6856 71.269 24.2511 71.1433 25.0163L70.8026 27.1815C70.7257 27.6709 70.4749 28.117 70.0956 28.439C69.7163 28.761 69.2335 28.9377 68.7344 28.9373L67.5117 28.9318Z" fill="white"/>
<path d="M74.9727 28.9324L76.3352 20.3418H79.4114L78.3554 26.9586C78.2675 27.5089 77.9847 28.01 77.5579 28.3718C77.131 28.7336 76.5881 28.9323 76.0268 28.9324H74.9727Z" fill="white"/>
<path d="M76.5666 17.7817C76.5672 17.3533 76.739 16.9426 77.0443 16.6397C77.3496 16.3369 77.7634 16.1665 78.195 16.166C78.6687 16.166 79.0629 16.319 79.3775 16.6249C79.5324 16.7749 79.6542 16.9552 79.7353 17.1543C79.8165 17.3534 79.8552 17.567 79.849 17.7817C79.851 17.9979 79.8096 18.2123 79.7272 18.4123C79.6448 18.6124 79.5231 18.7942 79.3691 18.9471C79.2151 19.0999 79.0319 19.2208 78.8303 19.3025C78.6288 19.3843 78.4128 19.4254 78.195 19.4234C77.9796 19.4265 77.766 19.3852 77.5675 19.3021C77.3691 19.2189 77.1902 19.0958 77.0423 18.9404C76.8885 18.789 76.7672 18.6083 76.6854 18.4092C76.6037 18.2101 76.5633 17.9967 76.5666 17.7817Z" fill="white"/>
<path d="M66.3582 19.8203H63.321L63.24 20.3414H61.8008L61.4492 22.5361H62.8891L61.8689 28.9319H63.063C63.5779 28.932 64.0759 28.7495 64.4672 28.4174C64.8585 28.0853 65.1175 27.6254 65.1976 27.1206L65.922 22.5367H67.4732L67.8248 20.342H66.2736L66.3582 19.8203Z" fill="white"/>
<path d="M66.6757 17.8496H63.6251L63.3203 19.8203H66.3569L66.6757 17.8496Z" fill="white"/>
<path d="M42.6838 12.985C42.6805 12.7319 42.729 12.4808 42.8266 12.2469C42.9242 12.013 43.0687 11.8013 43.2514 11.6247C43.429 11.4411 43.6429 11.2958 43.8796 11.1979C44.1164 11.1001 44.3709 11.0517 44.6273 11.0559C45.193 11.0559 45.6635 11.2387 46.0386 11.6041C46.4137 11.9696 46.6013 12.4299 46.6013 12.985C46.6062 13.243 46.5579 13.4993 46.4594 13.7381C46.3608 13.9769 46.2141 14.1932 46.0282 14.3737C45.8464 14.5582 45.6285 14.7038 45.3879 14.8016C45.1473 14.8994 44.8891 14.9473 44.6291 14.9424C44.3723 14.9465 44.1174 14.8975 43.8806 14.7988C43.6437 14.7001 43.4301 14.5537 43.2532 14.3689C43.0693 14.1881 42.9241 13.9724 42.8262 13.7346C42.7284 13.4968 42.6799 13.2418 42.6838 12.985Z" fill="white"/>
<path d="M37.7426 23.4013C37.5047 23.4345 37.3082 23.4616 37.13 23.5577C36.9572 23.6364 36.809 23.7598 36.7009 23.915C36.5928 24.0703 36.5288 24.2515 36.5156 24.4398L37.2267 29.8219L37.3977 31.181C37.4041 31.2685 37.4206 31.355 37.4469 31.4388C37.4685 31.5061 37.4998 31.57 37.54 31.6284C37.6205 31.746 37.7318 31.8397 37.8618 31.8995C37.9996 31.9619 38.1498 31.9928 38.3013 31.99C38.4528 31.9872 38.6017 31.9507 38.7371 31.8832C38.861 31.8247 38.9663 31.7334 39.0414 31.6195C39.1165 31.5055 39.1586 31.3732 39.1629 31.2371L38.5838 25.8683L38.523 25.2905L39.1088 25.2301L42.4861 24.8733L43.331 24.7894C43.5674 24.7697 43.8007 24.7228 44.0263 24.6499C44.432 24.5074 44.6498 24.2749 44.8031 23.836C44.9424 23.4272 45.0081 22.8138 45.1224 22.2758L45.4205 20.6154L46.0172 17.2946L46.1669 16.4777C46.2094 16.2585 46.2112 16.0335 46.1724 15.8136C46.1609 15.7331 46.1318 15.6561 46.0872 15.588C46.0425 15.5199 45.9833 15.4623 45.9138 15.4193C45.7703 15.3306 45.5446 15.2871 45.3055 15.2816C44.3037 15.2666 43.2507 15.6813 42.5883 16.4777C42.2483 16.8759 42.0026 17.3447 41.8693 17.8495C41.8077 18.1213 41.7624 18.3965 41.7336 18.6737L41.618 19.5262L41.1569 22.8385C40.2536 23.045 39.3387 23.1555 38.4293 23.2992L37.7426 23.4013Z" fill="white"/>
<path d="M50.4684 15.7744H47.5626L47.2414 17.7874L47.2177 17.9347L47.0023 19.2431C46.7353 20.8733 46.4591 22.5567 46.1696 24.2134C45.9871 25.261 45.1963 25.9879 44.1014 26.1117C43.5326 26.1763 42.8185 26.2548 40.2812 26.3261L40.9632 29.2109C42.9949 29.2013 44.0478 29.0123 44.2997 28.9748C46.8861 28.5896 48.5462 27.1677 48.9738 24.9712C49.3388 23.1061 49.6338 21.203 49.9258 19.3295C50.0231 18.7044 50.1215 18.079 50.2208 17.4535C50.2257 17.4251 50.2239 17.3986 50.2269 17.3708L50.4684 15.7744Z" fill="white"/>
</svg>
