<svg width="595" height="44" viewBox="0 0 595 44" fill="none" xmlns="http://www.w3.org/2000/svg">
<path fill-rule="evenodd" clip-rule="evenodd" d="M596 0V44H574.525V42.0961H572.651C572.642 41.7462 572.612 41.4594 572.574 41.299C572.52 41.0998 572.452 39.6418 572.443 38.6163H572.666V37.7755H572.457C572.467 37.6832 572.472 37.62 572.486 37.6054V37.2749C572.486 37.2749 572.307 36.9056 572.229 34.4513C572.171 32.5704 572.253 28.3665 572.176 26.3836H572.404V25.674H572.127C572.103 25.4456 572.069 25.3144 572.03 25.3144C571.729 25.3144 571.501 12.8533 571.142 12.7269C570.783 12.8533 570.555 25.3144 570.254 25.3144C570.215 25.3144 570.181 25.4456 570.157 25.674H569.88V26.3836H570.108C570.031 28.3665 570.118 32.5704 570.055 34.4513C569.977 36.9056 569.798 37.2749 569.798 37.2749V37.6054C569.798 37.6054 569.822 37.6832 569.827 37.7755H569.618V38.6163H569.841C569.841 38.7815 569.836 38.9565 569.832 39.1363C569.007 37.6394 567.478 36.3515 564.881 35.3066C562.304 34.2666 561.44 32.7357 561.164 32.0164C561.581 31.9726 561.892 31.7685 561.892 31.5255C561.892 31.2971 561.615 31.1076 561.241 31.0444L561.178 29.4066C561.3 29.3725 561.387 29.2996 561.387 29.217C561.387 29.1295 561.295 29.0566 561.164 29.0177L561.106 27.4139C561.683 27.5403 562.299 27.5209 562.896 27.3167C563.799 27.0106 564.483 26.369 564.867 25.5769C564.547 25.8539 564.168 26.0726 563.746 26.2135C561.974 26.8113 560.043 25.8587 559.446 24.08C559.15 23.2003 559.232 22.2866 559.606 21.5139C558.587 22.3887 558.14 23.8272 558.596 25.1832C558.975 26.3107 559.887 27.1029 560.96 27.3848L560.863 29.008C560.698 29.0372 560.577 29.1149 560.577 29.217C560.577 29.3093 560.683 29.392 560.839 29.426L560.737 31.0444C560.358 31.1027 560.077 31.2971 560.077 31.5255C560.077 31.7782 560.412 31.9824 560.848 32.0212C560.572 32.7405 559.708 34.2666 557.131 35.3066C555.592 35.9238 554.432 36.6286 553.569 37.411C553.355 35.3747 552.195 33.6882 549.094 32.4441C547.075 31.6324 546.4 30.432 546.187 29.8683C546.512 29.8342 546.755 29.6739 546.755 29.4843C546.755 29.3045 546.541 29.1587 546.245 29.1101L546.197 27.827C546.294 27.7979 546.362 27.7444 546.362 27.6764C546.362 27.6083 546.289 27.55 546.187 27.5209L546.119 25.7324H546.056L545.949 27.5111C545.823 27.5354 545.726 27.5986 545.726 27.6764C545.726 27.7493 545.813 27.8125 545.93 27.8416L545.852 29.1101C545.556 29.1538 545.333 29.3045 545.333 29.4843C545.333 29.6836 545.595 29.844 545.939 29.8731C545.721 30.4369 545.046 31.6324 543.027 32.4441C542.455 32.6725 541.95 32.9204 541.504 33.1828C540.344 30.3737 537.825 27.9826 533.122 26.092C529.011 24.4347 527.628 21.995 527.191 20.8432C527.852 20.7703 528.351 20.4447 528.351 20.0607C528.351 19.6768 527.91 19.39 527.308 19.2928L527.211 16.683C527.41 16.6198 527.546 16.508 527.546 16.372C527.546 16.2359 527.4 16.1144 527.191 16.0512L527.094 13.4948C528.017 13.6941 528.997 13.6601 529.958 13.3393C531.394 12.8533 532.486 11.8278 533.103 10.5642C532.588 11.0016 531.987 11.3515 531.312 11.58C528.478 12.5325 525.401 11.0065 524.445 8.17308C523.974 6.76367 524.105 5.30566 524.702 4.07122C523.071 5.4709 522.363 7.7697 523.091 9.93242C523.697 11.7306 525.153 12.9991 526.861 13.4462L526.706 16.0318C526.444 16.0755 526.255 16.2116 526.255 16.372C526.255 16.5226 526.425 16.6538 526.667 16.7024L526.512 19.288C525.901 19.3852 525.449 19.6914 525.449 20.0607C525.449 20.4592 525.983 20.7897 526.682 20.848C526.24 21.9999 524.857 24.4396 520.746 26.092C516.272 27.8951 513.777 30.1453 512.545 32.7843C512.302 32.6676 512.05 32.551 511.778 32.4441C509.764 31.6324 509.084 30.432 508.871 29.8683C509.196 29.8342 509.439 29.6739 509.439 29.4843C509.439 29.3045 509.225 29.1587 508.929 29.1101L508.88 27.827C508.977 27.7979 509.045 27.7444 509.045 27.6764C509.045 27.6083 508.973 27.55 508.871 27.5209L508.803 25.7324H508.74L508.633 27.5111C508.507 27.5354 508.415 27.5986 508.415 27.6764C508.415 27.7493 508.497 27.8125 508.613 27.8416L508.536 29.1101C508.24 29.1538 508.017 29.3045 508.017 29.4843C508.017 29.6836 508.279 29.844 508.623 29.8731C508.405 30.4369 507.73 31.6324 505.716 32.4441C502.251 33.834 501.203 35.7781 501.203 38.1497C501.203 38.5142 501.242 38.8739 501.29 39.2238H501.203V41.3817C500.606 39.3453 499.024 37.6346 495.738 36.3127C493.156 35.2726 492.292 33.7466 492.02 33.0273C492.433 32.9787 492.748 32.7745 492.748 32.5315C492.748 32.308 492.472 32.1136 492.093 32.0553L492.035 30.4174C492.156 30.3786 492.244 30.3057 492.244 30.223C492.244 30.1356 492.151 30.0627 492.02 30.0286L491.962 28.4248C492.535 28.5463 493.151 28.5269 493.753 28.3228C494.651 28.0214 495.34 27.3799 495.723 26.5877C495.403 26.8599 495.025 27.0786 494.602 27.2244C492.826 27.8222 490.899 26.8648 490.302 25.086C490.006 24.2063 490.089 23.2926 490.463 22.5199C489.443 23.3947 488.997 24.8333 489.453 26.1892C489.832 27.3167 490.744 28.1089 491.817 28.3908L491.715 30.0141C491.555 30.0432 491.433 30.1258 491.433 30.223C491.433 30.3202 491.54 30.398 491.69 30.432L491.593 32.0504C491.21 32.1136 490.928 32.3031 490.928 32.5315C490.928 32.7843 491.263 32.9933 491.7 33.0273C491.423 33.7466 490.56 35.2775 487.987 36.3127C485.677 37.2409 484.217 38.3636 483.338 39.6515C483.324 39.2724 483.319 38.8885 483.314 38.5434H483.532V37.7026H483.328C483.333 37.6103 483.343 37.5471 483.358 37.5325V37.202C483.358 37.202 483.178 36.8327 483.1 34.3832C483.037 32.4975 483.125 28.2936 483.047 26.3107H483.275V25.6012H482.998C482.974 25.3776 482.94 25.2415 482.896 25.2415C482.6 25.2415 482.367 12.7804 482.013 12.654C481.654 12.7804 481.426 25.2415 481.125 25.2415C481.081 25.2415 481.052 25.3776 481.028 25.6012H480.751V26.3107H480.979C480.897 28.2936 480.984 32.4975 480.926 34.3832C480.848 36.8327 480.669 37.202 480.669 37.202V37.5325C480.669 37.5325 480.688 37.6103 480.698 37.7026H480.489V38.5434H480.712C480.703 39.5689 480.635 41.0269 480.581 41.2261C480.538 41.3962 480.514 41.7121 480.499 42.0961H478.99V44L-0.5 44V2.64623e-06L596 0Z" fill="#F04935"/>
</svg>
