<svg width="296" height="113" viewBox="0 0 296 113" fill="none" xmlns="http://www.w3.org/2000/svg">
<g filter="url(#filter0_d_0_1)">
<path d="M261.571 55.5005L260.113 57.7169L261.296 60.0899L259.584 62.1149L260.471 64.6132L258.526 66.4155L259.104 69.0043L256.953 70.5596L257.214 73.197L254.894 74.4774L254.831 77.1288L252.374 78.1204L251.995 80.7474L249.434 81.4364L248.745 83.9972L246.118 84.3765L245.127 86.8365L242.475 86.8956L241.195 89.2164L238.554 88.9555L237.002 91.1058L234.413 90.5282L232.611 92.4732L230.113 91.5859L228.088 93.2978L225.715 92.1148L223.498 93.5727L221.282 92.1148L218.909 93.2978L216.884 91.5859L214.386 92.4732L212.583 90.5282L209.995 91.1058L208.443 88.9555L205.802 89.2164L204.521 86.8956L201.87 86.833L200.878 84.3765L198.251 83.9972L197.562 81.4364L195.002 80.7474L194.626 78.1204L192.166 77.1288L192.103 74.4774L189.782 73.197L190.043 70.5561L187.893 69.0043L188.471 66.4155L186.526 64.6132L187.416 62.1149L185.704 60.0899L186.888 57.7169L185.43 55.5005L186.888 53.2841L185.704 50.9111L187.416 48.886L186.526 46.3878L188.474 44.5854L187.893 41.9967L190.043 40.4449L189.782 37.804L192.107 36.5235L192.166 33.8722L194.626 32.8805L195.005 30.2535L197.562 29.5646L198.255 27.0037L200.878 26.6279L201.87 24.168L204.521 24.1053L205.805 21.7845L208.443 22.0455L209.995 19.8952L212.583 20.4728L214.386 18.5278L216.884 19.4185L218.909 17.7066L221.282 18.8896L223.498 17.4317L225.715 18.8896L228.088 17.7066L230.113 19.4185L232.611 18.5278L234.413 20.4763L237.002 19.8952L238.557 22.0455L241.195 21.7845L242.475 24.1088L245.127 24.168L246.118 26.6279L248.745 27.0072L249.434 29.5646L251.995 30.257L252.374 32.8805L254.834 33.8722L254.894 36.5235L257.214 37.8074L256.953 40.4449L259.104 41.9967L258.526 44.5854L260.471 46.3878L259.584 48.886L261.296 50.9111L260.113 53.2841L261.571 55.5005Z" fill="white"/>
</g>
<path fill-rule="evenodd" clip-rule="evenodd" d="M223.498 17.2237L225.726 18.6895L228.112 17.5L230.148 19.2212L232.66 18.3256L234.472 20.2848L237.075 19.7006L238.639 21.8627L241.291 21.6003L242.579 23.9373L245.244 23.9968L246.242 26.4703L248.883 26.8516L249.576 29.423L252.15 30.1192L252.532 32.7568L255.005 33.7539L255.065 36.4199L257.398 37.7109L257.136 40.3626L259.298 41.9229L258.717 44.526L260.673 46.3383L259.781 48.8503L261.502 50.8864L260.312 53.2723L261.778 55.5007L260.312 57.7291L261.502 60.115L259.781 62.1511L260.673 64.6631L258.717 66.4754L259.298 69.0783L257.136 70.6422L257.398 73.2942L255.064 74.5817L255.001 77.2475L252.532 78.2445L252.15 80.8859L249.576 81.5786L248.883 84.1533L246.242 84.5346L245.244 87.0081L242.579 87.0675L241.291 89.4011L238.636 89.1387L237.075 91.3008L234.472 90.72L232.66 92.6757L230.148 91.7836L228.112 93.5048L225.726 92.3154L223.498 93.7812L221.269 92.3154L218.883 93.5048L216.847 91.7836L214.335 92.6757L212.523 90.72L209.92 91.3008L208.36 89.1387L205.704 89.4011L204.417 87.0674L201.751 87.0044L200.754 84.5346L198.113 84.1533L197.42 81.5786L194.845 80.8859L194.467 78.2445L191.994 77.2476L191.931 74.5817L189.597 73.2942L189.86 70.6388L187.698 69.0785L188.278 66.4754L186.323 64.663L187.218 62.151L185.497 60.115L186.686 57.7291L185.221 55.5007L186.686 53.2723L185.497 50.8864L187.218 48.8504L186.323 46.3383L188.282 44.526L187.698 41.923L189.86 40.3626L189.597 37.7072L191.934 36.4197L191.994 33.7539L194.467 32.7568L194.849 30.1156L197.42 29.4229L198.116 26.848L200.754 26.4702L201.751 23.997L204.417 23.934L205.708 21.6004L208.36 21.8627L209.92 19.7007L212.523 20.2814L214.335 18.3256L216.847 19.2212L218.883 17.5L221.269 18.6895L223.498 17.2237ZM223.498 17.6402L221.293 19.0902L218.933 17.9136L216.919 19.6162L214.435 18.7304L212.642 20.6646L210.068 20.0902L208.525 22.2287L205.901 21.9692L204.625 24.2771L201.988 24.3394L201.002 26.7862L198.392 27.1599L197.704 29.7068L195.16 30.392L194.783 33.0047L192.337 33.9909L192.278 36.6278L189.966 37.9012L190.226 40.5276L188.087 42.0708L188.665 44.6453L186.727 46.4377L187.613 48.9221L185.911 50.9362L187.087 53.2963L185.637 55.5007L187.087 57.7052L185.911 60.0652L187.613 62.0793L186.727 64.5638L188.662 66.3561L188.087 68.9305L190.226 70.4738L189.966 73.1003L192.274 74.3736L192.336 77.0105L194.783 77.9968L195.157 80.6095L197.704 81.2946L198.389 83.8416L201.002 84.2188L201.988 86.662L204.625 86.7243L205.898 89.0323L208.525 88.7727L210.068 90.9112L212.642 90.3368L214.435 92.2711L216.919 91.3888L218.933 93.0913L221.293 91.9147L223.498 93.3647L225.702 91.9147L228.062 93.0913L230.076 91.3888L232.561 92.2711L234.353 90.3368L236.927 90.9112L238.471 88.7727L241.097 89.0323L242.371 86.7242L245.007 86.6653L245.994 84.2188L248.606 83.8416L249.292 81.2946L251.839 80.6094L252.216 77.9968L254.659 77.0105L254.721 74.3736L257.029 73.1003L256.77 70.4774L258.908 68.9306L258.334 66.3561L260.268 64.5637L259.386 62.0792L261.088 60.0653L259.912 57.7052L261.362 55.5007L259.912 53.2963L261.088 50.9362L259.386 48.9222L260.268 46.4377L258.334 44.6453L258.908 42.0709L256.77 40.5276L257.029 37.9045L254.721 36.6276L254.662 33.9909L252.216 33.0047L251.839 30.3953L249.292 29.7067L248.606 27.1633L245.994 26.7861L245.007 24.3396L242.371 24.2807L241.097 21.9692L238.474 22.2287L236.928 20.0903L234.353 20.6682L232.561 18.7304L230.076 19.6162L228.062 17.9136L225.702 19.0902L223.498 17.6402Z" fill="#EF4136"/>
<path fill-rule="evenodd" clip-rule="evenodd" d="M223.501 30.4034C209.64 30.4034 198.403 41.6399 198.403 55.5007C198.403 69.3616 209.64 80.5981 223.501 80.5981C237.362 80.5981 248.598 69.3616 248.598 55.5007C248.598 41.6399 237.362 30.4034 223.501 30.4034ZM197.36 55.5007C197.36 41.0634 209.063 29.3596 223.501 29.3596C237.938 29.3596 249.642 41.0634 249.642 55.5007C249.642 69.9381 237.938 81.6419 223.501 81.6419C209.063 81.6419 197.36 69.9381 197.36 55.5007Z" fill="#EF4136"/>
<path d="M238.689 66.3844C231.49 73.5834 219.816 73.5834 212.617 66.3844C205.418 59.1854 205.418 47.5118 212.617 40.3128C214.691 38.2391 217.137 36.7638 219.743 35.8835C216.058 36.6316 212.544 38.4339 209.684 41.2905C201.946 49.0289 201.946 61.5793 209.684 69.3176C217.426 77.0559 229.973 77.0559 237.711 69.3176C240.568 66.4609 242.37 62.9467 243.118 59.2619C242.241 61.8646 240.766 64.3106 238.689 66.3844Z" fill="#EF4136"/>
<path d="M225.107 53.1864C225.107 56.922 222.782 59.827 217.951 59.6304C214.712 59.4927 212.362 57.3251 212.362 54.779C212.362 51.6184 214.81 48.8118 218.285 48.1777C217.012 47.701 216.216 46.6294 216.216 45.5726C216.216 43.8818 217.848 42.2745 220.231 42.2745C222.178 42.2745 223.215 43.4886 223.215 45.5726H222.419C222.419 43.7638 221.701 42.6677 220.231 42.6677C219.116 42.6677 218.005 43.7589 218.005 45.5726C218.005 47.121 218.919 48.0401 219.794 48.0401V48.4383C216.83 48.4383 214.146 51.1023 214.146 54.779C214.146 57.4037 216.014 59.1339 217.946 59.2322C221.465 59.4288 223.515 56.809 223.515 52.9898C223.515 50.5862 222.379 50.2471 221.269 50.2471C219.76 50.2471 218.447 51.3579 218.088 53.2307L218.226 53.211C218.683 53.211 219.062 53.6681 219.062 54.2039C219.062 54.7397 218.703 55.1771 218.226 55.1771C217.789 55.1968 217.41 54.7397 217.41 54.2039C217.41 51.8396 218.801 49.6523 221.269 49.6523C224.051 49.6523 225.107 51.702 225.107 53.1913V53.1864Z" fill="#EF4136"/>
<path d="M229.94 56.2092C229.783 57.4626 229.365 58.7946 227.994 58.7946C226.382 58.7946 225.251 57.959 225.448 56.627L226.46 49.9471L228.23 50.0061L227.178 56.8236C227.021 57.8558 227.478 58.3965 227.994 58.3965C228.751 58.3965 229.188 57.6198 229.365 56.1502L229.94 56.2092ZM226.741 47.7401C226.741 47.224 227.158 46.8062 227.675 46.8062C228.191 46.8062 228.608 47.224 228.608 47.7401C228.608 48.2562 228.191 48.674 227.675 48.674C227.158 48.674 226.741 48.2562 226.741 47.7401Z" fill="#EF4136"/>
<path d="M235.346 56.2097C235.105 57.699 235.425 58.397 236.083 58.397V58.7951C234.712 58.7951 233.994 58.4363 233.7 57.7826C233.301 58.397 232.608 58.8344 231.832 58.7754C229.964 58.6378 229.187 57.3648 229.384 56.1507L230.102 51.7761C230.279 50.6849 231.753 49.4708 233.503 49.9083C233.96 50.0262 234.28 50.2474 234.496 50.5423L235.292 45.6909L237.062 45.7499L235.351 56.2097H235.346ZM233.478 56.8044L233.537 56.4259L233.577 56.1458L234.23 52.1496C234.309 51.1764 234.009 50.3998 233.395 50.3015C232.78 50.2032 232.082 50.562 231.842 51.8547L231.124 56.2293C230.947 57.3844 231.203 58.2593 231.92 58.3773C232.535 58.4756 233.252 58.0971 233.469 56.8044H233.478Z" fill="#EF4136"/>
<path d="M218.728 63.1752V62.0988L218.197 62.9786H217.942L217.421 62.1283V63.1802H216.89V61.1452H217.362L218.074 62.32L218.772 61.1452H219.244V63.1802H218.723L218.728 63.1752Z" fill="#EF4136"/>
<path d="M220.454 62.9687C220.287 62.8016 220.204 62.5706 220.204 62.2658V61.1402H220.779V62.2511C220.779 62.5755 220.907 62.7377 221.167 62.7377C221.428 62.7377 221.551 62.5755 221.551 62.2511V61.1402H222.116V62.2658C222.116 62.5706 222.032 62.8016 221.865 62.9687C221.698 63.1358 221.462 63.2145 221.162 63.2145C220.862 63.2145 220.627 63.1309 220.459 62.9687H220.454Z" fill="#EF4136"/>
<path d="M224.894 62.3002C224.958 62.3887 224.992 62.4919 224.992 62.6148C224.992 62.7918 224.919 62.9294 224.776 63.0277C224.634 63.126 224.427 63.1752 224.152 63.1752H223.051V61.1402H224.093C224.353 61.1402 224.55 61.1894 224.688 61.2828C224.825 61.3762 224.889 61.5089 224.889 61.6711C224.889 61.7694 224.865 61.8529 224.82 61.9316C224.771 62.0102 224.707 62.0692 224.619 62.1135C224.737 62.1528 224.825 62.2167 224.894 62.3052V62.3002ZM223.626 61.5531V61.9463H224.019C224.211 61.9463 224.309 61.8824 224.309 61.7497C224.309 61.617 224.211 61.5531 224.019 61.5531H223.626ZM224.412 62.5509C224.412 62.4133 224.309 62.3445 224.113 62.3445H223.631V62.7574H224.113C224.314 62.7574 224.412 62.6885 224.412 62.5509Z" fill="#EF4136"/>
<path d="M227.205 62.7768H226.345L226.188 63.17H225.603L226.502 61.1351H227.068L227.967 63.17H227.368L227.21 62.7768H227.205ZM227.038 62.3541L226.778 61.7053L226.517 62.3541H227.038Z" fill="#EF4136"/>
<path d="M229.569 62.6345H229.255V63.1752H228.679V61.1402H229.608C229.79 61.1402 229.952 61.1697 230.09 61.2336C230.228 61.2926 230.331 61.3811 230.405 61.4941C230.478 61.6072 230.513 61.7399 230.513 61.8923C230.513 62.0446 230.478 62.1675 230.41 62.2757C230.341 62.3838 230.242 62.4723 230.115 62.5313L230.552 63.1702H229.938L229.569 62.6296V62.6345ZM229.844 61.6711C229.785 61.617 229.697 61.5924 229.579 61.5924H229.259V62.1872H229.579C229.697 62.1872 229.785 62.1626 229.844 62.1085C229.903 62.0594 229.933 61.9857 229.933 61.8874C229.933 61.789 229.903 61.7202 229.844 61.6662V61.6711Z" fill="#EF4136"/>
<path d="M232.748 62.7768H231.888L231.73 63.17H231.146L232.045 61.1351H232.61L233.51 63.17H232.91L232.753 62.7768H232.748ZM232.581 62.3541L232.32 61.7053L232.06 62.3541H232.581Z" fill="#EF4136"/>
<path d="M235.008 62.4329L234.792 62.664V63.1752H234.222V61.1402H234.792V61.9857L235.579 61.1402H236.213L235.382 62.0397L236.257 63.1752H235.588L235.008 62.4379V62.4329Z" fill="#EF4136"/>
<path d="M202.068 34.4558L199.969 32.2619L201.293 30.9949L201.519 31.2305L200.46 32.2434L201.17 32.9847L202.159 32.0374L202.385 32.2731L201.395 33.2203L202.109 33.9659L203.184 32.9367L203.41 33.1724L202.068 34.4558Z" fill="#EF4136"/>
<path d="M202.303 30.1356L204.258 32.4587L203.977 32.6955L202.021 30.3724L202.303 30.1356Z" fill="#EF4136"/>
<path d="M205.688 31.3284L204.926 31.8732L203.16 29.4026L203.956 28.8336C204.196 28.6623 204.436 28.5652 204.678 28.5423C204.918 28.5186 205.15 28.5664 205.372 28.6856C205.594 28.804 205.796 28.9911 205.979 29.2468C206.163 29.5042 206.276 29.7585 206.317 30.0098C206.357 30.2603 206.325 30.4981 206.221 30.7231C206.117 30.9473 205.939 31.1491 205.688 31.3284ZM205.035 31.394L205.479 31.0768C205.683 30.9308 205.825 30.7704 205.903 30.5956C205.98 30.4208 206 30.2371 205.962 30.0444C205.924 29.8517 205.833 29.6548 205.69 29.4537C205.547 29.2543 205.392 29.1059 205.224 29.0085C205.055 28.9102 204.879 28.8688 204.694 28.8841C204.509 28.8986 204.32 28.9749 204.127 29.1128L203.649 29.4542L205.035 31.394Z" fill="#EF4136"/>
<path d="M209.203 26.523C209.117 26.3981 208.999 26.3281 208.849 26.3131C208.698 26.298 208.541 26.3331 208.378 26.4182C208.259 26.4805 208.165 26.5542 208.096 26.6394C208.027 26.7242 207.986 26.8134 207.971 26.9069C207.957 27 207.973 27.0895 208.018 27.1753C208.055 27.2472 208.105 27.3 208.166 27.3339C208.227 27.3664 208.294 27.3855 208.366 27.3913C208.438 27.3963 208.51 27.3941 208.581 27.3849C208.651 27.3748 208.715 27.3633 208.772 27.3503L209.083 27.2811C209.163 27.2629 209.254 27.2476 209.357 27.2352C209.461 27.2223 209.567 27.2233 209.675 27.2382C209.783 27.2517 209.886 27.2884 209.983 27.3481C210.08 27.4078 210.162 27.5008 210.228 27.627C210.304 27.7724 210.334 27.9237 210.319 28.081C210.305 28.2377 210.244 28.3887 210.134 28.5339C210.026 28.6786 209.868 28.805 209.661 28.913C209.469 29.0137 209.286 29.0698 209.112 29.0812C208.939 29.0922 208.784 29.0632 208.645 28.994C208.507 28.9244 208.394 28.8187 208.307 28.677L208.643 28.5013C208.705 28.5983 208.783 28.6646 208.878 28.7001C208.973 28.7342 209.074 28.7434 209.183 28.7278C209.293 28.7108 209.401 28.6744 209.508 28.6186C209.632 28.5536 209.733 28.4751 209.811 28.3831C209.889 28.2902 209.937 28.1923 209.957 28.0894C209.977 27.9856 209.961 27.8846 209.909 27.7865C209.863 27.6971 209.8 27.6374 209.721 27.6074C209.641 27.5774 209.552 27.5662 209.452 27.5737C209.352 27.5812 209.248 27.5966 209.14 27.6197L208.759 27.6981C208.517 27.7475 208.306 27.7481 208.125 27.7C207.943 27.652 207.805 27.5372 207.711 27.3559C207.632 27.2052 207.604 27.0525 207.627 26.8978C207.65 26.7417 207.715 26.5964 207.821 26.4619C207.927 26.3261 208.066 26.2133 208.238 26.1236C208.411 26.033 208.582 25.9835 208.749 25.9753C208.916 25.9661 209.067 25.9944 209.202 26.0601C209.337 26.1253 209.443 26.2247 209.518 26.3582L209.203 26.523Z" fill="#EF4136"/>
<path d="M211.09 28.1367L209.932 25.3297L210.88 24.9383C211.1 24.8475 211.297 24.8129 211.469 24.8348C211.642 24.8553 211.791 24.9188 211.914 25.0252C212.037 25.1316 212.132 25.2675 212.201 25.4329C212.269 25.5983 212.297 25.7626 212.285 25.9257C212.274 26.0885 212.215 26.2389 212.109 26.377C212.002 26.5142 211.839 26.6278 211.621 26.7179L210.941 26.9984L210.816 26.6969L211.485 26.4209C211.636 26.3587 211.746 26.2827 211.816 26.1929C211.886 26.1031 211.923 26.0054 211.928 25.8998C211.933 25.7929 211.912 25.6833 211.866 25.5709C211.82 25.4585 211.757 25.3667 211.679 25.2954C211.601 25.2237 211.506 25.1818 211.393 25.1696C211.279 25.1565 211.146 25.1814 210.994 25.2444L210.396 25.4909L211.43 27.9965L211.09 28.1367Z" fill="#EF4136"/>
<path d="M213.687 27.1032L212.787 24.2031L214.537 23.6597L214.634 23.9712L213.235 24.4056L213.539 25.3855L214.847 24.9792L214.944 25.2908L213.636 25.697L213.942 26.6826L215.363 26.2411L215.46 26.5527L213.687 27.1032Z" fill="#EF4136"/>
<path d="M218.116 23.8153L217.756 23.8909C217.713 23.7918 217.656 23.7087 217.587 23.6415C217.518 23.5741 217.44 23.5218 217.354 23.4844C217.268 23.4459 217.177 23.4226 217.08 23.4146C216.983 23.4066 216.886 23.413 216.787 23.4337C216.607 23.4715 216.454 23.5512 216.327 23.6728C216.201 23.7942 216.113 23.9525 216.064 24.1476C216.016 24.3425 216.019 24.5686 216.073 24.826C216.127 25.0833 216.216 25.2915 216.338 25.4507C216.461 25.6096 216.605 25.7193 216.769 25.7798C216.934 25.84 217.107 25.8513 217.287 25.8135C217.385 25.7928 217.477 25.7593 217.563 25.7131C217.648 25.6669 217.722 25.6094 217.785 25.5406C217.85 25.4706 217.899 25.3909 217.935 25.3016C217.972 25.2111 217.99 25.1123 217.99 25.0053L218.35 24.9297C218.354 25.0873 218.334 25.2336 218.287 25.3686C218.241 25.5035 218.173 25.6243 218.084 25.7308C217.996 25.8363 217.889 25.9248 217.766 25.9962C217.644 26.0673 217.507 26.1186 217.357 26.1501C217.104 26.2034 216.866 26.1888 216.642 26.1064C216.419 26.024 216.227 25.8806 216.066 25.676C215.904 25.4715 215.791 25.2125 215.725 24.8991C215.659 24.5857 215.659 24.3029 215.724 24.0508C215.789 23.7988 215.908 23.5901 216.079 23.4248C216.25 23.2596 216.463 23.1503 216.716 23.0971C216.866 23.0656 217.012 23.0578 217.152 23.0737C217.294 23.0894 217.427 23.1282 217.551 23.19C217.675 23.2508 217.785 23.3337 217.882 23.4386C217.978 23.5426 218.056 23.6681 218.116 23.8153Z" fill="#EF4136"/>
<path d="M219.116 22.7301L219.524 25.7392L219.16 25.7886L218.751 22.7796L219.116 22.7301Z" fill="#EF4136"/>
<path d="M220.524 25.603L220.139 25.6263L221.069 22.5278L221.448 22.5048L222.744 25.4684L222.359 25.4917L221.299 22.9951L221.275 22.9965L220.524 25.603ZM220.595 24.4104L222.146 24.3163L222.165 24.6419L220.614 24.736L220.595 24.4104Z" fill="#EF4136"/>
<path d="M223.605 25.4674L223.704 22.4324L224.071 22.4444L223.984 25.1533L225.394 25.1992L225.384 25.5252L223.605 25.4674Z" fill="#EF4136"/>
<path d="M228.114 25.2639C227.995 25.2477 227.891 25.2039 227.801 25.1327C227.711 25.0605 227.644 24.9714 227.598 24.8654C227.554 24.7596 227.54 24.6474 227.556 24.5289C227.573 24.4094 227.616 24.3052 227.687 24.2162C227.76 24.1263 227.849 24.0592 227.954 24.0148C228.06 23.9695 228.173 23.955 228.291 23.9712C228.411 23.9876 228.515 24.0318 228.604 24.1039C228.694 24.1751 228.761 24.2636 228.805 24.3695C228.851 24.4745 228.865 24.5867 228.849 24.7062C228.833 24.8247 228.788 24.9289 228.716 25.0188C228.645 25.1088 228.556 25.1764 228.45 25.2218C228.345 25.2663 228.233 25.2803 228.114 25.2639Z" fill="#EF4136"/>
<path d="M230.94 26.3925L231.782 23.475L233.543 23.9832L233.453 24.2966L232.045 23.8903L231.761 24.8762L233.077 25.2561L232.986 25.5695L231.67 25.1896L231.384 26.1811L232.814 26.5939L232.724 26.9073L230.94 26.3925Z" fill="#EF4136"/>
<path d="M234.795 24.4229L233.766 27.28L233.42 27.1555L234.449 24.2984L234.795 24.4229Z" fill="#EF4136"/>
<path d="M235.455 27.9488L234.601 27.5621L235.854 24.7961L236.746 25.1999C237.014 25.3214 237.218 25.4808 237.359 25.678C237.5 25.8744 237.575 26.0987 237.583 26.3509C237.592 26.6023 237.532 26.8712 237.402 27.1575C237.271 27.4456 237.108 27.6704 236.911 27.8319C236.714 27.9925 236.493 28.0842 236.246 28.1069C235.999 28.1288 235.736 28.0761 235.455 27.9488ZM235.071 27.4167L235.568 27.6419C235.796 27.7455 236.006 27.7872 236.196 27.7671C236.387 27.747 236.556 27.6721 236.703 27.5426C236.851 27.4131 236.976 27.2358 237.078 27.0107C237.179 26.7874 237.229 26.5786 237.23 26.3844C237.23 26.1893 237.177 26.0157 237.072 25.8636C236.966 25.7106 236.805 25.5851 236.589 25.4872L236.054 25.2449L235.071 27.4167Z" fill="#EF4136"/>
<path d="M241.371 28.5838C241.436 28.4474 241.438 28.3102 241.375 28.1723C241.313 28.0345 241.204 27.9164 241.049 27.8179C240.935 27.746 240.824 27.7014 240.716 27.6842C240.608 27.6675 240.51 27.6762 240.422 27.7103C240.334 27.745 240.265 27.8032 240.213 27.8851C240.169 27.9535 240.148 28.0227 240.15 28.0926C240.152 28.1622 240.169 28.2297 240.201 28.2951C240.232 28.3596 240.27 28.4203 240.313 28.4771C240.357 28.5331 240.399 28.5825 240.439 28.6252L240.655 28.8604C240.711 28.9202 240.77 28.9915 240.832 29.0743C240.895 29.1576 240.947 29.2497 240.989 29.3508C241.031 29.4515 241.051 29.5588 241.048 29.6727C241.045 29.7866 241.005 29.9037 240.929 30.0239C240.841 30.1625 240.725 30.2647 240.582 30.3306C240.439 30.397 240.278 30.4192 240.097 30.3974C239.918 30.376 239.729 30.3029 239.532 30.1781C239.349 30.0617 239.208 29.9312 239.111 29.7868C239.015 29.6428 238.963 29.4935 238.953 29.3388C238.944 29.1846 238.979 29.0342 239.058 28.8876L239.379 29.0908C239.326 29.1929 239.307 29.2937 239.324 29.3931C239.342 29.4923 239.385 29.585 239.453 29.6715C239.522 29.7576 239.608 29.833 239.71 29.8975C239.829 29.9727 239.947 30.0209 240.066 30.0423C240.185 30.0628 240.294 30.0559 240.393 30.0215C240.493 29.9863 240.572 29.9219 240.631 29.8284C240.685 29.7432 240.706 29.6589 240.692 29.5753C240.678 29.4917 240.643 29.4086 240.586 29.326C240.53 29.2434 240.465 29.161 240.39 29.0788L240.132 28.7886C239.968 28.604 239.861 28.4213 239.812 28.2403C239.763 28.0594 239.793 27.8825 239.903 27.7096C239.994 27.566 240.112 27.4654 240.257 27.4077C240.404 27.3497 240.562 27.3329 240.732 27.3572C240.902 27.3812 241.07 27.4451 241.233 27.5488C241.399 27.6535 241.527 27.7763 241.618 27.917C241.709 28.057 241.761 28.2017 241.771 28.3511C241.783 28.5012 241.749 28.6422 241.672 28.7743L241.371 28.5838Z" fill="#EF4136"/>
<path d="M240.921 31.0268L242.769 28.6171L243.583 29.2414C243.772 29.3864 243.901 29.539 243.968 29.6992C244.037 29.8593 244.057 30.0193 244.026 30.1791C243.996 30.3389 243.926 30.4898 243.818 30.6318C243.709 30.7738 243.581 30.8806 243.434 30.9522C243.287 31.0243 243.128 31.0489 242.955 31.0259C242.782 31.0022 242.603 30.9184 242.415 30.7746L241.831 30.3272L242.03 30.0683L242.604 30.5086C242.734 30.6078 242.855 30.6652 242.967 30.6806C243.08 30.696 243.183 30.6792 243.277 30.6302C243.372 30.581 243.456 30.5082 243.53 30.4117C243.604 30.3152 243.653 30.2151 243.675 30.1113C243.698 30.0082 243.686 29.9046 243.64 29.8007C243.595 29.6961 243.506 29.5935 243.375 29.4931L242.862 29.0997L241.213 31.2506L240.921 31.0268Z" fill="#EF4136"/>
<path d="M243.119 32.7565L245.174 30.5209L246.523 31.7612L246.302 32.0013L245.224 31.0099L244.529 31.7653L245.538 32.6925L245.317 32.9326L244.308 32.0055L243.61 32.7652L244.706 33.7727L244.485 34.0128L243.119 32.7565Z" fill="#EF4136"/>
<path d="M248.192 34.9349L247.945 34.662C248.009 34.5749 248.052 34.4844 248.075 34.3904C248.099 34.2971 248.105 34.2037 248.094 34.11C248.084 34.0164 248.058 33.9259 248.016 33.8383C247.975 33.7508 247.92 33.6697 247.853 33.5948C247.729 33.4584 247.583 33.3659 247.414 33.3174C247.246 33.2696 247.065 33.2737 246.872 33.3296C246.679 33.3863 246.485 33.5027 246.29 33.6789C246.095 33.8551 245.96 34.0361 245.884 34.2219C245.808 34.4084 245.786 34.5879 245.816 34.7602C245.847 34.9332 245.925 35.088 246.048 35.2245C246.115 35.2993 246.19 35.3619 246.273 35.4123C246.356 35.4627 246.443 35.498 246.535 35.518C246.627 35.5382 246.721 35.5412 246.816 35.5272C246.913 35.5132 247.008 35.4792 247.1 35.4251L247.346 35.698C247.213 35.7815 247.076 35.8371 246.936 35.865C246.796 35.8928 246.657 35.8952 246.521 35.8722C246.385 35.8484 246.255 35.8012 246.131 35.7305C246.008 35.6605 245.895 35.5687 245.792 35.455C245.619 35.2628 245.511 35.0494 245.47 34.815C245.429 34.5805 245.456 34.3422 245.552 34.1C245.647 33.8578 245.814 33.6294 246.052 33.4148C246.29 33.2002 246.534 33.0576 246.784 32.9871C247.035 32.9166 247.275 32.9138 247.504 32.9787C247.733 33.0435 247.934 33.1721 248.108 33.3643C248.211 33.478 248.29 33.5997 248.347 33.7293C248.405 33.8596 248.439 33.9939 248.448 34.1322C248.457 34.2699 248.441 34.407 248.399 34.5434C248.358 34.6792 248.289 34.8097 248.192 34.9349Z" fill="#EF4136"/>
<path d="M249.636 35.2555L247.242 37.1238L247.016 36.8339L249.409 34.9656L249.636 35.2555Z" fill="#EF4136"/>
<path d="M247.86 37.9142L247.646 37.5935L250.79 36.8352L251.001 37.1509L249.094 39.7641L248.88 39.4434L250.503 37.2696L250.489 37.2499L247.86 37.9142ZM248.925 37.3741L249.788 38.6665L249.517 38.8476L248.654 37.5552L248.925 37.3741Z" fill="#EF4136"/>
<path d="M249.534 40.5109L252.207 39.0713L252.382 39.3951L249.995 40.68L250.664 41.9229L250.377 42.0775L249.534 40.5109Z" fill="#EF4136"/>
<path d="M251.964 44.3011C251.919 44.1905 251.905 44.0784 251.921 43.9648C251.938 43.8508 251.982 43.7476 252.051 43.6553C252.12 43.5638 252.21 43.4954 252.321 43.45C252.432 43.4043 252.544 43.3899 252.657 43.4067C252.771 43.4241 252.874 43.4675 252.965 43.5368C253.057 43.6058 253.126 43.6956 253.172 43.8062C253.217 43.9178 253.231 44.0301 253.214 44.1432C253.197 44.2568 253.154 44.3593 253.085 44.4507C253.017 44.5427 252.927 44.6116 252.815 44.6573C252.705 44.7027 252.592 44.7167 252.478 44.6993C252.365 44.6828 252.262 44.6401 252.17 44.5712C252.078 44.5027 252.01 44.4127 251.964 44.3011Z" fill="#EF4136"/>
<path d="M252.407 47.3117L255.353 46.5781L255.796 48.3565L255.48 48.4353L255.126 47.0137L254.13 47.2616L254.461 48.5911L254.144 48.6699L253.813 47.3404L252.812 47.5897L253.172 49.0343L252.855 49.1131L252.407 47.3117Z" fill="#EF4136"/>
<path d="M256.046 49.6702L253.058 50.2116L252.992 49.8498L255.98 49.3084L256.046 49.6702Z" fill="#EF4136"/>
<path d="M253.323 52.0033L253.229 51.0709L256.251 50.7678L256.348 51.7415C256.378 52.0346 256.342 52.2914 256.242 52.5121C256.143 52.7326 255.987 52.9098 255.773 53.0435C255.559 53.1772 255.296 53.2597 254.984 53.2911C254.669 53.3227 254.392 53.2938 254.154 53.2045C253.916 53.115 253.726 52.9692 253.583 52.7671C253.44 52.5648 253.353 52.3102 253.323 52.0033ZM253.59 51.4043L253.645 51.9472C253.67 52.197 253.739 52.3992 253.852 52.5538C253.965 52.7084 254.114 52.817 254.3 52.8798C254.486 52.9426 254.702 52.9617 254.948 52.937C255.192 52.9125 255.398 52.8516 255.566 52.7543C255.735 52.6569 255.859 52.5242 255.938 52.3564C256.017 52.1885 256.045 51.9865 256.021 51.7504L255.963 51.1662L253.59 51.4043Z" fill="#EF4136"/>
<path d="M255.748 57.4416C255.899 57.4294 256.018 57.3617 256.106 57.2383C256.194 57.115 256.241 56.9614 256.248 56.7777C256.253 56.6433 256.236 56.525 256.196 56.4226C256.156 56.3212 256.099 56.241 256.025 56.1818C255.951 56.1237 255.866 56.0928 255.769 56.0892C255.688 56.0862 255.618 56.1029 255.558 56.1392C255.499 56.1766 255.449 56.2252 255.409 56.285C255.369 56.3449 255.335 56.4079 255.308 56.4742C255.282 56.5405 255.26 56.6015 255.243 56.6572L255.149 56.9623C255.125 57.0406 255.093 57.1274 255.053 57.2229C255.013 57.3193 254.96 57.4108 254.893 57.4974C254.828 57.5849 254.745 57.6561 254.645 57.7107C254.545 57.7653 254.424 57.79 254.282 57.7847C254.118 57.7786 253.971 57.7301 253.842 57.6393C253.713 57.5494 253.612 57.421 253.54 57.2542C253.468 57.0883 253.437 56.8888 253.445 56.6556C253.453 56.4383 253.495 56.2515 253.571 56.095C253.647 55.9396 253.75 55.8188 253.879 55.7325C254.007 55.6473 254.155 55.6019 254.321 55.5962L254.307 55.9755C254.192 55.9811 254.096 56.0161 254.019 56.0805C253.942 56.1459 253.883 56.2298 253.843 56.3321C253.804 56.4355 253.782 56.5475 253.777 56.668C253.772 56.8083 253.79 56.935 253.831 57.0484C253.873 57.1617 253.934 57.2525 254.014 57.3207C254.095 57.389 254.19 57.4252 254.301 57.4293C254.401 57.4331 254.485 57.408 254.55 57.354C254.615 57.3001 254.669 57.2279 254.712 57.1375C254.755 57.0471 254.793 56.9491 254.827 56.8435L254.948 56.4741C255.025 56.2396 255.129 56.0555 255.26 55.9219C255.392 55.7883 255.56 55.7253 255.764 55.733C255.934 55.7393 256.081 55.7907 256.204 55.8873C256.328 55.9849 256.422 56.113 256.486 56.2717C256.552 56.4314 256.581 56.6081 256.573 56.8017C256.566 56.9972 256.525 57.1698 256.449 57.3193C256.374 57.4689 256.275 57.5858 256.151 57.6703C256.027 57.7557 255.888 57.798 255.735 57.7972L255.748 57.4416Z" fill="#EF4136"/>
<path d="M253.41 58.2872L256.423 58.6699L256.293 59.6877C256.263 59.9241 256.196 60.1118 256.092 60.251C255.988 60.3913 255.86 60.4886 255.706 60.5429C255.553 60.5971 255.388 60.613 255.21 60.5904C255.033 60.5679 254.876 60.5111 254.74 60.4201C254.604 60.3301 254.502 60.2046 254.435 60.0436C254.369 59.8827 254.351 59.6851 254.38 59.4507L254.473 58.7211L254.797 58.7623L254.705 59.4801C254.685 59.6419 254.696 59.7753 254.74 59.8805C254.783 59.9857 254.85 60.0663 254.939 60.1226C255.03 60.1799 255.135 60.2162 255.256 60.2315C255.376 60.2468 255.487 60.238 255.588 60.205C255.689 60.1729 255.772 60.1108 255.839 60.0186C255.906 59.9265 255.95 59.7986 255.971 59.6349L256.053 58.9936L253.364 58.652L253.41 58.2872Z" fill="#EF4136"/>
<path d="M253.026 61.0436L255.992 61.6941L255.6 63.4842L255.281 63.4143L255.595 61.9834L254.593 61.7636L254.299 63.1018L253.981 63.032L254.274 61.6937L253.266 61.4726L252.947 62.9267L252.629 62.8569L253.026 61.0436Z" fill="#EF4136"/>
<path d="M253.693 66.5287L253.805 66.1785C253.913 66.1901 254.013 66.1823 254.106 66.155C254.198 66.1286 254.282 66.087 254.357 66.0302C254.433 65.9747 254.499 65.9069 254.554 65.8269C254.608 65.7468 254.651 65.6588 254.682 65.5628C254.738 65.3878 254.745 65.215 254.702 65.0445C254.659 64.8749 254.564 64.7206 254.419 64.5815C254.273 64.4435 254.075 64.3342 253.825 64.2539C253.575 64.1736 253.35 64.1472 253.151 64.1747C252.952 64.2032 252.786 64.2739 252.652 64.3867C252.518 64.5004 252.423 64.6448 252.366 64.8199C252.336 64.9159 252.319 65.0124 252.317 65.1093C252.315 65.2062 252.328 65.2992 252.357 65.3883C252.386 65.4786 252.431 65.5614 252.491 65.6367C252.551 65.7133 252.628 65.7779 252.721 65.8306L252.609 66.1807C252.469 66.107 252.353 66.0165 252.258 65.9094C252.164 65.8023 252.092 65.6839 252.044 65.5541C251.996 65.4246 251.972 65.2885 251.971 65.146C251.969 65.0044 251.992 64.8607 252.039 64.7148C252.118 64.4682 252.249 64.2682 252.431 64.1149C252.613 63.9615 252.833 63.8654 253.09 63.8266C253.348 63.7877 253.629 63.8172 253.934 63.9151C254.239 64.0129 254.485 64.1525 254.671 64.3339C254.858 64.5153 254.981 64.7214 255.04 64.952C255.099 65.1827 255.089 65.4213 255.009 65.6679C254.963 65.8138 254.897 65.944 254.814 66.0584C254.73 66.1737 254.631 66.27 254.516 66.3473C254.402 66.4249 254.275 66.4797 254.136 66.5119C253.998 66.5445 253.85 66.55 253.693 66.5287Z" fill="#EF4136"/>
<path d="M254.139 67.9403L251.322 66.8057L251.459 66.4646L254.276 67.5992L254.139 67.9403Z" fill="#EF4136"/>
<path d="M250.947 67.7335L251.118 67.3877L253.349 69.73L253.181 70.0705L249.964 69.7286L250.135 69.3828L252.829 69.6986L252.839 69.6773L250.947 67.7335ZM251.949 68.3855L251.262 69.7793L250.969 69.6352L251.656 68.2413L251.949 68.3855Z" fill="#EF4136"/>
<path d="M249.533 70.4864L252.117 72.0807L251.924 72.3937L249.617 70.9707L248.876 72.172L248.599 72.0007L249.533 70.4864Z" fill="#EF4136"/>
<path d="M247.474 74.4911C247.547 74.3964 247.637 74.3277 247.743 74.285C247.851 74.2429 247.961 74.2286 248.076 74.242C248.19 74.2561 248.294 74.2997 248.389 74.3728C248.484 74.4464 248.553 74.5362 248.595 74.6421C248.637 74.7494 248.651 74.8601 248.637 74.9739C248.623 75.0884 248.58 75.1931 248.507 75.2878C248.434 75.3833 248.343 75.4517 248.237 75.493C248.13 75.5357 248.02 75.5499 247.906 75.5357C247.792 75.523 247.688 75.4798 247.592 75.4061C247.497 75.3331 247.429 75.2429 247.387 75.1356C247.344 75.0291 247.33 74.9185 247.343 74.804C247.357 74.6909 247.4 74.5866 247.474 74.4911Z" fill="#EF4136"/>
<path d="M245.09 76.3822L247.205 78.5603L245.891 79.8373L245.664 79.6033L246.714 78.5826L245.999 77.8466L245.017 78.8013L244.79 78.5673L245.772 77.6127L245.053 76.8724L243.985 77.9097L243.758 77.6757L245.09 76.3822Z" fill="#EF4136"/>
<path d="M244.89 80.7082L242.917 78.3998L243.197 78.1609L245.17 80.4693L244.89 80.7082Z" fill="#EF4136"/>
<path d="M241.492 79.5406L242.251 78.99L244.035 81.4473L243.243 82.0223C243.005 82.1953 242.765 82.2942 242.524 82.3189C242.283 82.3445 242.051 82.2985 241.828 82.1809C241.605 82.0642 241.402 81.8786 241.217 81.6242C241.031 81.3683 240.917 81.1148 240.874 80.8638C240.831 80.6136 240.861 80.3756 240.964 80.1498C241.067 79.9249 241.243 79.7218 241.492 79.5406ZM242.145 79.47L241.703 79.7906C241.5 79.9381 241.36 80.0996 241.284 80.2749C241.207 80.4503 241.188 80.6342 241.228 80.8266C241.267 81.019 241.36 81.2152 241.505 81.4152C241.649 81.6135 241.805 81.7608 241.974 81.8569C242.143 81.9539 242.32 81.994 242.505 81.9773C242.69 81.9614 242.878 81.8837 243.07 81.7444L243.546 81.3994L242.145 79.47Z" fill="#EF4136"/>
<path d="M238.014 84.3713C238.1 84.4956 238.219 84.5647 238.369 84.5786C238.52 84.5925 238.676 84.5562 238.839 84.4699C238.957 84.4068 239.051 84.3323 239.12 84.2466C239.187 84.1613 239.228 84.0718 239.242 83.9782C239.255 83.885 239.239 83.7956 239.194 83.7101C239.156 83.6385 239.106 83.5861 239.044 83.5527C238.983 83.5206 238.916 83.502 238.843 83.4967C238.772 83.4923 238.7 83.495 238.629 83.5048C238.559 83.5154 238.495 83.5274 238.439 83.5408L238.127 83.6123C238.048 83.6311 237.957 83.6471 237.854 83.6603C237.75 83.674 237.644 83.6738 237.536 83.6597C237.427 83.647 237.324 83.6111 237.227 83.5521C237.13 83.4931 237.047 83.4007 236.981 83.2751C236.903 83.1302 236.872 82.9791 236.886 82.8218C236.898 82.6649 236.959 82.5135 237.067 82.3675C237.174 82.2219 237.331 82.0944 237.537 81.9848C237.729 81.8827 237.912 81.8252 238.085 81.8125C238.258 81.8002 238.414 81.8281 238.553 81.8962C238.691 81.9648 238.805 82.0696 238.893 82.2106L238.558 82.3889C238.495 82.2923 238.417 82.2266 238.322 82.1919C238.227 82.1584 238.125 82.15 238.017 82.1664C237.907 82.1842 237.799 82.2214 237.693 82.2781C237.569 82.344 237.468 82.4232 237.391 82.5158C237.314 82.6093 237.266 82.7076 237.247 82.8107C237.229 82.9146 237.245 83.0154 237.297 83.1132C237.345 83.2022 237.408 83.2614 237.488 83.2908C237.567 83.3202 237.657 83.3307 237.756 83.3225C237.856 83.3142 237.96 83.2981 238.068 83.2742L238.448 83.1929C238.69 83.1417 238.901 83.1395 239.083 83.1862C239.265 83.2329 239.403 83.3466 239.499 83.5273C239.579 83.6774 239.608 83.8299 239.587 83.9847C239.564 84.1409 239.501 84.2867 239.396 84.422C239.291 84.5587 239.153 84.6725 238.981 84.7635C238.809 84.8554 238.639 84.9061 238.471 84.9156C238.304 84.926 238.153 84.8989 238.018 84.8342C237.882 84.77 237.776 84.6714 237.7 84.5384L238.014 84.3713Z" fill="#EF4136"/>
<path d="M236.116 82.7693L237.296 85.5674L236.351 85.966C236.131 86.0585 235.935 86.0945 235.762 86.074C235.589 86.0549 235.44 85.9925 235.316 85.887C235.193 85.7816 235.096 85.6464 235.026 85.4815C234.957 85.3167 234.927 85.1526 234.938 84.9894C234.948 84.8266 235.005 84.6757 235.111 84.5368C235.217 84.3988 235.379 84.2839 235.596 84.1921L236.274 83.9064L236.401 84.207L235.734 84.4881C235.584 84.5515 235.474 84.6283 235.405 84.7186C235.336 84.8089 235.299 84.9069 235.295 85.0125C235.291 85.1195 235.313 85.2289 235.36 85.341C235.407 85.453 235.47 85.5444 235.549 85.6151C235.628 85.6861 235.723 85.7273 235.836 85.7386C235.95 85.7509 236.083 85.7249 236.235 85.6608L236.831 85.4096L235.778 82.9121L236.116 82.7693Z" fill="#EF4136"/>
<path d="M233.53 83.8205L234.453 86.7134L232.707 87.2705L232.608 86.9598L234.004 86.5144L233.692 85.5369L232.387 85.9535L232.287 85.6427L233.593 85.2262L233.279 84.243L231.861 84.6956L231.761 84.3849L233.53 83.8205Z" fill="#EF4136"/>
<path d="M229.129 87.1435L229.489 87.0652C229.532 87.1639 229.589 87.2466 229.66 87.3132C229.729 87.3801 229.807 87.4319 229.894 87.4685C229.98 87.5064 230.071 87.529 230.168 87.5362C230.265 87.5435 230.362 87.5364 230.461 87.5149C230.64 87.4757 230.793 87.3948 230.919 87.2723C231.044 87.1499 231.131 86.991 231.178 86.7955C231.224 86.6002 231.22 86.3741 231.164 86.1172C231.108 85.8603 231.018 85.6528 230.894 85.4946C230.77 85.3366 230.625 85.228 230.461 85.1688C230.295 85.1098 230.122 85.0999 229.943 85.139C229.844 85.1605 229.753 85.1947 229.668 85.2415C229.583 85.2883 229.509 85.3464 229.446 85.4158C229.383 85.4863 229.333 85.5663 229.298 85.6559C229.262 85.7467 229.245 85.8456 229.246 85.9526L228.887 86.0309C228.881 85.8734 228.9 85.727 228.946 85.5916C228.991 85.4563 229.058 85.335 229.146 85.2278C229.234 85.1216 229.339 85.0323 229.462 84.96C229.584 84.8879 229.72 84.8356 229.869 84.8029C230.123 84.7478 230.361 84.7605 230.585 84.8412C230.809 84.9218 231.002 85.0638 231.165 85.2671C231.328 85.4704 231.443 85.7285 231.511 86.0414C231.58 86.3543 231.582 86.6371 231.519 86.8896C231.455 87.1422 231.339 87.3518 231.169 87.5183C230.999 87.6849 230.787 87.7958 230.534 87.851C230.384 87.8836 230.239 87.8925 230.098 87.8777C229.956 87.8631 229.823 87.8253 229.699 87.7645C229.574 87.7046 229.463 87.6226 229.366 87.5184C229.269 87.4152 229.19 87.2902 229.129 87.1435Z" fill="#EF4136"/>
<path d="M228.137 88.2383L227.705 85.2325L228.069 85.1802L228.501 88.186L228.137 88.2383Z" fill="#EF4136"/>
<path d="M226.701 85.3732L227.086 85.3469L226.18 88.4524L225.801 88.4782L224.482 85.5244L224.867 85.4982L225.946 87.9868L225.97 87.9852L226.701 85.3732ZM226.64 86.5663L225.09 86.672L225.068 86.3465L226.618 86.2408L226.64 86.5663Z" fill="#EF4136"/>
<path d="M223.613 85.5365L223.536 88.5721L223.168 88.5628L223.237 85.8533L221.826 85.8176L221.834 85.4915L223.613 85.5365Z" fill="#EF4136"/>
<path d="M219.116 85.7698C219.234 85.7852 219.339 85.8281 219.43 85.8986C219.52 85.9702 219.588 86.0587 219.634 86.1644C219.679 86.2699 219.694 86.382 219.679 86.5006C219.664 86.6202 219.621 86.7248 219.55 86.8143C219.479 86.9047 219.39 86.9725 219.285 87.0177C219.179 87.0638 219.067 87.0792 218.948 87.0638C218.829 87.0483 218.724 87.0049 218.635 86.9335C218.544 86.8629 218.476 86.7749 218.431 86.6694C218.385 86.5647 218.37 86.4526 218.385 86.333C218.4 86.2144 218.444 86.1099 218.515 86.0195C218.586 85.9289 218.674 85.8606 218.78 85.8145C218.884 85.7692 218.996 85.7543 219.116 85.7698Z" fill="#EF4136"/>
<path d="M217.394 84.9165L216.687 87.8696L214.904 87.4427L214.98 87.1255L216.405 87.4667L216.644 86.4689L215.312 86.1498L215.388 85.8325L216.72 86.1517L216.96 85.1481L215.513 84.8013L215.589 84.4841L217.394 84.9165Z" fill="#EF4136"/>
<path d="M213.619 87.0563L214.517 84.1554L214.868 84.264L213.971 87.165L213.619 87.0563Z" fill="#EF4136"/>
<path d="M212.805 83.5652L213.675 83.9126L212.549 86.7328L211.64 86.37C211.367 86.2608 211.155 86.1109 211.006 85.9203C210.856 85.7306 210.771 85.51 210.751 85.2583C210.731 85.0076 210.779 84.7363 210.896 84.4443C211.013 84.1506 211.166 83.9185 211.355 83.7482C211.544 83.5788 211.762 83.4772 212.007 83.4432C212.252 83.4102 212.518 83.4508 212.805 83.5652ZM213.213 84.0792L212.706 83.8769C212.473 83.7839 212.261 83.7517 212.072 83.7805C211.883 83.8092 211.718 83.8917 211.576 84.0278C211.434 84.1639 211.318 84.3467 211.226 84.5763C211.135 84.8039 211.094 85.0148 211.103 85.2088C211.111 85.4037 211.172 85.5747 211.284 85.7219C211.397 85.8699 211.563 85.9879 211.783 86.0759L212.329 86.2935L213.213 84.0792Z" fill="#EF4136"/>
<path d="M206.861 83.1996C206.802 83.3388 206.807 83.4759 206.876 83.6108C206.944 83.7457 207.058 83.8588 207.218 83.9501C207.334 84.0168 207.447 84.0564 207.557 84.0687C207.665 84.0805 207.762 84.0674 207.849 84.0293C207.935 83.9907 208.002 83.9293 208.05 83.8453C208.09 83.7749 208.108 83.7048 208.103 83.6351C208.098 83.5657 208.078 83.499 208.044 83.4351C208.009 83.3721 207.969 83.3132 207.923 83.2584C207.876 83.2044 207.832 83.157 207.79 83.1161L207.564 82.8909C207.506 82.8336 207.444 82.7651 207.378 82.6852C207.311 82.6049 207.255 82.5152 207.209 82.4161C207.162 82.3174 207.137 82.2111 207.135 82.0972C207.133 81.9833 207.167 81.8645 207.238 81.741C207.319 81.5986 207.43 81.4912 207.571 81.4189C207.71 81.3462 207.871 81.3166 208.052 81.3303C208.232 81.3435 208.424 81.408 208.626 81.5238C208.815 81.6318 208.961 81.7558 209.064 81.8957C209.167 82.0352 209.226 82.182 209.243 82.3361C209.259 82.4897 209.23 82.6415 209.158 82.7916L208.829 82.6031C208.877 82.4987 208.891 82.3972 208.87 82.2986C208.847 82.2004 208.8 82.1096 208.728 82.0263C208.655 81.9434 208.566 81.872 208.461 81.8121C208.339 81.7424 208.219 81.6996 208.099 81.6836C207.979 81.6685 207.87 81.6803 207.773 81.7191C207.675 81.7588 207.599 81.8267 207.544 81.9228C207.494 82.0103 207.477 82.0955 207.495 82.1784C207.512 82.2613 207.551 82.3427 207.611 82.4227C207.672 82.5027 207.741 82.582 207.819 82.6608L208.09 82.939C208.262 83.116 208.377 83.2937 208.434 83.4723C208.491 83.6508 208.469 83.8289 208.368 84.0065C208.283 84.1541 208.17 84.26 208.027 84.3242C207.883 84.3887 207.726 84.4127 207.555 84.396C207.384 84.3798 207.214 84.3235 207.046 84.2274C206.876 84.1302 206.742 84.0133 206.645 83.8768C206.547 83.7412 206.489 83.5989 206.472 83.4501C206.454 83.3007 206.481 83.1583 206.552 83.0229L206.861 83.1996Z" fill="#EF4136"/>
<path d="M207.207 80.7426L205.471 83.2334L204.629 82.6465C204.434 82.5102 204.298 82.3636 204.224 82.2065C204.147 82.0497 204.121 81.8908 204.144 81.7298C204.167 81.5688 204.23 81.4149 204.332 81.2681C204.434 81.1214 204.557 81.0089 204.701 80.9307C204.844 80.852 205.002 80.8202 205.176 80.8354C205.349 80.8514 205.533 80.9269 205.727 81.062L206.33 81.4827L206.143 81.7503L205.55 81.3364C205.416 81.2431 205.292 81.1913 205.179 81.181C205.066 81.1706 204.963 81.1921 204.872 81.2453C204.779 81.2987 204.698 81.3753 204.629 81.4751C204.559 81.5748 204.516 81.677 204.498 81.7816C204.48 81.8857 204.496 81.9886 204.547 82.0903C204.597 82.1928 204.69 82.2913 204.825 82.3857L205.356 82.7555L206.906 80.5323L207.207 80.7426Z" fill="#EF4136"/>
<path d="M204.932 79.1119L202.98 81.4381L201.576 80.2601L201.786 80.0102L202.908 80.9519L203.567 80.1659L202.518 79.2852L202.728 79.0354L203.777 79.916L204.44 79.1255L203.3 78.1686L203.51 77.9187L204.932 79.1119Z" fill="#EF4136"/>
<path d="M199.766 77.1672L200.024 77.4288C199.964 77.5186 199.925 77.611 199.906 77.7059C199.887 77.8002 199.885 77.8938 199.9 77.9869C199.914 78.0799 199.944 78.1692 199.99 78.2548C200.035 78.3403 200.094 78.4189 200.165 78.4907C200.294 78.6214 200.444 78.7072 200.615 78.7481C200.785 78.7883 200.966 78.776 201.156 78.7115C201.346 78.6462 201.534 78.5212 201.721 78.3363C201.908 78.1515 202.036 77.9646 202.103 77.7756C202.17 77.5859 202.184 77.4056 202.146 77.2348C202.107 77.0633 202.023 76.9122 201.894 76.7814C201.823 76.7097 201.745 76.6505 201.66 76.6039C201.575 76.5573 201.487 76.526 201.395 76.5101C201.301 76.4941 201.207 76.4953 201.113 76.5136C201.017 76.5319 200.924 76.5702 200.834 76.6284L200.576 76.3668C200.705 76.2774 200.84 76.2157 200.978 76.1815C201.117 76.1474 201.255 76.1388 201.392 76.1557C201.529 76.1733 201.661 76.2146 201.788 76.2796C201.914 76.344 202.031 76.4307 202.139 76.5397C202.321 76.7239 202.438 76.9322 202.489 77.1645C202.541 77.3969 202.525 77.6362 202.44 77.8824C202.356 78.1287 202.199 78.3643 201.971 78.5894C201.744 78.8146 201.506 78.968 201.259 79.0497C201.012 79.1314 200.772 79.145 200.541 79.0905C200.309 79.036 200.102 78.9167 199.92 78.7324C199.812 78.6235 199.727 78.5055 199.664 78.3786C199.6 78.2511 199.561 78.1184 199.546 77.9806C199.53 77.8435 199.54 77.7058 199.576 77.5677C199.611 77.4302 199.674 77.2967 199.766 77.1672Z" fill="#EF4136"/>
<path d="M198.316 76.9169L200.623 74.9416L200.862 75.2209L198.556 77.1962L198.316 76.9169Z" fill="#EF4136"/>
<path d="M199.963 74.1776L200.191 74.4882L197.084 75.3884L196.859 75.0826L198.646 72.3856L198.874 72.6962L197.352 74.9414L197.366 74.9605L199.963 74.1776ZM198.923 74.7655L198.003 73.5135L198.265 73.3203L199.186 74.5723L198.923 74.7655Z" fill="#EF4136"/>
<path d="M198.175 71.6534L195.569 73.2124L195.381 72.8968L197.707 71.5053L196.982 70.294L197.262 70.1265L198.175 71.6534Z" fill="#EF4136"/>
<path d="M195.573 67.9787C195.623 68.0872 195.643 68.1986 195.631 68.3128C195.619 68.4274 195.581 68.5324 195.516 68.6279C195.451 68.7224 195.364 68.7948 195.256 68.8452C195.146 68.896 195.035 68.9156 194.922 68.9039C194.807 68.8917 194.702 68.8531 194.608 68.788C194.513 68.7234 194.44 68.6368 194.389 68.5283C194.338 68.4189 194.319 68.3074 194.332 68.1936C194.343 68.0794 194.381 67.975 194.446 67.8805C194.51 67.7855 194.597 67.7126 194.706 67.6618C194.815 67.6114 194.926 67.5923 195.041 67.6045C195.155 67.6157 195.26 67.6537 195.355 67.7184C195.449 67.7826 195.522 67.8693 195.573 67.9787Z" fill="#EF4136"/>
<path d="M194.993 64.9983L192.083 65.8664L191.559 64.1102L191.872 64.017L192.291 65.4208L193.274 65.1275L192.882 63.8146L193.195 63.7213L193.587 65.0342L194.575 64.7392L194.15 63.3127L194.462 63.2194L194.993 64.9983Z" fill="#EF4136"/>
<path d="M191.252 62.8022L194.212 62.1248L194.294 62.4832L191.334 63.1606L191.252 62.8022Z" fill="#EF4136"/>
<path d="M193.862 60.3475L193.998 61.2747L190.994 61.7146L190.852 60.7463C190.809 60.4549 190.833 60.1966 190.923 59.9717C191.012 59.7469 191.16 59.5628 191.368 59.4195C191.575 59.2763 191.834 59.182 192.145 59.1364C192.458 59.0906 192.735 59.1069 192.977 59.1853C193.219 59.2639 193.416 59.4009 193.568 59.5963C193.72 59.7919 193.818 60.0423 193.862 60.3475ZM193.622 60.9581L193.543 60.4182C193.507 60.1698 193.429 59.9709 193.309 59.8216C193.189 59.6723 193.035 59.5705 192.846 59.5162C192.657 59.462 192.441 59.4527 192.196 59.4885C191.954 59.524 191.751 59.5942 191.587 59.6991C191.423 59.8041 191.305 59.9422 191.234 60.1134C191.162 60.2848 191.144 60.4878 191.178 60.7225L191.263 61.3035L193.622 60.9581Z" fill="#EF4136"/>
<path d="M191.187 55.0369C191.038 55.0571 190.922 55.1312 190.841 55.259C190.76 55.3869 190.721 55.5427 190.724 55.7266C190.726 55.861 190.75 55.9783 190.795 56.0784C190.84 56.1775 190.901 56.2546 190.978 56.3097C191.055 56.3638 191.142 56.3901 191.239 56.3885C191.32 56.3872 191.389 56.3668 191.447 56.3273C191.504 56.2868 191.551 56.2356 191.589 56.1737C191.625 56.1118 191.655 56.0471 191.679 55.9795C191.701 55.9119 191.72 55.8498 191.734 55.7932L191.812 55.4835C191.831 55.4041 191.858 55.3157 191.893 55.2182C191.928 55.1198 191.977 55.0256 192.038 54.9356C192.099 54.8447 192.178 54.7692 192.275 54.7093C192.372 54.6494 192.492 54.6183 192.634 54.616C192.798 54.6133 192.947 54.6539 193.081 54.7378C193.215 54.8206 193.322 54.9434 193.403 55.1062C193.483 55.2681 193.526 55.4656 193.529 55.6988C193.533 55.9163 193.501 56.1051 193.433 56.2654C193.366 56.4247 193.27 56.5508 193.146 56.6437C193.022 56.7357 192.877 56.789 192.711 56.8035L192.705 56.424C192.819 56.4123 192.914 56.3722 192.988 56.3038C193.061 56.2344 193.115 56.1475 193.149 56.0431C193.183 55.9378 193.199 55.8248 193.197 55.7042C193.195 55.5639 193.17 55.4382 193.123 55.3273C193.075 55.2164 193.009 55.1289 192.926 55.065C192.842 55.0012 192.744 54.9701 192.634 54.9719C192.533 54.9735 192.451 55.003 192.389 55.0604C192.327 55.1178 192.276 55.1927 192.238 55.2853C192.2 55.3779 192.167 55.4777 192.139 55.585L192.039 55.9603C191.974 56.1986 191.88 56.388 191.756 56.5284C191.632 56.6688 191.467 56.7407 191.263 56.744C191.093 56.7468 190.944 56.7032 190.816 56.6134C190.687 56.5225 190.586 56.3996 190.513 56.2446C190.439 56.0886 190.401 55.9137 190.398 55.72C190.395 55.5243 190.427 55.3498 190.495 55.1965C190.561 55.0431 190.654 54.921 190.773 54.8301C190.892 54.7382 191.029 54.6885 191.182 54.6811L191.187 55.0369Z" fill="#EF4136"/>
<path d="M193.496 54.0791L190.469 53.833L190.552 52.8103C190.572 52.5729 190.63 52.3823 190.728 52.2385C190.825 52.0936 190.949 51.9907 191.1 51.9295C191.251 51.8684 191.415 51.8451 191.594 51.8596C191.772 51.8741 191.931 51.9237 192.071 52.0085C192.211 52.0923 192.318 52.2131 192.393 52.3709C192.466 52.5286 192.493 52.7252 192.474 52.9606L192.414 53.6937L192.089 53.6672L192.148 52.946C192.161 52.7835 192.144 52.6506 192.096 52.5475C192.047 52.4445 191.977 52.3669 191.885 52.3147C191.793 52.2616 191.686 52.2301 191.564 52.2202C191.443 52.2103 191.333 52.2242 191.234 52.2617C191.135 52.2983 191.054 52.3641 190.992 52.4592C190.928 52.5543 190.89 52.684 190.877 52.8486L190.824 53.4929L193.526 53.7126L193.496 54.0791Z" fill="#EF4136"/>
<path d="M193.757 51.2964L190.764 50.7811L191.075 48.975L191.397 49.0304L191.148 50.4741L192.159 50.6482L192.392 49.298L192.713 49.3534L192.481 50.7035L193.498 50.8786L193.75 49.4116L194.072 49.4669L193.757 51.2964Z" fill="#EF4136"/>
<path d="M192.841 45.8563L192.745 46.2112C192.637 46.2045 192.537 46.217 192.446 46.2485C192.355 46.2791 192.273 46.3245 192.2 46.3847C192.127 46.4437 192.064 46.5144 192.013 46.5968C191.962 46.6793 191.924 46.7691 191.897 46.8665C191.849 47.0439 191.851 47.2168 191.901 47.3852C191.952 47.5526 192.053 47.7024 192.205 47.8346C192.357 47.9659 192.56 48.0659 192.813 48.1347C193.067 48.2034 193.293 48.2195 193.49 48.1828C193.688 48.1452 193.851 48.067 193.979 47.9482C194.108 47.8285 194.196 47.6798 194.244 47.5024C194.271 47.4051 194.283 47.3079 194.28 47.211C194.278 47.1141 194.26 47.0218 194.228 46.9341C194.195 46.8452 194.146 46.7645 194.083 46.6921C194.019 46.6184 193.939 46.5574 193.844 46.509L193.94 46.1541C194.082 46.2214 194.203 46.3064 194.303 46.409C194.402 46.5117 194.479 46.6267 194.533 46.7541C194.587 46.8813 194.617 47.0161 194.625 47.1584C194.633 47.2998 194.616 47.4445 194.576 47.5923C194.509 47.8423 194.387 48.0481 194.213 48.2096C194.038 48.3712 193.823 48.4772 193.567 48.5279C193.312 48.5785 193.029 48.5619 192.72 48.4782C192.411 48.3944 192.159 48.2662 191.964 48.0936C191.769 47.9209 191.637 47.7208 191.568 47.493C191.498 47.2653 191.498 47.0265 191.565 46.7765C191.605 46.6286 191.664 46.4956 191.743 46.3775C191.821 46.2584 191.916 46.1577 192.027 46.0752C192.138 45.9925 192.262 45.9318 192.399 45.8933C192.536 45.8545 192.683 45.8421 192.841 45.8563Z" fill="#EF4136"/>
<path d="M192.328 44.4696L195.193 45.4742L195.072 45.8213L192.206 44.8166L192.328 44.4696Z" fill="#EF4136"/>
<path d="M195.524 44.5274L195.37 44.8807L193.034 42.6428L193.186 42.295L196.415 42.4895L196.26 42.8428L193.555 42.6504L193.545 42.6722L195.524 44.5274ZM194.494 43.9219L195.116 42.4981L195.415 42.6287L194.793 44.0526L194.494 43.9219Z" fill="#EF4136"/>
<path d="M196.807 41.7164L194.152 40.2419L194.331 39.9204L196.7 41.2365L197.385 40.0025L197.671 40.1609L196.807 41.7164Z" fill="#EF4136"/>
<path d="M198.688 37.6177C198.619 37.7157 198.532 37.7884 198.428 37.8359C198.323 37.8828 198.213 37.9021 198.098 37.8939C197.983 37.885 197.877 37.8461 197.779 37.7775C197.68 37.7083 197.608 37.6217 197.561 37.5178C197.514 37.4125 197.495 37.3026 197.504 37.1882C197.512 37.0732 197.551 36.9667 197.619 36.8688C197.689 36.77 197.775 36.6976 197.88 36.6515C197.985 36.6041 198.094 36.5848 198.209 36.5938C198.323 36.6014 198.429 36.6398 198.528 36.709C198.626 36.7777 198.698 36.8647 198.745 36.97C198.793 37.0745 198.812 37.1842 198.804 37.2992C198.796 37.4128 198.757 37.519 198.688 37.6177Z" fill="#EF4136"/>
<g opacity="0.4">
<path d="M288.454 17.9986L285.723 13.7856L289.092 10.0618L284.24 11.3564L281.741 7.00227L281.474 12.0168L276.559 13.048L281.245 14.8525L280.708 19.8445L283.872 15.9457L288.454 17.9986Z" fill="#BA6400"/>
<path d="M221.922 12.2945L220.134 8.71967L223.129 6.07122L219.175 6.66635L217.583 3L216.927 6.94372L212.948 7.3261L216.496 9.16668L215.63 13.07L218.478 10.2654L221.922 12.2945Z" fill="#BA6400"/>
<path d="M282.418 93.4899L287.631 92.1897L290.228 96.89L290.602 91.533L295.875 90.515L290.896 88.5035L291.556 83.1748L288.105 87.288L283.241 85.0131L286.086 89.5667L282.418 93.4899Z" fill="#BA6400"/>
<path d="M233.542 68.8169L232.621 67.1253L234.02 65.8006L232.126 66.1525L231.299 64.4139L231.048 66.3237L229.14 66.574L230.879 67.4019L230.527 69.2948L231.85 67.8968L233.542 68.8169Z" fill="#BA6400"/>
</g>
<g opacity="0.4">
<path d="M142.049 21.8734L139.313 22.4849L138.019 19.9991L137.755 22.7898L134.989 23.2527L137.563 24.3667L137.149 27.1404L139.003 25.0366L141.511 26.2861L140.085 23.8737L142.049 21.8734Z" fill="#BA6400"/>
<path d="M93.9907 7.42134L89.7778 10.1518L86.054 6.78339L87.3486 11.6346L82.9944 14.1336L88.009 14.4008L89.0402 19.316L90.8446 14.6304L95.8366 15.1667L91.9379 12.0034L93.9907 7.42134Z" fill="#BA6400"/>
<path d="M169.482 13.4565L168.182 8.24402L172.882 5.64717L167.525 5.2727L166.507 3.20854e-07L164.496 4.97918L159.167 4.31867L163.28 7.76981L161.005 12.6342L165.559 9.78894L169.482 13.4565Z" fill="#BA6400"/>
</g>
<g opacity="0.4">
<path d="M9.09048 11.8947L13.3054 9.16425L17.0272 12.5326L15.7327 7.68144L20.0868 5.18244L15.0741 4.91336L14.0411 4.17098e-05L12.2385 4.68567L7.24648 4.14935L11.1434 7.31262L9.09048 11.8947Z" fill="#BA6400"/>
<path d="M57.5962 39.9234L61.171 38.1352L63.8194 41.1299L63.2243 37.1765L66.8906 35.5835L62.9469 34.9278L62.5645 30.9488L60.7239 34.4969L56.8206 33.6311L59.6253 36.479L57.5962 39.9234Z" fill="#BA6400"/>
<path d="M1.07371 51.5425L2.7653 50.6224L4.08998 52.0205L3.73811 50.1274L5.47675 49.2995L3.56689 49.0492L3.31663 47.1411L2.4887 48.8798L0.595786 48.5279L1.99383 49.8508L1.07371 51.5425Z" fill="#BA6400"/>
</g>
<defs>
<filter id="filter0_d_0_1" x="185.43" y="17.4317" width="76.641" height="76.641" filterUnits="userSpaceOnUse" color-interpolation-filters="sRGB">
<feFlood flood-opacity="0" result="BackgroundImageFix"/>
<feColorMatrix in="SourceAlpha" type="matrix" values="0 0 0 0 0 0 0 0 0 0 0 0 0 0 0 0 0 0 127 0" result="hardAlpha"/>
<feOffset dx="0.5" dy="0.5"/>
<feComposite in2="hardAlpha" operator="out"/>
<feColorMatrix type="matrix" values="0 0 0 0 0.520833 0 0 0 0 0 0 0 0 0 0 0 0 0 0.47 0"/>
<feBlend mode="normal" in2="BackgroundImageFix" result="effect1_dropShadow_0_1"/>
<feBlend mode="normal" in="SourceGraphic" in2="effect1_dropShadow_0_1" result="shape"/>
</filter>
</defs>
</svg>
