<svg width="81" height="81" viewBox="0 0 81 81" fill="none" xmlns="http://www.w3.org/2000/svg">
<g filter="url(#filter0_d_11606_81335)">
<path d="M78.5707 40.5005L77.1128 42.7169L78.2958 45.0899L76.5839 47.1149L77.4712 49.6131L75.5261 51.4155L76.1037 54.0042L73.9534 55.5595L74.2144 58.197L71.8936 59.4774L71.8309 62.1288L69.3745 63.1204L68.9952 65.7474L66.4343 66.4363L65.7454 68.9972L63.1184 69.3765L62.1267 71.8364L59.4754 71.8956L58.195 74.2164L55.554 73.9554L54.0022 76.1057L51.4135 75.5281L49.6111 77.4732L47.1129 76.5859L45.0878 78.2978L42.7148 77.1148L40.4984 78.5727L38.282 77.1148L35.909 78.2978L33.884 76.5859L31.3857 77.4732L29.5834 75.5281L26.9947 76.1057L25.4428 73.9554L22.8019 74.2164L21.5215 71.8956L18.8701 71.833L17.8785 69.3765L15.2515 68.9972L14.5626 66.4363L12.0017 65.7474L11.6259 63.1204L9.16592 62.1288L9.10329 59.4774L6.78249 58.197L7.04345 55.5561L4.89314 54.0042L5.47073 51.4155L3.52572 49.6131L4.41646 47.1149L2.70456 45.0899L3.88758 42.7169L2.42969 40.5005L3.88758 38.284L2.70456 35.911L4.41646 33.886L3.52572 31.3878L5.47421 29.5854L4.89314 26.9967L7.04345 25.4448L6.78249 22.8039L9.10677 21.5235L9.16592 18.8721L11.6259 17.8805L12.0052 15.2535L14.5626 14.5646L15.255 12.0037L17.8785 11.6279L18.8701 9.16793L21.5215 9.1053L22.8054 6.7845L25.4428 7.04546L26.9947 4.89516L29.5834 5.47275L31.3857 3.52773L33.884 4.41847L35.909 2.70658L38.282 3.88959L40.4984 2.4317L42.7148 3.88959L45.0878 2.70658L47.1129 4.41847L49.6111 3.52773L51.4135 5.47623L54.0022 4.89516L55.5575 7.04546L58.195 6.7845L59.4754 9.10878L62.1267 9.16793L63.1184 11.6279L65.7454 12.0072L66.4343 14.5646L68.9952 15.257L69.3745 17.8805L71.8344 18.8721L71.8936 21.5235L74.2144 22.8074L73.9534 25.4448L76.1037 26.9967L75.5261 29.5854L77.4712 31.3878L76.5839 33.886L78.2958 35.911L77.1128 38.284L78.5707 40.5005Z" fill="white"/>
</g>
<path fill-rule="evenodd" clip-rule="evenodd" d="M40.4977 2.22369L42.7261 3.68946L45.112 2.50002L47.148 4.22121L49.6601 3.32552L51.4724 5.28476L54.0752 4.70052L55.6391 6.86272L58.2912 6.60031L59.5787 8.93731L62.2445 8.99679L63.2416 11.4703L65.8828 11.8516L66.5755 14.423L69.1503 15.1191L69.5316 17.7568L72.0051 18.7539L72.0645 21.4199L74.398 22.7108L74.1357 25.3626L76.2977 26.9229L75.7169 29.526L77.6727 31.3382L76.7805 33.8503L78.5018 35.8864L77.3124 38.2723L78.7781 40.5007L77.3124 42.7291L78.5018 45.1149L76.7805 47.1511L77.6727 49.6631L75.7169 51.4754L76.2977 54.0783L74.1356 55.6421L74.398 58.2941L72.0644 59.5817L72.0014 62.2475L69.5316 63.2445L69.1503 65.8859L66.5755 66.5785L65.8829 69.1533L63.2416 69.5346L62.2445 72.008L59.5786 72.0675L58.2912 74.401L55.6358 74.1386L54.0755 76.3007L51.4724 75.7199L49.6601 77.6757L47.1481 76.7835L45.112 78.5048L42.7261 77.3154L40.4977 78.7811L38.2693 77.3154L35.8834 78.5048L33.8473 76.7835L31.3353 77.6757L29.523 75.7199L26.9199 76.3007L25.3596 74.1386L22.7042 74.401L21.4167 72.0674L18.7509 72.0044L17.7539 69.5346L15.1125 69.1533L14.4198 66.5785L11.845 65.8858L11.4671 63.2445L8.99395 62.2475L8.93097 59.5817L6.59734 58.2942L6.85973 55.6388L4.69763 54.0784L5.27842 51.4754L3.32257 49.663L4.21822 47.151L2.49703 45.1149L3.68647 42.7291L2.2207 40.5007L3.68647 38.2723L2.49703 35.8864L4.21822 33.8504L3.32253 31.3382L5.28177 29.5259L4.6975 26.923L6.85973 25.3626L6.59733 22.7071L8.93432 21.4197L8.99379 18.7539L11.4673 17.7568L11.8486 15.1155L14.42 14.4228L15.1162 11.8479L17.7538 11.4701L18.7508 8.99694L21.4168 8.93396L22.7078 6.60033L25.3596 6.86271L26.9199 4.70063L29.523 5.28141L31.3354 3.32556L33.8474 4.22121L35.8834 2.50002L38.2693 3.68946L40.4977 2.22369ZM40.4977 2.64016L38.2932 4.09018L35.9331 2.91359L33.9191 4.61619L31.4346 3.73035L29.6423 5.66454L27.0679 5.09014L25.5246 7.22867L22.9014 6.96913L21.6246 9.2771L18.9879 9.33938L18.0016 11.7861L15.3923 12.1599L14.7036 14.7068L12.1602 15.3919L11.783 18.0047L9.33654 18.9909L9.27771 21.6278L6.96615 22.9012L7.22567 25.5276L5.08728 27.0708L5.66516 29.6453L3.7274 31.4377L4.6132 33.9221L2.9106 35.9361L4.08719 38.2962L2.63717 40.5007L4.08719 42.7051L2.9106 45.0652L4.6132 47.0793L3.72736 49.5637L5.66155 51.3561L5.08715 53.9305L7.22567 55.4738L6.96614 58.1002L9.2741 59.3736L9.33639 62.0104L11.7832 62.9968L12.1569 65.6094L14.7038 66.2946L15.389 68.8416L18.0016 69.2188L18.9879 71.662L21.6248 71.7243L22.8981 74.0322L25.5246 73.7727L27.0679 75.9112L29.6423 75.3368L31.4347 77.2711L33.9192 76.3887L35.9331 78.0912L38.2932 76.9146L40.4977 78.3647L42.7021 76.9146L45.0622 78.0912L47.0762 76.3887L49.5606 77.2711L51.3531 75.3368L53.9275 75.9112L55.4708 73.7727L58.0972 74.0322L59.3707 71.7241L62.0075 71.6653L62.9937 69.2188L65.6064 68.8416L66.2916 66.2946L68.8386 65.6094L69.2158 62.9968L71.659 62.0105L71.7213 59.3736L74.0292 58.1002L73.7697 55.4774L75.9082 53.9306L75.3338 51.3561L77.2681 49.5636L76.3857 47.0791L78.0882 45.0652L76.9117 42.7051L78.3617 40.5007L76.9117 38.2962L78.0882 35.9361L76.3857 33.9222L77.2681 31.4377L75.3338 29.6453L75.9082 27.0709L73.7697 25.5276L74.0292 22.9044L71.7211 21.6275L71.6623 18.9909L69.2158 18.0047L68.8386 15.3953L66.2916 14.7066L65.6064 12.1632L62.9937 11.786L62.0075 9.33953L59.3706 9.2807L58.0972 6.96915L55.4744 7.22866L53.9277 5.09025L51.3531 5.66815L49.5606 3.73039L47.0763 4.61619L45.0622 2.91359L42.7021 4.09018L40.4977 2.64016Z" fill="#EF4136"/>
<path fill-rule="evenodd" clip-rule="evenodd" d="M40.5005 15.4034C26.6397 15.4034 15.4032 26.6399 15.4032 40.5007C15.4032 54.3616 26.6397 65.5981 40.5005 65.5981C54.3614 65.5981 65.5979 54.3616 65.5979 40.5007C65.5979 26.6399 54.3614 15.4034 40.5005 15.4034ZM14.3594 40.5007C14.3594 26.0634 26.0632 14.3596 40.5005 14.3596C54.9379 14.3596 66.6417 26.0634 66.6417 40.5007C66.6417 54.9381 54.9379 66.6419 40.5005 66.6419C26.0632 66.6419 14.3594 54.9381 14.3594 40.5007Z" fill="#EF4136"/>
<path d="M55.6894 51.3844C48.4904 58.5834 36.8168 58.5834 29.6178 51.3844C22.4188 44.1854 22.4188 32.5118 29.6178 25.3128C31.6915 23.2391 34.1376 21.7638 36.7437 20.8835C33.059 21.6316 29.5447 23.4339 26.6846 26.2906C18.9463 34.0289 18.9463 46.5793 26.6846 54.3176C34.4264 62.0559 46.9733 62.0559 54.7116 54.3176C57.5683 51.461 59.3706 47.9467 60.1187 44.262C59.2419 46.8646 57.7666 49.3106 55.6894 51.3844Z" fill="#EF4136"/>
<path d="M42.1086 38.1864C42.1086 41.922 39.7837 44.827 34.952 44.6304C31.7128 44.4927 29.3633 42.3251 29.3633 39.779C29.3633 36.6184 31.8111 33.8118 35.2862 33.1777C34.0131 32.701 33.2169 31.6294 33.2169 30.5726C33.2169 28.8818 34.8487 27.2745 37.2327 27.2745C39.1791 27.2745 40.2162 28.4886 40.2162 30.5726H39.42C39.42 28.7638 38.7023 27.6677 37.2327 27.6677C36.1169 27.6677 35.006 28.7589 35.006 30.5726C35.006 32.1209 35.9203 33.0401 36.7952 33.0401V33.4382C33.8313 33.4382 31.1475 36.1023 31.1475 39.779C31.1475 42.4037 33.0153 44.1339 34.947 44.2322C38.4664 44.4288 40.5161 41.809 40.5161 37.9898C40.5161 35.5862 39.3806 35.2471 38.2698 35.2471C36.7608 35.2471 35.4484 36.3579 35.0896 38.2307L35.2272 38.211C35.6843 38.211 36.0628 38.6681 36.0628 39.2039C36.0628 39.7396 35.704 40.1771 35.2272 40.1771C34.7898 40.1968 34.4113 39.7396 34.4113 39.2039C34.4113 36.8396 35.8023 34.6523 38.2698 34.6523C41.0518 34.6523 42.1086 36.702 42.1086 38.1913V38.1864Z" fill="#EF4136"/>
<path d="M46.9425 41.2092C46.7852 42.4626 46.3674 43.7946 44.9961 43.7946C43.3838 43.7946 42.2533 42.959 42.4499 41.627L43.4625 34.9471L45.232 35.0061L44.1801 41.8236C44.0228 42.8558 44.48 43.3965 44.9961 43.3965C45.753 43.3965 46.1905 42.6198 46.3674 41.1502L46.9425 41.2092ZM43.7427 32.7401C43.7427 32.224 44.1605 31.8062 44.6766 31.8062C45.1927 31.8062 45.6105 32.224 45.6105 32.7401C45.6105 33.2562 45.1927 33.674 44.6766 33.674C44.1605 33.674 43.7427 33.2562 43.7427 32.7401Z" fill="#EF4136"/>
<path d="M52.3474 41.2096C52.1065 42.699 52.426 43.3969 53.0847 43.3969V43.7951C51.7133 43.7951 50.9957 43.4363 50.7008 42.7825C50.3026 43.3969 49.6096 43.8344 48.833 43.7754C46.9651 43.6378 46.1885 42.3647 46.3851 41.1507L47.1028 36.776C47.2797 35.6849 48.7543 34.4708 50.5042 34.9082C50.9613 35.0262 51.2808 35.2474 51.497 35.5423L52.2933 30.6909L54.0628 30.7499L52.3523 41.2096H52.3474ZM50.4796 41.8044L50.5386 41.4259L50.5779 41.1457L51.2316 37.1496C51.3103 36.1764 51.0104 35.3998 50.396 35.3015C49.7816 35.2032 49.0836 35.562 48.8428 36.8547L48.1252 41.2293C47.9482 42.3844 48.2038 43.2593 48.9214 43.3773C49.5358 43.4756 50.2535 43.0971 50.4697 41.8044H50.4796Z" fill="#EF4136"/>
<path d="M35.7289 48.1753V47.0988L35.1981 47.9787H34.9425L34.4215 47.1283V48.1802H33.8906V46.1453H34.3625L35.0752 47.32L35.7732 46.1453H36.245V48.1802H35.724L35.7289 48.1753Z" fill="#EF4136"/>
<path d="M37.4558 47.9687C37.2886 47.8016 37.2051 47.5706 37.2051 47.2659V46.1403H37.7802V47.2511C37.7802 47.5755 37.908 47.7377 38.1685 47.7377C38.429 47.7377 38.5519 47.5755 38.5519 47.2511V46.1403H39.1171V47.2659C39.1171 47.5706 39.0336 47.8016 38.8664 47.9687C38.6993 48.1359 38.4634 48.2145 38.1636 48.2145C37.8637 48.2145 37.6278 48.131 37.4607 47.9687H37.4558Z" fill="#EF4136"/>
<path d="M41.894 47.3003C41.9579 47.3887 41.9923 47.492 41.9923 47.6148C41.9923 47.7918 41.9186 47.9294 41.776 48.0277C41.6335 48.126 41.4271 48.1752 41.1518 48.1752H40.0508V46.1403H41.0928C41.3533 46.1403 41.5499 46.1894 41.6876 46.2828C41.8252 46.3762 41.8891 46.5089 41.8891 46.6711C41.8891 46.7694 41.8645 46.853 41.8203 46.9316C41.7711 47.0103 41.7072 47.0692 41.6188 47.1135C41.7367 47.1528 41.8252 47.2167 41.894 47.3052V47.3003ZM40.6259 46.5531V46.9464H41.0191C41.2108 46.9464 41.3091 46.8825 41.3091 46.7498C41.3091 46.617 41.2108 46.5531 41.0191 46.5531H40.6259ZM41.4123 47.5509C41.4123 47.4133 41.3091 47.3445 41.1125 47.3445H40.6308V47.7574H41.1125C41.314 47.7574 41.4123 47.6886 41.4123 47.5509Z" fill="#EF4136"/>
<path d="M44.2059 47.7768H43.3457L43.1884 48.1701H42.6035L43.503 46.1351H44.0683L44.9678 48.1701H44.3681L44.2108 47.7768H44.2059ZM44.0388 47.3541L43.7783 46.7053L43.5178 47.3541H44.0388Z" fill="#EF4136"/>
<path d="M46.5694 47.6345H46.2548V48.1752H45.6797V46.1403H46.6087C46.7905 46.1403 46.9527 46.1698 47.0904 46.2337C47.228 46.2926 47.3312 46.3811 47.405 46.4942C47.4787 46.6072 47.5131 46.7399 47.5131 46.8923C47.5131 47.0447 47.4787 47.1676 47.4099 47.2757C47.3411 47.3838 47.2427 47.4723 47.115 47.5313L47.5524 48.1703H46.938L46.5694 47.6296V47.6345ZM46.8446 46.6711C46.7856 46.617 46.6972 46.5925 46.5792 46.5925H46.2597V47.1872H46.5792C46.6972 47.1872 46.7856 47.1626 46.8446 47.1086C46.9036 47.0594 46.9331 46.9857 46.9331 46.8874C46.9331 46.7891 46.9036 46.7203 46.8446 46.6662V46.6711Z" fill="#EF4136"/>
<path d="M49.7489 47.7768H48.8887L48.7314 48.1701H48.1465L49.046 46.1351H49.6112L50.5107 48.1701H49.9111L49.7538 47.7768H49.7489ZM49.5817 47.3541L49.3212 46.7053L49.0607 47.3541H49.5817Z" fill="#EF4136"/>
<path d="M52.0091 47.433L51.7928 47.664V48.1752H51.2227V46.1403H51.7928V46.9857L52.5793 46.1403H53.2133L52.3827 47.0398L53.2576 48.1752H52.5891L52.0091 47.4379V47.433Z" fill="#EF4136"/>
<path d="M19.0682 19.4558L16.9688 17.2619L18.2928 15.9948L18.5183 16.2305L17.4599 17.2433L18.1693 17.9846L19.1592 17.0374L19.3847 17.2731L18.3949 18.2203L19.1084 18.9659L20.1839 17.9367L20.4094 18.1723L19.0682 19.4558Z" fill="#EF4136"/>
<path d="M19.3028 15.1356L21.2584 17.4587L20.977 17.6956L19.0215 15.3724L19.3028 15.1356Z" fill="#EF4136"/>
<path d="M22.6881 16.3284L21.9257 16.8732L20.1602 14.4026L20.9564 13.8336C21.196 13.6624 21.4364 13.5653 21.6776 13.5423C21.9182 13.5186 22.1498 13.5664 22.3723 13.6856C22.5942 13.804 22.7965 13.9911 22.9793 14.2469C23.1632 14.5042 23.2757 14.7585 23.3168 15.0098C23.3573 15.2603 23.3255 15.4981 23.2214 15.7231C23.1168 15.9473 22.939 16.1491 22.6881 16.3284ZM22.0352 16.394L22.4791 16.0768C22.6834 15.9308 22.8246 15.7704 22.9025 15.5956C22.9805 15.4208 23.0005 15.2371 22.9624 15.0444C22.9243 14.8517 22.8334 14.6548 22.6898 14.4538C22.5472 14.2543 22.392 14.1059 22.2239 14.0085C22.0554 13.9103 21.8787 13.8688 21.6941 13.8841C21.5088 13.8987 21.3197 13.9749 21.1267 14.1128L20.649 14.4542L22.0352 16.394Z" fill="#EF4136"/>
<path d="M26.2024 11.523C26.1171 11.3981 25.9991 11.3281 25.8485 11.3131C25.698 11.298 25.5412 11.3331 25.3782 11.4182C25.2591 11.4805 25.1649 11.5542 25.0956 11.6394C25.0273 11.7242 24.9857 11.8134 24.971 11.9069C24.9572 12 24.9727 12.0895 25.0176 12.1754C25.0551 12.2472 25.1045 12.3 25.1656 12.3339C25.2272 12.3664 25.2941 12.3855 25.3663 12.3913C25.438 12.3963 25.5094 12.3941 25.5804 12.3849C25.6509 12.3748 25.7146 12.3633 25.7714 12.3503L26.0832 12.2812C26.1629 12.2629 26.2542 12.2476 26.357 12.2352C26.4606 12.2223 26.5666 12.2233 26.6747 12.2382C26.7833 12.2517 26.886 12.2884 26.983 12.3481C27.08 12.4078 27.1615 12.5008 27.2274 12.627C27.3034 12.7724 27.3339 12.9237 27.319 13.081C27.305 13.2377 27.2433 13.3887 27.134 13.5339C27.0256 13.6786 26.868 13.805 26.6613 13.913C26.4685 14.0137 26.2854 14.0698 26.1118 14.0812C25.9391 14.0922 25.7834 14.0632 25.6447 13.994C25.5068 13.9244 25.3942 13.8187 25.3068 13.677L25.6433 13.5013C25.7051 13.5983 25.7832 13.6646 25.8776 13.7001C25.9724 13.7342 26.0742 13.7434 26.1831 13.7278C26.2925 13.7108 26.4006 13.6744 26.5075 13.6186C26.6319 13.5536 26.7331 13.4751 26.811 13.3831C26.8885 13.2902 26.9372 13.1923 26.9571 13.0894C26.9764 12.9856 26.9605 12.8846 26.9092 12.7865C26.8626 12.6971 26.7996 12.6374 26.7204 12.6074C26.6411 12.5774 26.5516 12.5662 26.4518 12.5737C26.3521 12.5812 26.248 12.5966 26.1396 12.6197L25.759 12.6981C25.5172 12.7475 25.3056 12.7481 25.1244 12.7C24.9431 12.652 24.8051 12.5372 24.7104 12.3559C24.6317 12.2052 24.6038 12.0525 24.6267 11.8978C24.65 11.7417 24.7146 11.5964 24.8206 11.4619C24.9269 11.3261 25.066 11.2133 25.2377 11.1236C25.4112 11.033 25.5816 10.9835 25.7491 10.9753C25.916 10.9661 26.0668 10.9944 26.2015 11.0601C26.3371 11.1253 26.4425 11.2247 26.5179 11.3582L26.2024 11.523Z" fill="#EF4136"/>
<path d="M28.0898 13.1367L26.9316 10.3297L27.8801 9.93832C28.1003 9.84747 28.2968 9.81295 28.4694 9.83476C28.6425 9.85529 28.7906 9.91877 28.9136 10.0252C29.0367 10.1316 29.1323 10.2675 29.2005 10.4329C29.2688 10.5983 29.297 10.7626 29.2852 10.9257C29.2743 11.0885 29.2155 11.2389 29.1089 11.377C29.0019 11.5142 28.8392 11.6278 28.6208 11.7179L27.9409 11.9984L27.8165 11.6969L28.4854 11.4209C28.6362 11.3587 28.7465 11.2827 28.8164 11.1929C28.8863 11.1031 28.9235 11.0054 28.928 10.8998C28.9331 10.7929 28.9125 10.6833 28.8661 10.5709C28.8197 10.4585 28.7572 10.3667 28.6786 10.2954C28.601 10.2237 28.5056 10.1818 28.3926 10.1696C28.2792 10.1565 28.1462 10.1814 27.9936 10.2444L27.396 10.4909L28.4297 12.9965L28.0898 13.1367Z" fill="#EF4136"/>
<path d="M30.6876 12.1032L29.7871 9.20312L31.5373 8.65967L31.6341 8.9712L30.235 9.40561L30.5393 10.3855L31.8477 9.97923L31.9444 10.2908L30.636 10.697L30.942 11.6826L32.3637 11.2411L32.4605 11.5527L30.6876 12.1032Z" fill="#EF4136"/>
<path d="M35.1153 8.8153L34.7554 8.89087C34.7124 8.79183 34.6561 8.70872 34.5864 8.64154C34.5177 8.57415 34.4401 8.52177 34.3534 8.48441C34.2676 8.44588 34.1763 8.42262 34.0797 8.41463C33.9831 8.40664 33.8854 8.41301 33.7868 8.43373C33.6068 8.47152 33.4534 8.55122 33.3264 8.67283C33.2004 8.79423 33.1129 8.95249 33.064 9.1476C33.016 9.34251 33.0191 9.56863 33.0731 9.82595C33.1272 10.0833 33.2153 10.2915 33.3376 10.4507C33.4609 10.6096 33.6047 10.7193 33.7689 10.7798C33.934 10.84 34.1066 10.8513 34.2865 10.8135C34.3852 10.7928 34.4772 10.7593 34.5624 10.7131C34.6476 10.6669 34.7219 10.6094 34.7852 10.5406C34.8493 10.4706 34.8992 10.3909 34.935 10.3016C34.9716 10.2111 34.9897 10.1123 34.9895 10.0053L35.3493 9.92972C35.3541 10.0873 35.3334 10.2336 35.287 10.3686C35.2406 10.5035 35.173 10.6243 35.0843 10.7308C34.9953 10.8363 34.8892 10.9248 34.7658 10.9962C34.6433 11.0673 34.5072 11.1186 34.3572 11.1501C34.1038 11.2034 33.8654 11.1888 33.642 11.1064C33.4187 11.024 33.2264 10.8806 33.0653 10.676C32.9042 10.4715 32.7907 10.2125 32.7249 9.89909C32.6591 9.58565 32.6588 9.3029 32.724 9.05083C32.7892 8.79876 32.9075 8.59009 33.0789 8.42482C33.2502 8.25956 33.4626 8.15031 33.7161 8.09708C33.866 8.06559 34.0113 8.0578 34.152 8.0737C34.2937 8.0894 34.4266 8.12816 34.5507 8.18998C34.6746 8.25082 34.7849 8.33371 34.8817 8.43863C34.9782 8.54259 35.0561 8.66814 35.1153 8.8153Z" fill="#EF4136"/>
<path d="M36.1163 7.73014L36.5248 10.7392L36.1604 10.7886L35.752 7.7796L36.1163 7.73014Z" fill="#EF4136"/>
<path d="M37.5237 10.603L37.1389 10.6263L38.068 7.52779L38.4469 7.50481L39.7437 10.4684L39.3589 10.4917L38.2984 7.99511L38.2747 7.99654L37.5237 10.603ZM37.594 9.41037L39.145 9.31632L39.1647 9.64192L37.6137 9.73597L37.594 9.41037Z" fill="#EF4136"/>
<path d="M40.6046 10.4675L40.7031 7.43243L41.0706 7.44437L40.9827 10.1534L42.3935 10.1992L42.3829 10.5252L40.6046 10.4675Z" fill="#EF4136"/>
<path d="M45.1136 10.2639C44.9951 10.2477 44.8908 10.2039 44.8008 10.1327C44.7109 10.0605 44.6433 9.97144 44.598 9.86545C44.5537 9.75959 44.5396 9.64741 44.5559 9.52892C44.5723 9.40944 44.616 9.30519 44.6871 9.21616C44.7593 9.12629 44.8483 9.05918 44.9541 9.01483C45.0601 8.96951 45.1724 8.95497 45.2909 8.97122C45.4104 8.98761 45.5145 9.03183 45.6034 9.10389C45.6934 9.1751 45.7606 9.26363 45.805 9.36949C45.8504 9.4745 45.865 9.58675 45.8486 9.70622C45.8323 9.82472 45.7881 9.9289 45.7159 10.0188C45.6447 10.1088 45.5561 10.1764 45.4501 10.2218C45.3452 10.2663 45.233 10.2803 45.1136 10.2639Z" fill="#EF4136"/>
<path d="M47.9411 11.3925L48.7832 8.47498L50.544 8.9832L50.4535 9.2966L49.046 8.89035L48.7615 9.87616L50.0778 10.2561L49.9873 10.5695L48.671 10.1896L48.3849 11.1811L49.8151 11.5939L49.7247 11.9073L47.9411 11.3925Z" fill="#EF4136"/>
<path d="M51.7952 9.4229L50.7666 12.28L50.4206 12.1554L51.4492 9.29834L51.7952 9.4229Z" fill="#EF4136"/>
<path d="M52.4541 12.9488L51.6005 12.5621L52.8535 9.79608L53.7449 10.1999C54.0132 10.3214 54.2178 10.4808 54.3585 10.678C54.4996 10.8743 54.5743 11.0986 54.5827 11.3509C54.5914 11.6023 54.531 11.8712 54.4013 12.1575C54.2707 12.4456 54.107 12.6704 53.9102 12.8319C53.7137 12.9925 53.4921 13.0842 53.2452 13.1069C52.9987 13.1288 52.735 13.0761 52.4541 12.9488ZM52.0701 12.4167L52.5671 12.6419C52.7958 12.7455 53.0053 12.7872 53.1957 12.7671C53.386 12.747 53.555 12.6721 53.7027 12.5426C53.8503 12.4131 53.9751 12.2358 54.0771 12.0107C54.1783 11.7874 54.2289 11.5786 54.2289 11.3844C54.2294 11.1893 54.1768 11.0157 54.071 10.8636C53.9656 10.7106 53.8048 10.5851 53.5887 10.4872L53.0539 10.2449L52.0701 12.4167Z" fill="#EF4136"/>
<path d="M58.3715 13.5838C58.4369 13.4474 58.4384 13.3102 58.376 13.1724C58.3135 13.0345 58.2047 12.9164 58.0494 12.818C57.9358 12.746 57.8248 12.7014 57.7164 12.6842C57.6087 12.6675 57.5108 12.6762 57.4224 12.7103C57.3349 12.745 57.2653 12.8032 57.2134 12.8851C57.17 12.9535 57.149 13.0227 57.1504 13.0926C57.1531 13.1622 57.17 13.2297 57.2011 13.2951C57.2328 13.3596 57.2704 13.4203 57.314 13.4771C57.358 13.5332 57.3999 13.5825 57.4396 13.6252L57.6556 13.8604C57.7113 13.9203 57.7703 13.9916 57.8325 14.0743C57.8956 14.1576 57.9478 14.2497 57.9891 14.3508C58.0318 14.4515 58.0515 14.5588 58.0484 14.6727C58.0453 14.7866 58.0056 14.9037 57.9295 15.0239C57.8416 15.1625 57.7259 15.2647 57.5824 15.3306C57.4397 15.397 57.2782 15.4192 57.0977 15.3974C56.9182 15.376 56.7299 15.3029 56.5328 15.1781C56.3491 15.0617 56.2088 14.9313 56.112 14.7868C56.0159 14.6429 55.9631 14.4935 55.9535 14.3388C55.9447 14.1846 55.9797 14.0342 56.0586 13.8876L56.3792 14.0908C56.3262 14.1929 56.308 14.2937 56.3246 14.3931C56.3425 14.4923 56.3855 14.5851 56.4536 14.6715C56.5231 14.7576 56.6087 14.833 56.7106 14.8975C56.8292 14.9727 56.9478 15.0209 57.0665 15.0423C57.1857 15.0628 57.2948 15.0559 57.3938 15.0215C57.4934 14.9863 57.5728 14.9219 57.632 14.8284C57.686 14.7433 57.7061 14.6589 57.6924 14.5753C57.6787 14.4917 57.6435 14.4086 57.5871 14.326C57.5306 14.2434 57.4652 14.161 57.3909 14.0788L57.1324 13.7886C56.9685 13.604 56.862 13.4213 56.8128 13.2403C56.7636 13.0594 56.7938 12.8825 56.9033 12.7096C56.9943 12.566 57.1125 12.4654 57.2579 12.4077C57.4046 12.3497 57.5627 12.3329 57.7322 12.3572C57.9031 12.3812 58.0703 12.4451 58.234 12.5488C58.3993 12.6535 58.5275 12.7763 58.6185 12.917C58.71 13.057 58.7611 13.2017 58.7717 13.3511C58.7832 13.5012 58.75 13.6422 58.6721 13.7743L58.3715 13.5838Z" fill="#EF4136"/>
<path d="M57.9218 16.0268L59.7695 13.6171L60.5838 14.2414C60.7728 14.3864 60.9012 14.539 60.9689 14.6992C61.0379 14.8593 61.0573 15.0193 61.0269 15.1791C60.9966 15.3389 60.9269 15.4898 60.8181 15.6318C60.7092 15.7738 60.5812 15.8806 60.4342 15.9522C60.2879 16.0243 60.1283 16.0489 59.9553 16.0259C59.783 16.0022 59.6031 15.9184 59.4156 15.7746L58.832 15.3271L59.0305 15.0683L59.6047 15.5086C59.7341 15.6078 59.8552 15.6651 59.9679 15.6806C60.0806 15.696 60.1838 15.6792 60.2775 15.6302C60.3725 15.581 60.457 15.5081 60.531 15.4117C60.605 15.3152 60.6531 15.2151 60.6753 15.1113C60.6984 15.0081 60.6868 14.9046 60.6407 14.8007C60.5951 14.696 60.5069 14.5935 60.3759 14.493L59.8629 14.0997L58.2136 16.2506L57.9218 16.0268Z" fill="#EF4136"/>
<path d="M60.1188 17.7565L62.1738 15.5209L63.523 16.7612L63.3023 17.0013L62.2238 16.0099L61.5294 16.7653L62.5381 17.6925L62.3173 17.9326L61.3087 17.0055L60.6103 17.7652L61.7062 18.7727L61.4855 19.0128L60.1188 17.7565Z" fill="#EF4136"/>
<path d="M65.1909 19.9349L64.9445 19.6619C65.0084 19.5749 65.0519 19.4844 65.0749 19.3904C65.0985 19.2971 65.1047 19.2037 65.0934 19.11C65.0835 19.0164 65.0576 18.9259 65.0159 18.8383C64.9742 18.7508 64.9195 18.6697 64.852 18.5948C64.7287 18.4584 64.5826 18.3659 64.4136 18.3174C64.2453 18.2696 64.0645 18.2737 63.8713 18.3296C63.6788 18.3863 63.4849 18.5027 63.2897 18.6789C63.0946 18.8551 62.959 19.0361 62.8831 19.2219C62.8078 19.4084 62.7853 19.5879 62.8157 19.7602C62.8468 19.9332 62.9239 20.088 63.0471 20.2244C63.1147 20.2993 63.1899 20.3619 63.2727 20.4123C63.3555 20.4627 63.4426 20.498 63.534 20.518C63.6267 20.5382 63.7207 20.5412 63.8159 20.5272C63.9125 20.5132 64.007 20.4792 64.0993 20.4251L64.3457 20.698C64.212 20.7815 64.0751 20.8371 63.9352 20.865C63.7952 20.8928 63.6568 20.8952 63.5201 20.8722C63.3841 20.8484 63.2543 20.8012 63.1305 20.7305C63.0074 20.6605 62.8945 20.5687 62.7918 20.455C62.6183 20.2628 62.5109 20.0494 62.4696 19.815C62.4284 19.5805 62.4556 19.3422 62.5513 19.1C62.6469 18.8578 62.8136 18.6294 63.0513 18.4148C63.289 18.2002 63.5332 18.0576 63.7838 17.9871C64.0345 17.9166 64.2743 17.9138 64.5034 17.9787C64.7324 18.0435 64.9337 18.1721 65.1073 18.3643C65.2099 18.478 65.2898 18.5997 65.3469 18.7292C65.4046 18.8596 65.438 18.9939 65.4471 19.1322C65.4568 19.2699 65.4408 19.407 65.3988 19.5434C65.3576 19.6792 65.2883 19.8097 65.1909 19.9349Z" fill="#EF4136"/>
<path d="M66.6364 20.2555L64.2425 22.1237L64.0163 21.8339L66.4102 19.9656L66.6364 20.2555Z" fill="#EF4136"/>
<path d="M64.8601 22.9142L64.6461 22.5935L67.7909 21.8352L68.0016 22.1509L66.0948 24.7641L65.8808 24.4434L67.5032 22.2696L67.49 22.2499L64.8601 22.9142ZM65.9258 22.3741L66.7884 23.6665L66.5171 23.8476L65.6545 22.5551L65.9258 22.3741Z" fill="#EF4136"/>
<path d="M66.5334 25.5109L69.207 24.0713L69.3814 24.3951L66.9949 25.68L67.6641 26.9229L67.3769 27.0775L66.5334 25.5109Z" fill="#EF4136"/>
<path d="M68.964 29.3011C68.9186 29.1905 68.9042 29.0783 68.9206 28.9647C68.938 28.8508 68.9812 28.7476 69.0502 28.6553C69.1195 28.5638 69.2095 28.4954 69.3202 28.45C69.4318 28.4043 69.5439 28.3898 69.6566 28.4067C69.7705 28.4241 69.8732 28.4674 69.9647 28.5368C70.057 28.6057 70.1259 28.6956 70.1713 28.8062C70.217 28.9178 70.231 29.0301 70.2133 29.1432C70.1968 29.2567 70.1539 29.3593 70.0845 29.4507C70.0165 29.5427 69.9267 29.6116 69.8151 29.6573C69.7044 29.7027 69.5921 29.7167 69.4781 29.6993C69.3646 29.6828 69.2616 29.6401 69.1692 29.5711C69.0781 29.5027 69.0097 29.4127 68.964 29.3011Z" fill="#EF4136"/>
<path d="M69.4068 32.3117L72.3535 31.5781L72.7963 33.3565L72.4797 33.4353L72.1258 32.0138L71.1302 32.2616L71.4611 33.5911L71.1446 33.6699L70.8136 32.3404L69.8122 32.5897L70.1718 34.0343L69.8553 34.1131L69.4068 32.3117Z" fill="#EF4136"/>
<path d="M73.046 34.6702L70.0581 35.2116L69.9925 34.8498L72.9805 34.3084L73.046 34.6702Z" fill="#EF4136"/>
<path d="M70.3221 37.0033L70.2286 36.0709L73.25 35.7678L73.3477 36.7415C73.3771 37.0346 73.3418 37.2914 73.2417 37.5121C73.1427 37.7326 72.9861 37.9098 72.772 38.0435C72.5589 38.1772 72.296 38.2597 71.9832 38.2911C71.6685 38.3226 71.3919 38.2938 71.1534 38.2044C70.916 38.115 70.7255 37.9692 70.582 37.767C70.4395 37.5648 70.3529 37.3102 70.3221 37.0033ZM70.5898 36.4042L70.6443 36.9472C70.6694 37.197 70.7384 37.3992 70.8512 37.5538C70.9641 37.7083 71.1136 37.817 71.2997 37.8798C71.4858 37.9426 71.7018 37.9617 71.9477 37.937C72.1916 37.9125 72.3976 37.8516 72.5657 37.7543C72.7347 37.6568 72.8585 37.5242 72.937 37.3564C73.0165 37.1885 73.0445 36.9865 73.0208 36.7504L72.9621 36.1662L70.5898 36.4042Z" fill="#EF4136"/>
<path d="M72.7485 42.4417C72.8994 42.4295 73.0186 42.3617 73.1063 42.2383C73.194 42.115 73.2412 41.9614 73.248 41.7777C73.253 41.6434 73.2357 41.525 73.196 41.4226C73.1562 41.3213 73.0993 41.241 73.0254 41.1819C72.9514 41.1237 72.866 41.0928 72.7692 41.0892C72.6882 41.0862 72.6178 41.1029 72.5581 41.1393C72.4993 41.1766 72.4496 41.2252 72.4088 41.285C72.3689 41.3449 72.3354 41.4079 72.3082 41.4742C72.282 41.5405 72.2605 41.6015 72.2436 41.6573L72.1491 41.9624C72.1254 42.0406 72.0935 42.1275 72.0534 42.2229C72.0132 42.3193 71.9598 42.4108 71.8933 42.4974C71.8277 42.585 71.745 42.6561 71.645 42.7107C71.5451 42.7654 71.424 42.79 71.2817 42.7847C71.1177 42.7786 70.9712 42.7302 70.842 42.6393C70.7128 42.5494 70.6122 42.4211 70.5403 42.2542C70.4683 42.0883 70.4367 41.8888 70.4453 41.6557C70.4534 41.4383 70.4955 41.2515 70.5715 41.095C70.6475 40.9396 70.75 40.8188 70.8788 40.7326C71.0076 40.6473 71.1552 40.6019 71.3216 40.5962L71.3075 40.9755C71.1925 40.9811 71.0962 41.0161 71.0187 41.0805C70.9421 41.1459 70.8835 41.2298 70.8431 41.3322C70.8037 41.4355 70.7817 41.5475 70.7772 41.668C70.772 41.8083 70.79 41.9351 70.8313 42.0484C70.8736 42.1617 70.9345 42.2525 71.0141 42.3208C71.0946 42.389 71.1902 42.4252 71.3009 42.4294C71.4016 42.4331 71.4847 42.408 71.55 42.354C71.6153 42.3001 71.6694 42.2279 71.7123 42.1375C71.7553 42.0471 71.7935 41.9491 71.8271 41.8436L71.9477 41.4741C72.0247 41.2396 72.129 41.0555 72.2605 40.9219C72.3921 40.7884 72.5601 40.7254 72.7646 40.733C72.9345 40.7393 73.081 40.7907 73.204 40.8873C73.328 40.9849 73.4221 41.113 73.4865 41.2717C73.5517 41.4314 73.5808 41.6081 73.5736 41.8017C73.5663 41.9973 73.5248 42.1698 73.449 42.3193C73.3742 42.4689 73.2749 42.5859 73.151 42.6703C73.0272 42.7557 72.8886 42.798 72.7353 42.7973L72.7485 42.4417Z" fill="#EF4136"/>
<path d="M70.4095 43.2872L73.4219 43.6699L73.2926 44.6877C73.2625 44.924 73.1953 45.1118 73.091 45.251C72.9875 45.3913 72.859 45.4886 72.7057 45.5428C72.5523 45.5971 72.3869 45.6129 72.2094 45.5904C72.0319 45.5678 71.8752 45.5111 71.7393 45.4201C71.6032 45.33 71.5016 45.2045 71.4344 45.0435C71.3681 44.8827 71.3499 44.6851 71.3796 44.4507L71.4723 43.7211L71.7959 43.7622L71.7047 44.48C71.6842 44.6418 71.6956 44.7753 71.7391 44.8805C71.7825 44.9856 71.849 45.0663 71.9385 45.1225C72.0289 45.1798 72.1343 45.2162 72.255 45.2315C72.3756 45.2468 72.4863 45.238 72.5872 45.2049C72.6879 45.1729 72.7715 45.1108 72.838 45.0186C72.9055 44.9265 72.9497 44.7986 72.9705 44.6348L73.0519 43.9935L70.3631 43.652L70.4095 43.2872Z" fill="#EF4136"/>
<path d="M70.0261 46.0436L72.9922 46.6941L72.5996 48.4842L72.281 48.4143L72.5948 46.9834L71.5926 46.7636L71.2991 48.1018L70.9804 48.0319L71.2739 46.6937L70.2659 46.4726L69.947 47.9267L69.6284 47.8568L70.0261 46.0436Z" fill="#EF4136"/>
<path d="M70.6921 51.5287L70.8044 51.1785C70.9118 51.1902 71.0119 51.1823 71.1047 51.155C71.1973 51.1286 71.2812 51.0871 71.3565 51.0303C71.4325 50.9747 71.4978 50.9069 71.5526 50.8269C71.6073 50.7469 71.6501 50.6589 71.6809 50.5629C71.7371 50.3878 71.7437 50.215 71.7009 50.0445C71.6577 49.8749 71.5634 49.7206 71.418 49.5816C71.2724 49.4435 71.0744 49.3343 70.824 49.2539C70.5736 49.1736 70.3491 49.1472 70.1502 49.1748C69.9511 49.2033 69.7847 49.2739 69.6509 49.3867C69.5168 49.5004 69.4217 49.6448 69.3655 49.8199C69.3347 49.9159 69.3183 50.0124 69.3162 50.1093C69.3142 50.2062 69.3275 50.2992 69.356 50.3883C69.3851 50.4787 69.4297 50.5615 69.4896 50.6368C69.5502 50.7133 69.627 50.7779 69.7201 50.8306L69.6078 51.1808C69.4685 51.107 69.3516 51.0166 69.2573 50.9095C69.1629 50.8024 69.0914 50.6839 69.0427 50.5541C68.995 50.4246 68.9707 50.2886 68.9697 50.146C68.9684 50.0044 68.9912 49.8607 69.038 49.7148C69.1171 49.4682 69.2477 49.2682 69.4298 49.1149C69.6119 48.9615 69.8316 48.8654 70.0891 48.8266C70.3466 48.7877 70.6278 48.8172 70.9327 48.9151C71.2377 49.0129 71.4836 49.1526 71.6703 49.334C71.8571 49.5154 71.98 49.7214 72.0388 49.9521C72.0977 50.1827 72.0876 50.4214 72.0084 50.668C71.9616 50.8138 71.8965 50.944 71.8131 51.0584C71.7294 51.1738 71.6299 51.2701 71.5148 51.3473C71.4007 51.4249 71.274 51.4798 71.135 51.512C70.9969 51.5445 70.8492 51.55 70.6921 51.5287Z" fill="#EF4136"/>
<path d="M71.138 52.9403L68.3213 51.8057L68.4587 51.4646L71.2754 52.5992L71.138 52.9403Z" fill="#EF4136"/>
<path d="M67.9475 52.7335L68.1179 52.3877L70.349 54.73L70.1812 55.0705L66.9645 54.7286L67.1349 54.3828L69.8289 54.6985L69.8394 54.6773L67.9475 52.7335ZM68.9486 53.3854L68.2618 54.7793L67.9692 54.6352L68.656 53.2413L68.9486 53.3854Z" fill="#EF4136"/>
<path d="M66.5328 55.4864L69.1172 57.0807L68.9241 57.3937L66.6173 55.9707L65.8762 57.172L65.5986 57.0008L66.5328 55.4864Z" fill="#EF4136"/>
<path d="M64.4746 59.4911C64.5476 59.3964 64.6374 59.3277 64.7439 59.285C64.8512 59.243 64.9621 59.2286 65.0766 59.242C65.1905 59.2562 65.2948 59.2998 65.3896 59.3728C65.4851 59.4464 65.5538 59.5362 65.5957 59.6421C65.6377 59.7495 65.6517 59.8601 65.6375 59.974C65.6242 60.0885 65.5809 60.1931 65.5079 60.2878C65.4343 60.3833 65.3441 60.4517 65.2374 60.493C65.1309 60.5357 65.0206 60.5499 64.9067 60.5358C64.793 60.523 64.6884 60.4798 64.5929 60.4061C64.4982 60.3331 64.4298 60.2429 64.3877 60.1356C64.345 60.0291 64.3304 59.9186 64.3438 59.8041C64.3573 59.691 64.4009 59.5866 64.4746 59.4911Z" fill="#EF4136"/>
<path d="M62.0892 61.3823L64.2051 63.5604L62.8906 64.8373L62.6633 64.6034L63.714 63.5826L62.9991 62.8467L62.0164 63.8013L61.7891 63.5673L62.7718 62.6127L62.0527 61.8725L60.985 62.9097L60.7577 62.6758L62.0892 61.3823Z" fill="#EF4136"/>
<path d="M61.8904 65.7082L59.9175 63.3998L60.197 63.1609L62.1699 65.4693L61.8904 65.7082Z" fill="#EF4136"/>
<path d="M58.4928 64.5406L59.2511 63.99L61.0352 66.4473L60.2433 67.0223C60.0049 67.1953 59.7652 67.2942 59.5242 67.3189C59.2838 67.3445 59.0519 67.2985 58.8285 67.1809C58.6057 67.0641 58.4019 66.8786 58.2173 66.6242C58.0314 66.3682 57.917 66.1148 57.8741 65.8638C57.8317 65.6136 57.8617 65.3756 57.9641 65.1498C58.067 64.9248 58.2433 64.7218 58.4928 64.5406ZM59.1452 64.47L58.7037 64.7906C58.5005 64.9381 58.3606 65.0995 58.2839 65.2749C58.2072 65.4503 58.1887 65.6342 58.2282 65.8266C58.2677 66.019 58.36 66.2152 58.5052 66.4151C58.6493 66.6135 58.8056 66.7608 58.9744 66.8569C59.1437 66.9539 59.3206 66.994 59.5052 66.9773C59.6903 66.9614 59.8788 66.8837 60.0708 66.7444L60.5459 66.3994L59.1452 64.47Z" fill="#EF4136"/>
<path d="M55.0134 69.3713C55.0996 69.4956 55.2181 69.5647 55.3688 69.5786C55.5195 69.5925 55.676 69.5563 55.8383 69.4699C55.957 69.4068 56.0507 69.3323 56.1193 69.2466C56.187 69.1613 56.2278 69.0718 56.2418 68.9782C56.255 68.885 56.2388 68.7956 56.1933 68.7101C56.1552 68.6385 56.1055 68.5861 56.044 68.5527C55.9822 68.5206 55.9152 68.502 55.843 68.4967C55.7712 68.4924 55.6999 68.495 55.6289 68.5048C55.5585 68.5154 55.4949 68.5274 55.4382 68.5408L55.1269 68.6123C55.0473 68.6311 54.9562 68.6471 54.8535 68.6603C54.7499 68.674 54.644 68.6738 54.5357 68.6597C54.4271 68.647 54.324 68.6111 54.2266 68.5521C54.1291 68.4931 54.047 68.4008 53.9801 68.2751C53.9031 68.1302 53.8714 67.9791 53.8851 67.8218C53.898 67.6649 53.9585 67.5135 54.0667 67.3675C54.174 67.222 54.3307 67.0944 54.5366 66.9849C54.7286 66.8827 54.9113 66.8253 55.0848 66.8125C55.2574 66.8002 55.4133 66.8281 55.5525 66.8962C55.6909 66.9648 55.8043 67.0696 55.8928 67.2107L55.5577 67.3889C55.4951 67.2923 55.4165 67.2267 55.3219 67.1919C55.2268 67.1585 55.1249 67.15 55.0161 67.1664C54.9069 67.1842 54.7991 67.2214 54.6926 67.2781C54.5687 67.344 54.4681 67.4233 54.3908 67.5159C54.314 67.6093 54.2661 67.7076 54.247 67.8107C54.2284 67.9146 54.2451 68.0155 54.2971 68.1132C54.3444 68.2022 54.4078 68.2614 54.4873 68.2908C54.5668 68.3202 54.6563 68.3308 54.7561 68.3225C54.8558 68.3142 54.9598 68.2981 55.0679 68.2742L55.448 68.193C55.6894 68.1418 55.901 68.1395 56.0826 68.1862C56.2642 68.233 56.403 68.3466 56.4991 68.5273C56.5789 68.6774 56.608 68.8299 56.5863 68.9848C56.5641 69.141 56.5006 69.2867 56.3956 69.422C56.2903 69.5587 56.1521 69.6725 55.9811 69.7635C55.8083 69.8554 55.6382 69.9061 55.4708 69.9156C55.304 69.926 55.1529 69.8989 55.0177 69.8342C54.8817 69.77 54.7755 69.6714 54.6992 69.5385L55.0134 69.3713Z" fill="#EF4136"/>
<path d="M53.1172 67.7693L54.2969 70.5674L53.3514 70.966C53.1319 71.0585 52.9358 71.0946 52.763 71.0741C52.5897 71.0549 52.4411 70.9925 52.3173 70.8871C52.1934 70.7816 52.0967 70.6464 52.0272 70.4815C51.9577 70.3167 51.9283 70.1526 51.9388 69.9894C51.9485 69.8266 52.0061 69.6757 52.1117 69.5368C52.2176 69.3988 52.3795 69.2839 52.5971 69.1921L53.2748 68.9064L53.4015 69.207L52.7348 69.4881C52.5845 69.5515 52.4748 69.6283 52.4056 69.7186C52.3364 69.8089 52.2999 69.9069 52.2962 70.0126C52.2919 70.1195 52.3134 70.229 52.3606 70.341C52.4078 70.453 52.471 70.5444 52.5502 70.6151C52.6284 70.6862 52.7241 70.7273 52.8372 70.7387C52.9507 70.7509 53.0835 70.7249 53.2356 70.6608L53.8313 70.4097L52.7784 67.9121L53.1172 67.7693Z" fill="#EF4136"/>
<path d="M50.5299 68.8205L51.4531 71.7134L49.7072 72.2706L49.6081 71.9598L51.0036 71.5144L50.6917 70.5369L49.3865 70.9535L49.2873 70.6427L50.5925 70.2262L50.2788 69.2431L48.8606 69.6957L48.7614 69.3849L50.5299 68.8205Z" fill="#EF4136"/>
<path d="M46.1294 72.1435L46.4887 72.0652C46.5325 72.1639 46.5894 72.2466 46.6596 72.3132C46.7288 72.3801 46.8069 72.4319 46.8938 72.4685C46.98 72.5064 47.0714 72.529 47.1681 72.5362C47.2647 72.5435 47.3623 72.5364 47.4609 72.5149C47.6405 72.4757 47.7933 72.3948 47.9194 72.2723C48.0444 72.1499 48.1307 71.991 48.1781 71.7955C48.2246 71.6002 48.2198 71.3741 48.1638 71.1172C48.1078 70.8603 48.018 70.6528 47.8945 70.4946C47.77 70.3366 47.6254 70.228 47.4607 70.1688C47.2951 70.1098 47.1225 70.0999 46.9428 70.139C46.8443 70.1605 46.7526 70.1947 46.6677 70.2415C46.5828 70.2883 46.509 70.3464 46.4462 70.4158C46.3827 70.4863 46.3334 70.5663 46.2983 70.6559C46.2624 70.7467 46.245 70.8456 46.2461 70.9526L45.8868 71.0309C45.8808 70.8734 45.9005 70.727 45.9458 70.5916C45.9912 70.4563 46.0578 70.335 46.1458 70.2278C46.2339 70.1216 46.3394 70.0323 46.4622 69.96C46.5841 69.8879 46.7199 69.8356 46.8696 69.8029C47.1226 69.7478 47.3611 69.7605 47.5851 69.8412C47.8091 69.9218 48.0024 70.0638 48.1651 70.2671C48.3278 70.4704 48.4432 70.7285 48.5115 71.0414C48.5797 71.3543 48.5821 71.6371 48.5188 71.8896C48.4555 72.1422 48.3389 72.3518 48.1688 72.5183C47.9987 72.6849 47.7872 72.7958 47.5341 72.851C47.3844 72.8836 47.2392 72.8925 47.0984 72.8777C46.9566 72.8631 46.8234 72.8253 46.6988 72.7645C46.5745 72.7046 46.4635 72.6226 46.3659 72.5184C46.2686 72.4152 46.1897 72.2902 46.1294 72.1435Z" fill="#EF4136"/>
<path d="M45.136 73.2383L44.7045 70.2325L45.0685 70.1802L45.5 73.186L45.136 73.2383Z" fill="#EF4136"/>
<path d="M43.7018 70.3732L44.0864 70.3469L43.1805 73.4524L42.8018 73.4782L41.4829 70.5244L41.8675 70.4982L42.9467 72.9868L42.9704 72.9852L43.7018 70.3732ZM43.6405 71.5663L42.0902 71.672L42.068 71.3465L43.6183 71.2408L43.6405 71.5663Z" fill="#EF4136"/>
<path d="M40.612 70.5365L40.5352 73.5721L40.1676 73.5628L40.2361 70.8533L38.825 70.8176L38.8333 70.4915L40.612 70.5365Z" fill="#EF4136"/>
<path d="M36.1163 70.7698C36.2349 70.7852 36.3395 70.8281 36.43 70.8986C36.5205 70.9702 36.5887 71.0587 36.6348 71.1644C36.68 71.2699 36.6949 71.382 36.6795 71.5006C36.664 71.6202 36.6211 71.7248 36.5507 71.8143C36.4791 71.9047 36.3906 71.9725 36.2851 72.0176C36.1795 72.0638 36.0673 72.0791 35.9487 72.0638C35.8291 72.0483 35.7246 72.0049 35.6352 71.9335C35.5446 71.8629 35.4768 71.7749 35.4317 71.6694C35.3854 71.5647 35.37 71.4526 35.3855 71.333C35.4009 71.2144 35.4443 71.1099 35.5158 71.0194C35.5864 70.9289 35.6745 70.8606 35.7801 70.8145C35.8846 70.7692 35.9967 70.7543 36.1163 70.7698Z" fill="#EF4136"/>
<path d="M34.3948 69.9165L33.6875 72.8696L31.9053 72.4427L31.9813 72.1255L33.4059 72.4667L33.6449 71.4689L32.3125 71.1497L32.3885 70.8325L33.7209 71.1516L33.9613 70.1481L32.5135 69.8013L32.5895 69.4841L34.3948 69.9165Z" fill="#EF4136"/>
<path d="M30.6194 72.0563L31.5169 69.1553L31.8681 69.264L30.9707 72.165L30.6194 72.0563Z" fill="#EF4136"/>
<path d="M29.8043 68.5652L30.6746 68.9125L29.5488 71.7328L28.64 71.37C28.3664 71.2608 28.1548 71.1109 28.0053 70.9203C27.8553 70.7306 27.7705 70.5099 27.7507 70.2583C27.7305 70.0076 27.7786 69.7362 27.8952 69.4443C28.0124 69.1505 28.1657 68.9185 28.355 68.7482C28.544 68.5788 28.7612 68.4772 29.0068 68.4432C29.252 68.4102 29.5178 68.4508 29.8043 68.5652ZM30.2121 69.0792L29.7054 68.8769C29.4722 68.7838 29.261 68.7517 29.0717 68.7804C28.8825 68.8092 28.7171 68.8917 28.5755 69.0278C28.4339 69.1639 28.3173 69.3467 28.2257 69.5762C28.1348 69.8039 28.0937 70.0147 28.1025 70.2088C28.1109 70.4037 28.1714 70.5747 28.284 70.7218C28.3963 70.8699 28.5626 70.9879 28.7829 71.0758L29.3282 71.2935L30.2121 69.0792Z" fill="#EF4136"/>
<path d="M23.8604 68.1996C23.8012 68.3389 23.8059 68.4759 23.8745 68.6108C23.9431 68.7457 24.0572 68.8588 24.2168 68.9501C24.3335 69.0169 24.4464 69.0564 24.5555 69.0687C24.6638 69.0805 24.7613 69.0674 24.848 69.0293C24.9338 68.9907 25.0008 68.9294 25.0489 68.8453C25.0891 68.7749 25.107 68.7049 25.1025 68.6351C25.0966 68.5657 25.0767 68.499 25.0426 68.4352C25.0081 68.3721 24.9678 68.3132 24.9217 68.2584C24.8751 68.2044 24.8311 68.157 24.7895 68.1161L24.563 67.8909C24.5047 67.8337 24.4426 67.7651 24.3767 67.6853C24.3099 67.6049 24.2536 67.5152 24.2078 67.4161C24.1606 67.3174 24.136 67.2111 24.134 67.0972C24.1319 66.9833 24.1663 66.8646 24.2369 66.741C24.3184 66.5986 24.4293 66.4912 24.5698 66.4189C24.7093 66.3462 24.8697 66.3166 25.0509 66.3303C25.2313 66.3435 25.4227 66.408 25.6252 66.5239C25.8139 66.6318 25.96 66.7558 26.0633 66.8957C26.1657 67.0352 26.2252 67.182 26.2418 67.3361C26.2576 67.4897 26.2294 67.6416 26.1572 67.7916L25.8277 67.6031C25.8761 67.4987 25.8897 67.3972 25.8687 67.2986C25.8463 67.2004 25.7991 67.1096 25.7272 67.0263C25.6539 66.9434 25.5649 66.872 25.4603 66.8122C25.3384 66.7425 25.2177 66.6996 25.0982 66.6836C24.9782 66.6685 24.8695 66.6803 24.7721 66.7192C24.6743 66.7588 24.5978 66.8267 24.5429 66.9228C24.4928 67.0104 24.4765 67.0956 24.494 67.1784C24.5115 67.2613 24.5504 67.3428 24.6105 67.4227C24.6707 67.5027 24.7397 67.5821 24.8177 67.6608L25.089 67.939C25.2611 68.116 25.3758 68.2938 25.4331 68.4723C25.4904 68.6508 25.4682 68.8289 25.3666 69.0065C25.2822 69.1541 25.1687 69.26 25.0261 69.3242C24.8821 69.3887 24.7249 69.4127 24.5545 69.3961C24.3827 69.3798 24.2127 69.3236 24.0446 69.2274C23.8747 69.1302 23.7411 69.0133 23.6438 68.8768C23.546 68.7412 23.4885 68.599 23.4711 68.4501C23.4529 68.3008 23.4797 68.1584 23.5515 68.0229L23.8604 68.1996Z" fill="#EF4136"/>
<path d="M24.2077 65.7426L22.4707 68.2334L21.6291 67.6465C21.4337 67.5102 21.2986 67.3636 21.2237 67.2065C21.1475 67.0497 21.1209 66.8908 21.144 66.7298C21.1671 66.5688 21.2299 66.4149 21.3322 66.2681C21.4345 66.1213 21.5575 66.0089 21.7012 65.9307C21.8441 65.852 22.0024 65.8202 22.1762 65.8354C22.3495 65.8514 22.533 65.9269 22.7268 66.062L23.33 66.4827L23.1434 66.7503L22.5499 66.3364C22.4161 66.2431 22.2926 66.1913 22.1793 66.181C22.066 66.1706 21.9637 66.1921 21.8723 66.2453C21.7796 66.2987 21.6985 66.3753 21.6289 66.475C21.5594 66.5748 21.5159 66.677 21.4983 66.7816C21.4799 66.8857 21.4962 66.9886 21.547 67.0903C21.5972 67.1928 21.69 67.2913 21.8254 67.3857L22.3557 67.7555L23.906 65.5323L24.2077 65.7426Z" fill="#EF4136"/>
<path d="M21.9324 64.1119L19.9805 66.4381L18.5766 65.2601L18.7863 65.0102L19.9085 65.9519L20.568 65.1659L19.5185 64.2852L19.7282 64.0353L20.7777 64.916L21.441 64.1254L20.3006 63.1686L20.5103 62.9187L21.9324 64.1119Z" fill="#EF4136"/>
<path d="M16.7649 62.1672L17.0234 62.4288C16.9634 62.5186 16.9241 62.611 16.9053 62.7059C16.8859 62.8002 16.884 62.8938 16.8995 62.9869C16.9136 63.0799 16.9435 63.1692 16.9891 63.2548C17.0347 63.3403 17.093 63.4189 17.1639 63.4907C17.2931 63.6214 17.4432 63.7073 17.6142 63.7481C17.7845 63.7883 17.9649 63.7761 18.1554 63.7115C18.3452 63.6462 18.5337 63.5212 18.7207 63.3363C18.9077 63.1515 19.035 62.9646 19.1025 62.7756C19.1693 62.5859 19.1837 62.4056 19.1456 62.2348C19.1067 62.0633 19.0227 61.9122 18.8935 61.7814C18.8226 61.7097 18.7447 61.6506 18.6597 61.6039C18.5747 61.5573 18.4861 61.526 18.3939 61.5101C18.3004 61.4941 18.2063 61.4953 18.1119 61.5136C18.016 61.5319 17.9232 61.5702 17.8333 61.6284L17.5749 61.3668C17.7047 61.2774 17.8389 61.2157 17.9775 61.1815C18.1161 61.1474 18.2542 61.1388 18.3918 61.1557C18.5287 61.1733 18.6606 61.2146 18.7874 61.2797C18.9135 61.344 19.0305 61.4307 19.1382 61.5397C19.3202 61.7239 19.4371 61.9322 19.4888 62.1645C19.5406 62.3969 19.5241 62.6362 19.4395 62.8824C19.3548 63.1287 19.1986 63.3643 18.9708 63.5895C18.743 63.8146 18.5055 63.968 18.2583 64.0497C18.0111 64.1314 17.7716 64.145 17.5398 64.0905C17.3081 64.036 17.1012 63.9167 16.9192 63.7325C16.8115 63.6235 16.7262 63.5055 16.6634 63.3786C16.5998 63.2511 16.5604 63.1184 16.5451 62.9806C16.5292 62.8435 16.5391 62.7058 16.5749 62.5677C16.6099 62.4302 16.6733 62.2967 16.7649 62.1672Z" fill="#EF4136"/>
<path d="M15.3174 61.9169L17.6237 59.9416L17.8629 60.2209L15.5566 62.1962L15.3174 61.9169Z" fill="#EF4136"/>
<path d="M16.9625 59.1776L17.1908 59.4882L14.0837 60.3884L13.8589 60.0826L15.6452 57.3856L15.8735 57.6962L14.3514 59.9414L14.3654 59.9605L16.9625 59.1776ZM15.9224 59.7655L15.0021 58.5135L15.2649 58.3203L16.1853 59.5723L15.9224 59.7655Z" fill="#EF4136"/>
<path d="M15.1762 56.6534L12.5703 58.2124L12.3815 57.8968L14.7075 56.5053L13.9828 55.294L14.2627 55.1265L15.1762 56.6534Z" fill="#EF4136"/>
<path d="M12.5727 52.9787C12.6231 53.0872 12.6426 53.1985 12.6314 53.3128C12.6192 53.4274 12.5808 53.5324 12.5161 53.6278C12.451 53.7224 12.3642 53.7948 12.2558 53.8452C12.1464 53.896 12.035 53.9156 11.9217 53.9039C11.8071 53.8917 11.7025 53.8531 11.608 53.788C11.5126 53.7233 11.4397 53.6368 11.3893 53.5283C11.3385 53.4189 11.3194 53.3074 11.3319 53.1936C11.3432 53.0794 11.3814 52.975 11.4465 52.8805C11.5102 52.7855 11.5968 52.7126 11.7062 52.6618C11.8147 52.6114 11.9262 52.5923 12.0409 52.6045C12.1551 52.6157 12.2599 52.6537 12.3553 52.7184C12.4494 52.7826 12.5219 52.8693 12.5727 52.9787Z" fill="#EF4136"/>
<path d="M11.9939 49.9984L9.08398 50.8664L8.56011 49.1102L8.8727 49.017L9.29146 50.4208L10.2747 50.1275L9.88306 48.8146L10.1956 48.7214L10.5873 50.0342L11.5762 49.7392L11.1507 48.3127L11.4632 48.2195L11.9939 49.9984Z" fill="#EF4136"/>
<path d="M8.25195 47.8022L11.212 47.1248L11.2941 47.4832L8.33398 48.1606L8.25195 47.8022Z" fill="#EF4136"/>
<path d="M10.863 45.3475L10.9987 46.2747L7.99414 46.7146L7.85237 45.7463C7.80969 45.4549 7.83332 45.1967 7.92327 44.9717C8.01223 44.7469 8.16061 44.5628 8.3684 44.4195C8.57521 44.2763 8.83413 44.182 9.14515 44.1364C9.45813 44.0906 9.73575 44.1069 9.978 44.1853C10.2193 44.2639 10.4162 44.4009 10.5687 44.5963C10.7202 44.7919 10.8183 45.0423 10.863 45.3475ZM10.6227 45.9581L10.5436 45.4182C10.5073 45.1698 10.4292 44.9709 10.3094 44.8216C10.1897 44.6723 10.0354 44.5705 9.84663 44.5162C9.65786 44.462 9.44122 44.4527 9.19671 44.4885C8.95415 44.524 8.75113 44.5942 8.58766 44.6991C8.42321 44.8041 8.30557 44.9422 8.23473 45.1134C8.16292 45.2848 8.14419 45.4878 8.17856 45.7225L8.26363 46.3035L10.6227 45.9581Z" fill="#EF4136"/>
<path d="M8.18751 40.0369C8.03757 40.0572 7.92211 40.1312 7.84115 40.2591C7.76018 40.3869 7.72119 40.5428 7.72417 40.7266C7.72635 40.861 7.75001 40.9783 7.79513 41.0784C7.84024 41.1775 7.9013 41.2546 7.97832 41.3097C8.05532 41.3638 8.14225 41.3901 8.23911 41.3885C8.32015 41.3872 8.38952 41.3668 8.44721 41.3273C8.50389 41.2868 8.55101 41.2357 8.58856 41.1738C8.62512 41.1119 8.65521 41.0471 8.67883 40.9795C8.70146 40.9119 8.71973 40.8498 8.73364 40.7933L8.81165 40.4835C8.83113 40.4041 8.85836 40.3157 8.89336 40.2183C8.92834 40.1198 8.97673 40.0256 9.03854 39.9356C9.09935 39.8447 9.1782 39.7692 9.2751 39.7093C9.372 39.6494 9.49161 39.6183 9.63394 39.616C9.798 39.6134 9.94695 39.654 10.0808 39.7378C10.2146 39.8206 10.3219 39.9435 10.4026 40.1063C10.4834 40.2681 10.5256 40.4656 10.5294 40.6989C10.5329 40.9163 10.5009 41.1051 10.4333 41.2654C10.3657 41.4247 10.2699 41.5508 10.1458 41.6438C10.0218 41.7357 9.87682 41.789 9.71097 41.8036L9.70481 41.424C9.8193 41.4123 9.91355 41.3722 9.98758 41.3038C10.0606 41.2344 10.1145 41.1475 10.1494 41.0431C10.1833 40.9378 10.1993 40.8248 10.1973 40.7042C10.195 40.5639 10.1703 40.4383 10.123 40.3273C10.0747 40.2164 10.009 40.129 9.92595 40.0651C9.84187 40.0012 9.74448 39.9701 9.63378 39.9719C9.53297 39.9736 9.45139 40.0031 9.38905 40.0604C9.32671 40.1178 9.27652 40.1928 9.23848 40.2853C9.20044 40.3779 9.16746 40.4778 9.13954 40.585L9.03886 40.9603C8.97452 41.1986 8.88021 41.388 8.75595 41.5284C8.63169 41.6688 8.46726 41.7407 8.26267 41.744C8.09268 41.7468 7.94368 41.7032 7.81568 41.6134C7.68667 41.5225 7.58582 41.3996 7.51311 41.2446C7.43939 41.0886 7.40097 40.9137 7.39782 40.72C7.39465 40.5243 7.42691 40.3498 7.49461 40.1965C7.56132 40.0431 7.65425 39.921 7.77338 39.8301C7.8925 39.7382 8.02862 39.6886 8.18173 39.6811L8.18751 40.0369Z" fill="#EF4136"/>
<path d="M10.4954 39.0791L7.46875 38.8329L7.55193 37.8103C7.57124 37.5728 7.62989 37.3822 7.72786 37.2385C7.82493 37.0936 7.94885 36.9907 8.09961 36.9295C8.25036 36.8684 8.41491 36.8451 8.59323 36.8596C8.77156 36.8741 8.93067 36.9237 9.07055 37.0085C9.21051 37.0923 9.31771 37.2131 9.39215 37.3709C9.46561 37.5286 9.49276 37.7252 9.47361 37.9606L9.41399 38.6936L9.08886 38.6672L9.14752 37.946C9.16074 37.7834 9.14328 37.6506 9.09514 37.5475C9.04699 37.4444 8.97694 37.3668 8.88498 37.3147C8.79211 37.2616 8.68509 37.23 8.5639 37.2202C8.44272 37.2103 8.3325 37.2242 8.23325 37.2617C8.13408 37.2983 8.05335 37.3641 7.99107 37.4592C7.9278 37.5542 7.88948 37.684 7.87609 37.8485L7.82369 38.4929L10.5252 38.7126L10.4954 39.0791Z" fill="#EF4136"/>
<path d="M10.7562 36.2964L7.76367 35.7811L8.07466 33.975L8.39613 34.0304L8.14754 35.474L9.1587 35.6482L9.39119 34.298L9.71266 34.3533L9.48017 35.7035L10.4972 35.8786L10.7498 34.4116L11.0713 34.4669L10.7562 36.2964Z" fill="#EF4136"/>
<path d="M9.84088 30.8563L9.74471 31.2112C9.63694 31.2045 9.5373 31.217 9.4458 31.2485C9.35456 31.2791 9.27262 31.3245 9.19999 31.3847C9.12665 31.4437 9.06448 31.5144 9.01347 31.5968C8.96245 31.6793 8.92376 31.7692 8.89739 31.8665C8.84931 32.0439 8.8506 32.2168 8.90125 32.3852C8.95216 32.5526 9.0534 32.7024 9.205 32.8347C9.35684 32.9659 9.55966 33.0659 9.81345 33.1347C10.0672 33.2035 10.2928 33.2195 10.4901 33.1829C10.6877 33.1453 10.8508 33.067 10.9792 32.9482C11.108 32.8285 11.1964 32.6799 11.2444 32.5024C11.2708 32.4051 11.2828 32.308 11.2804 32.211C11.278 32.1141 11.2605 32.0218 11.2279 31.9341C11.1946 31.8452 11.1463 31.7646 11.083 31.6921C11.019 31.6184 10.9393 31.5574 10.8438 31.509L10.94 31.1541C11.0825 31.2214 11.2034 31.3064 11.3026 31.409C11.4017 31.5117 11.4786 31.6267 11.5332 31.7542C11.5868 31.8813 11.6174 32.0161 11.6249 32.1584C11.6327 32.2998 11.6165 32.4445 11.5765 32.5924C11.5087 32.8423 11.3874 33.0481 11.2126 33.2096C11.0377 33.3712 10.8226 33.4773 10.5672 33.5279C10.3118 33.5785 10.0295 33.5619 9.72039 33.4782C9.41126 33.3944 9.15924 33.2662 8.96432 33.0936C8.76941 32.921 8.63725 32.7208 8.56786 32.4931C8.49848 32.2653 8.49765 32.0265 8.56537 31.7765C8.60544 31.6286 8.66452 31.4956 8.74261 31.3775C8.82096 31.2584 8.91585 31.1577 9.0273 31.0752C9.13778 30.9925 9.26174 30.9319 9.39918 30.8933C9.53566 30.8545 9.68289 30.8422 9.84088 30.8563Z" fill="#EF4136"/>
<path d="M9.32869 29.4696L12.1943 30.4742L12.0726 30.8212L9.20703 29.8166L9.32869 29.4696Z" fill="#EF4136"/>
<path d="M12.5247 29.5274L12.3703 29.8807L10.0345 27.6428L10.1865 27.295L13.4155 27.4895L13.2611 27.8428L10.5554 27.6505L10.5459 27.6722L12.5247 29.5274ZM11.4948 28.9219L12.1172 27.4981L12.4161 27.6288L11.7937 29.0526L11.4948 28.9219Z" fill="#EF4136"/>
<path d="M13.8069 26.7164L11.1523 25.2419L11.3309 24.9204L13.7003 26.2365L14.3857 25.0026L14.6709 25.161L13.8069 26.7164Z" fill="#EF4136"/>
<path d="M15.6871 22.6178C15.6184 22.7157 15.5318 22.7884 15.4273 22.8359C15.322 22.8828 15.2119 22.9021 15.0969 22.894C14.9825 22.885 14.8763 22.8461 14.7784 22.7775C14.6796 22.7083 14.6069 22.6217 14.5602 22.5178C14.5134 22.4125 14.4944 22.3026 14.5034 22.1882C14.5116 22.0732 14.55 21.9667 14.6186 21.8688C14.6878 21.77 14.7748 21.6976 14.8796 21.6515C14.9841 21.6041 15.0935 21.5848 15.2079 21.5938C15.3221 21.6014 15.4286 21.6398 15.5273 21.7091C15.6253 21.7777 15.6977 21.8647 15.7446 21.97C15.792 22.0745 15.8117 22.1842 15.8035 22.2992C15.7951 22.4128 15.7563 22.519 15.6871 22.6178Z" fill="#EF4136"/>
<defs>
<filter id="filter0_d_11606_81335" x="2.42969" y="2.4317" width="76.6406" height="76.641" filterUnits="userSpaceOnUse" color-interpolation-filters="sRGB">
<feFlood flood-opacity="0" result="BackgroundImageFix"/>
<feColorMatrix in="SourceAlpha" type="matrix" values="0 0 0 0 0 0 0 0 0 0 0 0 0 0 0 0 0 0 127 0" result="hardAlpha"/>
<feOffset dx="0.5" dy="0.5"/>
<feComposite in2="hardAlpha" operator="out"/>
<feColorMatrix type="matrix" values="0 0 0 0 0.520833 0 0 0 0 0 0 0 0 0 0 0 0 0 0.47 0"/>
<feBlend mode="normal" in2="BackgroundImageFix" result="effect1_dropShadow_11606_81335"/>
<feBlend mode="normal" in="SourceGraphic" in2="effect1_dropShadow_11606_81335" result="shape"/>
</filter>
</defs>
</svg>
