<svg width="323" height="114" viewBox="0 0 323 114" fill="none" xmlns="http://www.w3.org/2000/svg">
<g opacity="0.4">
<path d="M301.001 66.057L300.389 63.3211L302.875 62.0266L300.084 61.7631L299.621 58.9971L298.507 61.5712L295.734 61.1572L297.838 63.0107L296.588 65.5189L299 64.0926L301.001 66.057Z" fill="#BA6400"/>
<path d="M220.893 60.8001L218.163 56.5853L221.531 52.8634L216.68 54.1579L214.181 49.8038L213.912 54.8165L208.999 55.8495L213.684 57.6521L213.148 62.6441L216.311 58.7473L220.893 60.8001Z" fill="#BA6400"/>
<path d="M315.454 17.9986L312.723 13.7856L316.092 10.0618L311.241 11.3564L308.742 7.00226L308.474 12.0168L303.559 13.048L308.245 14.8525L307.709 19.8444L310.872 15.9457L315.454 17.9986Z" fill="#BA6400"/>
<path d="M248.922 12.2945L247.134 8.71967L250.129 6.07122L246.175 6.66635L244.583 3L243.927 6.94372L239.948 7.3261L243.496 9.16668L242.63 13.07L245.478 10.2654L248.922 12.2945Z" fill="#BA6400"/>
<path d="M309.418 93.4899L314.631 92.1897L317.228 96.89L317.602 91.533L322.875 90.515L317.896 88.5035L318.556 83.1747L315.105 87.288L310.241 85.0131L313.086 89.5667L309.418 93.4899Z" fill="#BA6400"/>
<path d="M260.542 68.8169L259.621 67.1253L261.02 65.8006L259.126 66.1525L258.299 64.4139L258.048 66.3237L256.14 66.574L257.879 67.4019L257.527 69.2948L258.85 67.8968L260.542 68.8169Z" fill="#BA6400"/>
</g>
<g opacity="0.4">
<path d="M169.05 21.8734L166.314 22.485L165.02 19.9991L164.756 22.7898L161.99 23.2527L164.564 24.3667L164.15 27.1405L166.004 25.0366L168.512 26.2861L167.086 23.8737L169.05 21.8734Z" fill="#BA6400"/>
<path d="M163.793 101.981L159.578 104.712L155.856 101.343L157.151 106.195L152.797 108.694L157.81 108.963L158.843 113.876L160.645 109.19L165.637 109.727L161.74 106.563L163.793 101.981Z" fill="#BA6400"/>
<path d="M120.99 7.42133L116.777 10.1518L113.054 6.78339L114.348 11.6346L109.994 14.1336L115.009 14.4008L116.04 19.316L117.844 14.6304L122.836 15.1667L118.938 12.0034L120.99 7.42133Z" fill="#BA6400"/>
<path d="M115.287 73.9526L111.712 75.7408L109.063 72.7461L109.659 76.6995L105.992 78.2924L109.936 78.9482L110.318 82.9272L112.159 79.3791L116.062 80.2449L113.258 77.397L115.287 73.9526Z" fill="#BA6400"/>
<path d="M196.481 13.4565L195.181 8.24402L199.881 5.64717L194.524 5.2727L193.506 3.20854e-07L191.495 4.97918L186.166 4.31867L190.279 7.76981L188.004 12.6342L192.558 9.78894L196.481 13.4565Z" fill="#BA6400"/>
<path d="M171.809 62.3334L170.118 63.2536L168.793 61.8555L169.145 63.7485L167.406 64.5765L169.316 64.8268L169.566 66.7349L170.394 64.9961L172.287 65.348L170.889 64.0252L171.809 62.3334Z" fill="#BA6400"/>
</g>
<g opacity="0.4">
<path d="M30.8327 92.0026L33.5686 91.391L34.8631 93.8768L35.1266 91.0862L37.8926 90.6232L35.3185 89.5093L35.7325 86.7355L33.8791 88.8393L31.3708 87.5899L32.7971 90.0023L30.8327 92.0026Z" fill="#BA6400"/>
<path d="M36.0896 11.8947L40.3045 9.16426L44.0264 12.5327L42.7318 7.68145L47.0859 5.18245L42.0733 4.91337L41.0402 5.27164e-05L39.2376 4.68569L34.2456 4.14936L38.1425 7.31263L36.0896 11.8947Z" fill="#BA6400"/>
<path d="M78.8924 106.455L83.1054 103.724L86.8291 107.093L85.5346 102.241L89.8887 99.7424L84.8741 99.4752L83.843 94.56L82.0385 99.2456L77.0465 98.7093L80.9452 101.873L78.8924 106.455Z" fill="#BA6400"/>
<path d="M84.5962 39.9234L88.171 38.1352L90.8194 41.1299L90.2243 37.1765L93.8906 35.5835L89.9469 34.9278L89.5645 30.9488L87.7239 34.4969L83.8206 33.6311L86.6253 36.479L84.5962 39.9234Z" fill="#BA6400"/>
<path d="M3.40167 100.419L4.70186 105.632L0.00153231 108.229L5.35855 108.603L6.37652 113.876L8.38801 108.897L13.7168 109.557L9.60354 106.106L11.8784 101.242L7.32488 104.087L3.40167 100.419Z" fill="#BA6400"/>
<path d="M28.0735 51.5425L29.7651 50.6224L31.0898 52.0205L30.7379 50.1274L32.4766 49.2995L30.5667 49.0492L30.3164 47.1411L29.4885 48.8798L27.5956 48.5279L28.9936 49.8508L28.0735 51.5425Z" fill="#BA6400"/>
</g>
</svg>
