<svg width="597" height="44" viewBox="0 0 597 44" fill="none" xmlns="http://www.w3.org/2000/svg">
<path d="M596.5 44V0L0 2.64623e-06V44L479.49 44H575.025H596.5Z" fill="#F04935"/>
<path d="M44.5218 27.7853C44.1387 28.2411 43.6646 28.6132 43.1294 28.8781C42.6155 29.1256 42.051 29.2523 41.4797 29.2482C40.4858 29.2482 39.6704 28.8769 39.0338 28.1343C38.3971 27.3916 38.0785 26.4276 38.0781 25.2422C38.0781 23.7569 38.5094 22.5235 39.372 21.5422C40.2345 20.5609 41.3114 20.0704 42.6026 20.0708C43.162 20.0615 43.7151 20.1886 44.2134 20.4409C44.6879 20.688 45.1163 21.0694 45.4987 21.5851L45.6958 20.3431H48.5919L47.5311 26.9907C47.4447 27.532 47.1667 28.025 46.7468 28.3809C46.327 28.7369 45.793 28.9324 45.2408 28.9325H44.377L44.5218 27.7853ZM41.1531 24.9433C41.1531 25.4931 41.3216 25.9359 41.6586 26.2716C41.9956 26.6073 42.4416 26.7745 42.9968 26.7733C43.6023 26.7733 44.1064 26.5395 44.509 26.0717C44.9117 25.604 45.1131 25.0186 45.1131 24.3154C45.1131 23.7824 44.9446 23.3501 44.6076 23.0184C44.2706 22.6868 43.8308 22.5207 43.2882 22.5203C42.9981 22.5144 42.7103 22.5731 42.4461 22.6921C42.1819 22.8111 41.9479 22.9874 41.7614 23.208C41.3558 23.6677 41.1531 24.2461 41.1531 24.9433Z" fill="white"/>
<path d="M55.5117 28.9318L56.8822 20.3413H59.813L59.5977 21.8072C59.8661 21.2634 60.226 20.8494 60.6774 20.5653C61.1287 20.2811 61.6543 20.1402 62.2541 20.1426C62.3256 20.1431 62.3971 20.1473 62.4682 20.1553C62.5485 20.1637 62.6738 20.1825 62.8454 20.2108L62.2371 22.9067C62.0371 22.8616 61.8571 22.8276 61.6969 22.8047C61.5438 22.7827 61.3893 22.7714 61.2346 22.7709C60.6458 22.7709 60.1814 22.9538 59.8416 23.3197C59.5017 23.6856 59.269 24.2511 59.1433 25.0163L58.8026 27.1815C58.7257 27.6709 58.4749 28.117 58.0956 28.439C57.7163 28.761 57.2335 28.9377 56.7344 28.9373L55.5117 28.9318Z" fill="white"/>
<path d="M62.9727 28.9324L64.3352 20.3418H67.4114L66.3554 26.9586C66.2675 27.5089 65.9847 28.01 65.5579 28.3718C65.131 28.7336 64.5881 28.9323 64.0268 28.9324H62.9727Z" fill="white"/>
<path d="M64.5666 17.7817C64.5672 17.3533 64.739 16.9426 65.0443 16.6397C65.3496 16.3369 65.7634 16.1665 66.195 16.166C66.6687 16.166 67.0629 16.319 67.3775 16.6249C67.5324 16.7749 67.6542 16.9552 67.7353 17.1543C67.8165 17.3534 67.8552 17.567 67.849 17.7817C67.851 17.9979 67.8096 18.2123 67.7272 18.4123C67.6448 18.6124 67.5231 18.7942 67.3691 18.9471C67.2151 19.0999 67.0319 19.2208 66.8303 19.3025C66.6288 19.3843 66.4128 19.4254 66.195 19.4234C65.9796 19.4265 65.766 19.3852 65.5675 19.3021C65.3691 19.2189 65.1902 19.0958 65.0423 18.9404C64.8885 18.789 64.7672 18.6083 64.6854 18.4092C64.6037 18.2101 64.5633 17.9967 64.5666 17.7817Z" fill="white"/>
<path d="M54.3582 19.8203H51.321L51.24 20.3414H49.8008L49.4492 22.5361H50.8891L49.8689 28.9319H51.063C51.5779 28.932 52.0759 28.7495 52.4672 28.4174C52.8585 28.0853 53.1175 27.6254 53.1976 27.1206L53.922 22.5367H55.4732L55.8248 20.342H54.2736L54.3582 19.8203Z" fill="white"/>
<path d="M54.6757 17.8496H51.6251L51.3203 19.8203H54.3569L54.6757 17.8496Z" fill="white"/>
<path d="M30.6838 12.985C30.6805 12.7319 30.729 12.4808 30.8266 12.2469C30.9242 12.013 31.0687 11.8013 31.2514 11.6247C31.429 11.4411 31.6429 11.2958 31.8796 11.1979C32.1164 11.1001 32.3709 11.0517 32.6273 11.0559C33.193 11.0559 33.6635 11.2387 34.0386 11.6041C34.4137 11.9696 34.6013 12.4299 34.6013 12.985C34.6062 13.243 34.5579 13.4993 34.4594 13.7381C34.3608 13.9769 34.2141 14.1932 34.0282 14.3737C33.8464 14.5582 33.6285 14.7038 33.3879 14.8016C33.1473 14.8994 32.8891 14.9473 32.6291 14.9424C32.3723 14.9465 32.1174 14.8975 31.8806 14.7988C31.6437 14.7001 31.4301 14.5537 31.2532 14.3689C31.0693 14.1881 30.9241 13.9724 30.8262 13.7346C30.7284 13.4968 30.6799 13.2418 30.6838 12.985Z" fill="white"/>
<path d="M25.7426 23.4013C25.5047 23.4345 25.3082 23.4616 25.13 23.5577C24.9572 23.6364 24.809 23.7598 24.7009 23.915C24.5928 24.0703 24.5288 24.2515 24.5156 24.4398L25.2267 29.8219L25.3977 31.181C25.4041 31.2685 25.4206 31.355 25.4469 31.4388C25.4685 31.5061 25.4998 31.57 25.54 31.6284C25.6205 31.746 25.7318 31.8397 25.8618 31.8995C25.9996 31.9619 26.1498 31.9928 26.3013 31.99C26.4528 31.9872 26.6017 31.9507 26.7371 31.8832C26.861 31.8247 26.9663 31.7334 27.0414 31.6195C27.1165 31.5055 27.1586 31.3732 27.1629 31.2371L26.5838 25.8683L26.523 25.2905L27.1088 25.2301L30.4861 24.8733L31.331 24.7894C31.5674 24.7697 31.8007 24.7228 32.0263 24.6499C32.432 24.5074 32.6498 24.2749 32.8031 23.836C32.9424 23.4272 33.0081 22.8138 33.1224 22.2758L33.4205 20.6154L34.0172 17.2946L34.1669 16.4777C34.2094 16.2585 34.2112 16.0335 34.1724 15.8136C34.1609 15.7331 34.1318 15.6561 34.0872 15.588C34.0425 15.5199 33.9833 15.4623 33.9138 15.4193C33.7703 15.3306 33.5446 15.2871 33.3055 15.2816C32.3037 15.2666 31.2507 15.6813 30.5883 16.4777C30.2483 16.8759 30.0026 17.3447 29.8693 17.8495C29.8077 18.1213 29.7624 18.3965 29.7336 18.6737L29.618 19.5262L29.1569 22.8385C28.2536 23.045 27.3387 23.1555 26.4293 23.2992L25.7426 23.4013Z" fill="white"/>
<path d="M38.4684 15.7744H35.5626L35.2414 17.7874L35.2177 17.9347L35.0023 19.2431C34.7353 20.8733 34.4591 22.5567 34.1696 24.2134C33.9871 25.261 33.1963 25.9879 32.1014 26.1117C31.5326 26.1763 30.8185 26.2548 28.2812 26.3261L28.9632 29.2109C30.9949 29.2013 32.0478 29.0123 32.2997 28.9748C34.8861 28.5896 36.5462 27.1677 36.9738 24.9712C37.3388 23.1061 37.6338 21.203 37.9258 19.3295C38.0231 18.7044 38.1215 18.079 38.2208 17.4535C38.2257 17.4251 38.2239 17.3986 38.2269 17.3708L38.4684 15.7744Z" fill="white"/>
</svg>
