<svg width="52" height="26" viewBox="0 0 52 26" fill="none" xmlns="http://www.w3.org/2000/svg">
<g clip-path="url(#clip0_64_3918)">
<path d="M24.2559 20.4567C23.8031 21.0122 23.2428 21.4657 22.6103 21.7886C22.0029 22.0902 21.3358 22.2446 20.6607 22.2396C19.486 22.2396 18.5225 21.7871 17.77 20.882C17.0176 19.9769 16.6411 18.802 16.6406 17.3572C16.6406 15.547 17.1503 14.0439 18.1697 12.8479C19.1891 11.6519 20.4618 11.0541 21.9878 11.0546C22.6488 11.0434 23.3025 11.1982 23.8914 11.5057C24.4522 11.8069 24.9585 12.2717 25.4104 12.9002L25.6434 11.3865H29.066L27.8123 19.4883C27.7103 20.148 27.3816 20.7488 26.8854 21.1826C26.3893 21.6164 25.7582 21.8548 25.1056 21.8548H24.0848L24.2559 20.4567ZM20.2746 16.993C20.2746 17.6631 20.4738 18.2027 20.8721 18.6119C21.2703 19.021 21.7975 19.2248 22.4536 19.2234C23.1692 19.2234 23.7649 18.9384 24.2408 18.3683C24.7167 17.7983 24.9547 17.0847 24.9547 16.2277C24.9547 15.5782 24.7555 15.0513 24.3573 14.6471C23.959 14.2429 23.4392 14.0405 22.798 14.04C22.4551 14.0328 22.1151 14.1043 21.8028 14.2494C21.4905 14.3944 21.214 14.6093 20.9935 14.8781C20.5143 15.4384 20.2746 16.1433 20.2746 16.993Z" fill="#F04935"/>
<path d="M37.2383 21.8549L38.858 11.3852H42.3216L42.0671 13.1718C42.3844 12.5091 42.8097 12.0045 43.3432 11.6582C43.8766 11.3118 44.4977 11.1401 45.2065 11.1431C45.2911 11.1437 45.3756 11.1488 45.4596 11.1585C45.5545 11.1688 45.7026 11.1916 45.9053 11.2262L45.1864 14.5118C44.9501 14.4569 44.7373 14.4154 44.548 14.3875C44.3671 14.3607 44.1845 14.3469 44.0017 14.3463C43.3058 14.3463 42.757 14.5692 42.3554 15.0151C41.9538 15.4611 41.6787 16.1503 41.5301 17.0829L41.1275 19.7217C41.0366 20.3182 40.7402 20.8618 40.292 21.2543C39.8437 21.6467 39.2731 21.8621 38.6833 21.8616L37.2383 21.8549Z" fill="#F04935"/>
<path d="M46.0586 21.8548L47.6689 11.385H51.3044L50.0564 19.4493C49.9525 20.1199 49.6183 20.7306 49.1138 21.1716C48.6094 21.6125 47.9678 21.8548 47.3044 21.8548H46.0586Z" fill="#F04935"/>
<path d="M47.9416 8.26505C47.9424 7.74291 48.1454 7.24239 48.5062 6.87325C48.867 6.50411 49.356 6.29648 49.8661 6.2959C50.4259 6.2959 50.8917 6.48232 51.2637 6.85515C51.4466 7.03802 51.5906 7.25771 51.6865 7.50037C51.7824 7.74303 51.8281 8.0034 51.8208 8.26505C51.8232 8.52848 51.7743 8.78976 51.6769 9.03362C51.5795 9.27747 51.4356 9.49901 51.2536 9.6853C51.0716 9.87158 50.8552 10.0189 50.617 10.1185C50.3787 10.2182 50.1235 10.2683 49.8661 10.2658C49.6116 10.2697 49.3591 10.2193 49.1246 10.118C48.89 10.0166 48.6787 9.86652 48.5038 9.67716C48.3221 9.49261 48.1787 9.27242 48.0821 9.02978C47.9855 8.78714 47.9377 8.52703 47.9416 8.26505Z" fill="#F04935"/>
<path d="M35.8796 10.7502H32.2902L32.1946 11.3852H30.4936L30.0781 14.06H31.7798L30.5742 21.855H31.9854C32.5938 21.855 33.1823 21.6326 33.6448 21.2279C34.1073 20.8231 34.4134 20.2627 34.508 19.6474L35.3642 14.0608H37.1974L37.6129 11.3859H35.7797L35.8796 10.7502Z" fill="#F04935"/>
<path d="M36.2545 8.34851H32.6492L32.2891 10.7503H35.8778L36.2545 8.34851Z" fill="#F04935"/>
<path d="M7.89869 2.41889C7.89473 2.11042 7.95215 1.80435 8.06747 1.51933C8.18278 1.23431 8.35356 0.976293 8.56942 0.761002C8.77935 0.537228 9.03211 0.360174 9.31191 0.240906C9.5917 0.121637 9.89252 0.0627166 10.1956 0.0678262C10.8641 0.0678262 11.4201 0.290545 11.8634 0.735983C12.3067 1.18142 12.5284 1.74239 12.5284 2.41889C12.5342 2.73335 12.4772 3.04572 12.3607 3.33677C12.2443 3.62783 12.0709 3.89143 11.8512 4.11135C11.6363 4.3362 11.3788 4.51368 11.0945 4.63289C10.8101 4.7521 10.5049 4.81051 10.1977 4.80453C9.89419 4.80942 9.59295 4.74982 9.31306 4.62949C9.03316 4.50917 8.78069 4.33074 8.57158 4.10547C8.35425 3.88521 8.18262 3.62228 8.06699 3.33246C7.95137 3.04264 7.89412 2.7319 7.89869 2.41889Z" fill="#F04935"/>
<path d="M2.05939 15.1144C1.7783 15.1548 1.5461 15.188 1.33546 15.305C1.13126 15.4009 0.956078 15.5514 0.828313 15.7405C0.700548 15.9297 0.62492 16.1506 0.609375 16.38L1.44977 22.9395L1.65178 24.5959C1.65938 24.7025 1.67892 24.808 1.71001 24.9101C1.73546 24.9922 1.77252 25.07 1.82 25.1411C1.91518 25.2845 2.04663 25.3987 2.20029 25.4715C2.36321 25.5476 2.54072 25.5853 2.71975 25.5818C2.89878 25.5784 3.07477 25.5339 3.23479 25.4517C3.38122 25.3804 3.50565 25.2692 3.59442 25.1303C3.68318 24.9914 3.73287 24.8302 3.73802 24.6643L3.05363 18.1211L2.98174 17.4169L3.67403 17.3433L7.66535 16.9084L8.6639 16.8061C8.94329 16.7821 9.21903 16.725 9.4856 16.6361C9.96511 16.4625 10.2225 16.1792 10.4036 15.6442C10.5683 15.146 10.6459 14.3984 10.7811 13.7427L11.1333 11.7191L11.8386 7.67192L12.0154 6.67631C12.0656 6.40914 12.0678 6.13484 12.0219 5.86687C12.0083 5.76879 11.974 5.67493 11.9212 5.59191C11.8684 5.50889 11.7985 5.43873 11.7163 5.38635C11.5467 5.27818 11.28 5.2252 10.9974 5.21858C9.81342 5.20018 8.56901 5.70572 7.78613 6.67631C7.38437 7.16159 7.094 7.73288 6.93639 8.34817C6.86363 8.67945 6.8101 9.01486 6.77608 9.35262L6.63949 10.3916L6.09456 14.4286C5.027 14.6802 3.94578 14.8149 2.87103 14.99L2.05939 15.1144Z" fill="#F04935"/>
<path d="M17.1019 5.8196H13.6677L13.2881 8.27294L13.2601 8.45249L13.0056 10.0471C12.69 12.0339 12.3636 14.0855 12.0214 16.1047C11.8058 17.3814 10.8712 18.2673 9.57717 18.4182C8.905 18.4969 8.06102 18.5926 5.0625 18.6794L5.86838 22.1953C8.2695 22.1836 9.51391 21.9532 9.81153 21.9076C12.8683 21.4381 14.8302 19.7052 15.3355 17.0282C15.7669 14.7551 16.1155 12.4357 16.4606 10.1523C16.5756 9.39046 16.6919 8.62836 16.8093 7.86601C16.815 7.83143 16.8129 7.79905 16.8165 7.7652L17.1019 5.8196Z" fill="#F04935"/>
</g>
<defs>
<clipPath id="clip0_64_3918">
<rect width="52" height="26" fill="white"/>
</clipPath>
</defs>
</svg>
