<svg width="21" height="15" viewBox="0 0 21 15" fill="none" xmlns="http://www.w3.org/2000/svg">
<rect x="0.0683594" width="20.4207" height="14.3158" fill="#006FCF"/>
<path fill-rule="evenodd" clip-rule="evenodd" d="M3.98828 10.3409V7.3938H7.41066L7.77785 7.83024L8.15717 7.3938H20.5796V10.1376C20.5796 10.1376 20.2547 10.3379 19.879 10.3409H13.0004L12.5865 9.87633V10.3409H11.2299V9.54786C11.2299 9.54786 11.0445 9.65856 10.6439 9.65856H10.1822V10.3409H8.12814L7.76148 9.8951L7.38919 10.3409H3.98828ZM0 5.17273L0.77001 3.53223H2.10166L2.53865 4.45117V3.53223H4.19402L4.45416 4.19641L4.70636 3.53223H12.1372V3.86613C12.1372 3.86613 12.5279 3.53223 13.1699 3.53223L15.5809 3.53993L16.0103 4.44684V3.53223H17.3956L17.7769 4.05318V3.53223H19.1749V6.47932H17.7769L17.4115 5.95668V6.47932H15.3762L15.1715 6.01475H14.6244L14.423 6.47932H13.0428C12.4904 6.47932 12.1372 6.15223 12.1372 6.15223V6.47932H10.0561L9.64307 6.01475V6.47932H1.90439L1.69985 6.01475H1.15443L0.951341 6.47932H0V5.17273ZM0.00390625 6.1022L1.04248 3.89551H1.82985L2.86744 6.1022H2.17638L1.98574 5.66032H0.871703L0.680073 6.1022H0.00390625ZM1.76608 5.18134L1.4265 4.40918L1.08594 5.18134H1.76608ZM2.93935 6.10197V3.89528L3.90022 3.89854L4.45909 5.32127L5.00459 3.89528H5.95777V6.10197H5.35409V4.47599L4.71417 6.10197H4.18474L3.54303 4.47599V6.10197H2.93935ZM6.36914 6.10196V3.89526H8.33906V4.38887H6.97918V4.76633H8.30729V5.23089H6.97918V5.62287H8.33906V6.10196H6.36914ZM8.68966 6.10215V3.89546H10.0331C10.4782 3.89546 10.877 4.147 10.877 4.61136C10.877 5.00833 10.5408 5.26402 10.2148 5.28916L11.0091 6.10215H10.2714L9.54753 5.31819H9.29334V6.10215H8.68966ZM9.98519 4.38911H9.29513V4.85367H9.99413C10.1151 4.85367 10.2711 4.76799 10.2711 4.62139C10.2711 4.50744 10.1507 4.38911 9.98519 4.38911ZM11.7394 6.10197H11.123V3.89528H11.7394V6.10197ZM13.2009 6.10196H13.0678C12.4241 6.10196 12.0332 5.63848 12.0332 5.00768C12.0332 4.3613 12.4197 3.89526 13.2326 3.89526H13.8999V4.4179H13.2082C12.8782 4.4179 12.6448 4.65325 12.6448 5.01313C12.6448 5.44048 12.9117 5.61997 13.2962 5.61997H13.455L13.2009 6.10196ZM13.4766 6.1022L14.5151 3.89551H15.3025L16.3401 6.1022H15.649L15.4584 5.66032H14.3444L14.1527 6.1022H13.4766ZM15.2385 5.18119L14.899 4.40903L14.5584 5.18119H15.2385ZM16.4102 6.10196V3.89526H17.1777L18.1577 5.28171V3.89526H18.7613V6.10196H18.0187L17.0138 4.67922V6.10196H16.4102ZM4.40029 9.96336V7.75667H6.37021V8.25027H5.01033V8.62773H6.33843V9.0923H5.01033V9.48428H6.37021V9.96336H4.40029ZM14.0527 9.96328V7.75659H16.0227V8.25019H14.6628V8.62765H15.9845V9.09222H14.6628V9.4842H16.0227V9.96328H14.0527ZM6.44677 9.96336L7.40591 8.87362L6.42393 7.75667H7.18449L7.76931 8.44717L8.35612 7.75667H9.08689L8.11782 8.86001L9.07873 9.96336H8.31829L7.75045 9.28375L7.19641 9.96336H6.44677ZM9.15039 9.96377V7.75708H10.4839C11.031 7.75708 11.3507 8.07934 11.3507 8.4993C11.3507 9.00624 10.9431 9.26692 10.4054 9.26692H9.76996V9.96377H9.15039ZM10.4407 8.2561H9.77148V8.76422H10.4387C10.615 8.76422 10.7386 8.65744 10.7386 8.51016C10.7386 8.35339 10.6144 8.2561 10.4407 8.2561ZM11.6131 9.9636V7.75691H12.9565C13.4016 7.75691 13.8004 8.00845 13.8004 8.47282C13.8004 8.86978 13.4642 9.12547 13.1382 9.15061L13.9325 9.9636H13.1948L12.4709 9.17965H12.2168V9.9636H11.6131ZM12.9086 8.25057H12.2185V8.71513H12.9175C13.0385 8.71513 13.1946 8.62945 13.1946 8.48285C13.1946 8.3689 13.0742 8.25057 12.9086 8.25057ZM16.3032 9.96328V9.4842H17.5114C17.6901 9.4842 17.7675 9.39592 17.7675 9.2991C17.7675 9.20633 17.6904 9.11255 17.5114 9.11255H16.9654C16.4909 9.11255 16.2266 8.84832 16.2266 8.45163C16.2266 8.0978 16.4686 7.75659 17.1738 7.75659H18.3494L18.0952 8.2531H17.0785C16.8841 8.2531 16.8243 8.3463 16.8243 8.4353C16.8243 8.52677 16.8982 8.62765 17.0467 8.62765H17.6186C18.1476 8.62765 18.3772 8.90188 18.3772 9.26099C18.3772 9.64707 18.1214 9.96328 17.5898 9.96328H16.3032ZM18.4302 9.96328V9.4842H19.6383C19.8171 9.4842 19.8945 9.39592 19.8945 9.2991C19.8945 9.20633 19.8173 9.11255 19.6383 9.11255H19.0924C18.6178 9.11255 18.3535 8.84832 18.3535 8.45163C18.3535 8.0978 18.5955 7.75659 19.3007 7.75659H20.4763L20.2222 8.2531H19.2054C19.0111 8.2531 18.9512 8.3463 18.9512 8.4353C18.9512 8.52677 19.0252 8.62765 19.1737 8.62765H19.7456C20.2746 8.62765 20.5041 8.90188 20.5041 9.26099C20.5041 9.64707 20.2483 9.96328 19.7168 9.96328H18.4302Z" fill="white"/>
</svg>
