<svg width="28" height="13" viewBox="0 0 28 13" fill="none" xmlns="http://www.w3.org/2000/svg">
<path d="M25.2801 7.10828L19.3496 6.19043L20.1358 9.68071L25.2801 7.10828Z" fill="#D12053"/>
<path d="M25.279 7.10885L20.8101 0.976562L19.3496 6.1921L25.279 7.10885Z" fill="#E2136E"/>
<path d="M19.2098 6.12122L14.5273 0.210938L20.6591 0.934398L19.2098 6.12122Z" fill="#D12053"/>
<path d="M17.0767 3.65145L14.4766 1.23145H15.161L17.0767 3.65145Z" fill="#9E1638"/>
<path d="M26.5443 4.12793L25.4439 7.07589L23.6602 4.63932L26.5443 4.12793Z" fill="#D12053"/>
<path d="M20.8281 9.5047L25.146 7.7916L25.3272 7.24707L20.8281 9.5047Z" fill="#E2136E"/>
<path d="M17.375 12.7375L19.2247 6.3291L20.163 10.4987L17.375 12.7375Z" fill="#9E1638"/>
<path d="M26.7158 4.15039L26.2617 5.36757L27.8989 5.34107L26.7158 4.15039Z" fill="#E2136E"/>
<path d="M0.267578 4.63916C0.346979 4.64579 0.427499 4.66015 0.512492 4.66015C0.597484 4.66015 0.666821 4.64579 0.757405 4.63916V7.23147C1.01574 6.79739 1.34117 6.51132 1.81982 6.51132C2.6854 6.51132 3.05668 7.35738 3.05668 8.13497C3.05668 9.06608 2.55344 9.95743 1.67108 9.95743C1.49442 9.96125 1.32006 9.91727 1.1669 9.83025C1.01373 9.74322 0.887591 9.61646 0.802138 9.4637C0.654519 9.59183 0.523675 9.74536 0.383884 9.88453H0.272051L0.267578 4.63916ZM0.746222 8.45196C0.746222 9.20746 1.07054 9.73431 1.60398 9.73431C2.29622 9.73431 2.51877 8.81535 2.51877 8.16368C2.51877 7.40709 2.26603 6.81175 1.6666 6.80512C0.966532 6.7996 0.746222 7.61805 0.746222 8.45307" fill="#E2136E"/>
<path d="M5.31465 6.31559L4.79351 6.9783C5.28334 7.68519 5.79106 8.37773 6.28312 9.09345L6.77966 9.86662V9.90528C6.65776 9.89754 6.54705 9.88208 6.44416 9.88208C6.34128 9.88208 6.21155 9.89754 6.10195 9.90528C5.96664 9.65786 5.83244 9.42923 5.67923 9.20501L4.33723 7.24449C4.30704 7.21356 4.23435 7.18926 4.23435 7.22129V9.90528C4.13593 9.89754 4.04982 9.88208 3.96483 9.88208C3.87984 9.88208 3.78142 9.89754 3.69531 9.90528V4.63893C3.78142 4.64555 3.87425 4.66212 3.96483 4.66212C4.05541 4.66212 4.13593 4.64555 4.23435 4.63893V7.01585C4.23435 7.06224 4.32605 7.03132 4.38644 6.96946C4.50292 6.85019 4.61197 6.72404 4.71299 6.59172L6.22162 4.63672C6.30102 4.64335 6.38042 4.65991 6.46653 4.65991C6.55264 4.65991 6.61862 4.64335 6.70585 4.63672L5.31465 6.31559Z" fill="#231F20"/>
<path d="M9.37312 9.31229C9.37312 9.58621 9.35523 9.72538 9.71645 9.63481V9.78834C9.65743 9.81754 9.59562 9.84085 9.53192 9.85792C9.2132 9.92088 8.94927 9.86455 8.90007 9.45257L8.84527 9.51331C8.73872 9.6512 8.60129 9.76285 8.44374 9.8395C8.28619 9.91615 8.11281 9.95573 7.93719 9.95512C7.50328 9.95512 7.12305 9.61714 7.12305 9.09912C7.12305 8.30055 7.68221 8.19562 8.25591 8.09069C8.74127 8.00012 8.90678 7.95815 8.90678 7.62127C8.90678 7.10215 8.64956 6.80172 8.18993 6.80172C8.03296 6.79868 7.87883 6.84335 7.74842 6.92968C7.618 7.01602 7.51759 7.13984 7.46078 7.28439H7.39368V6.8956C7.66964 6.65847 8.02003 6.5227 8.38564 6.51123C9.02867 6.51123 9.37871 6.8956 9.37871 7.68754L9.37312 9.31229ZM8.88329 8.15586L8.66746 8.20446C8.25032 8.29503 7.62518 8.36461 7.62518 9.00413C7.62518 9.44594 7.84884 9.66684 8.2246 9.66684C8.41897 9.6432 8.59672 9.54672 8.72113 9.39734C8.76587 9.34653 8.88888 9.22724 8.88888 9.17644L8.88329 8.15586Z" fill="#231F20"/>
<path d="M10.4649 9.21921C10.6103 9.49423 10.8809 9.74054 11.1695 9.74054C11.3341 9.73225 11.489 9.66096 11.6013 9.54178C11.7136 9.4226 11.7745 9.26491 11.7711 9.10213C11.7711 8.15666 10.3229 8.77077 10.3229 7.54697C10.3229 6.87542 10.7702 6.51203 11.3216 6.51203C11.5654 6.50668 11.8057 6.56947 12.0149 6.69318C11.9545 6.85522 11.9059 7.02132 11.8695 7.19021H11.8136C11.7331 6.95936 11.5195 6.72742 11.2925 6.72742C10.9861 6.72742 10.7333 6.93175 10.7333 7.3106C10.7333 8.20636 12.1816 7.72921 12.1816 8.8503C12.1816 9.60027 11.5933 9.95482 11.052 9.95482C10.781 9.95461 10.5156 9.87797 10.2871 9.73391C10.342 9.56587 10.385 9.39425 10.4157 9.22031L10.4649 9.21921Z" fill="#231F20"/>
<path d="M13.0098 4.63867C13.0914 4.6453 13.1708 4.65966 13.2558 4.65966C13.3408 4.65966 13.4101 4.6453 13.5018 4.63867V7.18901C13.7165 6.76156 14.0532 6.51083 14.4893 6.51083C15.2006 6.51083 15.4768 6.9924 15.4768 7.87602V9.90502C15.384 9.89729 15.3124 9.88403 15.2308 9.88403C15.1491 9.88403 15.0652 9.89839 14.9847 9.90502V8.03617C14.9847 7.26301 14.827 6.87311 14.3048 6.87311C13.7523 6.87311 13.5018 7.26632 13.5018 7.9942V9.90502C13.4101 9.89729 13.3374 9.88403 13.2558 9.88403C13.1742 9.88403 13.0925 9.89839 13.0098 9.90502V4.63867Z" fill="#231F20"/>
</svg>
