<svg width="20" height="20" viewBox="0 0 20 20" fill="none" xmlns="http://www.w3.org/2000/svg">
<g clip-path="url(#clip0_10511_5768)">
<path d="M14.1667 3.33268H17.5001C17.7211 3.33268 17.9331 3.42048 18.0893 3.57676C18.2456 3.73304 18.3334 3.945 18.3334 4.16602V17.4993C18.3334 17.7204 18.2456 17.9323 18.0893 18.0886C17.9331 18.2449 17.7211 18.3327 17.5001 18.3327H2.50008C2.27907 18.3327 2.06711 18.2449 1.91083 18.0886C1.75455 17.9323 1.66675 17.7204 1.66675 17.4993V4.16602C1.66675 3.945 1.75455 3.73304 1.91083 3.57676C2.06711 3.42048 2.27907 3.33268 2.50008 3.33268H5.83342V1.66602H7.50008V3.33268H12.5001V1.66602H14.1667V3.33268ZM3.33341 8.33268V16.666H16.6667V8.33268H3.33341ZM5.00008 9.99935H6.66675V11.666H5.00008V9.99935ZM9.16675 9.99935H10.8334V11.666H9.16675V9.99935ZM13.3334 9.99935H15.0001V11.666H13.3334V9.99935Z" fill="#4D4D4F"/>
</g>
<defs>
<clipPath id="clip0_10511_5768">
<rect width="20" height="20" fill="white"/>
</clipPath>
</defs>
</svg>
