<svg width="100" height="100" viewBox="0 0 100 100" fill="none" xmlns="http://www.w3.org/2000/svg">
<g clip-path="url(#clip0_4885_57494)">
<path d="M49.9987 91.6666C26.9862 91.6666 8.33203 73.0125 8.33203 50C8.33203 26.9875 26.9862 8.33331 49.9987 8.33331C73.0112 8.33331 91.6654 26.9875 91.6654 50C91.6654 73.0125 73.0112 91.6666 49.9987 91.6666ZM49.9987 83.3333C58.8392 83.3333 67.3177 79.8214 73.5689 73.5702C79.8201 67.319 83.332 58.8405 83.332 50C83.332 41.1594 79.8201 32.681 73.5689 26.4298C67.3177 20.1785 58.8392 16.6666 49.9987 16.6666C41.1581 16.6666 32.6797 20.1785 26.4285 26.4298C20.1773 32.681 16.6654 41.1594 16.6654 50C16.6654 58.8405 20.1773 67.319 26.4285 73.5702C32.6797 79.8214 41.1581 83.3333 49.9987 83.3333V83.3333ZM45.8445 66.6666L28.1654 48.9875L34.057 43.0958L45.8445 54.8833L69.4112 31.3125L75.307 37.2041L45.8445 66.6666Z" fill="#48A43F"/>
</g>
<defs>
<clipPath id="clip0_4885_57494">
<rect width="100" height="100" fill="white"/>
</clipPath>
</defs>
</svg>
