<svg width="32" height="32" viewBox="0 0 32 32" fill="none" xmlns="http://www.w3.org/2000/svg">
<rect width="32" height="32" rx="16" fill="#1E88E5"/>
<g clip-path="url(#clip0_10511_5777)">
<path d="M12.6667 12.0007V10.0007C12.6667 9.82384 12.7369 9.65427 12.8619 9.52925C12.987 9.40422 13.1565 9.33398 13.3333 9.33398H21.3333C21.5101 9.33398 21.6797 9.40422 21.8047 9.52925C21.9298 9.65427 22 9.82384 22 10.0007V19.334C22 19.5108 21.9298 19.6804 21.8047 19.8054C21.6797 19.9304 21.5101 20.0007 21.3333 20.0007H19.3333V22.0007C19.3333 22.3687 19.0333 22.6673 18.662 22.6673H10.6713C10.5834 22.6678 10.4963 22.651 10.4149 22.6177C10.3335 22.5845 10.2595 22.5355 10.1971 22.4735C10.1347 22.4116 10.0852 22.3379 10.0514 22.2568C10.0175 22.1756 10.0001 22.0886 10 22.0007L10.002 12.6673C10.002 12.2993 10.302 12.0007 10.6733 12.0007H12.6667ZM11.3353 13.334L11.3333 21.334H18V13.334H11.3353ZM14 12.0007H19.3333V18.6673H20.6667V10.6673H14V12.0007Z" fill="white"/>
</g>
<defs>
<clipPath id="clip0_10511_5777">
<rect width="16" height="16" fill="white" transform="translate(8 8)"/>
</clipPath>
</defs>
</svg>
