<svg width="24" height="24" viewBox="0 0 24 24" fill="none" xmlns="http://www.w3.org/2000/svg">
<rect width="24" height="24" rx="12" fill="#1E88E5"/>
<g clip-path="url(#clip0_10511_6241)">
<path d="M8.66667 8.00016V6.00016C8.66667 5.82335 8.7369 5.65378 8.86193 5.52876C8.98695 5.40373 9.15652 5.3335 9.33333 5.3335H17.3333C17.5101 5.3335 17.6797 5.40373 17.8047 5.52876C17.9298 5.65378 18 5.82335 18 6.00016V15.3335C18 15.5103 17.9298 15.6799 17.8047 15.8049C17.6797 15.9299 17.5101 16.0002 17.3333 16.0002H15.3333V18.0002C15.3333 18.3682 15.0333 18.6668 14.662 18.6668H6.67133C6.58342 18.6674 6.49626 18.6505 6.41488 18.6172C6.3335 18.584 6.25949 18.535 6.19711 18.473C6.13472 18.4111 6.0852 18.3374 6.05137 18.2563C6.01754 18.1751 6.00009 18.0881 6 18.0002L6.002 8.66683C6.002 8.29883 6.302 8.00016 6.67333 8.00016H8.66667ZM7.33533 9.3335L7.33333 17.3335H14V9.3335H7.33533ZM10 8.00016H15.3333V14.6668H16.6667V6.66683H10V8.00016Z" fill="white"/>
</g>
<defs>
<clipPath id="clip0_10511_6241">
<rect width="16" height="16" fill="white" transform="translate(4 4)"/>
</clipPath>
</defs>
</svg>
