<svg width="190" height="141" viewBox="0 0 190 141" fill="none" xmlns="http://www.w3.org/2000/svg">
<path d="M55.1855 22.8653C55.1855 22.8653 76.6311 39.1396 109.234 8.70957C138.188 -18.3145 161.83 24.3235 161.996 44.7421C162.21 71.1921 133.041 92.3562 147.197 109.729C161.352 127.102 119.124 155.79 96.3653 130.962C68.0541 100.077 60.3843 125.171 44.2471 125.171C32.6652 125.171 8.88651 96.3934 24.944 74.9835C38.4562 56.9673 31.0869 50.9881 27.5182 44.7421C22.3703 35.734 34.5956 11.2835 55.1855 22.8653Z" fill="#F04935" fill-opacity="0.08"/>
<path d="M141.281 58.8287C142.434 59.257 143.694 59.2855 144.892 59.0104C149.914 57.8578 167.18 54.806 164.179 68.1858C163.526 70.8404 153.414 85.7069 167.815 91.1338C168.87 91.5365 169.986 91.7563 171.115 91.7838C175.549 91.8751 184.336 90.8283 188.014 87.0848C192.456 82.5627 187.603 84.7072 187.603 84.7072C187.603 84.7072 170.714 92.0772 164.748 84.2581C164.085 83.3881 163.662 82.1245 163.541 81.0367C163.331 79.1507 164.168 76.6584 165.268 74.4888C166.757 71.5524 173.906 58.3433 158.386 54.4953C154.811 53.6439 149.618 52.8791 142.922 55.6981C139.017 57.3423 139.882 58.3088 141.281 58.8287Z" fill="#F5887C"/>
<path d="M144.738 53.8974L140.243 55.5798C138.692 56.1606 137.904 57.8893 138.485 59.441L138.708 60.0364C139.289 61.5881 141.017 62.3752 142.569 61.7945L147.064 60.1121C148.616 59.5313 149.403 57.8026 148.822 56.2509L148.6 55.6555C148.019 54.1038 146.29 53.3167 144.738 53.8974Z" fill="#C1200F"/>
<path d="M117.144 59.7657L102.319 65.3141C101.543 65.6044 101.149 66.4688 101.44 67.2447L101.498 67.4007C101.789 68.1766 102.653 68.5701 103.429 68.2798L118.254 62.7314C119.03 62.441 119.423 61.5766 119.133 60.8008L119.074 60.6447C118.784 59.8689 117.92 59.4753 117.144 59.7657Z" fill="#F4CDCA"/>
<path d="M121.281 70.8203L106.456 76.3688C105.68 76.6591 105.286 77.5235 105.577 78.2994L105.635 78.4554C105.925 79.2313 106.79 79.6248 107.566 79.3345L122.391 73.786C123.166 73.4956 123.56 72.6313 123.27 71.8554L123.211 71.6994C122.921 70.9235 122.056 70.5299 121.281 70.8203Z" fill="#F4CDCA"/>
<path d="M134.97 51.2211L122.954 55.718C121.402 56.2987 120.615 58.0275 121.196 59.5792L125.298 70.54C125.879 72.0917 127.608 72.8789 129.16 72.2981L141.175 67.8012C142.727 67.2205 143.514 65.4918 142.933 63.94L138.831 52.9792C138.25 51.4275 136.521 50.6404 134.97 51.2211Z" fill="#F04935"/>
<path d="M124.196 54.0966L112.181 58.5935C110.629 59.1742 109.842 60.903 110.423 62.4547L115.317 75.5314C115.898 77.0831 117.626 77.8702 119.178 77.2895L131.193 72.7926C132.745 72.2119 133.532 70.4831 132.951 68.9314L128.057 55.8547C127.476 54.303 125.748 53.5158 124.196 54.0966Z" fill="#F26050"/>
<path d="M126.077 51.4429L125.982 51.4782C124.948 51.8653 124.423 53.0178 124.81 54.0523L131.667 72.3713C132.054 73.4058 133.206 73.9306 134.241 73.5434L134.335 73.5081C135.369 73.121 135.894 71.9685 135.507 70.934L128.651 52.615C128.264 51.5805 127.111 51.0557 126.077 51.4429Z" fill="#C1200F"/>
<path d="M3.55993 63.1551C3.55993 63.1551 27.6907 56.3737 24.1873 71.9974C23.5789 74.4695 14.821 87.1984 25.253 93.3099C27.493 94.6222 30.078 95.2035 32.6739 95.1899C37.3282 95.1657 44.7067 94.2699 48.0214 90.896C52.4638 86.3738 47.6106 88.5183 47.6106 88.5183C47.6106 88.5183 33.7519 94.219 26.6221 89.6748C24.1876 88.1232 23.0841 85.119 23.7452 82.3087C24.0831 80.9128 24.5977 79.5656 25.2764 78.2999C26.827 75.3957 33.9136 62.1544 18.3936 58.3064C14.8184 57.455 9.62573 56.6902 2.93023 59.5092C-3.76527 62.3282 3.55993 63.1551 3.55993 63.1551Z" fill="#F5887C"/>
<path d="M51.2658 85.0224L46.7706 86.7048C45.2189 87.2855 44.4317 89.0143 45.0125 90.566L45.2353 91.1614C45.8161 92.7131 47.5448 93.5003 49.0965 92.9195L53.5917 91.2371C55.1435 90.6564 55.9306 88.9276 55.3498 87.3759L55.127 86.7805C54.5462 85.2288 52.8175 84.4416 51.2658 85.0224Z" fill="#C1200F"/>
<path d="M58.8624 77.6265L52.2003 80.1198C50.6486 80.7006 49.8614 82.4293 50.4422 83.9811L53.6546 92.5644C54.2354 94.1162 55.9641 94.9033 57.5158 94.3225L64.1779 91.8292C65.7296 91.2484 66.5168 89.5197 65.936 87.9679L62.7236 79.3846C62.1428 77.8328 60.4141 77.0457 58.8624 77.6265Z" fill="#F04935"/>
<path d="M69.5338 71.1412L59.5987 74.8596C58.047 75.4403 57.2599 77.1691 57.8406 78.7208L62.7347 91.7975C63.3155 93.3492 65.0442 94.1364 66.5959 93.5556L76.531 89.8373C78.0827 89.2565 78.8699 87.5278 78.2891 85.976L73.395 72.8994C72.8142 71.3476 71.0855 70.5605 69.5338 71.1412Z" fill="#F26050"/>
<path d="M72.0572 68.3101L71.963 68.3454C70.9285 68.7325 70.4037 69.885 70.7909 70.9195L77.647 89.2385C78.0342 90.273 79.1867 90.7977 80.2212 90.4106L80.3154 90.3753C81.3499 89.9881 81.8746 88.8356 81.4875 87.8012L74.6313 69.4822C74.2442 68.4477 73.0917 67.9229 72.0572 68.3101Z" fill="#C1200F"/>
<path d="M97.4242 56.6393C97.0664 56.5996 96.738 56.4226 96.508 56.1457C96.2781 55.8687 96.1646 55.5133 96.1914 55.1543L96.9327 41.6143C96.9769 40.8055 97.6599 40.191 98.435 40.2625L99.515 40.3625C100.29 40.434 100.845 41.1625 100.737 41.9656L98.915 55.4056C98.8731 55.7636 98.6947 56.0917 98.417 56.3215C98.1393 56.5513 97.7837 56.6651 97.4242 56.6393Z" fill="#F04935"/>
<path d="M91.0234 57.807C90.9122 57.8397 90.7955 57.8502 90.6802 57.8378C90.5649 57.8254 90.4531 57.7904 90.3513 57.7348C90.2495 57.6793 90.1597 57.6042 90.0869 57.5139C90.0141 57.4235 89.9598 57.3198 89.9271 57.2085L87.2799 48.7859C87.203 48.5464 87.2241 48.2861 87.3388 48.0621C87.4535 47.8382 87.6524 47.6689 87.8917 47.5914L88.5771 47.3846C88.6947 47.3503 88.8182 47.3407 88.9397 47.3565C89.0611 47.3723 89.178 47.4131 89.2829 47.4763C89.3879 47.5396 89.4785 47.6239 89.5492 47.7239C89.6199 47.824 89.6691 47.9376 89.6936 48.0576L91.6556 56.6871C91.7103 56.9191 91.6756 57.1631 91.5585 57.3706C91.4413 57.5782 91.2503 57.734 91.0234 57.807Z" fill="#F04935"/>
<path d="M87.4523 62.6638C86.978 63.2515 86.0241 63.2445 85.2898 62.6479L72.2528 52.0557C71.4741 51.423 71.2443 50.3757 71.7475 49.7527L72.4488 48.8839C72.952 48.2606 73.9855 48.3117 74.7224 48.9963L87.0581 60.4574C87.7528 61.1028 87.9266 62.0761 87.4523 62.6638Z" fill="#F04935"/>
<path d="M93.4778 90.0226C93.8136 90.1524 94.0859 90.4073 94.2375 90.7338C94.3891 91.0604 94.4081 91.433 94.2905 91.7732L90.1158 104.674C89.8664 105.445 89.0492 105.864 88.318 105.598L87.2989 105.225C86.5678 104.958 86.2169 104.112 86.5272 103.364L91.7209 90.8346C91.8527 90.499 92.109 90.2272 92.4363 90.0759C92.7637 89.9246 93.1367 89.9055 93.4778 90.0226Z" fill="#F04935"/>
<path d="M99.9634 90.5287C100.079 90.5255 100.195 90.5451 100.303 90.5866C100.412 90.628 100.511 90.6903 100.595 90.7701C100.679 90.8498 100.747 90.9453 100.794 91.0512C100.841 91.1571 100.867 91.2713 100.871 91.3873L101.279 100.207C101.292 100.458 101.205 100.704 101.037 100.891C100.869 101.079 100.634 101.192 100.382 101.205L99.6668 101.23C99.5444 101.233 99.4226 101.211 99.3092 101.165C99.1957 101.119 99.0931 101.049 99.0079 100.961C98.9226 100.873 98.8564 100.769 98.8137 100.654C98.7709 100.539 98.7523 100.417 98.7592 100.294L99.0665 91.4501C99.0729 91.2119 99.1687 90.9848 99.3349 90.8141C99.5011 90.6433 99.7255 90.5414 99.9634 90.5287Z" fill="#F04935"/>
<path d="M104.66 86.7448C105.269 86.2977 106.189 86.5481 106.747 87.3124L116.646 100.882C117.238 101.693 117.192 102.764 116.546 103.238L115.646 103.899C115.001 104.373 114.014 104.06 113.477 103.21L104.477 88.9783C103.971 88.1772 104.051 87.1918 104.66 86.7448Z" fill="#F04935"/>
</svg>
