<?xml version="1.0" encoding="utf-8"?>
<!-- Generator: Adobe Illustrator 23.0.5, SVG Export Plug-In . SVG Version: 6.00 Build 0)  -->
<svg version="1.1" id="Layer_1" xmlns="http://www.w3.org/2000/svg" xmlns:xlink="http://www.w3.org/1999/xlink" x="0px" y="0px"
	 viewBox="0 0 889.71 440.47" style="enable-background:new 0 0 889.71 440.47;" xml:space="preserve">
<style type="text/css">
	.st0{fill:#EF4935;}
</style>
<g>
	<path class="st0" d="M426.6,341.42c-8.01,9.33-16.93,16.38-26.75,21.15c-9.82,4.77-20.39,7.16-31.69,7.16
		c-19.1,0-34.76-7.19-47-21.57c-12.24-14.38-18.36-33.03-18.36-55.97c0-28.75,8.29-52.62,24.86-71.61
		c16.57-18.99,37.26-28.48,62.06-28.48c11.52,0,21.84,2.39,30.95,7.16c9.11,4.77,17.34,12.15,24.69,22.14l3.79-24.03h55.64
		L484.4,326.06c-3.43,21.64-22.09,37.58-44,37.58H423.8L426.6,341.42z M361.9,286.43c0,10.65,3.24,19.21,9.71,25.68
		c6.48,6.48,15.04,9.71,25.68,9.71c11.63,0,21.32-4.53,29.06-13.58c7.74-9.05,11.61-20.39,11.61-33.99c0-10.32-3.24-18.68-9.71-25.1
		s-14.93-9.63-25.35-9.63c-11.85,0-21.65,4.44-29.39,13.33C365.77,261.74,361.9,272.93,361.9,286.43z"/>
	<path class="st0" d="M621.81,363.64l26.34-166.27h56.3l-4.12,28.32c5.16-10.54,12.07-18.55,20.74-24.03
		c8.67-5.49,18.77-8.23,30.29-8.23c1.21,0,2.58,0.08,4.12,0.25c1.54,0.16,3.95,0.52,7.24,1.07l-11.69,52.19
		c-3.84-0.88-7.3-1.54-10.37-1.98s-6.04-0.66-8.89-0.66c-11.3,0-20.22,3.54-26.75,10.62c-6.53,7.08-11,18.03-13.42,32.84
		l-6.55,41.91c-3.06,19.56-19.9,33.98-39.7,33.98H621.81z"/>
	<g>
		<path class="st0" d="M749.36,363.64l26.17-166.27h59.1l-20.29,128.06c-3.49,22-22.46,38.21-44.74,38.21H749.36z"/>
		<path class="st0" d="M779.98,147.82c0-8.56,3.05-15.91,9.14-22.06c6.09-6.15,13.47-9.22,22.14-9.22c9.11,0,16.68,2.96,22.72,8.89
			c6.04,5.93,9.05,13.39,9.05,22.39c0,8.89-3.07,16.41-9.22,22.55c-6.15,6.15-13.66,9.22-22.55,9.22c-8.67,0-16.05-3.1-22.14-9.3
			C783.02,164.09,779.98,156.6,779.98,147.82z"/>
	</g>
	<path class="st0" d="M606.02,197.37l7.74-48.23h-58.61l-7.41,48.23h-27.66l-6.75,42.47h27.66l-19.59,123.8h22.94
		c20.44,0,37.84-14.88,41.01-35.08l13.92-88.72h29.8l6.75-42.47H606.02z"/>
	<path class="st0" d="M165.11,54.97c0-10.22,3.64-19,10.91-26.34s16.08-11.01,26.43-11.01c10.87,0,19.92,3.54,27.12,10.61
		c7.21,7.08,10.81,15.98,10.81,26.73c0,10.61-3.67,19.59-11.01,26.92c-7.34,7.34-16.31,11.01-26.92,11.01
		c-10.35,0-19.16-3.7-26.43-11.1S165.11,65.46,165.11,54.97z"/>
	<path class="st0" d="M70.25,256.59c-4.57,0.64-8.34,1.23-11.77,3.02c-6.95,3.3-11.47,10.02-11.8,17.07l13.66,104.18l3.33,26.3
		c0.33,2.51,0.46,3.66,0.95,4.99c0.41,1.33,1.03,2.55,1.78,3.67c1.51,2.24,3.64,4.06,6.18,5.25c4.96,2.49,11.72,2.29,16.81-0.31
		c5.02-2.64,8.08-7.22,8.16-12.5L86.41,304.35l-1.2-11.18l11.25-1.2l64.88-6.91l16.23-1.62c5.01-0.53,9.44-1.32,13.36-2.7
		c7.8-2.76,11.99-7.27,14.93-15.75c2.67-7.92,3.94-19.79,6.14-30.21l5.73-32.13l11.46-64.28l2.88-15.81
		c0.76-4.67,0.91-9.25,0.11-12.86c-0.78-3.71-2.31-5.87-5-7.6c-2.75-1.72-7.09-2.56-11.71-2.66c-19.25-0.3-39.47,7.74-52.2,23.15
		c-6.49,7.55-11.16,16.7-13.81,26.55c-1.22,4.77-1.9,10.38-2.61,15.95l-2.21,16.5l-8.87,64.11c-17.35,4-34.92,6.14-52.4,8.91
		L70.25,256.59z"/>
	<path class="st0" d="M314.74,108.97h-55.83c0,0-21.19,131.28-26.76,163.34c-3.51,20.27-18.74,34.35-39.72,36.75
		c-10.93,1.25-24.65,2.77-73.4,4.14l13.1,55.83c39.03-0.19,59.26-3.84,64.1-4.56c49.69-7.46,81.58-34.98,89.79-77.5
		C293,250.88,314.74,108.97,314.74,108.97z"/>
</g>
</svg>
