<svg width="19" height="15" viewBox="0 0 19 15" fill="none" xmlns="http://www.w3.org/2000/svg">
<path fill-rule="evenodd" clip-rule="evenodd" d="M5.77962 12.7633V13.5205V14.2778H5.45124V14.094C5.34709 14.2303 5.18905 14.3159 4.97423 14.3159C4.55074 14.3159 4.21875 13.9833 4.21875 13.5205C4.21875 13.0581 4.55074 12.7252 4.97423 12.7252C5.18905 12.7252 5.34709 12.8108 5.45124 12.9471V12.7633H5.77962ZM5.01464 13.0355C4.73039 13.0355 4.55644 13.2542 4.55644 13.5204C4.55644 13.7866 4.73039 14.0053 5.01464 14.0053C5.28624 14.0053 5.46959 13.796 5.46959 13.5204C5.46959 13.2447 5.28624 13.0355 5.01464 13.0355ZM16.877 13.5205C16.877 13.2542 17.0509 13.0355 17.3352 13.0355C17.6071 13.0355 17.7901 13.2448 17.7901 13.5205C17.7901 13.7961 17.6071 14.0054 17.3352 14.0054C17.0509 14.0054 16.877 13.7867 16.877 13.5205ZM18.0983 12.155V13.5205V14.2778H17.7696V14.094C17.6654 14.2303 17.5074 14.3159 17.2926 14.3159C16.8691 14.3159 16.5371 13.9833 16.5371 13.5205C16.5371 13.0581 16.8691 12.7252 17.2926 12.7252C17.5074 12.7252 17.6654 12.8108 17.7696 12.9471V12.155H18.0983ZM9.85651 13.02C10.0681 13.02 10.2041 13.1532 10.2388 13.3875H9.45508C9.49016 13.1688 9.62252 13.02 9.85651 13.02ZM9.11133 13.5205C9.11133 13.0483 9.4209 12.7252 9.86355 12.7252C10.2867 12.7252 10.5774 13.0483 10.5807 13.5205C10.5807 13.5648 10.5774 13.6061 10.5742 13.6471H9.45272C9.5001 13.9199 9.69286 14.0182 9.90442 14.0182C10.056 14.0182 10.2172 13.9608 10.3438 13.8597L10.5048 14.1037C10.3214 14.259 10.1131 14.3159 9.88561 14.3159C9.43356 14.3159 9.11133 14.0022 9.11133 13.5205ZM13.8262 13.5205C13.8262 13.2542 14.0001 13.0355 14.2844 13.0355C14.556 13.0355 14.7393 13.2448 14.7393 13.5205C14.7393 13.7961 14.556 14.0054 14.2844 14.0054C14.0001 14.0054 13.8262 13.7867 13.8262 13.5205ZM15.0511 12.7633V13.5205V14.2778H14.7227V14.094C14.6182 14.2303 14.4605 14.3159 14.2457 14.3159C13.8222 14.3159 13.4902 13.9833 13.4902 13.5205C13.4902 13.0581 13.8222 12.7252 14.2457 12.7252C14.4605 12.7252 14.6182 12.8108 14.7227 12.9471V12.7633H15.0511ZM11.9727 13.5205C11.9727 13.9801 12.2916 14.3159 12.7784 14.3159C13.0059 14.3159 13.1574 14.2651 13.3216 14.1353L13.1639 13.8691C13.0406 13.9579 12.9111 14.0055 12.7686 14.0055C12.5064 14.0022 12.3137 13.8121 12.3137 13.5205C12.3137 13.2289 12.5064 13.0389 12.7686 13.0356C12.9111 13.0356 13.0406 13.0831 13.1639 13.172L13.3216 12.9058C13.1574 12.7759 13.0059 12.7252 12.7784 12.7252C12.2916 12.7252 11.9727 13.061 11.9727 13.5205ZM15.8079 12.9471C15.8933 12.814 16.0166 12.7252 16.2061 12.7252C16.2726 12.7252 16.3674 12.7379 16.4401 12.7665L16.3388 13.077C16.2694 13.0483 16.1999 13.0389 16.1334 13.0389C15.9186 13.0389 15.8112 13.1782 15.8112 13.4288V14.2778H15.4824V12.7632H15.8079V12.9471ZM7.40433 12.8837C7.24629 12.7792 7.02858 12.7252 6.78844 12.7252C6.40582 12.7252 6.15954 12.9091 6.15954 13.2101C6.15954 13.4571 6.3429 13.6094 6.68067 13.6569L6.83582 13.679C7.01592 13.7044 7.10091 13.7519 7.10091 13.8375C7.10091 13.9547 6.98084 14.0214 6.75662 14.0214C6.52914 14.0214 6.36496 13.9485 6.25429 13.8629L6.09951 14.1193C6.27961 14.2524 6.50708 14.3159 6.75336 14.3159C7.18951 14.3159 7.4423 14.1099 7.4423 13.8216C7.4423 13.5554 7.2434 13.4161 6.91466 13.3686L6.75987 13.3461C6.61775 13.3272 6.50383 13.2989 6.50383 13.1974C6.50383 13.0864 6.61124 13.02 6.79134 13.02C6.9841 13.02 7.1707 13.0929 7.2622 13.1499L7.40433 12.8837ZM11.2435 12.9471C11.3284 12.814 11.4518 12.7252 11.6413 12.7252C11.7078 12.7252 11.8026 12.7379 11.8752 12.7665L11.774 13.077C11.7046 13.0483 11.6351 13.0389 11.5686 13.0389C11.3538 13.0389 11.2463 13.1782 11.2463 13.4288V14.2778H10.918V12.7632H11.2435V12.9471ZM8.83942 12.7633H8.30237V12.3037H7.97038V12.7633H7.66406V13.0643H7.97038V13.7552C7.97038 14.1066 8.10636 14.3159 8.49477 14.3159C8.63726 14.3159 8.80144 14.2717 8.9056 14.1988L8.81085 13.9166C8.71284 13.9735 8.60543 14.0022 8.52008 14.0022C8.35589 14.0022 8.30237 13.9006 8.30237 13.7487V13.0643H8.83942V12.7633ZM3.92839 13.3273V14.2779H3.5964V13.435C3.5964 13.1782 3.48899 13.0357 3.26477 13.0357C3.0467 13.0357 2.89517 13.1753 2.89517 13.4383V14.2779H2.56317V13.435C2.56317 13.1782 2.45287 13.0357 2.2348 13.0357C2.01022 13.0357 1.86483 13.1753 1.86483 13.4383V14.2779H1.5332L1.5332 12.7633H1.86194V12.9501C1.98526 12.7728 2.14294 12.7252 2.30423 12.7252C2.53497 12.7252 2.69915 12.8268 2.80331 12.9947C2.94254 12.7822 3.14145 12.722 3.33421 12.7252C3.70092 12.7285 3.92839 12.9693 3.92839 13.3273Z" fill="#231F20"/>
<path d="M12.2719 10.1897H7.29492V1.21973H12.2719V10.1897Z" fill="#FF5F00"/>
<path d="M7.6105 5.70495C7.6105 3.88535 8.46001 2.26449 9.78291 1.21995C8.81551 0.456131 7.59458 0.000232697 6.2677 0.000232697C3.12643 0.000232697 0.580078 2.55428 0.580078 5.70495C0.580078 8.85562 3.12643 11.4097 6.2677 11.4097C7.59458 11.4097 8.81551 10.9538 9.78291 10.1899C8.46001 9.14541 7.6105 7.52456 7.6105 5.70495Z" fill="#EB001B"/>
<path d="M18.9864 5.70446C18.9864 8.85513 16.44 11.4092 13.2988 11.4092C11.9719 11.4092 10.751 10.9533 9.7832 10.1895C11.1065 9.14492 11.956 7.52407 11.956 5.70446C11.956 3.88486 11.1065 2.264 9.7832 1.21946C10.751 0.455643 11.9719 -0.000255585 13.2988 -0.000255585C16.44 -0.000255585 18.9864 2.55379 18.9864 5.70446Z" fill="#F79E1B"/>
</svg>
