<svg width="69" height="30" viewBox="0 0 69 30" fill="none" xmlns="http://www.w3.org/2000/svg">
<path d="M44.5206 11.6436H32.4655C32.2268 11.6436 32.1074 11.8218 32.1074 12V12.9505C32.1074 13.1881 32.2865 13.3069 32.4655 13.3069H41.477V18.297C41.2382 17.9406 40.9398 17.5841 40.6415 17.2277C39.5672 16.1584 38.4334 15.6238 37.2398 15.6238C36.2849 15.6238 35.5091 16.099 34.8526 16.9307C34.3155 17.6436 34.0171 18.4752 34.0171 19.2475C34.0171 20.0198 34.1365 21.0297 34.7333 21.9802C35.4494 23.1089 36.643 23.4653 37.7172 23.4653C39.0898 23.4653 40.2237 22.5148 40.2237 21.2673C40.2237 20.5544 39.8656 19.9604 39.2092 19.5445L38.5527 19.1881V19.9604C38.5527 20.0198 38.5527 20.0792 38.5527 20.1386C38.5527 20.198 38.5527 20.2574 38.5527 20.2574C38.493 20.5544 38.0156 20.9703 37.4785 20.9703C37.0011 20.9703 36.5833 20.7921 36.2849 20.495C36.1059 20.3168 35.9865 19.9604 36.0462 19.7228C36.0462 19.3663 36.1656 19.0693 36.4043 18.7723C36.7027 18.4158 37.0011 18.2376 37.4785 18.2376C38.6721 18.2376 39.6866 18.7723 40.5221 19.9604C41.1786 20.9703 41.5366 21.9208 41.5366 22.9901V25.4851L43.327 26.5544C43.3867 26.6139 43.4464 26.6139 43.506 26.6139C43.7447 26.6139 43.8641 26.4356 43.8641 26.2574V13.3663H44.5802C44.819 13.3663 44.9383 13.1881 44.9383 13.0099V12.0594C44.9383 11.8218 44.7593 11.6436 44.5206 11.6436Z" fill="#ED1C24"/>
<path d="M68.6301 11.6437H57.888H56.4557H53.3524C53.1137 11.6437 52.9943 11.8219 52.9943 12.0001V13.6635C51.5024 12.119 50.1894 11.3467 48.9959 11.3467C47.862 11.3467 46.9071 11.5843 46.0716 12.2378C45.2958 12.8318 44.8184 13.6041 44.8184 14.4952C44.8184 17.1685 47.8023 17.1091 48.5781 16.7526C48.6975 16.6932 48.8765 16.5744 49.0555 16.5744C49.6523 16.5744 49.891 17.0497 49.891 17.4655C49.891 18.0596 48.9959 18.5942 47.9216 18.5942C47.3249 18.5942 46.9668 18.416 46.7281 18.0596L46.2506 17.3467L45.9523 18.1784C45.8926 18.3566 45.7732 18.5942 45.7732 18.8912C45.7732 19.4853 46.0716 20.0794 46.6684 20.614C47.2055 21.0893 47.862 21.3269 48.5781 21.3269C49.712 21.3269 50.6669 20.911 51.2636 20.0794C51.8008 19.4259 52.0395 18.6536 52.0395 17.7625C52.0395 17.2873 51.8604 16.7526 51.4427 16.1586C50.9653 15.4457 50.3685 15.0893 49.712 15.0893C49.4733 15.0893 49.1749 15.1487 48.8765 15.2675C48.7571 15.3269 48.5184 15.3863 48.4588 15.3863C48.3394 15.3863 48.1604 15.3269 48.041 15.1487C47.9216 15.0298 47.8023 14.8516 47.8023 14.5546C47.8023 13.9011 48.3991 13.2477 49.4733 13.2477H49.533C50.2491 13.2477 50.9653 13.6041 51.6217 14.2576C52.1588 14.7922 52.5766 15.3269 52.9346 15.9209V25.3665L54.725 26.4358C54.7847 26.4952 54.8444 26.4952 54.904 26.4952C55.1428 26.4952 55.2621 26.317 55.2621 26.1388V13.3665H56.396H57.8283H58.0073V21.6239L60.1558 22.515C60.2154 22.515 60.2751 22.515 60.2751 22.515C60.4542 22.515 60.6332 22.3962 60.6332 22.1586V22.0992C60.9913 19.6635 62.0655 18.0001 63.8558 16.9902C63.8558 17.1091 63.8558 17.2873 63.8558 17.4655C63.8558 17.8219 63.8558 18.713 63.9155 19.1883C63.9155 19.4853 63.9155 19.6635 63.9752 19.8417C63.9752 20.7922 64.0945 22.218 64.3929 23.2873C64.9897 25.3071 66.0043 25.7823 66.7204 25.7823H66.7801C67.1978 25.7823 67.5559 25.6635 67.7946 25.4259C67.914 25.3071 68.093 25.0695 68.093 24.6536C68.093 24.2972 68.0333 24.0001 67.914 23.7625L67.7349 23.4655L67.3769 23.5249C67.0188 23.6437 66.8398 23.6437 66.8398 23.5843H66.7801C66.6607 23.5843 66.6607 23.5843 66.601 23.5249C66.4817 23.4655 66.243 23.2873 66.0639 22.6338C65.9446 22.1586 65.8849 21.5051 65.8849 21.1487C65.8849 18.4754 66.422 16.4556 67.3172 16.0398H67.3769C67.4962 15.9803 67.6156 15.8615 67.6156 15.6833C67.6156 15.6239 67.6156 15.5645 67.5559 15.5051V15.4457C67.1382 14.614 66.243 14.0199 65.0494 13.7229H64.93H64.8107C63.8558 13.9011 62.7219 14.5546 61.2897 15.7427C60.9316 16.0398 60.5735 16.3368 60.2751 16.6338V13.3665H68.6301C68.8688 13.3665 68.9882 13.1883 68.9882 13.01V12.0596C69.0479 11.8219 68.8688 11.6437 68.6301 11.6437Z" fill="#ED1C24"/>
<path d="M28.1683 16.0395C28.1683 16.4554 28.1683 16.8118 28.1086 17.1683C27.9893 18.8316 27.5715 20.3762 26.915 21.8019C26.6763 22.396 26.3779 22.9306 26.0199 23.4653C23.5134 27.3861 19.0971 29.9999 14.0841 29.9999C11.9357 29.9999 9.90664 29.5247 8.11629 28.693C3.342 26.495 0 21.6237 0 16.0395C0 10.5148 3.22264 5.76231 7.81789 3.50488C7.45982 3.98013 7.10175 4.45538 6.80336 4.99003C6.80336 5.04944 6.74368 5.04944 6.74368 5.10884C6.56464 5.28706 6.38561 5.40587 6.20657 5.58409C5.96786 5.76231 5.78882 5.99993 5.55011 6.17815C5.49043 6.23756 5.43075 6.29696 5.43075 6.29696C5.37107 6.35637 5.31139 6.41577 5.31139 6.41577C5.25171 6.47518 5.19204 6.59399 5.07268 6.6534C4.95332 6.83162 4.77429 7.00983 4.65493 7.18805C4.05814 7.96033 3.58071 8.79201 3.22264 9.6831C3.16296 9.74251 3.16296 9.86132 3.10329 9.92072C3.04361 10.0395 3.04361 10.1583 2.98393 10.2178C2.98393 10.2772 2.92425 10.3366 2.92425 10.396C2.86457 10.5742 2.80489 10.693 2.74521 10.8712C2.68554 10.99 2.68554 11.1088 2.62586 11.1682C2.62586 11.2277 2.56618 11.2871 2.56618 11.3465C2.56618 11.4653 2.5065 11.5841 2.5065 11.7029C2.44682 12.0593 2.38714 12.4158 2.32746 12.7722C2.32746 12.891 2.32746 12.9504 2.26779 13.0692C2.26779 13.1286 2.26779 13.1881 2.26779 13.3069C2.26779 13.4257 2.26779 13.5445 2.26779 13.6039C2.26779 13.7227 2.26779 13.8415 2.26779 13.9603C2.26779 14.1385 2.26779 14.3168 2.26779 14.495C2.26779 18.297 3.99846 21.7425 6.80336 23.9405C8.95179 25.6633 11.6373 26.7326 14.5616 26.7326C17.2471 26.7326 19.6939 25.9009 21.723 24.4158C23.215 23.3465 24.4085 21.9801 25.3037 20.3762C25.4231 20.1385 25.5424 19.9603 25.6618 19.7227C26.3779 18.2376 26.7957 16.6336 26.7957 14.9108C26.7957 14.792 26.7957 14.6732 26.7957 14.495C26.7957 14.0791 26.7957 13.7227 26.736 13.3069L26.7957 13.3663C26.9747 13.5445 27.1537 13.6633 27.3328 13.8415C27.5118 13.5445 27.6909 13.3069 27.8699 13.0098C27.9893 13.5445 28.0489 14.0791 28.1086 14.6732C28.1683 15.2079 28.1683 15.6237 28.1683 16.0395Z" fill="#ED1C24"/>
<path d="M15.7554 4.81188L13.1295 0C8.77299 1.9604 5.78906 6.29703 5.78906 11.3465C5.78906 13.901 6.56488 16.2772 7.87781 18.2376C7.75846 17.5842 7.75846 16.9307 7.75846 16.2178C7.81813 11.0495 11.1005 6.65346 15.7554 4.81188Z" fill="#F7941D"/>
<path d="M17.8444 7.18829C18.9186 6.89126 20.1122 6.77245 21.246 6.77245C21.9622 6.77245 22.738 6.83186 23.3945 6.95067L23.3348 4.81205L23.2154 0.534828C22.738 0.475422 22.2009 0.416016 21.6638 0.416016C19.2767 0.416016 17.0685 1.18829 15.2782 2.43582L16.7105 5.04968C14.1443 5.94077 12.0555 7.72295 10.7426 10.0398C10.0862 11.1685 9.60872 12.4754 9.42969 13.8418C9.78776 13.1289 10.2055 12.4754 10.6829 11.8814C12.4136 9.62394 14.9201 7.90116 17.8444 7.18829Z" fill="#ED1C24"/>
<path d="M24.1104 4.75244L24.2298 7.78214C23.2152 7.48511 22.2007 7.3069 21.0668 7.3069C18.978 7.3069 17.0087 7.90096 15.278 8.91086C13.1295 10.2178 11.4585 12.297 10.623 14.7326C11.4585 13.6039 12.4731 12.594 13.6667 11.8217C15.3973 10.693 17.4861 10.0396 19.6942 10.0396C21.3652 10.0396 22.9168 10.396 24.3491 11.0495C25.4233 11.5247 26.3782 12.1782 27.2137 13.0099L28.8847 10.5148L31.0331 7.24749C29.1234 5.70294 26.7363 4.75244 24.1104 4.75244Z" fill="#F7941D"/>
<path d="M26.7955 14.6137C26.7955 14.7325 26.7955 14.8513 26.7955 15.0295C26.7955 17.5246 25.7809 19.6038 25.6616 19.8414C25.5422 20.079 25.4229 20.2572 25.3035 20.4949C24.4083 22.0988 23.2148 23.4652 21.7228 24.5345C19.6937 25.9602 17.2469 26.8513 14.5614 26.8513C11.6371 26.8513 8.8919 25.8414 6.80315 24.0592C4.05794 21.8018 2.26758 18.4157 2.26758 14.6137C2.26758 14.4355 2.26758 14.2572 2.26758 14.079C2.26758 13.9602 2.26758 13.8414 2.26758 13.7226C2.26758 13.6038 2.26758 13.485 2.26758 13.4256C2.26758 13.3662 2.26758 13.3067 2.26758 13.1879C2.26758 13.0691 2.26758 13.0097 2.32726 12.8909C2.38693 12.5345 2.44661 12.178 2.50629 11.8216C2.50629 11.7028 2.56597 11.584 2.56597 11.4652C2.56597 11.4058 2.62565 11.3464 2.62565 11.2869C2.68533 11.1681 2.68533 11.0493 2.74501 10.9899C2.80469 10.8117 2.86436 10.6335 2.92404 10.5147C2.92404 10.4553 2.98372 10.3959 2.98372 10.3364C3.0434 10.2176 3.0434 10.0988 3.10308 10.0394C3.16276 9.98001 3.16276 9.8612 3.22244 9.8018C3.58051 8.91071 4.11761 8.07902 4.65472 7.30675C4.77408 7.12853 4.95311 6.95031 5.07247 6.77209C5.13215 6.71269 5.19183 6.59388 5.31119 6.53447C5.37086 6.47506 5.37086 6.41566 5.43054 6.41566C5.49022 6.35625 5.49022 6.29685 5.5499 6.29685C5.72894 6.05922 5.96765 5.881 6.20636 5.70279C6.3854 5.52457 6.56444 5.40576 6.74347 5.22754C6.74347 5.28694 6.68379 5.28695 6.68379 5.34635C6.68379 5.40576 6.62411 5.46516 6.62411 5.46516C5.90797 6.89091 5.43054 8.61368 5.25151 10.3959C5.19183 10.8711 5.19183 11.3464 5.19183 11.881C5.19183 18.2968 8.95158 23.4652 13.6065 23.4652H13.6662C13.7855 23.4652 13.9646 23.4652 14.0839 23.4652C14.7404 23.4652 15.3969 23.3463 16.0533 23.2275C19.2163 22.3959 21.5438 19.485 21.5438 16.0988C21.5438 16.0394 21.5438 15.98 21.5438 15.9206C21.4841 13.9008 20.6486 12.0592 19.276 10.8117C20.2308 10.8117 21.1857 10.9899 22.0809 11.2275C23.8115 11.6434 25.3632 12.4751 26.7358 13.5444L26.7955 13.6038C26.7358 13.8414 26.7955 14.2572 26.7955 14.6137Z" fill="#F7941D"/>
<path d="M26.7959 14.614C26.7959 14.7328 26.7959 14.911 26.7959 15.0298C26.7959 17.6437 25.6023 19.9011 25.6023 19.9011C25.483 20.1388 25.3636 20.317 25.2443 20.5546C24.3491 22.1586 23.0958 23.5249 21.6039 24.5942C19.5151 26.1388 17.0086 26.911 14.3828 26.911C11.5182 26.911 8.77298 25.9011 6.56487 24.1189C3.7003 21.8021 2.0293 18.2972 2.0293 14.614C2.0293 10.9308 3.7003 7.42588 6.56487 5.10905L6.68423 4.99023C6.68423 5.04964 6.62455 5.04964 6.62455 5.10905C6.62455 5.16845 6.56487 5.16845 6.56487 5.22786C3.75998 7.54469 2.14865 10.9308 2.14865 14.614C2.14865 18.2972 3.75998 21.6833 6.62455 24.0595C8.77298 25.8417 11.5779 26.7922 14.3828 26.7922C16.9489 26.7922 19.4554 26.0199 21.5442 24.4754C23.0362 23.4061 24.2297 22.0397 25.1249 20.4358C25.2443 20.1982 25.3636 20.0199 25.4233 19.7823C25.4233 19.7823 26.6169 17.5843 26.6169 14.9704C26.6169 14.8516 26.6169 14.6734 26.6169 14.5546C26.6169 14.1388 26.6169 13.7823 26.5572 13.3665V13.3071L26.6169 13.3665L26.6766 13.4259C26.7959 13.9011 26.7959 14.2576 26.7959 14.614Z" fill="#F7941D"/>
</svg>
