<svg width="20" height="20" viewBox="0 0 20 20" fill="none" xmlns="http://www.w3.org/2000/svg">
<g clip-path="url(#clip0_10511_5763)">
<path d="M9.23881 1.33301L17.488 2.51217L18.6663 10.7622L11.0063 18.4222C10.85 18.5784 10.6381 18.6662 10.4171 18.6662C10.1962 18.6662 9.98425 18.5784 9.82797 18.4222L1.57797 10.1722C1.42175 10.0159 1.33398 9.80398 1.33398 9.58301C1.33398 9.36204 1.42175 9.15011 1.57797 8.99384L9.23881 1.33301ZM11.5955 8.40467C11.7503 8.55942 11.934 8.68215 12.1363 8.76588C12.3385 8.8496 12.5552 8.89267 12.7741 8.89263C12.993 8.8926 13.2097 8.84945 13.4119 8.76565C13.6141 8.68186 13.7978 8.55905 13.9526 8.40426C14.1073 8.24946 14.23 8.0657 14.3138 7.86347C14.3975 7.66124 14.4406 7.44451 14.4405 7.22563C14.4405 7.00675 14.3973 6.79003 14.3135 6.58783C14.2297 6.38563 14.1069 6.20192 13.9521 6.04717C13.7973 5.89243 13.6136 5.7697 13.4114 5.68597C13.2091 5.60225 12.9924 5.55918 12.7735 5.55922C12.3315 5.55929 11.9076 5.73497 11.5951 6.04759C11.2825 6.36022 11.107 6.78418 11.1071 7.22622C11.1072 7.66826 11.2828 8.09216 11.5955 8.40467Z" fill="#4D4D4F"/>
</g>
<defs>
<clipPath id="clip0_10511_5763">
<rect width="20" height="20" fill="white"/>
</clipPath>
</defs>
</svg>
