<svg width="22" height="15" viewBox="0 0 22 15" fill="none" xmlns="http://www.w3.org/2000/svg">
<path d="M20.9053 14.6317H0V0.315918H21.2666V14.6317H20.9053Z" fill="#1D5B99"/>
<path fill-rule="evenodd" clip-rule="evenodd" d="M20.9034 14.2709H0.359375V0.677734H20.9034V14.2709Z" fill="white"/>
<path fill-rule="evenodd" clip-rule="evenodd" d="M7.7879 9.68118L9.12212 5.28199H10.3126L8.97824 9.68118H7.7879ZM7.25571 5.2832L6.18481 7.14815C5.9123 7.63665 5.75281 7.88339 5.67622 8.19183H5.65988C5.67888 7.80074 5.62431 7.32022 5.61922 7.04868L5.50088 5.2832H3.49701L3.47656 5.40154C3.99132 5.40154 4.29662 5.66013 4.3806 6.18917L4.77121 9.68118H6.00451L8.49833 5.2832H7.25571ZM16.5134 9.68118L16.4806 9.02702L14.9943 9.02581L14.6901 9.68118H13.3978L15.7413 5.29034H17.3276L17.7243 9.68118H16.5134ZM16.3771 7.0862C16.3636 6.76105 16.3527 6.31986 16.3746 6.05268H16.3571C16.2847 6.2711 15.9735 6.92695 15.8366 7.24943L15.3938 8.21361H16.4374L16.3771 7.0862ZM11.5623 9.80618C10.7219 9.80618 10.1641 9.5396 9.76599 9.30182L10.333 8.4359C10.6906 8.6358 10.9712 8.86656 11.6171 8.86656C11.8247 8.86656 12.0248 8.81272 12.1386 8.61584C12.304 8.3299 12.1003 8.17574 11.6354 7.91255L11.4058 7.76323C10.7164 7.29227 10.4181 6.84479 10.7426 6.06381C10.9504 5.5643 11.498 5.18555 12.4018 5.18555C13.0247 5.18555 13.609 5.45515 13.9493 5.71846L13.2974 6.48298C12.9652 6.21434 12.6899 6.07845 12.3748 6.07845C12.1236 6.07845 11.9326 6.17538 11.8667 6.30607C11.7426 6.55171 11.9068 6.71918 12.2691 6.94401L12.5421 7.11778C13.3792 7.64573 13.5784 8.19921 13.3688 8.71652C13.0078 9.60749 12.3013 9.80618 11.5623 9.80618ZM18.0788 5.87819H18.0272V5.5643H18.1463C18.2222 5.5643 18.2606 5.5908 18.2606 5.65457C18.2606 5.71144 18.2259 5.73504 18.1788 5.74024L18.2668 5.87819H18.2085L18.1274 5.74411H18.0788V5.87819ZM18.1364 5.69995C18.1751 5.69995 18.2092 5.69619 18.2092 5.6507C18.2092 5.61282 18.1721 5.60822 18.1412 5.60822H18.0788V5.69995H18.1364ZM18.1349 5.99956C17.9718 5.99956 17.8558 5.87746 17.8558 5.71592C17.8558 5.54542 17.9845 5.4324 18.1349 5.4324C18.2834 5.4324 18.4124 5.54542 18.4124 5.71592C18.4124 5.88654 18.2834 5.99956 18.1349 5.99956ZM18.1349 5.48165C18.012 5.48165 17.9165 5.57797 17.9165 5.71592C17.9165 5.84479 17.9999 5.95019 18.1349 5.95019C18.2562 5.95019 18.3516 5.85459 18.3516 5.71592C18.3516 5.57797 18.2562 5.48165 18.1349 5.48165Z" fill="#1D5B99"/>
<path fill-rule="evenodd" clip-rule="evenodd" d="M20.4005 11.0479H0.904297V13.6564H20.4005V11.0479Z" fill="#E7A83A"/>
<path fill-rule="evenodd" clip-rule="evenodd" d="M20.3633 1.32764H0.867188V3.93629H20.3633V1.32764ZM19.9177 13.4706H19.8662V13.1567H19.9852C20.0611 13.1567 20.0996 13.1832 20.0996 13.247C20.0996 13.3038 20.0649 13.3274 20.0178 13.3326L20.1058 13.4706H20.0474L19.9664 13.3364H19.9177V13.4706ZM19.9754 13.2924C20.0142 13.2924 20.0483 13.2886 20.0483 13.243C20.0483 13.2053 20.0111 13.2007 19.9803 13.2007H19.9178V13.2924H19.9754ZM19.974 13.5919C19.8109 13.5919 19.6948 13.4699 19.6948 13.3082C19.6948 13.1379 19.8238 13.0248 19.974 13.0248C20.1227 13.0248 20.2515 13.1379 20.2515 13.3082C20.2515 13.4789 20.1227 13.5919 19.974 13.5919ZM19.974 13.074C19.851 13.074 19.7556 13.1704 19.7556 13.3082C19.7556 13.4372 19.8389 13.5425 19.974 13.5425C20.0952 13.5425 20.1907 13.447 20.1907 13.3082C20.1907 13.1704 20.0952 13.074 19.974 13.074Z" fill="#1D5B99"/>
</svg>
