<svg width="14" height="14" viewBox="0 0 14 14" fill="none" xmlns="http://www.w3.org/2000/svg">
<path d="M3.66627 13.6666C3.53691 13.6677 3.41276 13.612 3.3223 13.5124C3.23195 13.4129 3.18295 13.278 3.18677 13.1388C3.19049 12.9996 3.24672 12.868 3.34249 12.7743C3.52468 12.5955 3.63991 12.3512 3.66625 12.0872C3.64828 11.8471 3.53561 11.6267 3.35672 11.482C2.96611 11.1495 2.73098 10.6488 2.71387 10.1129C2.73789 9.56138 2.96195 9.04215 3.3377 8.66669C3.46515 8.55646 3.63607 8.5244 3.79063 8.58153C3.94518 8.63876 4.06178 8.77738 4.09931 8.94861C4.13683 9.11997 4.09027 9.30002 3.9758 9.42559C3.79818 9.60839 3.68818 9.85438 3.66627 10.1179C3.68424 10.358 3.79691 10.5784 3.9758 10.7231C4.36641 11.0556 4.60154 11.5563 4.61865 12.0922C4.59463 12.6437 4.37057 13.1629 3.99482 13.5384C3.90436 13.6245 3.78691 13.6703 3.66627 13.6666L3.66627 13.6666Z" fill="#151414"/>
<path d="M6.9983 13.6668C6.86894 13.6679 6.74479 13.6122 6.65433 13.5127C6.56398 13.4131 6.51498 13.2782 6.5188 13.139C6.52252 12.9998 6.57875 12.8682 6.67452 12.7746C6.85671 12.5958 6.97194 12.3514 6.99828 12.0874C6.98032 11.8473 6.86765 11.6269 6.68876 11.4822C6.29814 11.1497 6.06301 10.649 6.0459 10.1131C6.06992 9.56159 6.29399 9.04236 6.66974 8.6669C6.76157 8.56605 6.88806 8.51054 7.01912 8.51328C7.15029 8.51614 7.27465 8.57715 7.36266 8.68178C7.45067 8.78651 7.49468 8.92571 7.48437 9.06662C7.47395 9.20741 7.41007 9.33745 7.30781 9.42582C7.1302 9.60863 7.0202 9.85462 6.99829 10.1181C7.01625 10.3583 7.12892 10.5786 7.30781 10.7233C7.69843 11.0558 7.93356 11.5565 7.95067 12.0924C7.92665 12.6439 7.70258 13.1632 7.32683 13.5386C7.23638 13.6247 7.11893 13.6705 6.99829 13.6668L6.9983 13.6668Z" fill="#151414"/>
<path d="M10.3333 13.6668C10.2039 13.6679 10.0798 13.6122 9.98929 13.5127C9.89894 13.4131 9.84994 13.2782 9.85377 13.139C9.85749 12.9998 9.91371 12.8682 10.0095 12.7746C10.1917 12.5958 10.3069 12.3514 10.3332 12.0874C10.3153 11.8473 10.2026 11.6269 10.0237 11.4822C9.6331 11.1497 9.39798 10.649 9.38086 10.1131C9.40488 9.56159 9.62895 9.04236 10.0047 8.6669C10.0965 8.56605 10.223 8.51054 10.3541 8.51328C10.4852 8.51614 10.6096 8.57715 10.6976 8.68178C10.7856 8.78651 10.8296 8.92571 10.8193 9.06662C10.8089 9.20741 10.745 9.33745 10.6428 9.42582C10.4652 9.60863 10.3552 9.85462 10.3333 10.1181C10.3512 10.3583 10.4639 10.5786 10.6428 10.7233C11.0334 11.0558 11.2685 11.5565 11.2856 12.0924C11.2616 12.6439 11.0375 13.1632 10.6618 13.5386C10.5713 13.6247 10.4539 13.6705 10.3333 13.6668L10.3333 13.6668Z" fill="#151414"/>
<path d="M13.6663 4.94881V1.9745C13.6651 1.53963 13.5041 1.12308 13.2186 0.815628C12.9331 0.508175 12.5463 0.334873 12.1425 0.333496H1.85682C1.45301 0.33487 1.06621 0.508172 0.780709 0.815628C0.495212 1.12308 0.334287 1.53963 0.333008 1.9745V4.94881H13.6663ZM9.85682 2.38475H11.2854C11.4556 2.38475 11.6128 2.4825 11.6978 2.64115C11.7828 2.79981 11.7828 2.99532 11.6978 3.15397C11.6128 3.31262 11.4556 3.41037 11.2854 3.41037H9.85682C9.68664 3.41037 9.52944 3.31262 9.44441 3.15397C9.35938 2.99531 9.35938 2.7998 9.44441 2.64115C9.52944 2.4825 9.68665 2.38475 9.85682 2.38475ZM2.71396 2.38475H4.14253C4.31271 2.38475 4.46991 2.4825 4.55494 2.64115C4.63997 2.79981 4.63997 2.99532 4.55494 3.15397C4.46991 3.31262 4.3127 3.41037 4.14253 3.41037H2.71396C2.54379 3.41037 2.38659 3.31262 2.30155 3.15397C2.21652 2.99531 2.21652 2.7998 2.30155 2.64115C2.38659 2.4825 2.54379 2.38475 2.71396 2.38475Z" fill="#151414"/>
<path d="M0.333008 5.97461C0.357242 6.39183 0.52848 6.78333 0.811647 7.06924C1.0948 7.35507 1.46865 7.51384 1.85682 7.51305H12.1425C12.5307 7.51385 12.9045 7.35508 13.1877 7.06924C13.4709 6.78331 13.6421 6.39183 13.6663 5.97461H0.333008Z" fill="#151414"/>
</svg>
