<svg width="12" height="12" viewBox="0 0 12 12" fill="none" xmlns="http://www.w3.org/2000/svg">
<path d="M5.78806 0.732973C5.78806 0.369025 5.4894 0.112164 5.10531 0.176355C3.86798 0.476085 2.88672 1.61081 2.88672 2.95967C2.88672 4.30853 3.80398 5.44325 5.10531 5.74299C5.46796 5.80721 5.78806 5.55034 5.78806 5.18637V0.733126V0.732973Z" fill="#151414"/>
<path d="M6.21484 11.2666C6.21484 11.6306 6.5135 11.8874 6.89759 11.8232C8.13492 11.5235 9.11618 10.3888 9.11618 9.03992C9.11618 7.66969 8.19892 6.55634 6.89759 6.2566C6.53479 6.19239 6.21484 6.4279 6.21484 6.81334V11.2666V11.2666Z" fill="#151414"/>
<path d="M11.2695 5.80725C11.6322 5.80725 11.8881 5.50752 11.8242 5.12205C11.5255 3.88028 10.3948 2.89551 9.05078 2.89551C7.70674 2.89551 6.57607 3.81605 6.2774 5.12205C6.21341 5.486 6.46937 5.80725 6.83203 5.80725H11.2694H11.2695Z" fill="#151414"/>
<path d="M0.731438 6.25635C0.368789 6.25635 0.112846 6.55608 0.176808 6.94154C0.475468 8.18331 1.60614 9.16809 2.95019 9.16809C4.29423 9.16809 5.4249 8.24754 5.72356 6.94154C5.78755 6.57759 5.5316 6.25635 5.16893 6.25635H0.73159H0.731438Z" fill="#151414"/>
</svg>
