<svg width="24" height="24" viewBox="0 0 24 24" fill="none" xmlns="http://www.w3.org/2000/svg">
<circle cx="12" cy="12" r="12" fill="#1E88E5"/>
<g clip-path="url(#clip0_6721_62908)">
<path d="M16.9995 11V16C16.9995 16.1326 16.9468 16.2598 16.8531 16.3536C16.7593 16.4473 16.6321 16.5 16.4995 16.5H7.49951C7.3669 16.5 7.23973 16.4473 7.14596 16.3536C7.05219 16.2598 6.99951 16.1326 6.99951 16V11H16.9995ZM16.9995 10H6.99951V8C6.99951 7.86739 7.05219 7.74021 7.14596 7.64645C7.23973 7.55268 7.3669 7.5 7.49951 7.5H16.4995C16.6321 7.5 16.7593 7.55268 16.8531 7.64645C16.9468 7.74021 16.9995 7.86739 16.9995 8V10ZM13.4995 14V15H15.4995V14H13.4995Z" fill="white"/>
</g>
<defs>
<clipPath id="clip0_6721_62908">
<rect width="12" height="12" fill="white" transform="translate(6 6)"/>
</clipPath>
</defs>
</svg>
