<svg width="30" height="30" viewBox="0 0 30 30" fill="none" xmlns="http://www.w3.org/2000/svg">
<circle cx="15" cy="15" r="15" fill="#EFF7FD"/>
<g clip-path="url(#clip0_33_5164)">
<path d="M21.6663 13.6667V20.3333C21.6663 20.5101 21.5961 20.6797 21.4711 20.8047C21.3461 20.9298 21.1765 21 20.9997 21H8.99967C8.82286 21 8.65329 20.9298 8.52827 20.8047C8.40325 20.6797 8.33301 20.5101 8.33301 20.3333V13.6667H21.6663ZM21.6663 12.3333H8.33301V9.66667C8.33301 9.48986 8.40325 9.32029 8.52827 9.19526C8.65329 9.07024 8.82286 9 8.99967 9H20.9997C21.1765 9 21.3461 9.07024 21.4711 9.19526C21.5961 9.32029 21.6663 9.48986 21.6663 9.66667V12.3333ZM16.9997 17.6667V19H19.6663V17.6667H16.9997Z" fill="#1E88E5"/>
</g>
<defs>
<clipPath id="clip0_33_5164">
<rect width="16" height="16" fill="white" transform="translate(7 7)"/>
</clipPath>
</defs>
</svg>
