<svg width="20" height="20" viewBox="0 0 20 20" fill="none" xmlns="http://www.w3.org/2000/svg">
<g id="Group">
<path id="Vector" d="M10 18.3333C5.3975 18.3333 1.66667 14.6025 1.66667 9.99996C1.66667 5.39746 5.3975 1.66663 10 1.66663C14.6025 1.66663 18.3333 5.39746 18.3333 9.99996C18.3333 14.6025 14.6025 18.3333 10 18.3333ZM10 16.6666C11.7681 16.6666 13.4638 15.9642 14.714 14.714C15.9643 13.4638 16.6667 11.7681 16.6667 9.99996C16.6667 8.23185 15.9643 6.53616 14.714 5.28591C13.4638 4.03567 11.7681 3.33329 10 3.33329C8.23189 3.33329 6.5362 4.03567 5.28596 5.28591C4.03571 6.53616 3.33333 8.23185 3.33333 9.99996C3.33333 11.7681 4.03571 13.4638 5.28596 14.714C6.5362 15.9642 8.23189 16.6666 10 16.6666ZM5.83333 9.58329L13.3333 6.66663L10.4167 14.1683L9.16667 10.8333L5.83333 9.58329Z" fill="#676769"/>
</g>
</svg>
