<svg width="18" height="18" viewBox="0 0 18 18" fill="none" xmlns="http://www.w3.org/2000/svg">
<path d="M13.167 2.33366H16.5003C16.7213 2.33366 16.9333 2.42146 17.0896 2.57774C17.2459 2.73402 17.3337 2.94598 17.3337 3.16699V16.5003C17.3337 16.7213 17.2459 16.9333 17.0896 17.0896C16.9333 17.2459 16.7213 17.3337 16.5003 17.3337H1.50033C1.27931 17.3337 1.06735 17.2459 0.91107 17.0896C0.75479 16.9333 0.666992 16.7213 0.666992 16.5003V3.16699C0.666992 2.94598 0.75479 2.73402 0.91107 2.57774C1.06735 2.42146 1.27931 2.33366 1.50033 2.33366H4.83366V0.666992H6.50033V2.33366H11.5003V0.666992H13.167V2.33366ZM2.33366 7.33366V15.667H15.667V7.33366H2.33366ZM4.00033 9.00033H5.66699V10.667H4.00033V9.00033ZM8.16699 9.00033H9.83366V10.667H8.16699V9.00033ZM12.3337 9.00033H14.0003V10.667H12.3337V9.00033Z" fill="#8D8D8F"/>
</svg>
