<svg width="23" height="21" viewBox="0 0 23 21" fill="none" xmlns="http://www.w3.org/2000/svg">
<path d="M8 3H13.446C13.6156 3 13.7824 3.04314 13.9308 3.12536C14.0791 3.20758 14.2041 3.32617 14.294 3.47L17.75 9H22.158C22.2448 8.99994 22.3302 9.02248 22.4056 9.06542C22.4811 9.10837 22.5441 9.17022 22.5884 9.24489C22.6327 9.31957 22.6568 9.40449 22.6583 9.49131C22.6598 9.57812 22.6387 9.66383 22.597 9.74L18.66 16.957C17.7794 17.075 16.8832 16.9559 16.064 16.6118C15.2448 16.2678 14.5323 15.7114 14 15C13.5347 15.6214 12.9309 16.1258 12.2365 16.473C11.5421 16.8202 10.7763 17.0006 10 17C9.22367 17.0006 8.45788 16.8202 7.76351 16.473C7.06913 16.1258 6.4653 15.6214 6 15C5.47889 15.6962 4.78494 16.2443 3.98687 16.5898C3.1888 16.9354 2.3143 17.0664 1.45 16.97L0.214 10.179C0.187777 10.0349 0.193542 9.88674 0.230886 9.74509C0.268229 9.60343 0.33624 9.47171 0.430108 9.35924C0.523977 9.24677 0.64141 9.1563 0.774102 9.09422C0.906794 9.03214 1.0515 8.99998 1.198 9H2V4C2 3.73478 2.10536 3.48043 2.29289 3.29289C2.48043 3.10536 2.73478 3 3 3H4V0H8V3ZM4 9H15.392L12.892 5H4V9ZM2 19C3.47626 19.002 4.90107 18.4578 6 17.472C7.09893 18.4578 8.52374 19.002 10 19C11.4763 19.002 12.9011 18.4578 14 17.472C15.0989 18.4578 16.5237 19.002 18 19H20V21H18C16.5956 21.0023 15.2157 20.6331 14 19.93C12.7843 20.6331 11.4044 21.0023 10 21C8.59564 21.0023 7.21565 20.6331 6 19.93C4.78435 20.6331 3.40436 21.0023 2 21H0V19H2Z" fill="#151414"/>
</svg>
