<svg width="24" height="24" viewBox="0 0 24 24" fill="none" xmlns="http://www.w3.org/2000/svg">
<circle cx="12" cy="12" r="12" fill="#1E88E5"/>
<g clip-path="url(#clip0_6721_61704)">
<path d="M9.7806 7H13.4113C13.5243 7 13.6355 7.02876 13.7344 7.08357C13.8333 7.13838 13.9167 7.21745 13.9766 7.31333L16.2806 11H19.2193C19.2772 11 19.334 11.015 19.3844 11.0436C19.4347 11.0722 19.4767 11.1135 19.5062 11.1633C19.5357 11.213 19.5518 11.2697 19.5528 11.3275C19.5538 11.3854 19.5397 11.4426 19.5119 11.4933L16.8873 16.3047C16.3002 16.3833 15.7027 16.3039 15.1566 16.0746C14.6105 15.8452 14.1355 15.4743 13.7806 15C13.4704 15.4143 13.0678 15.7505 12.6049 15.982C12.142 16.2134 11.6315 16.3337 11.1139 16.3333C10.5964 16.3337 10.0859 16.2134 9.62294 15.982C9.16002 15.7505 8.75747 15.4143 8.44727 15C8.09986 15.4642 7.63722 15.8295 7.10518 16.0599C6.57313 16.2902 5.99013 16.3776 5.41393 16.3133L4.58993 11.786C4.57245 11.6899 4.57629 11.5912 4.60119 11.4967C4.62609 11.4023 4.67143 11.3145 4.734 11.2395C4.79658 11.1645 4.87487 11.1042 4.96333 11.0628C5.0518 11.0214 5.14827 11 5.24593 11H5.7806V7.66667C5.7806 7.48986 5.85084 7.32029 5.97586 7.19526C6.10089 7.07024 6.27045 7 6.44727 7H7.11393V5H9.7806V7ZM7.11393 11H14.7086L13.0419 8.33333H7.11393V11ZM5.7806 17.6667C6.76478 17.668 7.71465 17.3052 8.44727 16.648C9.17988 17.3052 10.1298 17.668 11.1139 17.6667C12.0981 17.668 13.048 17.3052 13.7806 16.648C14.5132 17.3052 15.4631 17.668 16.4473 17.6667H17.7806V19H16.4473C15.511 19.0015 14.591 18.7554 13.7806 18.2867C12.9702 18.7554 12.0502 19.0015 11.1139 19C10.1777 19.0015 9.2577 18.7554 8.44727 18.2867C7.63683 18.7554 6.71684 19.0015 5.7806 19H4.44727V17.6667H5.7806Z" fill="white"/>
</g>
<defs>
<clipPath id="clip0_6721_61704">
<rect width="16" height="16" fill="white" transform="translate(4 4)"/>
</clipPath>
</defs>
</svg>
