<svg width="28" height="28" viewBox="0 0 28 28" fill="none" xmlns="http://www.w3.org/2000/svg">
<path d="M23.5025 23.5085H19.505V17.243C19.505 15.749 19.475 13.826 17.42 13.826C15.3365 13.826 15.0185 15.452 15.0185 17.1335V23.5085H11.0195V10.625H14.8595V12.38H14.912C15.449 11.369 16.754 10.2995 18.704 10.2995C22.754 10.2995 23.504 12.9665 23.504 16.436V23.5085H23.5025ZM6.5045 8.8625C6.19933 8.8629 5.89709 8.80305 5.6151 8.68641C5.3331 8.56976 5.0769 8.39861 4.86119 8.18275C4.64547 7.9669 4.47448 7.71059 4.35802 7.42852C4.24155 7.14645 4.18191 6.84417 4.1825 6.539C4.1828 6.07975 4.31927 5.63091 4.57466 5.24922C4.83005 4.86753 5.19289 4.57015 5.6173 4.39468C6.0417 4.21921 6.5086 4.17352 6.95897 4.26341C7.40934 4.3533 7.82293 4.57471 8.14746 4.89966C8.47199 5.22461 8.69287 5.63849 8.78218 6.08897C8.87148 6.53945 8.82519 7.0063 8.64917 7.43048C8.47315 7.85465 8.1753 8.21711 7.79329 8.47201C7.41127 8.7269 6.96225 8.8628 6.503 8.8625H6.5045ZM8.5085 23.5085H4.499V10.625H8.51V23.5085H8.5085ZM25.505 0.5H2.4935C1.3895 0.5 0.5 1.37 0.5 2.4455V25.5545C0.5 26.63 1.391 27.5 2.492 27.5H25.499C26.6 27.5 27.5 26.63 27.5 25.5545V2.4455C27.5 1.37 26.6 0.5 25.499 0.5H25.5035H25.505Z" fill="white"/>
</svg>
