<svg width="20" height="20" viewBox="0 0 20 20" fill="none" xmlns="http://www.w3.org/2000/svg">
<path d="M17.3422 8.50967C17.2533 8.34716 17.1585 8.18794 17.059 8.03217L15.6738 8.81425C15.7746 8.96931 15.8694 9.12853 15.957 9.29175L17.3422 8.50967Z" fill="#151414"/>
<path d="M14.3847 5.41134C14.2258 5.31363 14.0631 5.22093 13.8969 5.13379L13.0957 6.49193C13.2627 6.57769 13.4251 6.67021 13.5835 6.76879L14.3847 5.41134Z" fill="#151414"/>
<path d="M10.24 5.74203V4.17392C10.1462 4.1708 10.0525 4.16699 9.95791 4.16699C9.86334 4.16699 9.76983 4.1708 9.67578 4.17392V5.74203C9.76947 5.73857 9.86334 5.73528 9.95791 5.73528C10.0525 5.73528 10.1464 5.73857 10.24 5.74203Z" fill="#151414"/>
<path d="M6.82219 6.49193L6.02096 5.13379C5.85483 5.22076 5.69261 5.31397 5.5332 5.41134L6.33407 6.76864C6.49241 6.67023 6.65517 6.57789 6.82219 6.49195V6.49193Z" fill="#151414"/>
<path d="M4.24398 8.81431L2.85919 8.03223C2.75965 8.18815 2.66508 8.34703 2.57617 8.50973L3.96097 9.29164C4.04881 9.1286 4.14321 8.96938 4.24398 8.81431Z" fill="#151414"/>
<path d="M18.3182 12.0823H15.5536C15.4057 9.18046 12.9611 6.87036 9.95827 6.87036C6.95546 6.87036 4.51077 9.18019 4.36297 12.0819H1.66602V12.6338H18.3327V12.0819L18.3183 12.082L18.3182 12.0823Z" fill="#151414"/>
<path d="M4.44531 13.3817H15.5566V13.9336H4.44531V13.3817Z" fill="#151414"/>
<path d="M7.2207 14.6817H12.7766V15.2337H7.2207V14.6817Z" fill="#151414"/>
</svg>
