<svg width="20" height="20" viewBox="0 0 20 20" fill="none" xmlns="http://www.w3.org/2000/svg">
<g clip-path="url(#clip0_4995_43322)">
<path d="M12.672 15.5438V13.9712H11.338V11.2761H4.22243C4.07492 10.7271 4.00045 10.1606 4.00098 9.5917C4.00098 6.51929 6.14406 3.95221 9.00349 3.33301C8.62034 4.37239 8.56392 5.50587 8.84194 6.57883C9.11995 7.65179 9.71885 8.61201 10.5569 9.3285C11.3951 10.045 12.4316 10.4829 13.5251 10.5824C14.6186 10.682 15.7159 10.4384 16.6673 9.8848C16.6114 11.1166 16.2047 12.3059 15.496 13.3099C14.7872 14.3139 13.8067 15.0898 12.672 15.5445V15.5438ZM6.66899 15.3188H11.338V16.6663H6.66899V15.3188ZM3.33398 12.6237H10.004V13.9712H3.33398V12.6237Z" fill="#151414"/>
</g>
<defs>
<clipPath id="clip0_4995_43322">
<rect width="20" height="20" fill="white"/>
</clipPath>
</defs>
</svg>
