<svg width="21" height="20" viewBox="0 0 21 20" fill="none" xmlns="http://www.w3.org/2000/svg">
<g clip-path="url(#clip0_33_5634)">
<path d="M7.16627 16.6666C7.03691 16.6677 6.91276 16.612 6.8223 16.5124C6.73195 16.4129 6.68295 16.278 6.68677 16.1388C6.69049 15.9996 6.74672 15.868 6.84249 15.7743C7.02468 15.5955 7.13991 15.3512 7.16625 15.0872C7.14828 14.8471 7.03561 14.6267 6.85672 14.482C6.46611 14.1495 6.23098 13.6488 6.21387 13.1129C6.23789 12.5614 6.46195 12.0422 6.8377 11.6667C6.96515 11.5565 7.13607 11.5244 7.29063 11.5815C7.44518 11.6388 7.56178 11.7774 7.59931 11.9486C7.63683 12.12 7.59027 12.3 7.4758 12.4256C7.29818 12.6084 7.18818 12.8544 7.16627 13.1179C7.18424 13.358 7.29691 13.5784 7.4758 13.7231C7.86641 14.0556 8.10154 14.5563 8.11865 15.0922C8.09463 15.6437 7.87057 16.1629 7.49482 16.5384C7.40436 16.6245 7.28691 16.6703 7.16627 16.6666L7.16627 16.6666Z" fill="#151414"/>
<path d="M10.5003 16.6668C10.3709 16.6679 10.2467 16.6122 10.1563 16.5127C10.0659 16.4131 10.0169 16.2782 10.0208 16.139C10.0245 15.9998 10.0807 15.8682 10.1765 15.7746C10.3587 15.5958 10.4739 15.3514 10.5002 15.0874C10.4823 14.8473 10.3696 14.6269 10.1907 14.4822C9.8001 14.1497 9.56497 13.649 9.54785 13.1131C9.57187 12.5616 9.79594 12.0424 10.1717 11.6669C10.2635 11.5661 10.39 11.5105 10.5211 11.5133C10.6522 11.5161 10.7766 11.5772 10.8646 11.6818C10.9526 11.7865 10.9966 11.9257 10.9863 12.0666C10.9759 12.2074 10.912 12.3374 10.8098 12.4258C10.6322 12.6086 10.5221 12.8546 10.5002 13.1181C10.5182 13.3583 10.6309 13.5786 10.8098 13.7233C11.2004 14.0558 11.4355 14.5565 11.4526 15.0924C11.4286 15.6439 11.2045 16.1632 10.8288 16.5386C10.7383 16.6247 10.6209 16.6705 10.5002 16.6668L10.5003 16.6668Z" fill="#151414"/>
<path d="M13.8333 16.6668C13.7039 16.6679 13.5798 16.6122 13.4893 16.5127C13.3989 16.4131 13.3499 16.2782 13.3538 16.139C13.3575 15.9998 13.4137 15.8682 13.5095 15.7746C13.6917 15.5958 13.8069 15.3514 13.8332 15.0874C13.8153 14.8473 13.7026 14.6269 13.5237 14.4822C13.1331 14.1497 12.898 13.649 12.8809 13.1131C12.9049 12.5616 13.1289 12.0424 13.5047 11.6669C13.5965 11.5661 13.723 11.5105 13.8541 11.5133C13.9852 11.5161 14.1096 11.5772 14.1976 11.6818C14.2856 11.7865 14.3296 11.9257 14.3193 12.0666C14.3089 12.2074 14.245 12.3374 14.1428 12.4258C13.9652 12.6086 13.8552 12.8546 13.8333 13.1181C13.8512 13.3583 13.9639 13.5786 14.1428 13.7233C14.5334 14.0558 14.7685 14.5565 14.7856 15.0924C14.7616 15.6439 14.5375 16.1632 14.1618 16.5386C14.0713 16.6247 13.9539 16.6705 13.8333 16.6668L13.8333 16.6668Z" fill="#151414"/>
<path d="M17.1663 7.94881V4.9745C17.1651 4.53963 17.0041 4.12308 16.7186 3.81563C16.4331 3.50817 16.0463 3.33487 15.6425 3.3335H5.35682C4.95301 3.33487 4.56621 3.50817 4.28071 3.81563C3.99521 4.12308 3.83429 4.53963 3.83301 4.9745V7.94881H17.1663ZM13.3568 5.38475H14.7854C14.9556 5.38475 15.1128 5.4825 15.1978 5.64115C15.2828 5.79981 15.2828 5.99532 15.1978 6.15397C15.1128 6.31262 14.9556 6.41037 14.7854 6.41037H13.3568C13.1866 6.41037 13.0294 6.31262 12.9444 6.15397C12.8594 5.99531 12.8594 5.7998 12.9444 5.64115C13.0294 5.4825 13.1866 5.38475 13.3568 5.38475ZM6.21396 5.38475H7.64253C7.81271 5.38475 7.96991 5.4825 8.05494 5.64115C8.13997 5.79981 8.13997 5.99532 8.05494 6.15397C7.96991 6.31262 7.8127 6.41037 7.64253 6.41037H6.21396C6.04379 6.41037 5.88659 6.31262 5.80155 6.15397C5.71652 5.99531 5.71652 5.7998 5.80155 5.64115C5.88659 5.4825 6.04379 5.38475 6.21396 5.38475Z" fill="#151414"/>
<path d="M3.83301 8.97461C3.85724 9.39183 4.02848 9.78333 4.31165 10.0692C4.5948 10.3551 4.96865 10.5138 5.35682 10.513H15.6425C16.0307 10.5138 16.4045 10.3551 16.6877 10.0692C16.9709 9.78331 17.1421 9.39183 17.1663 8.97461H3.83301Z" fill="#151414"/>
<rect x="1.57704" y="3.48213" width="22.3684" height="1.83333" transform="rotate(30.4336 1.57704 3.48213)" fill="#151414" stroke="#EDEDED"/>
</g>
<defs>
<clipPath id="clip0_33_5634">
<rect width="20" height="20" fill="white" transform="translate(0.5)"/>
</clipPath>
</defs>
</svg>
