<svg width="20" height="20" viewBox="0 0 20 20" fill="none" xmlns="http://www.w3.org/2000/svg">
<g clip-path="url(#clip0_4995_43319)">
<path d="M10.0007 13.636C9.03623 13.636 8.1113 13.2529 7.42935 12.571C6.7474 11.889 6.36429 10.9641 6.36429 9.99967C6.36429 9.03525 6.7474 8.11033 7.42935 7.42838C8.1113 6.74643 9.03623 6.36331 10.0007 6.36331C10.9651 6.36331 11.89 6.74643 12.5719 7.42838C13.2539 8.11033 13.637 9.03525 13.637 9.99967C13.637 10.9641 13.2539 11.889 12.5719 12.571C11.89 13.2529 10.9651 13.636 10.0007 13.636ZM9.39459 3.33301H10.6067V5.15119H9.39459V3.33301ZM9.39459 14.8482H10.6067V16.6663H9.39459V14.8482ZM4.85823 5.71422L5.7152 4.85725L7.00065 6.1427L6.14368 6.99967L4.85823 5.71483V5.71422ZM13.0007 13.8566L13.8576 12.9997L15.1431 14.2851L14.2861 15.1421L13.0007 13.8566ZM14.2861 4.85664L15.1431 5.71422L13.8576 6.99967L13.0007 6.1427L14.2861 4.85725V4.85664ZM6.14368 12.9997L7.00065 13.8566L5.7152 15.1421L4.85823 14.2851L6.14368 12.9997ZM16.6673 9.39361V10.6057H14.8491V9.39361H16.6673ZM5.15217 9.39361V10.6057H3.33398V9.39361H5.15217Z" fill="#151414"/>
</g>
<defs>
<clipPath id="clip0_4995_43319">
<rect width="20" height="20" fill="white"/>
</clipPath>
</defs>
</svg>
