<svg width="24" height="24" viewBox="0 0 24 24" fill="none" xmlns="http://www.w3.org/2000/svg">
<path d="M23.25 17.525V21.945C23.2501 22.2615 23.1302 22.5662 22.9145 22.7977C22.6987 23.0293 22.4032 23.1703 22.0875 23.1925C21.5413 23.23 21.095 23.25 20.75 23.25C9.70375 23.25 0.75 14.2963 0.75 3.25C0.75 2.905 0.76875 2.45875 0.8075 1.9125C0.829653 1.59681 0.970726 1.30126 1.20225 1.08551C1.43378 0.869759 1.73853 0.749857 2.055 0.75H6.475C6.63005 0.749843 6.77962 0.807324 6.89466 0.911276C7.0097 1.01523 7.082 1.15823 7.0975 1.3125C7.12625 1.6 7.1525 1.82875 7.1775 2.0025C7.42592 3.73615 7.935 5.42229 8.6875 7.00375C8.80625 7.25375 8.72875 7.5525 8.50375 7.7125L5.80625 9.64C7.45557 13.4831 10.5182 16.5457 14.3612 18.195L16.2863 15.5025C16.3649 15.3925 16.4797 15.3136 16.6106 15.2796C16.7415 15.2455 16.8802 15.2585 17.0025 15.3162C18.5838 16.0673 20.2695 16.5751 22.0025 16.8225C22.1763 16.8475 22.405 16.875 22.69 16.9025C22.844 16.9183 22.9867 16.9907 23.0904 17.1057C23.1941 17.2207 23.2514 17.3701 23.2512 17.525H23.25Z" fill="white"/>
</svg>
