<svg width="15" height="14" viewBox="0 0 15 14" fill="none" xmlns="http://www.w3.org/2000/svg">
<path d="M4.16732 10.3335H10.834V13.6668H4.16732V10.3335ZM12.1673 12.3335V9.00016H2.83398V12.3335H1.50065C1.32384 12.3335 1.15427 12.2633 1.02925 12.1382C0.904222 12.0132 0.833984 11.8436 0.833984 11.6668V5.00016C0.833984 4.82335 0.904222 4.65378 1.02925 4.52876C1.15427 4.40373 1.32384 4.3335 1.50065 4.3335H13.5007C13.6775 4.3335 13.847 4.40373 13.9721 4.52876C14.0971 4.65378 14.1673 4.82335 14.1673 5.00016V11.6668C14.1673 11.8436 14.0971 12.0132 13.9721 12.1382C13.847 12.2633 13.6775 12.3335 13.5007 12.3335H12.1673ZM2.83398 5.66683V7.00016H4.83398V5.66683H2.83398ZM4.16732 0.333496H10.834C11.0108 0.333496 11.1804 0.403734 11.3054 0.528758C11.4304 0.653782 11.5007 0.823352 11.5007 1.00016V3.00016H3.50065V1.00016C3.50065 0.823352 3.57089 0.653782 3.69591 0.528758C3.82094 0.403734 3.99051 0.333496 4.16732 0.333496Z" fill="#1E88E5"/>
</svg>
