<svg width="24" height="24" viewBox="0 0 24 24" fill="none" xmlns="http://www.w3.org/2000/svg">
<g id="Group">
<path id="Vector" d="M12 22.0001C6.477 22.0001 2 17.5231 2 12.0001C2 6.47712 6.477 2.00012 12 2.00012C17.523 2.00012 22 6.47712 22 12.0001C22 17.5231 17.523 22.0001 12 22.0001ZM12 20.0001C14.1217 20.0001 16.1566 19.1573 17.6569 17.657C19.1571 16.1567 20 14.1219 20 12.0001C20 9.87839 19.1571 7.84356 17.6569 6.34327C16.1566 4.84298 14.1217 4.00012 12 4.00012C9.87827 4.00012 7.84344 4.84298 6.34315 6.34327C4.84285 7.84356 4 9.87839 4 12.0001C4 14.1219 4.84285 16.1567 6.34315 17.657C7.84344 19.1573 9.87827 20.0001 12 20.0001Z" fill="#676769"/>
</g>
</svg>
