<svg width="16" height="16" viewBox="0 0 16 16" fill="none" xmlns="http://www.w3.org/2000/svg">
<g id="Promo">
<path id="Vector" d="M13.9737 8.14009L14.7097 6.86809C14.7982 6.71505 14.8222 6.53315 14.7766 6.36238C14.731 6.19161 14.6194 6.04595 14.4664 5.95743L13.193 5.22143V3.75476C13.193 3.57795 13.1228 3.40838 12.9978 3.28336C12.8728 3.15833 12.7032 3.08809 12.5264 3.08809H11.0604L10.325 1.81543C10.2362 1.6627 10.0909 1.5511 9.92037 1.50476C9.83581 1.48184 9.74755 1.47593 9.66069 1.48737C9.57383 1.49881 9.49011 1.52739 9.41437 1.57143L8.14104 2.30743L6.86771 1.57076C6.71459 1.48236 6.53262 1.4584 6.36184 1.50416C6.19106 1.54992 6.04545 1.66165 5.95704 1.81476L5.22104 3.08809H3.75504C3.57823 3.08809 3.40866 3.15833 3.28363 3.28336C3.15861 3.40838 3.08837 3.57795 3.08837 3.75476V5.22076L1.81504 5.95676C1.73906 6.00046 1.67247 6.05875 1.61908 6.12827C1.5657 6.19779 1.52658 6.27717 1.50397 6.36185C1.48135 6.44654 1.4757 6.53486 1.48732 6.62173C1.49895 6.70861 1.52762 6.79233 1.57171 6.86809L2.30771 8.14009L1.57171 9.41209C1.4837 9.56528 1.45982 9.74704 1.50528 9.91776C1.55074 10.0885 1.66184 10.2343 1.81437 10.3234L3.08771 11.0594V12.5254C3.08771 12.7022 3.15794 12.8718 3.28297 12.9968C3.40799 13.1219 3.57756 13.1921 3.75437 13.1921H5.22104L5.95704 14.4654C6.01606 14.5663 6.10033 14.6501 6.20156 14.7086C6.30279 14.767 6.41749 14.7981 6.53437 14.7988C6.65037 14.7988 6.76571 14.7681 6.86837 14.7088L8.14037 13.9728L9.41371 14.7088C9.56679 14.797 9.74863 14.821 9.91935 14.7754C10.0901 14.7298 10.2357 14.6183 10.3244 14.4654L11.0597 13.1921H12.5257C12.7025 13.1921 12.8721 13.1219 12.9971 12.9968C13.1221 12.8718 13.1924 12.7022 13.1924 12.5254V11.0594L14.4657 10.3234C14.5416 10.2796 14.608 10.2212 14.6613 10.1517C14.7146 10.0822 14.7536 10.0028 14.7762 9.91819C14.7988 9.83355 14.8045 9.74529 14.793 9.65845C14.7815 9.57161 14.7529 9.4879 14.709 9.41209L13.9737 8.14009ZM6.47371 4.80009C6.73901 4.80018 6.99341 4.90566 7.18095 5.09332C7.36849 5.28098 7.47379 5.53546 7.47371 5.80076C7.47362 6.06606 7.36814 6.32047 7.18048 6.508C6.99282 6.69554 6.73834 6.80085 6.47304 6.80076C6.20773 6.80067 5.95333 6.69519 5.76579 6.50753C5.57826 6.31987 5.47295 6.0654 5.47304 5.80009C5.47313 5.53479 5.5786 5.28039 5.76627 5.09285C5.95393 4.90531 6.2084 4.8 6.47371 4.80009ZM6.67371 11.2001L5.60704 10.4008L9.60704 5.06743L10.6737 5.86676L6.67371 11.2001ZM9.80704 11.4668C9.67567 11.4667 9.5456 11.4408 9.42425 11.3905C9.3029 11.3402 9.19265 11.2665 9.09979 11.1735C9.00694 11.0806 8.93329 10.9703 8.88306 10.8489C8.83283 10.7275 8.80699 10.5975 8.80704 10.4661C8.80708 10.3347 8.833 10.2047 8.88331 10.0833C8.93362 9.96196 9.00735 9.85171 9.10027 9.75885C9.19319 9.66599 9.30349 9.59234 9.42487 9.54211C9.54625 9.49188 9.67634 9.46605 9.80771 9.46609C10.073 9.46618 10.3274 9.57166 10.515 9.75932C10.7025 9.94698 10.8078 10.2015 10.8077 10.4668C10.8076 10.7321 10.7021 10.9865 10.5145 11.174C10.3268 11.3615 10.0723 11.4668 9.80704 11.4668Z" fill="white"/>
</g>
</svg>
