<svg width="14" height="14" viewBox="0 0 14 14" fill="none" xmlns="http://www.w3.org/2000/svg">
<path d="M11.3577 12.0448C10.148 13.0931 8.60035 13.6691 6.99967 13.6668C3.31767 13.6668 0.333008 10.6822 0.333008 7.00016C0.333008 3.31816 3.31767 0.333496 6.99967 0.333496C10.6817 0.333496 13.6663 3.31816 13.6663 7.00016C13.6663 8.42416 13.2197 9.74416 12.4597 10.8268L10.333 7.00016H12.333C12.3329 5.77097 11.9082 4.57954 11.1308 3.62742C10.3534 2.67531 9.27091 2.02096 8.06656 1.77507C6.86221 1.52918 5.6099 1.70684 4.52146 2.27801C3.43302 2.84917 2.57529 3.77877 2.09336 4.90955C1.61142 6.04033 1.53488 7.30287 1.87667 8.48359C2.21846 9.66431 2.9576 10.6907 3.96906 11.3892C4.98052 12.0877 6.2022 12.4153 7.42744 12.3168C8.65267 12.2182 9.80624 11.6994 10.693 10.8482L11.3577 12.0448Z" fill="#E0293B"/>
</svg>
