<svg width="20" height="20" viewBox="0 0 20 20" fill="none" xmlns="http://www.w3.org/2000/svg">
<g clip-path="url(#clip0_306_17827)">
<path d="M12.338 4.16667C12.338 5.69851 11.9825 7.09267 11.4023 8.13334C11.1567 7.94878 10.8769 7.81459 10.579 7.7385C10.2811 7.6624 9.97099 7.64592 9.66667 7.69C9.33918 6.54434 8.60234 5.31001 7.51696 4.22617C7.33269 4.04206 7.14111 3.86536 6.94269 3.69651C7.89539 3.23651 8.94039 2.99836 9.99883 3.00001C10.807 3.00001 11.5836 3.13651 12.3064 3.38734C12.3275 3.64284 12.338 3.90301 12.338 4.16667ZM12.338 10C12.338 10.0852 12.3333 10.1703 12.324 10.2532C13.5146 10.231 14.8971 9.84134 16.2199 9.0795C16.4477 8.94809 16.6701 8.80759 16.8865 8.65834C16.5304 6.83973 15.4664 5.23596 13.9275 4.19817C13.8801 4.44903 13.8235 4.69809 13.7579 4.94484C13.3602 6.42534 12.6538 7.68184 11.8211 8.537C12.145 8.93717 12.338 9.447 12.338 10ZM12.1778 10.8493C12.0649 11.1366 11.8963 11.3988 11.6815 11.6208C11.4667 11.8429 11.2101 12.0204 10.9263 12.1432C11.5404 13.1582 12.5696 14.1557 13.8912 14.9163C14.1251 15.0517 14.3614 15.1753 14.5988 15.2862C15.296 14.6839 15.8671 13.9501 16.2792 13.1271C16.6912 12.304 16.9362 11.4078 17 10.49C16.7567 10.5752 16.5076 10.6533 16.2503 10.7222C14.7719 11.1177 13.3345 11.1375 12.1778 10.8505V10.8493ZM9.99883 12.3333C9.47251 12.3333 8.98597 12.1595 8.59532 11.8667C8.01754 12.905 7.66433 14.2957 7.66433 15.8228C7.66433 16.0912 7.67602 16.356 7.69591 16.6138C8.43648 16.8702 9.21494 17.0007 9.99883 17C11.0982 17 12.1392 16.748 13.0667 16.2977C12.8658 16.1274 12.6718 15.9492 12.4854 15.7633C11.4035 14.683 10.6667 13.4522 10.338 12.31C10.2281 12.3252 10.1146 12.3333 9.99883 12.3333ZM7.65965 10C7.65965 9.90667 7.6655 9.81334 7.67602 9.72117C6.48304 9.741 5.09708 10.1307 3.76959 10.896C3.54261 11.0267 3.32099 11.1664 3.10526 11.3148C3.27855 12.2183 3.62854 13.0788 4.13526 13.8473C4.64198 14.6157 5.29549 15.2771 6.05848 15.7937C6.10597 15.5375 6.16372 15.2834 6.23158 15.0318C6.62924 13.5537 7.33099 12.2995 8.1614 11.4443C7.83534 11.0333 7.65848 10.5242 7.65965 10ZM3.74503 9.26267C5.2269 8.866 6.66667 8.8485 7.82456 9.13784C8.0538 8.5615 8.50643 8.0995 9.07602 7.8545C8.46316 6.83484 7.43158 5.83267 6.10409 5.06851C5.87749 4.93795 5.64572 4.81652 5.40936 4.70451C4.71136 5.30543 4.13922 6.03794 3.72575 6.85999C3.31229 7.68205 3.06566 8.57746 3 9.49484C3.24094 9.4085 3.48889 9.3315 3.74503 9.26267ZM9.99883 11.1667C10.309 11.1667 10.6065 11.0438 10.8259 10.825C11.0452 10.6062 11.1684 10.3094 11.1684 10C11.1684 9.69058 11.0452 9.39384 10.8259 9.17505C10.6065 8.95625 10.309 8.83334 9.99883 8.83334C9.68864 8.83334 9.39115 8.95625 9.1718 9.17505C8.95246 9.39384 8.82924 9.69058 8.82924 10C8.82924 10.3094 8.95246 10.6062 9.1718 10.825C9.39115 11.0438 9.68864 11.1667 9.99883 11.1667Z" fill="#8D8D8F"/>
<path d="M10 18.75C7.67936 18.75 5.45376 17.8281 3.81282 16.1872C2.17187 14.5462 1.25 12.3206 1.25 10C1.25 7.67936 2.17187 5.45376 3.81282 3.81282C5.45376 2.17187 7.67936 1.25 10 1.25C12.3206 1.25 14.5462 2.17187 16.1872 3.81282C17.8281 5.45376 18.75 7.67936 18.75 10C18.75 12.3206 17.8281 14.5462 16.1872 16.1872C14.5462 17.8281 12.3206 18.75 10 18.75ZM10 20C12.6522 20 15.1957 18.9464 17.0711 17.0711C18.9464 15.1957 20 12.6522 20 10C20 7.34784 18.9464 4.8043 17.0711 2.92893C15.1957 1.05357 12.6522 0 10 0C7.34784 0 4.8043 1.05357 2.92893 2.92893C1.05357 4.8043 0 7.34784 0 10C0 12.6522 1.05357 15.1957 2.92893 17.0711C4.8043 18.9464 7.34784 20 10 20Z" fill="#8D8D8F"/>
</g>
<defs>
<clipPath id="clip0_306_17827">
<rect width="20" height="20" fill="white"/>
</clipPath>
</defs>
</svg>
