<svg width="21" height="20" viewBox="0 0 21 20" fill="none" xmlns="http://www.w3.org/2000/svg">
<path d="M14.9184 9.44004V9.24808C14.9184 8.96013 14.6784 8.72008 14.3904 8.72008H8.3904L7.84643 5.45608V5.39213V3.15218C7.84643 2.91223 7.65446 2.72015 7.4144 2.72015H6.50234C6.26239 2.72015 6.07031 2.91212 6.07031 3.15218L6.07042 5.52004V5.60006L7.4144 13.5521C7.44643 13.7601 7.62243 13.9041 7.84642 13.9041H14.1344C14.3264 13.9041 14.5024 13.7601 14.5504 13.568L14.9184 12.0319C14.9823 11.76 14.7744 11.5039 14.5024 11.5039H9.2224C9.01436 11.5039 8.83837 11.36 8.79037 11.1519L8.5984 9.96792H14.3904C14.6785 9.96803 14.9185 9.72808 14.9185 9.44001L14.9184 9.44004ZM13.9583 17.28H8.08634C7.7984 17.28 7.57428 17.056 7.57428 16.768V16.5601C7.57428 16.2721 7.79828 16.048 8.08634 16.048H13.9743C14.2623 16.048 14.4864 16.272 14.4864 16.5601V16.752C14.4704 17.0561 14.2464 17.28 13.9584 17.28L13.9583 17.28Z" fill="#151414"/>
</svg>
