<svg width="48" height="48" viewBox="0 0 48 48" fill="none" xmlns="http://www.w3.org/2000/svg">
<path d="M40.9742 22.79H7.02534L9.65501 8.04297H38.3435L38.6705 9.87365L40.9742 22.79Z" fill="#CCCCCC"/>
<path d="M40.6403 20.914L24.0003 15.4926L10.893 19.763L10.7143 19.8213L12.4869 9.87402H38.6708L40.6403 20.914Z" fill="#E6E6E6"/>
<path d="M0.242432 42.5518H47.7576V47.7574H0.242432V42.5518Z" fill="#5FAAEC"/>
<path d="M44.0281 23.7866L40.9949 43.6062L12.8977 43.4804L6.9808 43.4539L3.97195 23.7866L10.8927 21.5321L24 17.2617L44.0281 23.7866Z" fill="#3F9AE9"/>
<path d="M24 43.4804L6.9808 43.4539L3.97195 23.7866L24 17.2617V43.4804Z" fill="#1E88E5"/>
<path d="M44.0281 23.7866L43.4995 27.2406L24 20.8872L11.2146 25.0532L4.50013 27.2406L3.97195 23.7866L10.8927 21.5321L24 17.2617L44.0281 23.7866Z" fill="#F04935"/>
<path d="M29.3282 8.04344H18.6721L19.1445 1.15644C20.2632 0.720341 21.4268 0.439031 22.6032 0.316865C23.0676 0.266476 23.5341 0.242188 24.0007 0.242188C25.6472 0.242188 27.2945 0.547785 28.8558 1.15644L29.3282 8.04344Z" fill="#E6E6E6"/>
<path d="M24 20.8872L4.50013 27.2406L3.97195 23.7866L24 17.2617V20.8872Z" fill="#EE3420"/>
<path d="M22.6032 0.316406L22.3132 8.04298H18.6721L19.1445 1.15598C20.2632 0.719882 21.4268 0.438573 22.6032 0.316406Z" fill="#CCCCCC"/>
<path d="M47.7576 43.5144C43.7979 43.5144 43.7979 45.4538 39.8382 45.4538C35.8781 45.4538 35.8781 43.5144 31.9184 43.5144C27.959 43.5144 27.959 45.4538 23.9993 45.4538C20.0399 45.4538 20.0399 43.5144 16.0806 43.5144C12.1209 43.5144 12.1209 45.4538 8.1615 45.4538C4.20215 45.4538 4.20215 43.5144 0.242432 43.5144V39.3223C4.20215 39.3223 4.20215 41.2617 8.1615 41.2617C12.1209 41.2617 12.1209 39.3223 16.0806 39.3223C20.0399 39.3223 20.0399 41.2617 23.9993 41.2617C27.959 41.2617 27.959 39.3223 31.9184 39.3223C35.8781 39.3223 35.8781 41.2617 39.8382 41.2617C43.7979 41.2617 43.7979 39.3223 47.7576 39.3223" fill="#8FC4F2"/>
<path d="M29.055 4.08228C27.4161 3.52473 25.7075 3.24741 23.999 3.24741C23.4948 3.24741 22.9916 3.27134 22.4892 3.321C21.2889 3.43555 20.0988 3.68859 18.9442 4.08119L18.9431 4.08228L19.1428 1.15644H19.1439C20.2626 0.720341 21.4263 0.439031 22.6026 0.316865C23.067 0.266476 23.5325 0.242188 23.999 0.242188C25.6466 0.242188 27.2939 0.547785 28.8552 1.15644L29.055 4.08228Z" fill="#F04935"/>
<path d="M22.6026 0.316406L22.4892 3.32054C21.2889 3.4351 20.0988 3.68813 18.9442 4.08073L18.9431 4.08182L19.1428 1.15598H19.1439C20.2626 0.719882 21.4263 0.438573 22.6026 0.316406Z" fill="#EE3420"/>
<path d="M36.0972 14.628L35.5234 11.4121H12.476L11.9025 14.628H36.0972Z" fill="#2F91E7"/>
<path d="M16.2259 10.6104L17.672 10.7702L17.1572 15.4318L15.7115 15.2723L16.2259 10.6104Z" fill="#E6E6E6"/>
<path d="M31.773 10.6104L32.2874 15.2719L30.8417 15.4314L30.3273 10.7699L31.773 10.6104Z" fill="#E6E6E6"/>
<path d="M23.2732 10.6846H24.7276V15.3548H23.2732V10.6846Z" fill="#E6E6E6"/>
<path d="M20.2701 28.4936C20.2701 26.9232 19.4001 25.6504 18.3271 25.6504C17.254 25.6504 16.3844 26.9232 16.3844 28.4936C16.3844 30.0636 17.254 31.3368 18.3271 31.3368C19.4001 31.3368 20.2701 30.0636 20.2701 28.4936Z" fill="#156CB7"/>
<path d="M31.6161 28.4936C31.6161 26.9232 30.7465 25.6504 29.6734 25.6504C28.6004 25.6504 27.7304 26.9232 27.7304 28.4936C27.7304 30.0636 28.6004 31.3368 29.6734 31.3368C30.7465 31.3368 31.6161 30.0636 31.6161 28.4936Z" fill="#156CB7"/>
<path d="M38.9265 8.77117H9.07369C8.67203 8.77117 8.34613 8.44527 8.34613 8.04361C8.34613 7.64194 8.67203 7.31641 9.07369 7.31641H38.9265C39.3282 7.31641 39.6537 7.64194 39.6537 8.04361C39.6537 8.44527 39.3282 8.77117 38.9265 8.77117Z" fill="#F04935"/>
</svg>
