<svg width="26" height="26" viewBox="0 0 26 26" fill="none" xmlns="http://www.w3.org/2000/svg">
<path d="M13 25.5C6.09625 25.5 0.5 19.9037 0.5 13C0.5 6.09625 6.09625 0.5 13 0.5C19.9037 0.5 25.5 6.09625 25.5 13C25.5 19.9037 19.9037 25.5 13 25.5ZM13 23C15.6522 23 18.1957 21.9464 20.0711 20.0711C21.9464 18.1957 23 15.6522 23 13C23 10.3478 21.9464 7.8043 20.0711 5.92893C18.1957 4.05357 15.6522 3 13 3C10.3478 3 7.8043 4.05357 5.92893 5.92893C4.05357 7.8043 3 10.3478 3 13C3 15.6522 4.05357 18.1957 5.92893 20.0711C7.8043 21.9464 10.3478 23 13 23ZM11.75 16.75H14.25V19.25H11.75V16.75ZM14.25 14.6937V15.5H11.75V13.625C11.75 13.2935 11.8817 12.9755 12.1161 12.7411C12.3505 12.5067 12.6685 12.375 13 12.375C13.3551 12.375 13.7029 12.2741 14.0029 12.0842C14.3029 11.8942 14.5428 11.623 14.6947 11.302C14.8466 10.981 14.9042 10.6235 14.8609 10.2711C14.8175 9.91861 14.6749 9.58573 14.4498 9.31114C14.2246 9.03655 13.9261 8.83154 13.589 8.71996C13.2519 8.60839 12.89 8.59483 12.5455 8.68088C12.201 8.76693 11.888 8.94904 11.643 9.20602C11.3979 9.463 11.2308 9.78429 11.1613 10.1325L8.70875 9.64125C8.86079 8.88136 9.21189 8.17546 9.72615 7.59573C10.2404 7.016 10.8994 6.58323 11.6357 6.34165C12.3721 6.10007 13.1594 6.05836 13.9171 6.22077C14.6748 6.38318 15.3759 6.74389 15.9485 7.26603C16.5212 7.78817 16.9449 8.45301 17.1764 9.19258C17.4079 9.93215 17.4388 10.7199 17.2661 11.4754C17.0933 12.2308 16.7231 12.9269 16.1932 13.4923C15.6632 14.0578 14.9927 14.4724 14.25 14.6937Z" fill="white"/>
</svg>
