<svg width="16" height="19" viewBox="0 0 16 19" fill="none" xmlns="http://www.w3.org/2000/svg">
<path d="M13.3033 13.4703L8 18.7736L2.69667 13.4703C1.64779 12.4214 0.933489 11.085 0.644107 9.63013C0.354725 8.17528 0.503256 6.66729 1.07092 5.29684C1.63858 3.9264 2.59987 2.75507 3.83324 1.93096C5.0666 1.10686 6.51665 0.666992 8 0.666992C9.48336 0.666992 10.9334 1.10686 12.1668 1.93096C13.4001 2.75507 14.3614 3.9264 14.9291 5.29684C15.4968 6.66729 15.6453 8.17528 15.3559 9.63013C15.0665 11.085 14.3522 12.4214 13.3033 13.4703ZM8 11.5003C8.88406 11.5003 9.7319 11.1491 10.357 10.5239C10.9821 9.89883 11.3333 9.05098 11.3333 8.16693C11.3333 7.28287 10.9821 6.43503 10.357 5.8099C9.7319 5.18478 8.88406 4.83359 8 4.83359C7.11595 4.83359 6.2681 5.18478 5.64298 5.8099C5.01786 6.43503 4.66667 7.28287 4.66667 8.16693C4.66667 9.05098 5.01786 9.89883 5.64298 10.5239C6.2681 11.1491 7.11595 11.5003 8 11.5003ZM8 9.83359C7.55798 9.83359 7.13405 9.658 6.82149 9.34544C6.50893 9.03288 6.33334 8.60895 6.33334 8.16693C6.33334 7.7249 6.50893 7.30098 6.82149 6.98842C7.13405 6.67586 7.55798 6.50026 8 6.50026C8.44203 6.50026 8.86595 6.67586 9.17851 6.98842C9.49107 7.30098 9.66667 7.7249 9.66667 8.16693C9.66667 8.60895 9.49107 9.03288 9.17851 9.34544C8.86595 9.658 8.44203 9.83359 8 9.83359Z" fill="#8D8D8F"/>
</svg>
