<svg width="20" height="20" viewBox="0 0 20 20" fill="none" xmlns="http://www.w3.org/2000/svg">
<g id="Group">
<path id="Vector" d="M10 16.6967L14.125 12.5717C14.9407 11.7559 15.4963 10.7165 15.7213 9.58494C15.9463 8.4534 15.8308 7.28054 15.3892 6.21468C14.9477 5.14881 14.2 4.2378 13.2408 3.59685C12.2815 2.9559 11.1537 2.6138 10 2.6138C8.8463 2.6138 7.71851 2.9559 6.75924 3.59685C5.79996 4.2378 5.05229 5.14881 4.61076 6.21468C4.16923 7.28054 4.05368 8.4534 4.27871 9.58494C4.50374 10.7165 5.05925 11.7559 5.875 12.5717L10 16.6967ZM10 19.0534L4.69667 13.75C3.64778 12.7011 2.93349 11.3648 2.6441 9.90992C2.35472 8.45507 2.50325 6.94707 3.07091 5.57663C3.63857 4.20619 4.59987 3.03486 5.83323 2.21075C7.0666 1.38664 8.51664 0.946777 10 0.946777C11.4834 0.946777 12.9334 1.38664 14.1668 2.21075C15.4001 3.03486 16.3614 4.20619 16.9291 5.57663C17.4967 6.94707 17.6453 8.45507 17.3559 9.90992C17.0665 11.3648 16.3522 12.7011 15.3033 13.75L10 19.0534ZM10 10.1134C10.442 10.1134 10.866 9.93778 11.1785 9.62522C11.4911 9.31266 11.6667 8.88874 11.6667 8.44671C11.6667 8.00468 11.4911 7.58076 11.1785 7.2682C10.866 6.95564 10.442 6.78005 10 6.78005C9.55797 6.78005 9.13405 6.95564 8.82149 7.2682C8.50893 7.58076 8.33333 8.00468 8.33333 8.44671C8.33333 8.88874 8.50893 9.31266 8.82149 9.62522C9.13405 9.93778 9.55797 10.1134 10 10.1134ZM10 11.78C9.11595 11.78 8.2681 11.4289 7.64298 10.8037C7.01786 10.1786 6.66667 9.33077 6.66667 8.44671C6.66667 7.56266 7.01786 6.71481 7.64298 6.08969C8.2681 5.46457 9.11595 5.11338 10 5.11338C10.8841 5.11338 11.7319 5.46457 12.357 6.08969C12.9821 6.71481 13.3333 7.56266 13.3333 8.44671C13.3333 9.33077 12.9821 10.1786 12.357 10.8037C11.7319 11.4289 10.8841 11.78 10 11.78Z" fill="#676769"/>
</g>
</svg>
