<svg width="80" height="80" viewBox="0 0 80 80" fill="none" xmlns="http://www.w3.org/2000/svg">
<rect width="80" height="80" rx="20" fill="#FBE0E3"/>
<g clip-path="url(#clip0_56_9135)">
<path fill-rule="evenodd" clip-rule="evenodd" d="M57.7957 24.037C57.4519 23.6932 56.9856 23.5 56.4994 23.5H23.4993C23.0131 23.5 22.5468 23.6932 22.203 24.037C21.8592 24.3808 21.666 24.8471 21.666 25.3333V35.4167C22.8816 35.4167 24.0474 35.8996 24.9069 36.7591C25.7665 37.6186 26.2493 38.7844 26.2493 40C26.2493 41.2156 25.7665 42.3814 24.9069 43.2409C24.0474 44.1004 22.8816 44.5833 21.666 44.5833V54.6667C21.666 55.1529 21.8592 55.6192 22.203 55.963C22.5468 56.3068 23.0131 56.5 23.4993 56.5H56.4994C56.9856 56.5 57.4519 56.3068 57.7957 55.963C58.1395 55.6192 58.3327 55.1529 58.3327 54.6667V44.5833C57.1171 44.5833 55.9513 44.1004 55.0918 43.2409C54.2322 42.3814 53.7494 41.2156 53.7494 40C53.7494 38.7844 54.2322 37.6186 55.0918 36.7591C55.9513 35.8996 57.1171 35.4167 58.3327 35.4167V25.3333C58.3327 24.8471 58.1395 24.3808 57.7957 24.037ZM41.8327 49.1663H38.166V45.8699H41.8327V49.1663ZM41.8327 44.1709H38.166V30.833H41.8327V44.1709Z" fill="#E0293B"/>
</g>
<defs>
<clipPath id="clip0_56_9135">
<rect width="44" height="44" fill="white" transform="translate(18 18)"/>
</clipPath>
</defs>
</svg>
