<svg width="17" height="18" viewBox="0 0 17 18" fill="none" xmlns="http://www.w3.org/2000/svg">
<g id="Group">
<path id="Vector" d="M8.5 16.0834C4.58787 16.0834 1.41666 12.9122 1.41666 9.00006C1.41666 5.08794 4.58787 1.91673 8.5 1.91673C12.4121 1.91673 15.5833 5.08794 15.5833 9.00006C15.5833 12.9122 12.4121 16.0834 8.5 16.0834ZM8.5 14.6667C10.0029 14.6667 11.4442 14.0697 12.5069 13.007C13.5696 11.9443 14.1667 10.503 14.1667 9.00006C14.1667 7.49717 13.5696 6.05583 12.5069 4.99312C11.4442 3.93042 10.0029 3.3334 8.5 3.3334C6.9971 3.3334 5.55577 3.93042 4.49306 4.99312C3.43035 6.05583 2.83333 7.49717 2.83333 9.00006C2.83333 10.503 3.43035 11.9443 4.49306 13.007C5.55577 14.0697 6.9971 14.6667 8.5 14.6667Z" fill="#151414"/>
</g>
</svg>
