<svg width="36" height="36" viewBox="0 0 36 36" fill="none" xmlns="http://www.w3.org/2000/svg">
<g clip-path="url(#clip0_1589_48250)">
<path d="M18 3C9.7155 3 3 9.7155 3 18C3 25.4865 8.4855 31.692 15.657 32.8185V22.335H11.847V18H15.657V14.6955C15.657 10.9365 17.895 8.8605 21.3225 8.8605C22.9635 8.8605 24.6795 9.153 24.6795 9.153V12.843H22.7895C20.925 12.843 20.3445 13.9995 20.3445 15.186V18H24.504L23.8395 22.335H20.3445V32.8185C27.5145 31.6935 33 25.485 33 18C33 9.7155 26.2845 3 18 3Z" fill="white"/>
</g>
<defs>
<clipPath id="clip0_1589_48250">
<rect width="36" height="36" fill="white"/>
</clipPath>
</defs>
</svg>
