<svg width="89" height="44" viewBox="0 0 89 44" fill="none" xmlns="http://www.w3.org/2000/svg">
<path d="M41.5124 34.6191C40.7374 35.5593 39.7785 36.3267 38.6959 36.8731C37.6563 37.3836 36.5145 37.6449 35.359 37.6365C33.3485 37.6365 31.6993 36.8706 30.4115 35.3389C29.1237 33.8072 28.4793 31.8189 28.4785 29.374C28.4785 26.3105 29.3509 23.7668 31.0956 21.7428C32.8404 19.7188 35.0186 18.7072 37.6304 18.708C38.7618 18.6889 39.8805 18.951 40.8885 19.4714C41.8483 19.9811 42.7149 20.7677 43.4884 21.8312L43.8871 19.2696H49.7451L47.5992 32.9803C47.4246 34.0968 46.8621 35.1135 46.0129 35.8476C45.1637 36.5818 44.0835 36.9852 42.9667 36.9852H41.2195L41.5124 34.6191ZM34.6983 28.7575C34.6983 29.8916 35.0391 30.8048 35.7208 31.4972C36.4024 32.1896 37.3047 32.5345 38.4277 32.532C39.6524 32.532 40.672 32.0497 41.4865 31.085C42.3011 30.1203 42.7083 28.9128 42.7083 27.4624C42.7083 26.3632 42.3675 25.4716 41.6858 24.7875C41.0042 24.1035 40.1146 23.761 39.0171 23.7602C38.4303 23.7479 37.8482 23.869 37.3138 24.1145C36.7793 24.3599 36.306 24.7235 35.9287 25.1786C35.1084 26.1266 34.6983 27.3196 34.6983 28.7575Z" fill="white"/>
<path d="M63.7363 36.9852L66.5085 19.2672H72.4366L72.0011 22.2908C72.5441 21.1692 73.2721 20.3153 74.1851 19.7292C75.098 19.1431 76.1611 18.8525 77.3743 18.8575C77.519 18.8585 77.6636 18.8672 77.8074 18.8836C77.9698 18.9011 78.2233 18.9397 78.5703 18.9982L77.3399 24.5584C76.9355 24.4655 76.5713 24.3953 76.2472 24.348C75.9375 24.3027 75.6251 24.2794 75.3121 24.2783C74.1211 24.2783 73.1819 24.6556 72.4945 25.4102C71.8071 26.1649 71.3362 27.3313 71.0819 28.9095L70.3929 33.3751C70.2373 34.3847 69.73 35.3046 68.9628 35.9687C68.1956 36.6328 67.219 36.9974 66.2095 36.9964L63.7363 36.9852Z" fill="white"/>
<path d="M78.8301 36.9856L81.5862 19.2676H87.8085L85.6724 32.9148C85.4946 34.0497 84.9226 35.0832 84.0592 35.8294C83.1959 36.5756 82.0978 36.9856 80.9624 36.9856H78.8301Z" fill="white"/>
<path d="M82.0531 13.9887C82.0544 13.105 82.4019 12.258 83.0194 11.6333C83.6368 11.0086 84.4739 10.6572 85.347 10.6562C86.305 10.6563 87.1024 10.9717 87.7389 11.6027C88.0521 11.9121 88.2985 12.2839 88.4626 12.6946C88.6267 13.1052 88.705 13.5459 88.6925 13.9887C88.6966 14.4345 88.6128 14.8766 88.4462 15.2893C88.2795 15.702 88.0332 16.0769 87.7217 16.3922C87.4103 16.7074 87.0398 16.9567 86.6321 17.1253C86.2243 17.294 85.7874 17.3788 85.347 17.3746C84.9113 17.3811 84.4791 17.2959 84.0777 17.1244C83.6764 16.9529 83.3146 16.6988 83.0153 16.3784C82.7043 16.0661 82.4588 15.6934 82.2935 15.2828C82.1281 14.8722 82.0464 14.432 82.0531 13.9887Z" fill="white"/>
<path d="M61.408 18.1914H55.2645L55.1009 19.2661H52.1897L51.4785 23.7927H54.3909L52.3275 36.9842H54.7428C55.7843 36.9842 56.7915 36.6079 57.583 35.9229C58.3746 35.238 58.8985 34.2895 59.0604 33.2483L60.5258 23.794H63.6634L64.3745 19.2673H61.237L61.408 18.1914Z" fill="white"/>
<path d="M62.0507 14.127H55.8801L55.2637 18.1916H61.4059L62.0507 14.127Z" fill="white"/>
<path d="M13.5161 4.09252C13.5093 3.57049 13.6076 3.05254 13.8049 2.57019C14.0023 2.08784 14.2946 1.65121 14.664 1.28687C15.0233 0.908171 15.4559 0.608542 15.9348 0.406703C16.4137 0.204864 16.9286 0.105152 17.4473 0.113799C18.5916 0.113799 19.5431 0.490708 20.3018 1.24453C21.0606 1.99835 21.44 2.94768 21.44 4.09252C21.45 4.62469 21.3523 5.15331 21.153 5.64586C20.9537 6.13842 20.6569 6.58451 20.2809 6.95669C19.9132 7.3372 19.4724 7.63756 18.9857 7.83929C18.4991 8.04103 17.9768 8.13988 17.4509 8.12976C16.9314 8.13803 16.4159 8.03717 15.9368 7.83354C15.4578 7.62992 15.0256 7.32796 14.6677 6.94673C14.2958 6.57398 14.002 6.12903 13.8041 5.63857C13.6062 5.14811 13.5082 4.62224 13.5161 4.09252Z" fill="white"/>
<path d="M3.52863 25.5796C3.04754 25.6481 2.65011 25.7041 2.2896 25.9021C1.94011 26.0645 1.64027 26.3191 1.4216 26.6392C1.20292 26.9594 1.07348 27.3332 1.04688 27.7215L2.48524 38.822L2.83098 41.6252C2.844 41.8057 2.87744 41.9841 2.93065 42.1569C2.97422 42.2959 3.03764 42.4276 3.1189 42.548C3.28181 42.7906 3.50679 42.9838 3.7698 43.1071C4.04863 43.2358 4.35244 43.2996 4.65886 43.2938C4.96527 43.288 5.2665 43.2127 5.54037 43.0735C5.791 42.9528 6.00395 42.7647 6.15589 42.5296C6.30782 42.2946 6.39285 42.0217 6.40166 41.741L5.2303 30.6678L5.10726 29.4761L6.29216 29.3516L13.1235 28.6156L14.8325 28.4425C15.3107 28.4019 15.7826 28.3053 16.2389 28.1548C17.0596 27.861 17.5001 27.3815 17.8101 26.4762C18.0919 25.6331 18.2248 24.3679 18.4561 23.2583L19.059 19.8338L20.266 12.9847L20.5687 11.2998C20.6547 10.8477 20.6584 10.3834 20.5798 9.92996C20.5566 9.76397 20.4978 9.60514 20.4075 9.46465C20.3171 9.32415 20.1975 9.20541 20.0569 9.11678C19.7665 8.93372 19.31 8.84406 18.8265 8.83285C16.7999 8.80172 14.6701 9.65724 13.3302 11.2998C12.6425 12.121 12.1456 13.0878 11.8758 14.1291C11.7513 14.6897 11.6596 15.2573 11.6014 15.8289L11.3676 17.5873L10.435 24.419C8.60781 24.8448 6.75726 25.0727 4.91778 25.3691L3.52863 25.5796Z" fill="white"/>
<path d="M29.2699 9.84766H23.3922L22.7425 13.9995L22.6945 14.3033L22.259 17.0019C21.7188 20.3642 21.1602 23.8361 20.5745 27.2531C20.2054 29.4137 18.6059 30.9131 16.3911 31.1683C15.2407 31.3016 13.7961 31.4635 8.66406 31.6104L10.0434 37.5604C14.153 37.5405 16.2828 37.1507 16.7922 37.0735C22.024 36.279 25.3818 33.3464 26.2468 28.816C26.985 24.9693 27.5818 21.0441 28.1724 17.18C28.3692 15.8907 28.5682 14.6009 28.7691 13.3108C28.779 13.2523 28.7753 13.1975 28.7814 13.1402L29.2699 9.84766Z" fill="white"/>
</svg>
