<svg width="24" height="20" viewBox="0 0 24 20" fill="none" xmlns="http://www.w3.org/2000/svg">
<path d="M6.41699 9.28571H6.41702L6.41697 9.28081C6.39954 7.50425 5.21814 5.9697 3.54199 5.46577V2.85714C3.54199 1.55826 4.60237 0.5 5.91699 0.5H17.417C18.7316 0.5 19.792 1.55826 19.792 2.85714V5.46577C18.1158 5.9697 16.9344 7.50425 16.917 9.28081H16.917V9.28571V12.3571H6.41699V9.28571Z" fill="white" stroke="#8D8D8F"/>
<path d="M18.8545 14.7859H19.3545V14.2859V9.29246C19.3795 8.39698 20.1035 7.67153 21.0107 7.64326C21.918 7.67153 22.642 8.39698 22.667 9.29246V19.5002H20.292H17.417H5.91699H3.04199H0.666992V9.29246C0.692003 8.39697 1.41596 7.67153 2.32324 7.64326C3.23052 7.67153 3.95448 8.39697 3.97949 9.29246V14.2859V14.7859H4.47949H18.8545Z" fill="white" stroke="#8D8D8F"/>
</svg>
