<svg width="23" height="20" viewBox="0 0 23 20" fill="none" xmlns="http://www.w3.org/2000/svg">
<path d="M6.25 9.28571H6.25002L6.24998 9.28081C6.23255 7.50425 5.05115 5.9697 3.375 5.46577V2.85714C3.375 1.55826 4.43538 0.5 5.75 0.5H17.25C18.5646 0.5 19.625 1.55826 19.625 2.85714V5.46577C17.9489 5.9697 16.7675 7.50425 16.75 9.28081H16.75V9.28571V12.3571H6.25V9.28571Z" fill="#DBDBDB" stroke="#DBDBDB"/>
<path d="M18.6875 14.7859H19.1875V14.2859V9.29246C19.2125 8.39698 19.9365 7.67153 20.8438 7.64326C21.751 7.67153 22.475 8.39698 22.5 9.29246V19.5002H20.125H17.25H5.75H2.875H0.5V9.29246C0.525011 8.39697 1.24897 7.67153 2.15625 7.64326C3.06353 7.67153 3.78749 8.39697 3.8125 9.29246V14.2859V14.7859H4.3125H18.6875Z" fill="#DBDBDB" stroke="#DBDBDB"/>
</svg>
