<svg width="30" height="30" viewBox="0 0 30 30" fill="none" xmlns="http://www.w3.org/2000/svg">
<path d="M11.5 15.3C11.5 17.2333 13.0667 18.8 15 18.8C16.9333 18.8 18.5 17.2333 18.5 15.3C18.5 13.3667 16.9333 11.8 15 11.8C13.0667 11.8 11.5 13.3667 11.5 15.3ZM27.1667 17.8667C27.1333 17.2333 26.1333 16.3667 24.4 16.7667C23.1333 17.0667 21.4 18.1333 19.6333 19.9C18.3333 21.2 17.1667 23.1667 17.1667 26.2667C17.2 29.9667 27.3333 22.9333 27.1667 17.8667ZM2.8 12.5333C2.73333 13.1333 3.96667 13.0667 4.73333 12.9667C7.13333 12.5333 11.1667 10.4667 15.2 10.4667C18.0333 10.4667 21.0667 11.8 23.1 12.4C23.8 12.6 24.8 12.9667 26.2333 13.0333C26.7667 13.0667 27.3 12.9333 27.2667 12.4667C27.0667 9.16667 22.8 2.6 15 2.6C9.06667 2.6 3.26667 7.56667 2.8 12.5333ZM2.9 17.8667C2.73333 22.9333 12.9 29.9667 12.9 26.2667C12.9 23.1667 11.7333 21.2 10.4333 19.9C8.66667 18.1667 6.96667 17.0667 5.66667 16.8C3.93333 16.4 2.93333 17.2333 2.9 17.8667ZM0 15C0 6.7 6.7 0 15 0C23.3 0 30 6.7 30 15C30 23.3 23.3 30 15 30C6.7 30 0 23.3 0 15ZM12.5667 15.3C12.5667 13.9667 13.6667 12.8667 15 12.8667C16.3333 12.8667 17.4333 13.9667 17.4333 15.3C17.4333 16.6333 16.3333 17.7333 15 17.7333C13.6667 17.7333 12.5667 16.6667 12.5667 15.3Z" fill="#8D8D8F"/>
<path d="M11.5 15.3C11.5 17.2333 13.0667 18.8 15 18.8C16.9333 18.8 18.5 17.2333 18.5 15.3C18.5 13.3667 16.9333 11.8 15 11.8C13.0667 11.8 11.5 13.3667 11.5 15.3ZM27.1667 17.8667C27.1333 17.2333 26.1333 16.3667 24.4 16.7667C23.1333 17.0667 21.4 18.1333 19.6333 19.9C18.3333 21.2 17.1667 23.1667 17.1667 26.2667C17.2 29.9667 27.3333 22.9333 27.1667 17.8667ZM2.8 12.5333C2.73333 13.1333 3.96667 13.0667 4.73333 12.9667C7.13333 12.5333 11.1667 10.4667 15.2 10.4667C18.0333 10.4667 21.0667 11.8 23.1 12.4C23.8 12.6 24.8 12.9667 26.2333 13.0333C26.7667 13.0667 27.3 12.9333 27.2667 12.4667C27.0667 9.16667 22.8 2.6 15 2.6C9.06667 2.6 3.26667 7.56667 2.8 12.5333ZM2.9 17.8667C2.73333 22.9333 12.9 29.9667 12.9 26.2667C12.9 23.1667 11.7333 21.2 10.4333 19.9C8.66667 18.1667 6.96667 17.0667 5.66667 16.8C3.93333 16.4 2.93333 17.2333 2.9 17.8667ZM0 15C0 6.7 6.7 0 15 0C23.3 0 30 6.7 30 15C30 23.3 23.3 30 15 30C6.7 30 0 23.3 0 15ZM12.5667 15.3C12.5667 13.9667 13.6667 12.8667 15 12.8667C16.3333 12.8667 17.4333 13.9667 17.4333 15.3C17.4333 16.6333 16.3333 17.7333 15 17.7333C13.6667 17.7333 12.5667 16.6667 12.5667 15.3Z" fill="#8D8D8F"/>
</svg>
