<?xml version="1.0" encoding="utf-8"?>
<!-- Generator: Adobe Illustrator 23.0.5, SVG Export Plug-In . SVG Version: 6.00 Build 0)  -->
<svg version="1.1" id="Layer_1" xmlns="http://www.w3.org/2000/svg" xmlns:xlink="http://www.w3.org/1999/xlink" x="0px" y="0px"
	 viewBox="0 0 427.76 559.33" style="enable-background:new 0 0 427.76 559.33;" xml:space="preserve">
<style type="text/css">
	.st0{fill:#EF4935;}
</style>
<g>
	<path class="st0" d="M193.66,65.36c0-13.25,4.71-24.64,14.14-34.15s20.86-14.27,34.28-14.27c14.1,0,25.83,4.59,35.17,13.76
		c9.34,9.17,14.02,20.73,14.02,34.66c0,13.76-4.76,25.4-14.27,34.92s-21.15,14.27-34.92,14.27c-13.42,0-24.85-4.8-34.28-14.4
		S193.66,78.96,193.66,65.36z"/>
	<path class="st0" d="M70.64,326.82c-5.92,0.84-10.82,1.59-15.26,3.92c-9.01,4.29-14.88,13-15.3,22.14l17.72,135.09l4.32,34.11
		c0.43,3.25,0.59,4.74,1.24,6.48c0.53,1.73,1.34,3.3,2.31,4.76c1.95,2.91,4.71,5.26,8.02,6.8c6.43,3.23,15.2,2.97,21.8-0.4
		c6.51-3.42,10.48-9.37,10.58-16.21L91.59,388.74l-1.56-14.5l14.59-1.55l84.13-8.96l21.05-2.1c6.49-0.68,12.24-1.71,17.32-3.5
		c10.11-3.58,15.55-9.42,19.36-20.43c3.46-10.27,5.1-25.67,7.96-39.17l7.43-41.67l14.86-83.36l3.74-20.5
		c0.98-6.05,1.18-12,0.14-16.68c-1.02-4.81-3-7.61-6.48-9.85c-3.57-2.23-9.2-3.31-15.19-3.45c-24.96-0.39-51.19,10.04-67.69,30.02
		c-8.42,9.78-14.47,21.66-17.91,34.43c-1.58,6.19-2.47,13.46-3.39,20.68l-2.87,21.4l-11.5,83.14c-22.5,5.19-45.29,7.96-67.95,11.56
		L70.64,326.82z"/>
	<path class="st0" d="M387.69,135.38h-72.4c0,0-27.48,170.24-34.71,211.81c-4.56,26.29-24.3,44.55-51.51,47.65
		c-14.18,1.62-31.97,3.59-95.18,5.37l16.99,72.4c50.61-0.24,76.84-4.97,83.13-5.92c64.44-9.67,105.8-45.36,116.44-100.5
		C359.5,319.4,387.69,135.38,387.69,135.38z"/>
</g>
</svg>
