<svg width="54" height="54" viewBox="0 0 54 54" fill="none" xmlns="http://www.w3.org/2000/svg">
<path d="M46.5083 22.0309C46.5083 25.7771 45.3974 29.4391 43.3163 32.554C41.2351 35.6688 38.277 38.0966 34.8161 39.5304C31.3551 40.9641 27.5468 41.3394 23.8725 40.6088C20.1983 39.8782 16.8232 38.0746 14.1741 35.4259C11.5249 32.7772 9.72063 29.4024 8.98938 25.7283C8.25813 22.0542 8.63276 18.2458 10.0659 14.7846C11.499 11.3234 13.9263 8.36493 17.0408 6.28319C20.1553 4.20145 23.8171 3.08998 27.5633 3.08931C30.051 3.08887 32.5145 3.57848 34.8129 4.53019C37.1114 5.48189 39.1999 6.87705 40.9592 8.63599C42.7184 10.3949 44.114 12.4832 45.0661 14.7815C46.0182 17.0798 46.5083 19.5432 46.5083 22.0309Z" fill="#009640"/>
<path d="M40.1625 22.0309C40.1622 24.5208 39.4238 26.9546 38.0406 29.0249C36.6573 31.0951 34.6913 32.7088 32.3911 33.6618C30.0909 34.6149 27.5598 34.8646 25.1177 34.3794C22.6756 33.8942 20.4322 32.6958 18.6711 30.9358C16.9099 29.1757 15.7102 26.9331 15.2234 24.4913C14.7367 22.0495 14.9848 19.5182 15.9364 17.2174C16.8881 14.9166 18.5005 12.9496 20.5699 11.5651C22.6392 10.1805 25.0726 9.44059 27.5625 9.43881C29.2167 9.43793 30.8549 9.76297 32.3835 10.3954C33.9121 11.0278 35.3011 11.9551 36.4712 13.1245C37.6413 14.2939 38.5695 15.6823 39.2029 17.2105C39.8363 18.7387 40.1623 20.3767 40.1625 22.0309Z" fill="#E30613"/>
<path d="M24.4024 13.3932C24.3648 13.4069 24.3315 13.4304 24.306 13.4612C24.2805 13.4921 24.2637 13.5292 24.2573 13.5687C24.2204 13.6774 24.2017 13.7914 24.2022 13.9062C24.2022 13.931 24.2022 14.0345 23.9851 14.1065C23.9464 14.1019 23.9085 14.0921 23.8726 14.0772C23.789 14.072 23.7052 14.072 23.6217 14.0772C23.5879 14.0772 23.4653 14.0435 23.2482 13.7802C23.1451 13.7174 23.054 13.6366 22.9793 13.5417C22.9793 13.472 22.9962 13.4348 22.9118 13.4292C22.9039 13.3662 22.8927 12.968 22.7307 12.8161C22.6768 12.8047 22.6208 12.8082 22.5687 12.8262L22.5496 12.779C22.4746 12.7741 22.3995 12.7741 22.3246 12.779C22.2244 12.932 22.3797 13.1401 21.9578 13.301C21.9094 13.2503 21.5584 12.9173 21.4831 12.851C21.4615 12.8549 21.4394 12.8549 21.4178 12.851V12.7036C21.4178 12.7036 21.2243 12.4448 21.0972 12.4212C21.0049 12.4212 20.9239 12.4111 20.8868 12.3166C20.7248 12.3065 20.4188 12.3065 20.4188 12.3065C20.3832 12.4059 20.3724 12.5124 20.3873 12.617C20.4334 12.6732 20.4436 12.7058 20.6123 12.7025C20.6521 12.7233 20.6858 12.754 20.7102 12.7916C20.7347 12.8292 20.749 12.8725 20.7518 12.9173C20.8002 12.9545 20.8767 13.022 20.7664 13.0782C20.6843 13.1457 20.6618 13.1682 20.5628 13.1648C20.5324 13.1547 20.4379 13.2166 20.4571 13.3493C20.4098 13.3493 20.3536 13.4033 20.3344 13.4877C20.3074 13.497 20.2831 13.5127 20.2635 13.5335C20.2439 13.5543 20.2297 13.5795 20.2219 13.607C20.1533 13.6243 20.0891 13.656 20.0335 13.6998C19.9779 13.7436 19.9321 13.7986 19.8991 13.8612C19.8805 13.9469 19.8674 14.0337 19.8597 14.1211C19.8435 14.1436 19.8321 14.1692 19.8259 14.1962C19.8197 14.2233 19.819 14.2513 19.8237 14.2786C19.8293 14.3236 19.8462 14.3641 19.7866 14.3596C19.7472 14.3596 19.7697 14.3686 19.7596 14.3697C19.7494 14.3708 19.7236 14.3697 19.7157 14.3798C19.7078 14.39 19.7089 14.4158 19.6999 14.4215C19.6901 14.4373 19.6832 14.4549 19.6797 14.4732C19.6797 14.4968 19.6797 14.9705 19.6797 14.9705C19.7105 15.0022 19.7388 15.0365 19.7641 15.0728C19.7753 15.0965 19.7753 15.173 19.9609 15.1696C20.0282 15.1688 20.0942 15.1876 20.1511 15.2236H20.3086C20.3176 15.2606 20.324 15.2982 20.3277 15.3361C20.3277 15.3653 20.3828 15.3878 20.3907 15.4081C20.3986 15.4283 20.4436 15.5082 20.4717 15.5082H20.5707L20.5763 15.5566C20.5763 15.5566 20.6764 15.5566 20.6888 15.5678C20.7012 15.5791 20.7732 15.6331 20.7799 15.6477C20.7892 15.6656 20.7974 15.684 20.8047 15.7028C20.832 15.7474 20.8684 15.7858 20.9116 15.8153C20.9487 15.8356 20.9791 15.839 20.9959 15.8558C21.0144 15.8755 21.0313 15.8966 21.0466 15.9188C21.0466 15.9312 21.1084 15.9796 21.1129 15.9897C21.1432 16.0028 21.1744 16.0137 21.2063 16.0223C21.2187 16.0302 21.2637 16.0415 21.2761 16.0493C21.3137 16.068 21.3546 16.0794 21.3964 16.0831C21.4347 16.0831 21.5989 16.0921 21.6271 16.0831C21.6946 16.0448 21.7114 16.0167 21.7317 16.0167C21.7519 16.0167 21.8847 16.0167 21.9061 16.0167C21.919 16.0216 21.9308 16.029 21.9408 16.0384C21.9509 16.0479 21.9589 16.0592 21.9646 16.0718C21.9646 16.0842 22.1029 16.1506 22.0996 16.1978C22.0962 16.2451 22.0996 16.4228 22.1423 16.4476C22.1628 16.4626 22.1868 16.4719 22.2121 16.4746C22.2121 16.4746 22.2649 16.6827 22.2222 16.7288C22.2231 16.7982 22.1997 16.8657 22.1562 16.9197C22.1127 16.9737 22.0517 17.0108 21.9837 17.0247C21.9589 17.0382 21.9736 17.0967 21.9736 17.0967L21.9196 17.1091C21.9196 17.1091 21.9589 17.0146 21.7969 17.0292H21.3627L21.3447 17.0776L21.1624 17.0855L20.8981 17.1091C20.8981 17.1091 20.8452 17.1091 20.8452 17.2013C20.8474 17.3206 20.8368 17.4398 20.8137 17.5568C20.7672 17.6044 20.7319 17.6616 20.7102 17.7245C20.6978 17.7548 20.6506 17.8775 20.5977 17.8898C20.5456 17.9238 20.4906 17.9532 20.4334 17.9776C20.4121 17.9776 20.3749 17.9708 20.3727 17.963C20.3704 17.9551 20.1083 17.963 20.0858 17.9911C20.0448 18.0663 20.0094 18.1446 19.9801 18.2251C19.9655 18.2815 19.9382 18.3339 19.9002 18.3781C19.8471 18.4151 19.8095 18.4704 19.7944 18.5333C19.7821 18.566 19.7517 18.575 19.7539 18.6132C19.7562 18.6515 19.6988 18.7088 19.6853 18.7257C19.6791 18.8276 19.6791 18.9298 19.6853 19.0317C19.6853 19.0486 19.7191 19.0317 19.7191 19.0486C19.7184 19.1134 19.726 19.178 19.7416 19.241C19.7885 19.2997 19.8392 19.3554 19.8934 19.4075C19.9471 19.4681 20.0164 19.5129 20.0937 19.5368C20.1096 19.5751 20.1334 19.6096 20.1634 19.6381C20.1854 19.6553 20.2061 19.6741 20.2253 19.6943C20.2422 19.7033 20.3817 19.7641 20.3929 19.7731C20.4042 19.7821 20.4751 19.8991 20.4964 19.9036C20.5671 19.9373 20.6434 19.9575 20.7214 19.9632C20.8248 19.9708 20.9286 19.9708 21.0319 19.9632C21.0364 19.9584 21.0422 19.9549 21.0486 19.9533C21.055 19.9517 21.0617 19.952 21.0679 19.9542C21.0848 19.9542 21.0792 19.9542 21.0949 19.97C21.1107 19.9857 21.1287 20.0183 21.1456 20.0262C21.1624 20.0341 21.1917 20.0892 21.2468 20.0768C21.295 20.0738 21.3433 20.0764 21.3908 20.0847C21.4099 20.0847 21.4032 20.141 21.4156 20.141C21.4279 20.141 21.6271 20.132 21.6406 20.141C21.7474 20.1712 21.8464 20.2242 21.9308 20.2962C21.9445 20.3783 21.949 20.4617 21.9443 20.5448C21.9443 20.5775 21.9443 20.5572 21.9342 20.6033C21.9241 20.6495 21.9443 20.6416 21.9196 20.6731C21.8948 20.7046 21.9196 20.6888 21.8892 20.7327C21.8734 20.8231 21.8734 20.9156 21.8892 21.0061C21.9022 21.0644 21.9075 21.1242 21.9049 21.1838C21.9051 21.2404 21.9002 21.2969 21.8903 21.3526C21.8791 21.3526 21.8509 21.3323 21.8183 21.4088C21.8093 21.4302 21.6833 21.482 21.6563 21.5112C21.6293 21.5405 21.5742 21.5753 21.5596 21.6102C21.5517 21.698 21.5596 21.7767 21.5382 21.8071C21.4898 21.8802 21.4669 21.9672 21.4729 22.0546C21.4619 22.1148 21.4547 22.1757 21.4516 22.2368C21.4516 22.3156 21.4808 22.3145 21.4752 22.3741C21.4712 22.3899 21.4713 22.4066 21.4757 22.4224C21.48 22.4381 21.4884 22.4525 21.4999 22.4641C21.5123 22.4776 21.5461 22.5485 21.5596 22.5687C21.5998 22.6016 21.6455 22.6271 21.6946 22.6441C21.746 22.6647 21.7948 22.6915 21.8397 22.724C21.8566 22.742 21.8824 22.7341 21.8892 22.7667C21.8959 22.7993 21.9646 22.8353 21.9882 22.8308C22.0231 22.8736 22.0062 22.8691 22.0366 22.9028C22.0669 22.9366 22.1018 22.9366 22.0714 23.0457C22.0448 23.0916 22.0155 23.136 21.9837 23.1785C21.9646 23.1942 21.9691 23.2426 21.9634 23.2505C21.9578 23.2583 21.9218 23.2392 21.9106 23.264C21.8981 23.2829 21.8921 23.3054 21.8937 23.3281C21.8964 23.3626 21.8926 23.3973 21.8824 23.4305C21.8679 23.5132 21.8722 23.5982 21.8948 23.6791C21.9275 23.7048 21.9662 23.7219 22.0073 23.7286C22.0231 23.7286 22.0838 23.7117 22.1018 23.7286C22.1198 23.7455 22.1491 23.7353 22.1659 23.759C22.1828 23.7826 22.1952 23.8512 22.2379 23.8478C22.2807 23.8445 22.4629 23.8568 22.5012 23.8568C22.5394 23.8568 22.5226 23.9063 22.5844 23.9063C22.6463 23.9063 22.6891 23.894 22.6452 23.9401C22.597 23.9761 22.5603 24.0254 22.5394 24.0818C22.5365 24.1229 22.5212 24.1621 22.4956 24.1943C22.4705 24.2292 22.4497 24.267 22.4337 24.3068C22.4168 24.3473 22.4022 24.4025 22.3898 24.4407C22.3662 24.5281 22.3758 24.6211 22.4168 24.7017C22.4787 24.8255 22.4956 24.7827 22.5226 24.866C22.5496 24.9492 22.7656 24.9785 22.6722 25.2867C22.6598 25.3193 22.6497 25.7592 22.6283 25.937C22.6069 26.1147 22.7048 26.1755 22.7408 26.315C22.8016 26.3577 22.7948 26.2913 22.7948 26.4668C22.783 26.599 22.7959 26.7321 22.8331 26.8595C22.8747 27.016 22.9574 27.1586 23.0727 27.2723C23.0884 27.4782 23.1199 27.62 23.1199 27.683C23.1111 27.7373 23.1054 27.7922 23.1031 27.8472C23.1031 27.9698 23.1436 28.0722 23.1199 28.0846C23.0963 28.097 22.9996 28.079 22.9996 28.2736C22.9996 28.4682 22.9771 28.5492 23.0108 28.6111C23.0334 28.6483 23.0594 28.6833 23.0884 28.7157C23.1031 28.7382 23.0614 28.8597 23.1031 28.8923C23.1447 28.925 23.1773 28.9103 23.1987 28.9587C23.2201 29.0071 23.2212 29.0397 23.2527 29.0712C23.2842 29.1027 23.2932 29.1488 23.3933 29.1713C23.4362 29.189 23.4832 29.1943 23.529 29.1865C23.5747 29.1788 23.6174 29.1583 23.6521 29.1275C23.7408 29.0971 23.833 29.0782 23.9266 29.0712C23.9682 29.0712 24.2494 28.9385 24.3822 28.9092C24.0514 26.7087 24.6072 27.0271 24.6072 27.0271C24.6072 27.0271 24.8569 26.8336 25.2293 28.6358C25.2287 28.5662 25.2517 28.4984 25.2946 28.4435C25.356 28.3972 25.4139 28.3465 25.4678 28.2916C25.5016 28.2095 25.1089 26.4106 25.1303 26.3588C25.1663 26.2745 25.2991 26.0641 25.5162 26.7908C25.5443 26.8808 25.8368 28.0171 25.8694 28.0283C25.922 28.0523 25.9721 28.0814 26.0191 28.115C26.0594 28.1313 26.1027 28.1389 26.1462 28.1375C26.208 28.1765 26.2722 28.2115 26.3386 28.2421C26.4057 28.2835 26.4857 28.2991 26.5636 28.286C26.6896 28.2713 26.6896 28.3051 26.7616 28.2421C26.8336 28.1791 26.9922 28.1375 27.0327 28.0947C27.0732 28.052 27.3128 28.061 27.3702 28.0497C27.4493 28.0139 27.5318 27.9864 27.6166 27.9676C27.737 27.9435 27.8436 27.8742 27.9147 27.7741C27.9271 27.7235 27.9147 27.7235 27.9439 27.6841C28.0801 27.6297 28.2096 27.5599 28.3298 27.476C28.3568 27.449 28.4738 27.3432 28.5222 27.287C28.6066 27.233 28.7472 27.2498 28.8203 26.6705C28.8013 26.405 28.7975 26.1387 28.8091 25.8728C28.8091 25.8076 28.6831 25.4993 28.5931 25.4723C28.5031 25.4453 28.4896 25.4228 28.4738 25.3598C28.4581 25.2968 28.3512 25.2878 28.3366 25.2203C28.3219 25.1528 28.2522 25.0493 28.2657 25.0212C28.2792 24.9931 28.4468 25.0043 28.5458 25.1427C28.5627 25.172 28.6583 25.2316 28.6729 25.3137C28.6729 25.3565 28.7562 25.4048 28.7506 25.4026C28.7776 25.4093 28.8631 25.3958 28.8957 25.4375C28.9047 25.55 29.0014 25.7007 29.0881 25.6883C29.2163 25.6692 29.2163 25.6782 29.2163 25.6782C29.2163 25.6782 29.2861 25.649 29.4919 25.7468C29.6978 25.8447 29.8081 25.7086 29.9419 25.6692C30.0758 25.6298 30.1219 25.5488 30.1298 25.4701C30.1416 25.4103 30.1657 25.3535 30.2007 25.3036C30.2219 25.2123 30.2377 25.1199 30.2479 25.0268L30.2704 24.9492L30.4651 24.9582L30.5551 25.01L30.7204 25.2451H30.8386L30.8689 25.4105L30.9364 25.5488H31.0658C31.0658 25.5488 31.0231 25.6186 31.0658 25.6613C31.1086 25.7041 31.2784 25.9347 31.2784 25.9347C31.2784 25.9347 31.3043 26.1462 31.3358 26.1496C31.3674 26.2339 31.3915 26.3209 31.4078 26.4095C31.4247 26.4477 31.5608 26.5028 31.5507 26.6502C31.5507 26.6896 31.5169 26.7413 31.6249 26.7818C31.6519 26.7706 31.6441 26.7256 31.6992 26.7818C31.7543 26.8381 31.6992 26.8943 31.7329 26.9281C31.7792 26.9716 31.8149 27.0251 31.8376 27.0845C31.8713 27.1666 31.9051 27.2723 31.9444 27.3511C31.9838 27.4298 31.9163 27.8123 32.1042 28.1678C32.1616 28.2578 32.4237 28.4401 32.2268 28.8507C32.2437 29.0285 32.2156 29.5145 32.2943 29.5415C32.3731 29.5685 32.3281 29.5415 32.3618 29.5471C32.3956 29.5527 32.3449 29.5808 32.3888 29.6348C32.4145 29.6673 32.4386 29.7011 32.4608 29.7361C32.4608 29.7361 32.5092 29.8036 32.5474 29.8148C32.5857 29.8261 32.5891 29.8148 32.5936 29.8306C32.5936 29.8778 32.5688 29.9341 32.5936 29.969C32.6183 30.0038 32.6577 30.041 32.6577 30.041V30.0758L32.6431 30.1793C32.6462 30.225 32.6609 30.2692 32.6858 30.3076C32.7173 30.3413 32.7173 30.3503 32.7173 30.3503C32.7125 30.4282 32.7198 30.5064 32.7387 30.5821C32.8413 30.7131 32.9542 30.8357 33.0762 30.9488C33.1021 30.9747 33.1021 31.0287 33.1077 31.0411C33.1133 31.0535 33.1516 31.0321 33.1831 31.0535C33.2112 31.0698 33.2323 31.0958 33.2427 31.1266C33.2427 31.157 33.2764 31.1693 33.3226 31.2447C33.3687 31.3201 33.3541 31.3808 33.3968 31.3876C33.4396 31.3943 33.5093 31.3988 33.5026 31.4258C33.5206 31.5563 33.5883 31.6748 33.6916 31.7566C33.7366 31.7712 33.7467 31.8443 33.7726 31.9107C33.7839 31.9479 33.7994 31.9838 33.8187 32.0176C33.8434 32.0693 33.8356 32.0727 33.8513 32.0986C33.8671 32.1245 33.9222 32.1503 33.9413 32.1638C33.9604 32.1773 34.0234 32.1638 34.0336 32.1717C34.0437 32.1796 34.0538 32.1773 34.0459 32.138C34.0381 32.0986 34.0459 32.1065 34.0122 32.066C33.9807 32.0062 33.9569 31.9427 33.9413 31.877C33.9267 31.8185 33.8761 31.7082 33.8603 31.652C33.8446 31.5957 33.7636 31.3943 33.7478 31.3493C33.7321 31.3043 33.6916 31.3066 33.6859 31.2627C33.6803 31.2188 33.7084 31.1558 33.6724 31.1255C33.599 31.062 33.5431 30.9806 33.5104 30.8892C33.4857 30.7947 33.4576 30.8307 33.4576 30.7497C33.4699 30.6598 33.4542 30.5683 33.4126 30.4876C33.3732 30.4527 33.3979 30.428 33.3811 30.3841C33.3616 30.3432 33.3458 30.3006 33.3338 30.257C33.3192 30.2063 33.3091 30.23 33.3169 30.1928C33.3249 30.1725 33.328 30.1505 33.3259 30.1287C33.3286 30.0785 33.3286 30.0282 33.3259 29.978C33.3259 29.9543 33.3259 29.9678 33.3124 29.9003C33.3061 29.8734 33.3031 29.8459 33.3034 29.8182C33.3034 29.78 33.2899 29.6652 33.3034 29.6618C33.3169 29.6585 33.4508 29.6618 33.4621 29.6618C33.4733 29.6618 33.4621 29.6675 33.4812 29.6438C33.5042 29.6139 33.5231 29.5809 33.5374 29.546C33.5498 29.5145 33.5982 29.4965 33.6072 29.4852C33.635 29.4615 33.6682 29.4449 33.7039 29.4368C33.7332 29.4368 33.7298 29.42 33.7883 29.4368C33.8149 29.4444 33.8397 29.4574 33.861 29.475C33.8823 29.4926 33.8997 29.5145 33.9121 29.5392C33.9298 29.5794 33.9525 29.6171 33.9796 29.6517C33.9919 29.6765 34.0392 29.6517 34.0561 29.6641C34.0729 29.6765 34.0673 29.6798 34.0831 29.6956L34.1202 29.7226C34.1327 29.7278 34.1461 29.7305 34.1596 29.7305C34.1843 29.7305 34.1989 29.7383 34.2293 29.7395C34.2597 29.7406 34.2946 29.7912 34.3024 29.8205C34.3103 29.8497 34.3227 29.87 34.3733 29.8936C34.4239 29.9172 34.4307 29.9847 34.4431 30.0117C34.4554 30.0387 34.4813 30.0241 34.4959 30.0398C34.5143 30.0493 34.5349 30.054 34.5556 30.0533C34.5556 30.0533 34.5747 30.0601 34.5803 30.0533C34.5859 30.0466 34.5972 30.0533 34.6231 30.0218C34.6489 29.9903 34.6231 30.0128 34.6343 29.9847C34.6456 29.9566 34.6399 29.3311 34.6399 29.3311C34.634 29.2423 34.6205 29.1543 34.5994 29.0678C34.5946 29.0661 34.5902 29.0633 34.5866 29.0597C34.5829 29.056 34.5802 29.0515 34.5786 29.0467C34.577 29.0418 34.5765 29.0366 34.5772 29.0315C34.5779 29.0264 34.5797 29.0215 34.5826 29.0172C34.5949 28.9902 34.5972 29.0116 34.5972 28.9576C34.6027 28.9074 34.597 28.8567 34.5803 28.8091C34.5578 28.7731 34.5533 28.8091 34.5387 28.7551C34.5241 28.7011 34.5094 28.7438 34.5094 28.6662C34.5069 28.622 34.5069 28.5777 34.5094 28.5335C34.5094 28.5177 34.5229 28.5132 34.5364 28.4952C34.5487 28.4235 34.5532 28.3507 34.5499 28.2781C34.5499 28.2286 34.5634 28.0992 34.5173 28.0531C34.4712 28.007 34.5173 27.989 34.5173 27.9406C34.5173 27.8922 34.5173 27.8078 34.5173 27.7223C34.5171 27.6847 34.5141 27.6471 34.5083 27.6098C34.5048 27.5646 34.4942 27.5202 34.4768 27.4782C34.4667 27.467 34.4768 27.1351 34.4599 27.0755C34.4431 27.0158 34.4453 26.882 34.4397 26.8201C34.3879 26.7965 34.4791 26.6603 34.3204 26.3116C34.2868 26.2554 34.2686 26.1914 34.2676 26.126C34.2676 26.0933 34.2496 25.676 34.2439 25.6186C34.2383 25.5612 34.2192 25.478 34.2079 25.3362C34.1652 25.2878 34.2079 25.1573 34.1517 25.1011C34.0954 25.0448 34.0617 24.8862 33.9379 24.7321C33.9323 24.6882 33.8963 24.4936 33.8828 24.4295C33.8693 24.3653 33.8772 24.3507 33.8513 24.317C33.7928 24.28 33.7315 24.2476 33.6679 24.2202C33.6488 24.2045 33.6409 24.1561 33.6196 24.1392C33.6058 24.1312 33.5947 24.1195 33.5875 24.1053C33.5803 24.0911 33.5774 24.0751 33.5791 24.0593C33.5791 24.0053 33.5689 24.029 33.5689 23.9536C33.5689 23.8782 33.5397 23.7128 33.5352 23.6667C33.5307 23.6206 33.5014 23.4777 33.4969 23.4305C33.4924 23.3832 33.5059 23.3933 33.4868 23.3427C33.4796 23.3201 33.4777 23.2961 33.4815 23.2727C33.4852 23.2492 33.4943 23.227 33.5082 23.2077C33.5514 23.0364 33.5464 22.8565 33.4936 22.688C33.4426 22.6084 33.3961 22.5262 33.3541 22.4416C33.3428 22.3887 33.3451 22.3471 33.3372 22.3291C33.2985 22.249 33.251 22.1735 33.1954 22.1041C33.1916 22.0286 33.1826 21.9534 33.1684 21.8791C33.1572 21.8465 33.1448 21.8915 33.1347 21.8285C33.1246 21.7655 33.1628 21.8285 33.1257 21.7441C33.1063 21.6951 33.0837 21.6473 33.0582 21.6012C32.9861 21.5405 32.9028 21.4947 32.8129 21.4662C32.7499 21.4662 32.5486 21.4471 32.5002 21.5101C32.4518 21.5731 32.4372 21.6327 32.4034 21.6226C32.3552 21.6064 32.3079 21.5876 32.2617 21.5663C32.2133 21.5528 31.8961 21.5078 31.9163 21.6788C31.9137 21.7721 31.922 21.8654 31.9411 21.9567C31.9534 21.9916 31.9411 22.1581 31.9591 22.211C31.9771 22.2638 32.0277 22.2402 31.9838 22.3235C31.9399 22.4067 31.8961 22.3966 31.8826 22.4652C31.8639 22.5351 31.8247 22.5978 31.7701 22.6452C31.7419 22.6666 31.6508 22.6666 31.6171 22.706C31.5833 22.7453 31.5226 22.8027 31.4933 22.8376C31.4641 22.8725 31.3561 22.9703 31.4123 23.3112C31.4348 23.3348 31.4596 23.408 31.4978 23.4361C31.5464 23.5311 31.5633 23.6391 31.5462 23.7443C31.5147 23.8019 31.477 23.8559 31.4337 23.9052C31.3921 23.9547 31.2559 24.047 31.2289 24.0773C31.2019 24.1077 31.1468 24.0661 31.1468 24.0661C31.1468 24.0661 31.0399 24.0267 31.0062 24.0188C30.9724 24.011 30.9724 24.0087 30.9319 23.9491C30.8914 23.8895 30.7564 23.4991 30.7452 23.4665C30.7339 23.4338 30.7081 23.5295 30.7081 23.4001C30.7081 23.2707 30.7272 23.2876 30.6259 23.2505C30.5247 23.2133 30.5224 23.1886 30.4066 23.1537C30.2907 23.1188 30.2941 23.1335 30.2536 23.0963C30.1608 23.0031 30.0632 22.9148 29.9611 22.832C29.8924 22.7881 30.0004 22.6565 29.8407 22.4945C29.817 22.4053 29.7648 22.3263 29.6922 22.2695C29.6584 22.1142 29.5797 21.9668 29.5943 21.932C29.6089 21.8971 29.6528 21.6878 29.7068 21.6507C29.7628 21.6026 29.7995 21.5359 29.8103 21.4628C29.8306 21.3796 29.8103 21.3661 29.8441 21.2288C29.8641 21.1169 29.9202 21.0145 30.0038 20.9375C30.1903 20.7931 30.3659 20.6351 30.5292 20.465C30.635 20.4154 30.7459 20.3777 30.8599 20.3525C30.9499 20.3345 30.9432 20.3131 30.9724 20.267C31.0939 20.267 30.9972 20.267 31.1344 20.2163C31.2717 20.1657 31.3099 20.1578 31.3347 20.1241C31.4676 20.0773 31.6077 20.054 31.7487 20.0555C31.8072 20.0678 31.8983 19.925 31.9107 19.8935C31.9231 19.862 31.9309 19.6223 31.9501 19.5762C31.9692 19.5301 32.0086 19.4131 32.3067 19.3883C32.4034 19.3951 32.5654 19.1881 32.5913 19.1161C32.6172 19.0441 32.5969 18.9012 32.6419 18.845C32.6869 18.7887 32.7983 18.7921 32.8163 18.7538C32.8343 18.7156 32.8366 18.476 32.8546 18.4242C32.8786 18.2954 32.8809 18.1634 32.8613 18.0338C32.8433 17.9956 32.8771 17.9371 32.8433 17.9045C32.8096 17.8718 32.8039 17.7301 32.8039 17.7301C32.8039 17.7301 32.7511 17.6333 32.8107 17.594C32.8703 17.5546 32.9524 17.4972 33.0177 17.5996C33.2056 17.6221 33.4384 17.6513 33.4677 17.5816C33.4971 17.4895 33.5013 17.3912 33.4801 17.297C33.4531 17.2587 33.4024 17.2058 33.3563 17.2058C33.3102 17.2058 33.3181 17.0315 33.2866 17.0191C33.2551 17.0067 33.2584 17.0315 33.2337 16.9797C33.2089 16.928 33.2078 16.8762 33.1448 16.8492C33.0818 16.8222 32.8568 16.703 32.7949 16.7367C32.7331 16.7705 32.6509 16.64 32.3933 16.5421C31.9276 16.5117 31.5676 16.4825 31.3988 16.5275C31.2548 16.5668 31.0951 16.6726 31.0951 16.6253C31.0951 16.5781 30.7081 16.6253 30.5483 16.6895C30.4699 16.733 30.3815 16.7551 30.2918 16.7536C30.2119 16.7536 30.3064 16.8335 30.0511 16.7198C29.7957 16.6062 29.6967 16.6073 29.5853 16.64C29.4739 16.6726 29.8576 16.6726 29.3288 16.6726C28.8001 16.6726 28.7596 16.6726 28.4783 16.7536C28.1971 16.8346 28.0767 16.7536 27.8202 16.7536C27.5637 16.7536 27.5142 16.8008 27.4501 16.8503C27.6571 16.6951 27.2116 16.9122 27.2431 16.9122C27.0586 16.9088 26.877 16.8655 26.7109 16.7851L26.4241 16.7367L26.1991 16.712L25.9066 16.6073L25.6377 16.4802L25.3654 16.4487H25.2529L25.1404 16.3362C25.1404 16.3362 25.2372 15.6938 25.1551 15.5813C25.2001 15.3946 25.3159 15.0863 25.0178 14.9288C25.0921 14.6802 25.0684 14.5632 25.0999 14.4732C25.1253 14.416 25.1342 14.3529 25.1258 14.291C25.0684 14.0997 25.0133 14.0536 24.9672 13.9231C24.8941 13.8522 24.8749 13.8106 24.8749 13.7656C24.8811 13.7297 24.8799 13.6929 24.8714 13.6575C24.8629 13.6221 24.8473 13.5889 24.8254 13.5597C24.7898 13.5205 24.7582 13.478 24.7309 13.4326C24.7096 13.4146 24.7039 13.3921 24.6612 13.3921C24.5753 13.3799 24.4882 13.3802 24.4024 13.3932Z" fill="#FFED00"/>
<path d="M19.6209 7.65023C19.3272 7.93494 19.0633 8.24895 18.8334 8.58735C19.3194 8.46248 19.7233 8.42423 20.0709 8.52435L19.6209 7.65023ZM19.8381 6.9651L20.9158 9.18698L20.5176 9.03398C19.9629 8.64248 19.3509 8.74035 18.6253 9.12735L17.9323 9.00023C18.1113 8.71315 18.3062 8.43634 18.5162 8.1711C18.7866 7.83412 19.0838 7.5196 19.4049 7.2306L19.3689 7.16198L17.3811 8.39948L16.7578 8.4141C17.8288 7.80323 18.7884 6.97523 19.9652 6.5556L20.5704 6.6456L19.8381 6.9651Z" fill="#E1E1E1"/>
<path d="M20.1356 6.47894C19.8944 6.56655 19.6597 6.67145 19.4336 6.79282L20.0478 6.86707L20.1603 6.81982C20.3363 6.7357 20.5383 6.72398 20.7228 6.78719C20.7602 6.80136 20.794 6.82335 20.8222 6.85168C20.8503 6.88001 20.8721 6.91402 20.886 6.95144L21.561 8.55232L22.0942 8.69069L21.2032 6.37544L21.8782 6.08857L21.2921 5.98732L21.0513 6.08969L20.9501 6.05932L20.8466 5.97944L20.7622 5.86694L20.4281 5.85007C20.4999 6.03146 20.5876 6.20614 20.6902 6.37207L20.7667 6.48457C20.6671 6.44211 20.56 6.41976 20.4517 6.4188C20.3434 6.41783 20.236 6.43827 20.1356 6.47894Z" fill="#E1E1E1"/>
<path d="M22.9002 5.97046C22.7679 6.01633 22.6486 6.09353 22.5526 6.19546C22.513 6.22803 22.4841 6.27165 22.4695 6.32074C22.4548 6.36984 22.4552 6.42218 22.4704 6.47108C22.4744 6.48858 22.4822 6.50499 22.4932 6.51913C22.5043 6.53327 22.5183 6.54478 22.5343 6.55285C22.5504 6.56092 22.568 6.56534 22.5859 6.56579C22.6038 6.56624 22.6217 6.56271 22.6381 6.55546C22.7382 6.52107 22.8315 6.46928 22.9137 6.40246C22.9953 6.35332 23.0637 6.28496 23.1128 6.20333L23.0993 6.06721C23.0753 5.97571 23.0089 5.94346 22.9002 5.97046ZM23.4762 6.49021L23.2647 6.68371C23.1697 6.73625 23.0673 6.77417 22.9609 6.79621C22.7486 6.85258 22.5246 6.84712 22.3152 6.78046C22.1059 6.70958 21.9777 6.61846 21.9304 6.47446C21.9081 6.39465 21.9086 6.31017 21.9319 6.23063C21.9552 6.15109 22.0003 6.07966 22.0621 6.02446C22.2082 5.86335 22.4009 5.7517 22.6133 5.70496C22.829 5.6429 23.0585 5.64761 23.2714 5.71846C23.3535 5.73939 23.4285 5.78163 23.489 5.8409C23.5494 5.90016 23.5931 5.97436 23.6157 6.05596C23.6283 6.13421 23.6223 6.21434 23.598 6.28981C23.5738 6.36527 23.532 6.43394 23.4762 6.49021ZM24.1231 7.91108C23.5959 7.73897 23.0561 7.60808 22.5087 7.51958L22.3107 6.91546C22.6568 6.99461 22.9985 7.09186 23.3344 7.20683C23.7734 7.37393 24.1988 7.57478 24.6068 7.80758L24.6698 8.12708L24.1231 7.91108Z" fill="#E1E1E1"/>
<path d="M27.8063 5.18181L27.2708 4.85669C25.8949 4.97594 24.5033 5.00294 23.1758 5.42819L23.7732 5.61719C24.6788 5.32356 25.6339 5.33931 26.571 5.24144L26.5913 5.61831L26.5317 5.58119L26.4012 5.49006C26.2767 5.437 26.1412 5.41462 26.0063 5.42481C25.9127 5.43135 25.8226 5.46281 25.7453 5.51594L25.5473 5.68582L25.4922 5.64869C25.2574 5.53402 24.9946 5.48912 24.735 5.51932C24.496 5.55962 24.2828 5.69314 24.1422 5.89057C24.0896 5.96181 24.0525 6.04322 24.0331 6.1296C24.0137 6.21598 24.0126 6.30545 24.0297 6.39232C24.0501 6.49025 24.097 6.58071 24.1652 6.65389C24.2334 6.72707 24.3204 6.78018 24.4167 6.80744C24.6293 6.88619 24.8734 6.86144 25.1738 6.85582C25.4528 6.83444 25.6317 6.73657 25.7149 6.56444C25.7453 6.50594 25.7149 6.41931 25.6294 6.30344C25.577 6.23239 25.506 6.17723 25.4242 6.14407C25.3424 6.11091 25.253 6.10104 25.1659 6.11557C25.0519 6.12026 24.9421 6.15949 24.8509 6.22807C24.8155 6.25305 24.7876 6.28719 24.7702 6.32683C24.7527 6.36647 24.7464 6.41011 24.7519 6.45307L24.7969 6.55657C24.6248 6.55657 24.5269 6.49694 24.5044 6.37769V6.28657C24.5218 6.18635 24.5775 6.09681 24.6597 6.03682C24.7602 5.96244 24.8822 5.92293 25.0073 5.92431C25.1687 5.90247 25.333 5.92705 25.4809 5.99519C25.5581 6.03444 25.6293 6.08444 25.6924 6.14369C25.7153 6.1639 25.7299 6.19194 25.7332 6.22233C25.7366 6.25271 25.7284 6.28324 25.7104 6.30794L26.0479 6.19544C25.9984 6.05256 25.9894 5.95806 26.022 5.91194L26.1863 5.82981C26.2812 5.82349 26.376 5.84416 26.4597 5.88944C26.5542 5.93744 26.6025 5.99031 26.6048 6.04806L26.6768 7.33169L27.1347 7.60507L27.0694 5.20206C27.3136 5.1693 27.5606 5.16251 27.8063 5.18181Z" fill="#E1E1E1"/>
<path d="M27.5853 4.83757C27.3289 4.83814 27.0731 4.85996 26.8203 4.90282L27.3468 5.17507L27.4593 5.16607C27.5572 5.16204 27.6548 5.17937 27.7454 5.21687C27.8359 5.25436 27.9172 5.31112 27.9836 5.38319C28.012 5.41299 28.0339 5.4484 28.0478 5.48714C28.0618 5.52589 28.0675 5.56711 28.0646 5.60819L28.0139 7.34182L28.4426 7.71869L28.5854 5.24369L29.3144 5.30219L28.8239 4.93882L28.5629 4.91857L28.4842 4.84319L28.4223 4.73069C28.4054 4.65982 28.3942 4.61819 28.3908 4.59569L28.0983 4.42694C28.0896 4.6226 28.0971 4.81865 28.1208 5.01307L28.1422 5.15257C28.0037 4.98017 27.8044 4.86744 27.5853 4.83757Z" fill="#E1E1E1"/>
<path d="M29.7707 7.06844C29.7043 6.94722 29.6757 6.80892 29.6885 6.67132C29.7136 6.55268 29.7451 6.4355 29.783 6.32032C29.8719 6.03344 30.107 5.79719 30.4929 5.65544C30.8083 5.58317 31.134 5.56793 31.4548 5.61044L31.0442 5.20094C30.2184 4.97594 29.3499 5.00969 28.5039 4.90732L29.0045 5.27069L29.9923 5.35282C29.5659 5.62057 29.3308 5.89057 29.261 6.15607L29.2262 6.36982C29.2009 6.58357 29.236 6.80012 29.3275 6.99496C29.4189 7.1898 29.5631 7.35516 29.7437 7.47232C29.8652 7.57244 30.0407 7.59157 30.251 7.65457C30.4023 7.69842 30.5631 7.69686 30.7134 7.65007C30.7739 7.63566 30.8292 7.60481 30.8733 7.56094C30.9174 7.51707 30.9485 7.46187 30.9632 7.40144C30.9913 7.26982 30.9339 7.15619 30.7888 7.06394L30.5762 6.95144L30.3512 6.93682C30.1464 6.95594 30.044 7.07969 30.0564 7.20682L30.1419 7.37444C30.0598 7.35749 29.9831 7.32076 29.9184 7.26743C29.8537 7.21411 29.803 7.1458 29.7707 7.06844Z" fill="#E1E1E1"/>
<path d="M32.0707 5.78802C33.0224 5.96914 33.9089 6.34377 34.7876 6.74202L34.4242 6.23689C33.2756 5.64964 31.9886 5.47189 30.7578 5.13214L31.2078 5.57427L31.5307 5.65527L31.2438 6.90852L31.6859 7.41139C31.8773 7.21775 32.1096 7.06952 32.3658 6.97762C32.6221 6.88571 32.8957 6.85249 33.1664 6.88039C33.0569 7.01807 32.9713 7.17325 32.9133 7.33939C32.8447 7.53852 32.8064 7.87602 32.7817 8.34514L33.0742 8.60952C33.0907 8.4135 33.1223 8.21905 33.1687 8.02789L33.2204 7.83102C33.3329 7.52839 33.6063 7.24714 34.0709 7.00189L33.5332 6.41239C33.1683 6.34976 32.7946 6.36085 32.4341 6.44502C32.1719 6.50802 31.9841 6.55752 31.8592 6.59914L32.0707 5.78802Z" fill="#E1E1E1"/>
<path d="M38.1772 8.68633L37.9319 8.14634C37.7969 8.04846 37.7294 7.97421 37.7272 7.92134L37.7688 7.73796C37.7238 7.64008 37.6563 7.51296 37.564 7.34871L37.3075 7.82908L37.0825 8.30609L37.0555 8.19359C36.952 7.72446 36.8092 7.43309 36.6528 7.33409C36.5975 7.30388 36.5404 7.2772 36.4818 7.25421C36.169 7.13609 35.9283 7.08546 35.7213 7.17658L35.638 6.99771C35.638 6.99771 35.5919 6.93133 35.5064 6.81208C35.3884 6.68817 35.2453 6.59076 35.0868 6.52633L34.207 6.14946L34.5648 6.65346C34.9462 6.81658 35.071 6.87059 34.9394 6.81321C35.0508 6.86126 35.1511 6.93172 35.2342 7.02021L35.3185 7.19909H35.2308C35.0888 7.20194 34.9473 7.21661 34.8078 7.24296C34.7524 7.25419 34.7005 7.27812 34.6559 7.31287C34.6114 7.34762 34.5756 7.39224 34.5513 7.44321L34.5378 7.53771C34.54 7.63395 34.5723 7.72707 34.6303 7.80396C34.6882 7.88086 34.7688 7.93764 34.8607 7.96633C35.0556 8.05273 35.2758 8.06356 35.4783 7.99671C35.5315 8.18314 35.6517 8.34337 35.8158 8.44671C36.0153 8.57271 36.1754 8.60796 36.2962 8.55246C36.3523 8.53068 36.3992 8.49013 36.4289 8.43771C36.455 8.38688 36.4686 8.33058 36.4686 8.27346C36.4686 8.21634 36.455 8.16004 36.4289 8.10921C36.3686 7.9844 36.2995 7.86408 36.2219 7.74921C36.2827 7.71096 36.3862 7.73009 36.5313 7.80771C36.6348 7.86171 36.7158 7.99559 36.7698 8.20596C36.817 8.39159 36.8238 8.50746 36.7923 8.55584L36.0003 9.75846L36.214 10.2748L37.564 8.29596L38.1772 8.68633Z" fill="#E1E1E1"/>
<path d="M12.8788 17.3903L13.3918 15.9526C13.2006 16.1404 13.015 16.2034 12.8383 16.1326C12.8499 16.2934 12.842 16.4551 12.8147 16.6141C12.7528 16.7862 12.574 16.9752 12.2725 17.1991L12.8788 17.3903ZM12.7022 17.9202L10.3555 17.2722L10.9112 16.7682L11.9327 17.0911C12.0159 17.065 12.0892 17.0144 12.1431 16.9459C12.2204 16.8692 12.2809 16.7773 12.3208 16.6759C12.3675 16.5457 12.3675 16.4034 12.3208 16.2732C12.1318 15.6904 12.0385 15.2888 12.1082 15.1482L12.1858 14.9873C12.2416 14.8631 12.3176 14.7491 12.4108 14.6498C12.5233 14.4979 12.7832 14.3551 13.1916 14.2426V14.7556L12.9486 14.7466C12.8524 14.765 12.767 14.8198 12.7101 14.8996C12.6831 14.9626 12.6865 15.2292 12.7911 15.6972C13.0645 15.7579 13.3131 15.6252 13.4998 15.2798C13.5758 15.1336 13.6595 14.9917 13.7507 14.8546C13.8382 14.7484 13.9507 14.6657 14.0781 14.6138L14.1535 14.5362L14.635 14.2234C13.9195 15.5059 13.3142 16.8492 12.9576 18.2734L12.5301 18.7482L12.7022 17.9202Z" fill="#E1E1E1"/>
<path d="M12.1942 23.0041L12.4867 22.4202C12.4712 20.9028 12.6547 19.3899 13.0323 17.9202L12.6048 18.3972L12.2887 19.9294L11.6429 19.8417L11.4179 19.8361C11.1569 19.9317 11.0129 20.1736 10.9859 20.5426C10.9754 20.7329 10.9998 20.9235 11.0579 21.1051C11.1184 21.3346 11.2049 21.5565 11.3155 21.7666C11.2916 21.798 11.2615 21.8242 11.2271 21.8435C11.1926 21.8629 11.1546 21.875 11.1153 21.8791C11.0444 21.8791 10.96 21.8228 10.8644 21.7103C10.7643 21.5678 10.6995 21.4035 10.6754 21.2311C10.6339 21.017 10.621 20.7983 10.6372 20.5808C10.6486 20.2668 10.7301 19.9593 10.8757 19.6808C11.065 19.4151 11.3217 19.2047 11.6193 19.0711C11.851 18.9592 12.1069 18.9066 12.364 18.9181L12.5755 18.5344C12.2988 18.5187 12.1537 18.5097 12.1413 18.5074C11.8094 18.4915 11.481 18.5809 11.203 18.7628C10.9569 18.9155 10.7302 19.0976 10.528 19.3051C10.2468 19.6032 10.1568 20.0588 10.1062 20.6348C10.0704 21.01 10.1056 21.3886 10.2097 21.7508C10.3435 22.2098 10.6597 22.4258 10.9972 22.4157C11.3347 22.4056 11.5597 22.1626 11.8297 21.7114L11.8758 21.5809L11.815 21.3886L11.7532 21.2941L11.7453 21.2851L11.7374 21.2592C11.5627 21.0101 11.4546 20.7204 11.4235 20.4177C11.5124 20.4062 11.6025 20.4097 11.6902 20.4278L12.2527 20.4829C12.1919 21.3278 12.1087 22.1626 12.1942 23.0041ZM9.68428 21.1703C9.76978 21.1703 9.84628 21.1163 9.91491 20.9959C9.98692 20.8616 10.0277 20.7128 10.0342 20.5606C10.0487 20.407 10.0243 20.2522 9.96328 20.1106C9.90366 19.9801 9.83166 19.9092 9.74616 19.8991C9.66066 19.8889 9.58303 19.9452 9.51441 20.0712C9.44082 20.2131 9.39898 20.3693 9.39178 20.5291C9.37636 20.6275 9.38086 20.728 9.40502 20.8246C9.42917 20.9212 9.47249 21.012 9.53241 21.0916L9.68428 21.1703Z" fill="#E1E1E1"/>
<path d="M11.5754 24.2495C11.5417 24.1921 11.4629 24.0627 11.3504 23.858C11.3156 24.3356 11.1847 24.8012 10.9657 25.2271L11.9152 25.0448C11.817 24.7735 11.7036 24.508 11.5754 24.2495ZM11.8893 26.7953C12.0027 26.7016 12.0766 26.5687 12.0963 26.423C12.1594 26.1514 12.1516 25.8683 12.0738 25.6006L10.2266 26.0258L10.3076 25.6557C10.3869 25.5757 10.462 25.4916 10.5326 25.4037C10.6077 25.2892 10.6696 25.1665 10.7171 25.0381C10.795 24.8607 10.8538 24.6755 10.8926 24.4857C10.9533 24.1482 10.9353 23.7871 10.9556 23.399L11.3561 22.7003C11.6936 23.444 12.0468 24.1865 12.3247 24.9661L12.4237 24.947C12.276 24.1557 12.1899 23.3542 12.1661 22.5496L12.4653 21.9803C12.4778 23.5979 12.7334 25.2043 13.2236 26.7458L13.1111 27.3713C12.8777 26.7598 12.6896 26.1318 12.5486 25.4926L12.4766 25.5095C12.5497 25.8264 12.552 26.1556 12.4833 26.4736C12.3866 26.9371 12.2583 27.2082 11.9602 27.3016C11.8933 27.3172 11.8235 27.3157 11.7573 27.2975C11.6911 27.2792 11.6305 27.2446 11.5811 27.197C11.422 27.0663 11.3147 26.8832 11.2784 26.6806C11.2342 26.5263 11.2261 26.3638 11.2548 26.2058C11.2841 26.063 11.3414 25.9808 11.4281 25.9606C11.5147 25.9403 11.6373 26.0067 11.7656 26.1676L11.8646 26.4398L11.8893 26.7953Z" fill="#E1E1E1"/>
<path d="M14.241 30.9286L15.0432 31.3066C15.0104 31.1379 14.9409 30.9784 14.8395 30.8397C14.6224 30.5528 14.4525 30.3537 14.2433 30.2884C14.3039 30.3981 14.3338 30.5221 14.3299 30.6473L14.241 30.9286ZM15.4785 32.1537L15.6214 31.9568L16.2177 31.3943L16.3437 31.7566V31.8128C16.3222 31.8336 16.3053 31.8587 16.2941 31.8864C16.2828 31.9141 16.2775 31.9438 16.2784 31.9737L16.329 32.0772L16.4202 32.1976L16.5563 32.8197L16.0579 32.2707L14.286 33.8401C14.1875 33.6112 14.1121 33.373 14.061 33.1291L15.0285 32.4181C15.0967 32.2389 15.1176 32.0452 15.0893 31.8556C14.6145 31.6396 14.0925 31.4281 13.6189 31.1569L13.332 30.3762L13.7955 30.6361L13.908 30.6293C13.931 30.6187 13.9512 30.6029 13.9671 30.5833C13.983 30.5637 13.9943 30.5408 14.0001 30.5161C14.0058 30.4915 14.0059 30.4659 14.0003 30.4413C13.9946 30.4167 13.9835 30.3936 13.9677 30.3739L13.8135 30.1827C13.7359 30.103 13.6633 30.0184 13.5964 29.9296L13.521 29.6832C13.521 29.5707 13.5548 29.5032 13.602 29.4784C13.6695 29.4413 13.7933 29.4784 14.0037 29.5684C14.158 29.6361 14.3044 29.7206 14.4402 29.8204C14.6795 30.0202 14.8837 30.2586 15.0443 30.5258C15.2402 30.7765 15.3796 31.0666 15.4527 31.3763C15.5093 31.6317 15.5161 31.8957 15.4729 32.1537H15.4785Z" fill="#E1E1E1"/>
<path d="M20.0238 35.0224V34.6759C19.9188 34.4672 19.8012 34.2651 19.6717 34.0707C19.3699 33.5867 18.9897 33.1563 18.5467 32.7972C18.4226 32.6784 18.2816 32.5787 18.1282 32.5013C17.9299 32.3988 17.7188 32.3232 17.5005 32.2763C17.433 32.265 17.3025 32.2617 17.1191 32.247C17.0792 32.2436 17.0391 32.2492 17.0017 32.2634C16.9643 32.2776 16.9306 32.3001 16.9031 32.3292L16.8615 32.5047L16.911 32.7398L16.2146 31.9793L16.3507 32.607L16.7242 33.0042L15.2617 34.4802L15.5373 35.1552L17.1495 33.3957L17.7468 33.9402L17.5488 33.3124L17.2552 33.0458L17.2687 32.8354C17.2833 32.8129 17.3655 32.8073 17.5117 32.8163L17.8233 32.8545C18.5174 33.1214 19.1031 33.6113 19.4883 34.2473L20.0238 35.0224Z" fill="#E1E1E1"/>
<path d="M19.2079 35.5793L17.8287 35.118C18.2235 35.6209 18.5138 36.0529 18.6657 36.4568L19.2079 35.5793ZM19.9549 35.4353L18.7737 37.5087L18.5599 37.1914C18.4407 36.7999 18.3833 36.5918 18.3698 36.5547C18.2613 36.3138 18.1238 36.0871 17.9603 35.8797C17.7372 35.5758 17.4751 35.3027 17.1807 35.0674L16.9883 34.299C17.8883 34.6028 18.669 34.9324 19.4408 35.2069L19.479 35.1439C18.7714 34.7445 18.138 34.2237 17.5125 33.7084L17.3044 33.084C18.1729 33.9435 19.2057 34.6129 20.2497 35.235L20.604 35.7795L19.9549 35.4353ZM17.346 36.2914C17.2309 36.2095 17.1362 36.1021 17.0693 35.9775C17.0085 35.8594 17.0018 35.7717 17.049 35.7109C17.0794 35.68 17.1177 35.6579 17.1598 35.6472C17.2018 35.6365 17.246 35.6375 17.2875 35.6502C17.4128 35.6726 17.5307 35.7255 17.6307 35.8043C17.7418 35.8861 17.8336 35.9913 17.8995 36.1125C17.9592 36.225 17.9693 36.3139 17.9277 36.3758C17.9002 36.4097 17.8634 36.4349 17.8219 36.4483C17.7803 36.4617 17.7358 36.4627 17.6937 36.4512C17.5657 36.4295 17.4458 36.3743 17.346 36.2914Z" fill="#E1E1E1"/>
<path d="M22.5372 37.1768C22.1131 37.1116 21.6372 37.0891 21.1175 37.0576C21.6023 37.4142 21.9792 37.7517 22.2267 38.1117L22.5372 37.1768ZM23.2403 36.8281L22.5485 39.1984L22.2323 38.7979C21.9815 38.0858 21.3582 37.6381 20.4503 37.1194L20.0926 36.4231C20.6168 36.4692 21.0005 36.5097 21.2592 36.5524C21.7767 36.6233 22.2593 36.6571 22.6835 36.7347L22.7082 36.6616C21.8979 36.391 21.1103 36.0569 20.3525 35.6626L20.0273 35.1001C21.1534 35.7597 22.3647 36.2616 23.6273 36.5918L24.0841 37.0418L23.2403 36.8281Z" fill="#E1E1E1"/>
<path d="M26.8343 38.2399C26.8308 38.1578 26.8079 38.0776 26.7674 38.006C26.7269 37.9345 26.6701 37.8735 26.6014 37.8282C26.4733 37.7284 26.3306 37.6487 26.1784 37.5919C26.0067 37.5165 25.8281 37.4577 25.6452 37.4164L25.5687 37.3107C26.2178 37.4311 26.8827 37.3996 27.5397 37.4536L26.9986 37.1037C25.7217 37.0958 24.4673 36.8236 23.2422 36.4962L23.7237 36.9462C24.1043 37.0579 24.4922 37.1428 24.8847 37.2004L25.1198 37.3501L24.7092 37.3759C24.585 37.3891 24.4631 37.419 24.3469 37.4648C24.1692 37.5323 24.0837 37.6156 24.0972 37.7134C24.1208 37.8946 24.2941 38.0307 24.6248 38.0734C24.7947 38.1032 24.9693 38.0928 25.1344 38.0431C25.3876 37.9632 25.5293 37.8698 25.5653 37.7629L25.6643 37.7742C25.8161 37.7977 25.9645 37.8392 26.1064 37.8979C26.2471 37.9609 26.3146 38.0386 26.3078 38.1308C26.3078 38.1826 26.2617 38.2264 26.1773 38.2624C25.8184 38.4379 25.4168 38.4312 24.9792 38.3749C24.4721 38.3042 23.991 38.1065 23.5808 37.8001L23.9971 38.7158C24.5714 38.8755 25.1332 39.0775 25.6778 39.3199C26.3697 39.5866 26.9153 39.8048 27.2989 40.0332C27.3923 40.0849 27.5543 40.1941 27.7928 40.3144L27.4879 39.7924L26.7803 39.3751C26.529 39.2319 26.2655 39.1114 25.9928 39.0151C25.7543 38.9408 25.6294 38.8654 25.6058 38.8643C26.4214 38.7833 26.8219 38.5358 26.8343 38.2399Z" fill="#E1E1E1"/>
<path d="M29.3505 38.2962C29.5105 38.3359 29.6614 38.4062 29.7948 38.5032L30.237 38.9532C30.4035 39.1636 30.4856 39.3278 30.4743 39.4504L30.8771 39.6293L30.4192 37.1836C30.6908 37.1425 30.9592 37.0828 31.2225 37.0047L30.5857 36.8337C29.274 37.0441 27.9375 37.2162 26.6055 37.0868L27.1545 37.4367C28.0545 37.4479 28.9747 37.4367 29.8668 37.2679L30.0131 38.2501L29.9546 38.2084C29.5286 37.9199 29.0207 37.7767 28.5067 37.8001C28.2362 37.8062 27.9709 37.8763 27.7327 38.0048C27.5201 38.1308 27.411 38.2478 27.4087 38.4166C27.4087 38.7372 27.7125 38.8913 28.3357 38.8542C28.7977 38.8309 29.0182 38.7019 28.9972 38.4672C28.9905 38.3851 28.9095 38.2928 28.7565 38.1904C28.9586 38.1966 29.1587 38.2323 29.3505 38.2962Z" fill="#E1E1E1"/>
<path d="M34.6895 36.5209C34.6445 36.5693 34.5444 36.6773 34.3835 36.8461C34.8512 36.7467 35.3324 36.7269 35.8067 36.7876L35.3353 35.9438C35.0709 36.1992 34.838 36.3612 34.6895 36.5209ZM37.0025 35.4128C36.9182 35.3453 36.7775 35.3262 36.5942 35.3521C36.3159 35.3753 36.0476 35.4661 35.8123 35.6164L36.7978 37.2364L36.4164 37.2691C36.3178 37.2175 36.2151 37.1742 36.1093 37.1397C35.9797 37.1104 35.8472 37.0961 35.7144 37.0969C35.52 37.0761 35.3239 37.0761 35.1294 37.0969C34.7701 37.1521 34.4185 37.2495 34.082 37.3872L33.2889 37.2173C33.8919 36.6751 34.4769 36.0822 35.1317 35.5838L35.0833 35.4961C34.3689 35.8617 33.6557 36.2453 32.8907 36.4928L32.2539 36.3803C33.7974 35.8988 35.2329 35.1102 36.5345 34.1596L37.1747 34.0842C36.6493 34.4757 36.1352 34.8852 35.5603 35.2024L35.5985 35.2643C35.8427 35.1068 36.161 35.0393 36.5154 34.9594C36.9654 34.8762 37.2872 34.9482 37.4627 35.1901C37.4984 35.2481 37.5187 35.3144 37.5216 35.3825C37.5246 35.4506 37.5101 35.5184 37.4795 35.5793C37.3998 35.7686 37.267 35.9308 37.097 36.0462C36.9638 36.1396 36.8089 36.1973 36.647 36.2138C36.5008 36.2284 36.404 36.1981 36.3579 36.1227C36.3118 36.0473 36.3365 35.9101 36.4524 35.7447L36.683 35.5714C36.7787 35.4991 36.8871 35.4453 37.0025 35.4128Z" fill="#E1E1E1"/>
<path d="M38.9177 34.8751C38.7713 34.8682 38.6332 34.8054 38.5318 34.6996C38.4613 34.6004 38.3974 34.4967 38.3405 34.3891C38.192 34.1236 38.2078 33.7804 38.3754 33.3709C38.5247 33.0443 38.7012 32.7309 38.903 32.4338L38.3405 32.6138C37.7043 33.2497 37.0168 33.8321 36.2852 34.3553L36.9253 34.2788L37.7645 33.5903C37.652 34.1089 37.643 34.4903 37.7645 34.7243L37.886 34.9021C38.1774 35.2666 38.6252 35.3746 39.218 35.1518C39.457 35.0546 39.6746 34.9112 39.8582 34.7299C40.0275 34.5869 40.1544 34.4001 40.2249 34.1899C40.2902 34.0009 40.2755 33.8671 40.1867 33.7838C40.0978 33.7006 39.9448 33.7062 39.7592 33.8243C39.6639 33.8649 39.5792 33.9269 39.5117 34.0054L39.3238 34.2304C39.182 34.4554 39.1708 34.6107 39.2934 34.6804C39.3277 34.6988 39.3656 34.7095 39.4044 34.7118C39.4433 34.7141 39.4821 34.708 39.5184 34.6939C39.4351 34.7621 39.3392 34.8132 39.2361 34.8443C39.133 34.8754 39.0248 34.8858 38.9177 34.8751Z" fill="#E1E1E1"/>
<path d="M40.3134 31.7093L40.4349 30.8442C40.281 30.9246 40.1463 31.0375 40.04 31.1749C39.8252 31.4618 39.7239 31.7127 39.7318 31.932C39.8091 31.8359 39.9115 31.7631 40.0277 31.7217C40.1192 31.6871 40.2193 31.6828 40.3134 31.7093ZM41.0728 30.15L40.8388 30.0769L40.1087 29.6955L40.4248 29.4705L40.481 29.457L40.6577 29.4672L40.7432 29.3884L40.8343 29.2669L41.354 28.9238L41.0165 29.5819L43.0787 30.7407C42.8846 30.9024 42.6768 31.0469 42.4577 31.1727L41.4665 30.4875C41.2802 30.4823 41.0961 30.5287 40.9344 30.6214C40.9344 31.1715 40.8219 31.6767 40.7465 32.2347L40.1109 32.7668L40.2099 32.2482L40.166 32.1469C40.149 32.1286 40.1279 32.1146 40.1043 32.1061C40.0808 32.0977 40.0555 32.095 40.0307 32.0983C40.0059 32.1016 39.9823 32.1108 39.9618 32.1251C39.9413 32.1395 39.9245 32.1585 39.9129 32.1807C39.8629 32.2446 39.8175 32.3118 39.7768 32.382C39.7226 32.4786 39.6625 32.5718 39.5968 32.661L39.3797 32.805C39.275 32.8377 39.203 32.8354 39.1625 32.7983C39.122 32.7612 39.0939 32.6082 39.1187 32.3899C39.1371 32.2252 39.1749 32.0632 39.2312 31.9073C39.3468 31.6175 39.4979 31.3431 39.6812 31.0905C39.8736 30.8378 40.1071 30.6191 40.3719 30.4437C40.5799 30.2933 40.8197 30.1928 41.0728 30.15Z" fill="#E1E1E1"/>
<path d="M40.2815 27.8247L40.025 28.2623C40.0059 29.1389 39.8928 30.0109 39.6875 30.8633C39.9388 30.5441 40.1645 30.2056 40.3625 29.8508C40.3949 29.1744 40.3678 28.4964 40.2815 27.8247Z" fill="#E1E1E1"/>
<path d="M40.9768 28.9542C40.8925 29.1185 40.762 29.3536 40.5898 29.6641L41.1523 29.3378L41.2086 29.2253C41.2918 29.0321 41.4426 28.8757 41.6327 28.7855C41.6697 28.7674 41.7103 28.7581 41.7514 28.7581C41.7925 28.7581 41.8331 28.7674 41.8701 28.7855L43.4383 29.5268L44.0256 29.0858L41.7452 28.1071L42.0265 27.3589L41.536 27.7651L41.4302 28.0193L41.329 28.0699L41.1951 28.0868C41.122 28.0778 41.077 28.0711 41.0578 28.0677L40.7946 28.277C40.9696 28.3639 41.1523 28.4347 41.3402 28.4884L41.4763 28.5211C41.2619 28.5985 41.0839 28.7529 40.9768 28.9542Z" fill="#E1E1E1"/>
<path d="M43.9353 27.1701C43.8017 27.2374 43.6482 27.2538 43.5033 27.2162C43.3927 27.1686 43.2859 27.1126 43.1838 27.0486C42.9307 26.9012 42.7597 26.5986 42.6753 26.1565C42.6198 25.8024 42.6149 25.4421 42.6607 25.0866L42.2444 25.5276C42.0371 26.4018 41.754 27.2563 41.3984 28.0814L41.9058 27.6854L42.2793 26.6672C42.4211 27.1555 42.6067 27.4862 42.8418 27.628L43.0387 27.718C43.4707 27.8778 43.8993 27.736 44.3336 27.2523C44.4812 27.0419 44.5849 26.8039 44.6385 26.5525C44.6994 26.341 44.7148 26.119 44.6835 25.9011C44.6497 25.7087 44.571 25.6019 44.4585 25.5771C44.346 25.5524 44.2065 25.6345 44.0962 25.8291C44.031 25.9106 43.9855 26.0061 43.9635 26.1081L43.9297 26.4029C43.9364 26.674 44.0084 26.8112 44.148 26.809C44.1866 26.8056 44.2241 26.7938 44.2578 26.7744C44.2914 26.7549 44.3203 26.7283 44.3426 26.6965C44.3117 26.7996 44.2595 26.895 44.1893 26.9766C44.1192 27.0582 44.0326 27.1242 43.9353 27.1701Z" fill="#E1E1E1"/>
<path d="M43.4566 22.959L43.7086 24.3912C43.9685 23.8062 44.198 23.3438 44.486 23.0187L43.4566 22.959ZM42.9763 22.3707L45.3624 22.4224L45.1846 22.7599C44.8978 23.0502 44.7414 23.1998 44.7155 23.229C44.5538 23.4381 44.4206 23.6677 44.3195 23.9119C44.1566 24.2524 44.0393 24.6129 43.9708 24.984L43.3959 25.5218C43.2249 24.588 43.1518 23.742 43.0213 22.9343L42.9481 22.9287C42.9391 23.7443 42.7693 24.5464 42.6286 25.344L42.1719 25.8222C42.5094 24.6488 42.6162 23.4248 42.6624 22.2087C42.7772 22.0261 42.8787 21.8354 42.9661 21.6383C42.9937 21.8815 42.9971 22.1268 42.9763 22.3707ZM44.9754 24.2562L44.828 24.6499C44.7526 24.7624 44.6773 24.8074 44.603 24.795C44.5288 24.7827 44.4759 24.723 44.4365 24.6139C44.3971 24.4931 44.3882 24.3644 44.4106 24.2393L44.5513 23.859C44.6255 23.7533 44.6851 23.7004 44.7628 23.7083C44.8063 23.7162 44.8467 23.7365 44.8792 23.7665C44.9116 23.7966 44.9349 23.8353 44.9461 23.8782C44.988 23.9996 44.9973 24.13 44.9731 24.2562H44.9754Z" fill="#E1E1E1"/>
<path d="M42.2798 17.4229C42.2466 17.6323 42.1989 17.839 42.1369 18.0417C42.1628 18.2161 42.1583 18.3229 42.1223 18.3646L41.9659 18.4771C41.9277 18.5828 41.8838 18.7268 41.832 18.9057L42.3529 18.7448L42.8468 18.5524L42.7905 18.6571C42.5352 19.1071 42.4249 19.4052 42.4665 19.5976C42.4835 19.6626 42.5045 19.7264 42.5295 19.7888C42.6499 20.1263 42.7455 20.3671 42.921 20.5066L42.8007 20.6877C42.8007 20.6933 42.7635 20.7698 42.6972 20.9127C42.6431 21.0865 42.6236 21.2692 42.6398 21.4504C42.678 21.7839 42.6848 22.1203 42.66 22.4551C42.7836 22.2744 42.8963 22.0866 42.9975 21.8926C42.9645 21.4426 42.954 21.2926 42.966 21.4426L43.011 21.0499L43.1303 20.8699L43.1685 20.9577C43.2375 21.0973 43.3169 21.2315 43.4059 21.3593C43.4379 21.409 43.4816 21.4502 43.5332 21.4792C43.5848 21.5083 43.6426 21.5242 43.7018 21.5258L43.7963 21.4977C43.9662 21.3908 44.0427 21.1894 44.0213 20.9003C44.0165 20.6495 43.9196 20.4092 43.749 20.2253C43.875 20.0336 43.9206 19.8001 43.8762 19.5751C43.8154 19.2871 43.722 19.1059 43.5938 19.0373L43.4037 19.0114C43.3069 19.0306 43.2293 19.1138 43.1787 19.2589C43.1326 19.4009 43.095 19.5456 43.0662 19.6921C42.9912 19.6651 42.9304 19.5627 42.8839 19.3849C42.8479 19.2601 42.8839 19.0992 42.9964 18.8922C43.0932 18.7111 43.1685 18.6121 43.2214 18.5997L44.6378 18.3139L44.8155 17.5894L42.4935 18.1857C42.451 17.9242 42.3793 17.6684 42.2798 17.4229Z" fill="#E1E1E1"/>
<path d="M42.5634 15.4688C42.5503 15.3059 42.569 15.142 42.6185 14.9862L42.9054 14.4338C43.0539 14.2088 43.1844 14.0851 43.3059 14.0581L43.3486 13.6238L41.1549 14.7949L40.7769 14.0626L40.7656 14.7443C41.4149 15.9079 41.9024 17.1547 42.2146 18.4501L42.4104 17.8178C42.0639 16.9808 41.8828 16.0741 41.4114 15.2911L42.3046 14.8557L42.2821 14.9243C42.1501 15.4187 42.1665 15.9411 42.3294 16.4262C42.414 16.6809 42.5573 16.9122 42.7479 17.1012C42.9234 17.2688 43.0921 17.3318 43.2496 17.2835C43.5496 17.1957 43.5943 16.8582 43.3835 16.271C43.2283 15.8345 43.0404 15.6623 42.821 15.7523C42.7445 15.7838 42.6804 15.8907 42.6264 16.0673C42.5725 15.8727 42.5512 15.6704 42.5634 15.4688Z" fill="#E1E1E1"/>
<path fill-rule="evenodd" clip-rule="evenodd" d="M4.66468 26.9629C4.66468 26.9629 1.7768 22.9129 0.888055 22.2379C0.888055 22.2379 0.165805 33.1234 7.21955 38.7889L8.99818 37.3501L13.6624 37.5751C13.6624 37.5751 7.55255 32.7376 6.4973 22.9647L4.66468 26.9629Z" fill="#E30613"/>
<path fill-rule="evenodd" clip-rule="evenodd" d="M47.4908 27.2103C44.5388 36.5883 37.6055 40.1298 37.6055 40.1298L42.218 40.825L43.6805 42.589C51.7073 38.4175 53.1305 27.6029 53.1305 27.6029C52.1281 28.081 48.5022 31.4898 48.5022 31.4898L47.4908 27.2103Z" fill="#E30613"/>
<path fill-rule="evenodd" clip-rule="evenodd" d="M10.1112 35.7931L5.16797 40.8466C5.16797 40.8466 13.4423 50.5126 26.2145 50.8433C26.2145 50.8433 35.822 51.8974 45.3192 45.6773L42.1557 39.9027C42.1557 39.9027 36.6016 45.0113 25.1603 44.0652C25.1603 44.0674 14.87 43.4442 10.1112 35.7931Z" fill="#E30613"/>
<path d="M9.90927 42.2888C9.92922 42.1895 9.9707 42.0958 10.0308 42.0143C10.294 41.7196 10.6911 41.6566 11.203 41.8107C11.5397 41.9136 11.8596 42.0652 12.1525 42.2607L11.8971 41.7173C11.6374 41.5229 11.3419 41.3815 11.0275 41.3011C10.4313 41.1638 10.0038 41.2178 9.69327 41.5171C9.38277 41.8163 9.38389 42.2708 9.66402 42.7939C9.78766 43.0075 9.95066 43.1957 10.1444 43.3486C10.3018 43.4755 10.4867 43.5637 10.6844 43.6062C10.8655 43.6422 10.987 43.6152 11.0523 43.5286C11.095 43.4734 11.0894 43.3879 11.0399 43.2721C10.9878 43.1522 10.9032 43.0494 10.7958 42.9751C10.6803 42.8901 10.558 42.8149 10.4301 42.7501C10.2884 42.6994 10.1815 42.7163 10.1095 42.8018L10.1185 42.9841C9.91602 42.7613 9.84514 42.5251 9.90927 42.2888Z" fill="#E1E1E1"/>
<path d="M14.4393 43.7884L13.1782 42.9919C13.3244 43.2169 13.3526 43.3936 13.2592 43.5398C13.4109 43.566 13.5592 43.609 13.7013 43.6681C13.8509 43.7626 13.9972 43.9673 14.1513 44.2868L14.4393 43.7884ZM14.9163 44.0539L13.8374 45.9867L13.4887 45.4096L13.9814 44.5692C13.9737 44.4863 13.9407 44.4078 13.8869 44.3442L13.6709 44.1259C13.5604 44.0564 13.4295 44.0263 13.2997 44.0404C12.7304 44.0933 12.3693 44.0787 12.2388 44.0134L12.0959 43.9279C11.9865 43.862 11.8906 43.7757 11.8136 43.6737C11.6887 43.5511 11.5886 43.2878 11.5391 42.8952L12.0138 42.9784L11.9756 43.2034C11.9818 43.2955 12.0219 43.3821 12.0881 43.4464C12.1376 43.4881 12.3952 43.5117 12.8564 43.4903C12.9689 43.2394 12.8474 43.0291 12.5459 42.7939C12.4182 42.6987 12.2954 42.5969 12.1781 42.4891L11.9891 42.1448L11.9238 42.0604L11.6808 41.5576C12.8224 42.444 14.0356 43.2342 15.3078 43.9201L15.6599 44.4297L14.9163 44.0539Z" fill="#E1E1E1"/>
<path d="M17.3925 45.7876C16.9796 45.7189 16.524 45.6751 16.0492 45.5862C16.4801 45.9822 16.8367 46.2837 17.0493 46.6144L17.3925 45.7876ZM18.0911 45.5254L17.2777 47.6179L17.0178 47.2287C16.8097 46.6156 16.2663 46.1273 15.4215 45.6166L15.084 44.9629C15.5778 45.0248 15.9435 45.0754 16.191 45.1317C16.6725 45.2521 17.1337 45.3196 17.5533 45.3972L17.5803 45.3308C16.7838 45.0721 16.0695 44.6266 15.318 44.2643L14.9805 43.7614C16.1212 44.3577 17.2608 44.9528 18.4815 45.3612L18.8887 45.8303L18.0911 45.5254Z" fill="#E1E1E1"/>
<path d="M18.665 45.4277C18.422 45.3196 18.1725 45.2268 17.918 45.1498L18.3263 45.6111L18.4445 45.6561C18.6386 45.722 18.8047 45.8517 18.9158 46.024C18.937 46.056 18.9504 46.0925 18.9549 46.1306C18.9594 46.1687 18.9549 46.2073 18.9417 46.2433L18.4332 47.7362L18.8911 48.2368L19.5762 46.0858L20.3333 46.2715L19.8833 45.8608L19.6212 45.7933L19.5605 45.7033L19.5278 45.5807V45.4502L19.2916 45.2173C19.2312 45.3849 19.1868 45.5578 19.1588 45.7337L19.1453 45.862C19.0401 45.6661 18.8704 45.5127 18.665 45.4277Z" fill="#E1E1E1"/>
<path d="M20.2867 45.0427C20.2407 45.0549 20.1986 45.0786 20.1642 45.1114C20.1298 45.1443 20.1042 45.1852 20.0898 45.2305C20.0549 45.343 20.1168 45.4702 20.2799 45.6063C20.5473 45.8033 20.8545 45.9396 21.1799 46.0057C21.2351 46.0192 21.3251 46.0394 21.4522 46.0664C21.7649 46.1283 22.0147 46.1789 22.1924 46.2262L22.5412 46.3387C22.6672 46.3938 22.7302 46.4219 22.7257 46.4512L22.7077 46.4669L22.5131 46.4995C22.4917 46.4995 22.4129 46.4827 22.2746 46.4568L19.6016 45.7874L20.0516 46.2037L21.2317 46.4928C21.3521 46.5828 21.4117 46.6289 21.4117 46.6312C21.1248 46.6244 20.9561 46.6222 20.9054 46.6312L20.5893 46.7065C20.5506 46.7216 20.5155 46.7446 20.4862 46.774C20.457 46.8035 20.4342 46.8387 20.4194 46.8775C20.3992 46.9495 20.4386 47.0204 20.5387 47.0902L20.9021 47.2488C21.0632 47.2926 21.2316 47.3033 21.3971 47.2803C21.6299 47.2342 21.7649 47.1678 21.8054 47.0722L21.9011 47.0868L22.1058 47.1667C22.2644 47.2522 22.3308 47.3579 22.3094 47.4839L22.2723 47.5525C22.1371 47.6244 21.9835 47.6542 21.8313 47.638H21.7481C21.5357 47.6286 21.3246 47.6012 21.1169 47.5559C20.6661 47.4388 20.2375 47.2488 19.8479 46.9934L20.2856 47.7944C20.8548 48.0034 21.4069 48.2561 21.9371 48.5504C22.4669 48.8688 23.0036 49.087 23.5121 49.4616L23.3444 48.9846C22.9248 48.7394 22.6694 48.5875 22.5659 48.529C22.2993 48.4086 22.0237 48.2061 21.7143 48.0509C21.7874 48.0509 21.8887 48.0509 22.0181 48.061C22.5356 48.1083 22.8596 47.9001 22.9541 47.674C23.0002 47.548 22.9541 47.4085 22.8157 47.2555C22.6591 47.1017 22.4757 46.9778 22.2746 46.8899C22.1373 46.8354 22.0046 46.7703 21.8774 46.6953L21.8392 46.6435C22.5142 46.8539 23.2241 46.8888 23.9249 46.9585L23.4164 46.6154L23.1532 46.5907C23.1937 46.3927 23.0407 46.2228 22.7111 46.0642C22.5491 45.9584 22.2341 45.847 21.7616 45.7267C21.7031 45.712 21.5366 45.6783 21.2598 45.6243C20.9831 45.5703 20.8323 45.5399 20.8098 45.5309L20.5724 45.4184C20.4892 45.361 20.4532 45.3115 20.4599 45.2722C20.4667 45.2328 20.5634 45.181 20.7209 45.1653L20.4881 45.0528C20.4228 45.033 20.3536 45.0295 20.2867 45.0427Z" fill="#E1E1E1"/>
<path d="M30.8306 46.9519L30.2377 46.7337C28.5615 46.9114 26.9583 47.0037 25.2461 46.7944L25.7805 47.1432C27.0506 47.2557 28.2555 47.2039 29.4997 47.1049L29.6032 48.2783L29.2657 48.0285L29.2601 47.9487C29.2443 47.7417 29.0767 47.5729 28.7651 47.4424C28.4345 47.3005 28.0774 47.231 27.7177 47.2388L27.4185 47.2725C27.171 47.3277 27.0472 47.4165 27.045 47.5605C27.045 47.6595 27.1226 47.7428 27.2857 47.8035C27.4608 47.8627 27.6456 47.8879 27.8302 47.8778C27.9606 47.8647 28.085 47.8165 28.1902 47.7383L28.2453 47.6798L28.3162 47.6427C28.3669 47.6408 28.4173 47.6521 28.4624 47.6753C28.5075 47.6986 28.5459 47.7331 28.5738 47.7754C28.6235 47.833 28.6555 47.9037 28.6661 47.979C28.6773 48.1782 28.4771 48.2929 28.0642 48.3165C27.8132 48.3358 27.5609 48.3091 27.3195 48.2378C27.0417 48.1594 26.7878 48.0132 26.5803 47.8125C26.4431 47.6403 26.3215 47.4562 26.217 47.2624C26.0932 47.2287 25.893 47.1814 25.785 47.1398C25.847 47.342 25.9429 47.5322 26.0685 47.7023C26.2129 47.9402 26.4007 48.1489 26.622 48.3177C26.9324 48.5339 27.2899 48.6731 27.6648 48.7238L28.0687 48.7519C28.4407 48.755 28.8027 48.6321 29.0958 48.4032C29.3028 48.5089 29.4176 48.5685 29.4333 48.5832C29.6298 48.7121 29.8017 48.8752 29.9407 49.0647L30.285 49.2503L30.0476 47.0397L30.8306 46.9519Z" fill="#E1E1E1"/>
<path d="M30.4739 46.7067C30.2077 46.723 29.9425 46.7542 29.6797 46.8001L30.2557 47.0251L30.3806 47.0127C30.5819 46.9784 30.7889 47.012 30.9689 47.1083C31.002 47.1265 31.0302 47.1524 31.0514 47.1837C31.0725 47.215 31.0859 47.2508 31.0904 47.2883L31.3154 48.8498L31.9432 49.0692L31.5798 46.8428L32.3493 46.7022L31.7576 46.5121L31.4898 46.5616L31.3953 46.5132L31.3098 46.4209L31.2536 46.3084L30.9374 46.2196C30.9574 46.3958 30.9951 46.5695 31.0499 46.7382L31.0949 46.8586C30.9122 46.7365 30.6924 46.6828 30.4739 46.7067Z" fill="#E1E1E1"/>
<path d="M32.9993 46.5683C34.0063 46.3524 34.9999 46.0778 35.9749 45.7459L35.3517 45.6402C34.0824 46.0403 32.7861 46.349 31.4727 46.5638L32.0723 46.7528L32.4233 46.6887L32.6483 47.8362L33.3762 48.0364C33.5899 47.5763 34.0174 47.2096 34.6452 46.8777C34.6198 47.04 34.6278 47.2057 34.6688 47.3648C34.7194 47.5493 34.878 47.8148 35.1582 48.1523L35.6543 48.1354C35.5372 47.996 35.4378 47.8426 35.3584 47.6787L35.283 47.5099C35.2009 47.2298 35.2977 46.8586 35.544 46.3849L34.698 46.3208C34.3434 46.5009 34.0003 46.7031 33.6709 46.9261C33.4403 47.0937 33.2693 47.2231 33.1602 47.3097L32.9993 46.5683Z" fill="#E1E1E1"/>
<path d="M39.8135 44.0933L39.1958 44.0821C39.0383 44.1571 38.9371 44.1829 38.8921 44.1597L38.7593 44.0472C38.6547 44.0472 38.5073 44.0348 38.324 44.0314L38.5748 44.4589L38.8482 44.8572L38.7357 44.8302C38.2655 44.7008 37.9482 44.6716 37.775 44.7503L37.6062 44.8493C37.3115 45.0361 37.1112 45.2048 37.0212 45.3949L36.8232 45.3432L36.5881 45.3184C36.4099 45.324 36.2337 45.3578 36.0661 45.4186L35.1211 45.7246L35.7342 45.8371L36.1493 45.7021L36.5285 45.6357L36.7265 45.6886L36.6545 45.7459C36.5452 45.8467 36.4412 45.9529 36.3428 46.0643C36.305 46.1029 36.2779 46.1507 36.2643 46.203C36.2507 46.2553 36.251 46.3103 36.2652 46.3624L36.317 46.4356C36.4632 46.5616 36.6668 46.5796 36.92 46.4772C37.1466 46.403 37.34 46.2517 37.4667 46.0497C37.6767 46.1056 37.8996 46.0861 38.0967 45.9946C38.351 45.8821 38.4983 45.7594 38.5355 45.6312C38.5464 45.6031 38.5507 45.5729 38.5482 45.5429C38.5457 45.5129 38.5363 45.4838 38.5208 45.4579C38.4848 45.3769 38.3903 45.3263 38.243 45.3061C38.0991 45.2985 37.9549 45.2985 37.811 45.3061C37.8211 45.2363 37.9055 45.1598 38.0641 45.0811C38.1766 45.0214 38.3363 45.0192 38.5523 45.0709C38.7425 45.1171 38.8493 45.1632 38.8707 45.2116L39.4096 46.4108H40.0846L39.1148 44.4578L39.8135 44.0933Z" fill="#E1E1E1"/>
<path d="M39.5764 42.7332L39.1005 42.938C38.5473 43.6063 37.9568 44.2429 37.332 44.8448L38.4289 44.3611C38.8474 43.8368 39.213 43.262 39.5764 42.7332Z" fill="#E1E1E1"/>
</svg>
