<?xml version="1.0" encoding="utf-8"?>
<!-- Generator: Adobe Illustrator 25.2.3, SVG Export Plug-In . SVG Version: 6.00 Build 0)  -->
<svg version="1.1" id="Layer_1" xmlns="http://www.w3.org/2000/svg" xmlns:xlink="http://www.w3.org/1999/xlink" x="0px" y="0px"
	 viewBox="0 0 140 140" style="enable-background:new 0 0 140 140;" xml:space="preserve">
<g>
	<path d="M83.8,31.7c-2.2,4-0.9,8.2-1.4,12.2c-4.8,0.1-6,0.9-7.6,5.3c-0.1,0.3-0.4,0.6-0.7,0.7c-1.7,0.6-2.3,2-2.3,3.6
		c0,4.1,0,8.2,0,12.3c0,2.7,1.3,4.1,3.9,4.3c1.1,0.1,5.6,0.1,6.8,0c0,5.3,0.5,28,0.8,29.5c-4.4,0.3-8.8-0.5-13.1-1.2
		c-0.2-2.8-0.2-5.5-0.7-8.2c-1-5.2-3.4-9.5-8.9-11.1c-2.6-0.7-5.3-0.5-7.9,0.4c-3,1.1-4.2,3.8-5,6.6c-0.7,2.7-1.2,5.6-1.7,8.5
		c-6.8-1.5-13.7-2.9-20.3-4.3c-0.3-2.3-0.2-4.6-0.9-6.7c-0.6-2-1.7-4-3.1-5.5c-2.1-2.5-5.4-2.1-7.4,0.4c-1.5,1.9-2.1,4-2.3,6.4
		c0,1,0,2,0,3.1c-1.4,0.1-2.4-0.4-2.9-1.6c-0.4-1-0.5-34.3-0.2-35.1c0.3-1.1,1.1-1.7,2.3-2C25.8,45.5,73.8,32.8,83.8,31.7z
		 M67.9,43.5c0-3-1.7-4.2-4.5-3.1c-2,0.8-3.9,1.6-5.9,2.3c-2.2,0.8-3.2,2-3.2,4.3c0,4.5-0.2,8.9,0,13.4c0.1,2.1,0.8,4.2,1.7,6.1
		c1.6,3.5,5.5,4,8.6,3.9c1.4-0.1,2.3-1.1,2.7-2.4C67.6,67,67.9,47.1,67.9,43.5z M50.5,47.6c-0.1-2.4-1.4-3.3-3.6-2.7
		c-2.2,0.6-4.3,1.2-6.5,1.8c-2.2,0.6-3,1.7-3,4c0,2.4,0,10.6,0.1,12.3c0.1,1.9,1,2.7,2.9,2.6c2.3-0.1,4.6-0.3,6.9-0.5
		c2-0.2,3.1-1.4,3.2-3.5C50.5,59.3,50.6,50,50.5,47.6z M20.5,52.9c-0.1-1.1-0.7-1.7-2-1.5c-1.8,0.3-3.5,0.6-5.3,0.9
		c-1.3,0.2-2.1,1-2.1,2.3C11,58,11,61.5,11.1,65c0,1.5,0.7,2,2.3,2c1.5-0.1,3-0.2,4.4-0.3c2.1-0.1,2.7-0.7,2.8-2.8
		C20.6,62.3,20.5,54.9,20.5,52.9z M32.5,50.9c-0.1-2-1.1-2.6-2.9-2c-1.1,0.4-2.2,0.8-3.3,1.1c-1.2,0.4-1.8,1.3-1.8,2.4
		c-0.1,4,0,8,0,12c0,1.5,0.9,2.1,2.3,2c0.9-0.1,1.8-0.2,2.8-0.2c2.1-0.1,2.9-0.9,2.9-2.9C32.6,61.1,32.6,52.9,32.5,50.9z"/>
	<path d="M79.2,52c1.9,0.4,2.5,1.5,2.5,3.1c0,3.8,0,7.6-0.1,11.4c0,2-0.6,2.4-2.5,2.4c-1.1,0-2.3-0.1-3.4-0.2
		c-1.7-0.2-2.4-0.8-2.4-2.5c-0.1-4.3-0.1-8.5,0-12.8c0-1.7,0.6-2.1,2.4-2.2c2-6,2-6,8.2-5.4c0-2.9,0-5.8,0-8.7
		c0-1.1,0.1-2.2,0.4-3.2c0.6-1.8,2-2.5,3.8-2.3c11.9,1.6,23,5.5,33.4,11.6c1.8,1.1,2.7,2.8,2.8,4.8c0.1,1.9,0.1,3.8,0,5.7
		c0,0.9,0.1,1.5,1.2,1.7c1.7,0.3,2.8,1.4,3.4,3c0.4,1.1,0.4,2.5,1.8,3.2c0.3,0.1,0.3,0.9,0.3,1.4c0,2.3,0,4.6,0,6.9
		c0,1.2-0.5,1.8-1.8,1.7c-0.5-0.1-1,0-1.5,0c-1.3,0-1.9-0.7-1.9-2c0-2.5-0.1-5,0.1-7.5c0-0.6,0.7-1.3,1.3-1.8
		c-0.1-1.4-0.9-2.2-2.8-2.1c0,2.4,0,4.8,0,7.2c0,8.1,0,16.2,0,24.3c0,2.8-1.5,4.5-4.2,5c-10.4,1.9-20.8,3.9-31.2,5.8
		c-2.5,0.5-4.5-1-4.9-3.9c-0.2-1.3-0.2-2.7-0.2-4c0-13.6,0-27.1,0-40.7c0-1.2,0-2.1-1.6-2.3c-1.5-0.2-2.4,0.3-2.9,1.6
		C79.4,51.4,79.3,51.7,79.2,52z M122.8,63.4c0-2.5,0-5,0-7.5c0-3.5-0.7-4.2-4-5.1c-9.6-2.4-19.2-5-28.8-7.5
		c-2.1-0.5-3.4,0.3-3.6,2.4c-0.1,1.2-0.1,2.5-0.1,3.7c0,6.6-0.1,13.1,0,19.7c0.1,4.5,1.5,7.2,6.2,8.7c8.6,2.8,17.2,2.9,25.7-0.3
		c3.4-1.3,4.5-2.8,4.6-6.4C122.8,68.5,122.8,65.9,122.8,63.4z M115.1,47.3c0-1.4-0.1-2.6,0-3.7c0.1-1-0.3-1.3-1.2-1.6
		c-4.5-1.5-9-3-13.5-4.4c-1.4-0.5-2.7-0.9-4.3-1.4c0,1.9,0,3.5,0,5.2c0,0.3,0.4,0.7,0.7,0.8C102.9,43.8,108.9,45.5,115.1,47.3z
		 M99.5,94.7c0.3,0.1,0.4,0.2,0.4,0.2c3.9-0.6,7.8-1.2,11.6-1.8c0.3,0,0.7-0.5,0.7-0.8c0.1-0.9,0-1.9,0-3c-4.2,0.5-8.1,1-12,1.6
		c-0.3,0-0.8,0.5-0.8,0.9C99.4,92.8,99.5,93.8,99.5,94.7z M88.2,88.5c1.3-0.1,2.7-0.2,4-0.4c1.1-0.1,2.2-0.3,3.3-0.5
		c0.3-0.1,0.8-0.5,0.8-0.9c0.1-0.9,0.1-1.8,0.2-2.8c-2,0.1-3.7,0.3-5.4,0.4c-3.3,0.2-3.4,0.3-3.1,3.7C88,88.1,88.1,88.2,88.2,88.5z
		 M114.4,85.4c0.1,0,0.2,0.1,0.3,0.1c1.4-0.2,2.8-0.3,4.3-0.5c2.5-0.3,2.7-0.7,1.9-3.2c-1.3,0.1-2.7,0.1-4.1,0.2
		c-2.9,0.3-2.9,0.4-2.5,3.2C114.3,85.3,114.4,85.3,114.4,85.4z"/>
	<path d="M63.9,95.7c-0.2,3.3-0.7,6.7-2.9,9.7c-2.7,3.6-6.7,3.7-9.5,0.1c-3.1-4-4-8.7-3.6-13.6c0.9-12.1,9.2-12.1,12.1-8.6
		C63.1,86.8,63.8,91,63.9,95.7z M58.8,88.6c-0.6-1.4-1.9-2.4-3.5-2.4c-1.7,0-2.9,1.2-3.6,2.7c-1.7,4.1-1.6,8.1,0.9,11.8
		c1.8,2.7,4.7,2.6,6.3-0.2C59.9,98.9,59.7,90.6,58.8,88.6z"/>
	<path d="M59.1,108.4c7.7-6.9,7.5-19-0.4-27.7c3.4-0.3,6.4,1.5,8.1,5.2c2.7,5.7,2.8,11.5,0.5,17.4C65.9,106.9,63.2,108.6,59.1,108.4
		z"/>
	<path d="M14.1,80.2c1.4-2.5,4.1-2.6,6-0.4c2.9,3.4,3.2,10.4,0.5,14c-1.5,2-3.8,2.1-5.5,0.3C10.3,87.8,13.1,82,14.1,80.2z
		 M14.9,83.6c-0.8,1.8-0.8,3.9-0.1,5.7c0.1,0.3,0.2,0.6,0.4,0.8c0.4,0.8,1.5,1.6,2.3,1.7c0.7,0,1.7-0.8,2.2-1.5
		c1.3-2,0.8-5.8-0.7-7.6c-1.2-1.3-2.8-1.3-3.7,0.2C15.1,83.1,15,83.3,14.9,83.6z"/>
	<path d="M117.4,96.2c-1,3.6-3.4,5.6-6.6,6.6c-4.6,1.4-8.7,0.1-12.7-3.1c3.5-0.6,6.6-1.1,9.7-1.7C111,97.4,114.1,96.8,117.4,96.2z"
		/>
	<path d="M19.8,95.5c4.5-3.8,3.9-13.6-0.4-17.1c2.7,0,5.1,3.4,5.3,7.6C25.1,91.5,23.3,95.1,19.8,95.5z"/>
	<path d="M57,101.5c-1.3,0.6-2.3,0.3-3.1-0.6c-2.9-2.8-3.2-9.8-0.6-12.8c0.9-1.1,2-1.4,3.4-0.6C53.8,92.1,54.1,96.8,57,101.5z"/>
	<path d="M17.9,82.5c-1.6,2.9-1.6,5.8,0.3,8.7c-1.3,0.5-2-0.3-2.6-1.1c-1.2-1.8-1.2-5.4,0-7C16.2,82.4,16.9,81.9,17.9,82.5z"/>
</g>
</svg>
