<svg width="24" height="24" viewBox="0 0 24 24" fill="none" xmlns="http://www.w3.org/2000/svg">
<circle cx="12" cy="12" r="12" fill="#1E88E5"/>
<g clip-path="url(#clip0_4885_56594)">
<path d="M15.3335 17.3333H8.66683V18C8.66683 18.1768 8.59659 18.3464 8.47157 18.4714C8.34654 18.5964 8.17697 18.6667 8.00016 18.6667H6.66683C6.49002 18.6667 6.32045 18.5964 6.19542 18.4714C6.0704 18.3464 6.00016 18.1768 6.00016 18V12H5.3335V9.33333H6.00016V7.33333C6.00016 6.97971 6.14064 6.64057 6.39069 6.39052C6.64074 6.14048 6.97987 6 7.3335 6H16.6668C17.0205 6 17.3596 6.14048 17.6096 6.39052C17.8597 6.64057 18.0002 6.97971 18.0002 7.33333V9.33333H18.6668V12H18.0002V18C18.0002 18.1768 17.9299 18.3464 17.8049 18.4714C17.6799 18.5964 17.5103 18.6667 17.3335 18.6667H16.0002C15.8234 18.6667 15.6538 18.5964 15.5288 18.4714C15.4037 18.3464 15.3335 18.1768 15.3335 18V17.3333ZM7.3335 7.33333V12H16.6668V7.33333H7.3335ZM9.00016 16C9.26538 16 9.51973 15.8946 9.70727 15.7071C9.89481 15.5196 10.0002 15.2652 10.0002 15C10.0002 14.7348 9.89481 14.4804 9.70727 14.2929C9.51973 14.1054 9.26538 14 9.00016 14C8.73495 14 8.48059 14.1054 8.29306 14.2929C8.10552 14.4804 8.00016 14.7348 8.00016 15C8.00016 15.2652 8.10552 15.5196 8.29306 15.7071C8.48059 15.8946 8.73495 16 9.00016 16V16ZM15.0002 16C15.2654 16 15.5197 15.8946 15.7073 15.7071C15.8948 15.5196 16.0002 15.2652 16.0002 15C16.0002 14.7348 15.8948 14.4804 15.7073 14.2929C15.5197 14.1054 15.2654 14 15.0002 14C14.7349 14 14.4806 14.1054 14.2931 14.2929C14.1055 14.4804 14.0002 14.7348 14.0002 15C14.0002 15.2652 14.1055 15.5196 14.2931 15.7071C14.4806 15.8946 14.7349 16 15.0002 16Z" fill="white"/>
</g>
<defs>
<clipPath id="clip0_4885_56594">
<rect width="16" height="16" fill="white" transform="translate(4 4)"/>
</clipPath>
</defs>
</svg>
