<svg width="20" height="20" viewBox="0 0 20 20" fill="none" xmlns="http://www.w3.org/2000/svg">
<path d="M14.167 16.6667H5.83366V17.5C5.83366 17.721 5.74586 17.933 5.58958 18.0893C5.4333 18.2455 5.22134 18.3333 5.00033 18.3333H3.33366C3.11265 18.3333 2.90068 18.2455 2.7444 18.0893C2.58812 17.933 2.50033 17.721 2.50033 17.5V10H1.66699V6.66667H2.50033V4.16667C2.50033 3.72464 2.67592 3.30072 2.98848 2.98816C3.30104 2.67559 3.72496 2.5 4.16699 2.5H15.8337C16.2757 2.5 16.6996 2.67559 17.0122 2.98816C17.3247 3.30072 17.5003 3.72464 17.5003 4.16667V6.66667H18.3337V10H17.5003V17.5C17.5003 17.721 17.4125 17.933 17.2562 18.0893C17.1 18.2455 16.888 18.3333 16.667 18.3333H15.0003C14.7793 18.3333 14.5674 18.2455 14.4111 18.0893C14.2548 17.933 14.167 17.721 14.167 17.5V16.6667ZM4.16699 4.16667V10H15.8337V4.16667H4.16699ZM6.25033 15C6.58185 15 6.89979 14.8683 7.13421 14.6339C7.36863 14.3995 7.50033 14.0815 7.50033 13.75C7.50033 13.4185 7.36863 13.1005 7.13421 12.8661C6.89979 12.6317 6.58185 12.5 6.25033 12.5C5.91881 12.5 5.60086 12.6317 5.36644 12.8661C5.13202 13.1005 5.00033 13.4185 5.00033 13.75C5.00033 14.0815 5.13202 14.3995 5.36644 14.6339C5.60086 14.8683 5.91881 15 6.25033 15ZM13.7503 15C14.0818 15 14.3998 14.8683 14.6342 14.6339C14.8686 14.3995 15.0003 14.0815 15.0003 13.75C15.0003 13.4185 14.8686 13.1005 14.6342 12.8661C14.3998 12.6317 14.0818 12.5 13.7503 12.5C13.4188 12.5 13.1009 12.6317 12.8664 12.8661C12.632 13.1005 12.5003 13.4185 12.5003 13.75C12.5003 14.0815 12.632 14.3995 12.8664 14.6339C13.1009 14.8683 13.4188 15 13.7503 15Z" fill="#151414"/>
</svg>
