<?xml version="1.0" encoding="UTF-8"?>
<svg xmlns="http://www.w3.org/2000/svg" xmlns:xlink="http://www.w3.org/1999/xlink" width="161px" height="120px" viewBox="0 0 161 120" version="1.1">
<g id="surface1">
<path style=" stroke:none;fill-rule:nonzero;fill:rgb(98.431373%,94.117647%,93.333333%);fill-opacity:1;" d="M 161 0 L 161 99.398438 C 141.5 111.199219 73.101562 120.601562 0 99.398438 C 0 99.398438 0 27.699219 0 0 C 88.699219 30.300781 161 0 161 0 Z M 161 0 "/>
<path style=" stroke:none;fill-rule:nonzero;fill:rgb(100%,100%,100%);fill-opacity:1;" d="M 35.601562 89.898438 C 34.101562 89.199219 30.601562 87.699219 26.101562 88 C 24.5 88.101562 22.699219 88.699219 19 89.699219 C 17.398438 90.199219 16 90.601562 16 91 C 16 91.199219 16.5 91.398438 17 91.398438 C 16.101562 91.398438 15.398438 91.898438 15.398438 92.300781 C 15.398438 92.601562 15.601562 92.800781 15.699219 92.898438 C 15.699219 92.898438 14.101562 94.101562 16.101562 94.5 C 16.101562 94.5 14.699219 95.601562 17 96.101562 C 19.199219 96.5 26 95.398438 26 95.398438 C 26 95.398438 32.898438 95.398438 36.101562 94.101562 C 36.398438 94 36.898438 93.699219 37.199219 93.300781 C 38.101562 92.101562 35.898438 90.199219 35.601562 89.898438 Z M 35.601562 89.898438 "/>
<path style=" stroke:none;fill-rule:nonzero;fill:rgb(6.666667%,6.666667%,2.745098%);fill-opacity:1;" d="M 18.300781 96.601562 C 17.699219 96.601562 17.199219 96.601562 16.800781 96.5 C 15.898438 96.300781 15.5 96 15.300781 95.601562 C 15.199219 95.300781 15.398438 95 15.5 94.800781 C 15.101562 94.601562 14.800781 94.398438 14.800781 94.101562 C 14.699219 93.699219 15 93.300781 15.300781 93 C 15.101562 92.800781 15.101562 92.601562 15.101562 92.398438 C 15.199219 92 15.5 91.699219 16 91.5 C 15.898438 91.398438 15.800781 91.300781 15.699219 91.101562 C 15.699219 90.601562 16.398438 90.199219 18.898438 89.5 C 22.601562 88.398438 24.398438 87.898438 26 87.800781 C 30.199219 87.5 33.601562 88.601562 35.699219 89.699219 C 36.101562 90.101562 38.300781 92.101562 37.199219 93.601562 C 37 93.898438 36.601562 94.199219 36 94.398438 C 32.800781 95.699219 26.300781 95.699219 25.800781 95.699219 C 25.5 95.898438 21.101562 96.601562 18.300781 96.601562 Z M 16.300781 91.101562 C 16.398438 91.101562 16.5 91.199219 17 91.300781 C 17.101562 91.300781 17.199219 91.398438 17.199219 91.601562 C 17.199219 91.699219 17.101562 91.800781 17 91.800781 C 16.199219 91.800781 15.601562 92.199219 15.601562 92.5 C 15.601562 92.699219 15.800781 92.800781 15.800781 92.898438 C 15.898438 92.898438 15.898438 93 15.898438 93.101562 C 15.898438 93.199219 15.898438 93.199219 15.800781 93.300781 C 15.601562 93.398438 15.199219 93.800781 15.300781 94.101562 C 15.300781 94.300781 15.601562 94.398438 16.101562 94.5 C 16.199219 94.5 16.300781 94.601562 16.300781 94.699219 C 16.300781 94.800781 16.300781 94.898438 16.199219 94.898438 C 16.101562 95 15.800781 95.300781 15.898438 95.5 C 15.898438 95.601562 16.101562 95.898438 17 96 C 19.199219 96.398438 25.898438 95.300781 26 95.300781 C 26.101562 95.300781 32.898438 95.300781 36 94 C 36.5 93.800781 36.800781 93.601562 37 93.300781 C 37.800781 92.199219 36 90.5 35.601562 90.101562 C 33.601562 89.101562 30.300781 87.898438 26.199219 88.300781 C 24.601562 88.398438 22.800781 89 19.199219 90 C 17.398438 90.5 16.398438 90.898438 16.300781 91.101562 Z M 16.300781 91.101562 "/>
<path style=" stroke:none;fill-rule:nonzero;fill:rgb(6.666667%,6.666667%,2.745098%);fill-opacity:1;" d="M 23.601562 90 C 23.601562 89.898438 23.398438 89.800781 23.300781 89.800781 L 16.898438 91.300781 C 16.800781 91.300781 16.699219 91.5 16.699219 91.601562 C 16.699219 91.699219 16.800781 91.800781 16.898438 91.800781 C 16.898438 91.800781 16.898438 91.800781 17 91.800781 L 23.398438 90.300781 C 23.5 90.300781 23.601562 90.199219 23.601562 90 Z M 23.601562 90 "/>
<path style=" stroke:none;fill-rule:nonzero;fill:rgb(6.666667%,6.666667%,2.745098%);fill-opacity:1;" d="M 23 91.300781 L 15.601562 92.800781 C 15.5 92.800781 15.398438 93 15.398438 93.101562 C 15.398438 93.199219 15.5 93.300781 15.601562 93.300781 L 23 91.800781 C 23.101562 91.800781 23.199219 91.601562 23.199219 91.5 C 23.300781 91.398438 23.199219 91.300781 23 91.300781 Z M 23 91.300781 "/>
<path style=" stroke:none;fill-rule:nonzero;fill:rgb(6.666667%,6.666667%,2.745098%);fill-opacity:1;" d="M 22.398438 93.300781 L 16 94.398438 C 15.898438 94.398438 15.800781 94.601562 15.800781 94.699219 C 15.800781 94.800781 15.898438 94.898438 16 94.898438 L 22.398438 93.699219 C 22.5 93.699219 22.601562 93.5 22.601562 93.398438 C 22.699219 93.300781 22.5 93.199219 22.398438 93.300781 Z M 22.398438 93.300781 "/>
<path style=" stroke:none;fill-rule:nonzero;fill:rgb(6.666667%,6.666667%,2.745098%);fill-opacity:1;" d="M 99.699219 21.398438 C 99.699219 21.398438 105.601562 13.300781 108.699219 20.800781 C 111.800781 28.300781 106.398438 30 100.601562 27.800781 C 94.800781 25.601562 99.699219 21.398438 99.699219 21.398438 Z M 99.699219 21.398438 "/>
<path style=" stroke:none;fill-rule:nonzero;fill:rgb(6.666667%,6.666667%,2.745098%);fill-opacity:1;" d="M 104.898438 28.699219 C 103.601562 28.699219 102.101562 28.398438 100.5 27.800781 C 98.800781 27.199219 97.800781 26.300781 97.601562 25.199219 C 97.300781 23.300781 99.300781 21.398438 99.5 21.300781 C 99.699219 21 102.601562 17.199219 105.398438 17.5 C 106.699219 17.699219 107.800781 18.699219 108.699219 20.699219 C 110.300781 24.5 109.5 26.398438 108.601562 27.398438 C 107.898438 28.300781 106.5 28.699219 104.898438 28.699219 Z M 105.199219 17.699219 C 102.5 17.699219 99.800781 21.398438 99.800781 21.398438 C 99.800781 21.398438 97.601562 23.300781 98 25.199219 C 98.199219 26.199219 99.101562 27.101562 100.699219 27.699219 C 104.101562 29 107.199219 28.800781 108.601562 27.300781 C 109.898438 26 109.898438 23.699219 108.601562 20.800781 C 107.800781 18.898438 106.800781 17.898438 105.5 17.699219 C 105.398438 17.699219 105.300781 17.699219 105.199219 17.699219 Z M 105.199219 17.699219 "/>
<path style=" stroke:none;fill-rule:nonzero;fill:rgb(100%,100%,100%);fill-opacity:1;" d="M 82.246094 24.792969 C 80.285156 24.214844 77.910156 26.410156 76.941406 29.695312 C 75.972656 32.980469 76.777344 36.109375 78.738281 36.6875 C 80.699219 37.265625 83.070312 35.070312 84.039062 31.785156 C 85.007812 28.503906 84.203125 25.371094 82.246094 24.792969 Z M 82.246094 24.792969 "/>
<path style=" stroke:none;fill-rule:nonzero;fill:rgb(6.666667%,6.666667%,2.745098%);fill-opacity:1;" d="M 79.300781 37.101562 C 79.101562 37.101562 78.800781 37.101562 78.601562 37 C 76.5 36.398438 75.699219 33.101562 76.699219 29.699219 C 77.699219 26.300781 80.199219 24 82.300781 24.601562 C 84.398438 25.199219 85.199219 28.5 84.199219 31.898438 C 83.300781 34.898438 81.199219 37.101562 79.300781 37.101562 Z M 81.601562 25 C 79.898438 25 78 27 77.199219 29.800781 C 76.300781 33 77 36 78.800781 36.5 C 80.601562 37 82.800781 34.898438 83.800781 31.699219 C 84.699219 28.5 84 25.5 82.199219 25 C 82 25 81.800781 25 81.601562 25 Z M 84 31.800781 Z M 84 31.800781 "/>
<path style=" stroke:none;fill-rule:nonzero;fill:rgb(100%,100%,100%);fill-opacity:1;" d="M 82 66.300781 C 79.800781 71.898438 77.601562 77.699219 75.5 83.601562 C 75.5 83.601562 75.5 83.601562 75.5 83.699219 C 74.300781 87.101562 73.101562 90.5 72 93.898438 L 29.800781 93.898438 L 33.300781 83.699219 C 43 82.800781 52.601562 82 62.300781 81.101562 C 64.5 77.199219 66.800781 73.199219 69 69.101562 C 72 63.5 74.800781 58.101562 77.398438 52.699219 C 77.5 52.5 77.601562 52.398438 77.601562 52.199219 C 77.800781 52.101562 78 51.898438 78.300781 51.800781 C 79.5 56.601562 80.800781 61.5 82 66.300781 Z M 82 66.300781 "/>
<path style=" stroke:none;fill-rule:nonzero;fill:rgb(6.666667%,6.666667%,2.745098%);fill-opacity:1;" d="M 71.898438 94.101562 L 29.800781 94.101562 C 29.699219 94.101562 29.601562 94.101562 29.601562 94 C 29.601562 93.898438 29.5 93.898438 29.601562 93.800781 L 33.101562 83.601562 C 33.101562 83.5 33.199219 83.398438 33.300781 83.398438 L 62.199219 80.800781 C 64.398438 76.898438 66.699219 72.898438 68.800781 68.898438 C 71.699219 63.5 74.5 58 77.199219 52.601562 L 77.300781 52.398438 C 77.398438 52.300781 77.398438 52.199219 77.5 52.101562 C 77.5 52.101562 77.5 52 77.601562 52 C 77.800781 51.898438 78 51.699219 78.300781 51.601562 C 78.398438 51.601562 78.398438 51.601562 78.5 51.601562 C 78.601562 51.601562 78.601562 51.699219 78.601562 51.800781 C 79.800781 56.601562 81 61.5 82.199219 66.300781 C 82.199219 66.300781 82.199219 66.398438 82.199219 66.398438 C 80 72.101562 77.800781 77.898438 75.699219 83.699219 C 75.699219 83.699219 75.699219 83.699219 75.699219 83.800781 C 74.5 87.199219 73.300781 90.601562 72.199219 94 C 72.101562 94.101562 72 94.101562 71.898438 94.101562 Z M 30.199219 93.699219 L 71.800781 93.699219 C 72.898438 90.398438 74.101562 87 75.300781 83.699219 C 75.300781 83.699219 75.300781 83.699219 75.300781 83.601562 C 77.398438 77.800781 79.5 72 81.800781 66.398438 C 80.601562 61.699219 79.398438 57 78.300781 52.300781 C 78.199219 52.398438 78.101562 52.5 78 52.5 C 78 52.601562 77.898438 52.699219 77.898438 52.800781 L 77.800781 53 C 75.101562 58.5 72.300781 64 69.398438 69.398438 C 67.199219 73.398438 65 77.5 62.699219 81.398438 C 62.699219 81.5 62.601562 81.5 62.5 81.5 L 33.601562 84.101562 Z M 30.199219 93.699219 "/>
<path style=" stroke:none;fill-rule:nonzero;fill:rgb(90.196078%,23.137255%,16.862745%);fill-opacity:1;" d="M 75.398438 83.601562 C 75.5 80.398438 75.5 77.199219 75.601562 74.101562 C 74.800781 72.699219 73.699219 70.398438 73.5 67.398438 C 73.5 66.699219 73.398438 64.898438 75.199219 59 C 75.898438 56.601562 76.699219 54.398438 77.398438 52.601562 C 77.5 52.5 77.5 52.300781 77.601562 52.199219 C 77.601562 52.199219 77.601562 52.199219 77.699219 52.199219 C 77.898438 52.101562 78.101562 51.898438 78.398438 51.800781 C 80.800781 50.398438 84.800781 48.398438 90.199219 47.898438 C 98.101562 47.101562 104.199219 50 106.5 51.199219 C 107.601562 55.199219 108.601562 59.300781 109.5 63.5 C 112.398438 76.398438 114.300781 88.601562 115.5 100.101562 L 74.699219 100.101562 C 74.800781 98.601562 74.898438 97.101562 75 95.5 C 75.199219 91.5 75.300781 87.601562 75.398438 83.601562 Z M 75.398438 83.601562 "/>
<path style=" stroke:none;fill-rule:nonzero;fill:rgb(6.666667%,6.666667%,2.745098%);fill-opacity:1;" d="M 115.601562 100.199219 L 74.601562 100.199219 L 74.601562 100.101562 C 74.699219 98.5 74.800781 97 74.898438 95.5 C 75.101562 91.601562 75.300781 87.601562 75.398438 83.601562 L 75.5 83.601562 L 75.398438 83.601562 C 75.5 80.5 75.5 77.300781 75.601562 74.101562 C 74.300781 72 73.601562 69.699219 73.5 67.398438 C 73.398438 66.398438 73.601562 64.398438 75.199219 59 C 75.898438 56.898438 76.601562 54.699219 77.398438 52.601562 L 77.5 52.398438 C 77.5 52.300781 77.601562 52.199219 77.601562 52.101562 C 77.601562 52.101562 77.601562 52.101562 77.699219 52.101562 C 77.898438 52 78.101562 51.800781 78.398438 51.699219 C 82 49.5 86.101562 48.199219 90.199219 47.800781 C 97.699219 47.101562 103.699219 49.601562 106.601562 51.101562 C 107.699219 55.199219 108.699219 59.300781 109.601562 63.398438 C 112.300781 75.398438 114.300781 87.699219 115.601562 100 Z M 74.800781 100 L 115.398438 100 C 114.101562 87.800781 112.101562 75.5 109.398438 63.5 C 108.5 59.398438 107.5 55.300781 106.398438 51.300781 C 103.5 49.699219 97.601562 47.300781 90.199219 48 C 86.101562 48.398438 82 49.800781 78.398438 51.898438 C 78.101562 52.101562 77.898438 52.199219 77.699219 52.300781 C 77.699219 52.398438 77.601562 52.5 77.601562 52.601562 L 77.5 52.800781 C 76.699219 54.898438 76 57 75.300781 59.101562 C 73.5 65.101562 73.601562 66.898438 73.601562 67.398438 C 73.699219 69.699219 74.398438 71.898438 75.699219 74 C 75.699219 77.199219 75.601562 80.398438 75.5 83.5 C 75.398438 87.5 75.199219 91.5 75 95.398438 C 75 97 74.898438 98.5 74.800781 100 Z M 74.800781 100 "/>
<path style=" stroke:none;fill-rule:nonzero;fill:rgb(6.666667%,6.666667%,2.745098%);fill-opacity:1;" d="M 79.398438 30.5 C 79.398438 25.398438 82.300781 21 86.5 19.398438 C 91 17.699219 95.101562 20 95.300781 20.101562 C 98.398438 21.898438 99.601562 24.699219 100 25.898438 C 102.5 33.101562 96.101562 39.699219 95.5 40.300781 C 94.300781 41.5 93.5 42.300781 79.398438 30.5 Z M 79.398438 30.5 "/>
<path style=" stroke:none;fill-rule:nonzero;fill:rgb(6.666667%,6.666667%,2.745098%);fill-opacity:1;" d="M 94.300781 41 C 92.699219 41 89.398438 39 79.300781 30.601562 C 79.300781 25.5 82.199219 21 86.5 19.398438 C 91.101562 17.699219 95.199219 20 95.398438 20.101562 C 98.300781 21.800781 99.601562 24.5 100.101562 25.898438 C 102.601562 33.101562 96.300781 39.601562 95.601562 40.300781 C 95.300781 40.699219 94.898438 41 94.300781 41 Z M 79.5 30.5 C 93.5 42.199219 94.300781 41.398438 95.5 40.199219 C 96.199219 39.5 102.398438 33 100 25.898438 C 99.5 24.5 98.199219 21.898438 95.300781 20.199219 C 95.101562 20.101562 91 17.800781 86.5 19.5 C 82.300781 21.101562 79.5 25.5 79.5 30.5 Z M 79.5 30.5 "/>
<path style=" stroke:none;fill-rule:nonzero;fill:rgb(100%,100%,100%);fill-opacity:1;" d="M 98.699219 32.898438 C 98.398438 34.699219 96.898438 36.199219 95.800781 36.800781 L 95.800781 38 C 95.898438 42.199219 96 46.5 96.199219 50.699219 C 95.898438 51 93.800781 53.601562 90.300781 53.601562 C 87.800781 53.601562 86.101562 52.199219 85.601562 51.800781 C 85.601562 50.101562 85.699219 48.5 85.699219 46.800781 L 85.601562 44.601562 C 84.699219 44.601562 83.898438 44.601562 83.5 44.5 C 81.898438 44.300781 81 44.199219 80.101562 43.5 C 76.300781 40.699219 79 32 79.5 30.5 C 80.398438 27.601562 81.101562 25.398438 83.398438 23.800781 C 85.5 22.300781 88.699219 21.699219 91.300781 22.898438 C 92.699219 23.601562 93.699219 24.800781 94.300781 26.199219 C 94.898438 27.601562 95.199219 29.199219 95.300781 30.699219 C 96.398438 29.898438 97.699219 29.898438 98.398438 30.398438 C 99 31.199219 98.800781 32.398438 98.699219 32.898438 Z M 98.699219 32.898438 "/>
<path style=" stroke:none;fill-rule:nonzero;fill:rgb(6.666667%,6.666667%,2.745098%);fill-opacity:1;" d="M 90.300781 53.800781 C 87.800781 53.800781 86.101562 52.601562 85.398438 51.898438 C 85.300781 51.898438 85.300781 51.800781 85.300781 51.699219 L 85.398438 46.699219 L 85.300781 44.699219 C 84.5 44.699219 83.898438 44.699219 83.398438 44.601562 C 81.800781 44.398438 80.800781 44.300781 79.800781 43.601562 C 76.300781 41 78.101562 33.5 79.101562 30.398438 C 80 27.5 80.699219 25.199219 83 23.601562 C 85.101562 22.199219 88.398438 21.398438 91.101562 22.699219 C 92.5 23.398438 93.5 24.5 94.300781 26.101562 C 94.800781 27.300781 95.199219 28.699219 95.300781 30.300781 C 96.398438 29.699219 97.601562 29.699219 98.300781 30.300781 C 99.199219 31 98.898438 32.398438 98.800781 32.898438 C 98.5 34.699219 97.101562 36.199219 95.898438 36.898438 L 95.898438 38 L 96.300781 50.699219 C 96.300781 50.800781 96.300781 50.800781 96.199219 50.898438 C 95.898438 51.398438 93.800781 53.800781 90.300781 53.800781 Z M 85.800781 51.601562 C 86.601562 52.300781 88.101562 53.300781 90.300781 53.300781 C 90.300781 53.300781 90.398438 53.300781 90.398438 53.300781 C 93.5 53.300781 95.5 51.199219 95.898438 50.601562 L 95.5 38 L 95.5 36.800781 C 95.5 36.699219 95.601562 36.601562 95.601562 36.601562 C 96.699219 36 98.101562 34.5 98.398438 32.898438 C 98.5 32.5 98.699219 31.300781 98 30.800781 C 97.398438 30.300781 96.199219 30.398438 95.199219 31.101562 C 95.101562 31.101562 95 31.199219 95 31.101562 C 94.898438 31.101562 94.898438 31 94.898438 30.898438 C 94.800781 29.199219 94.5 27.699219 93.898438 26.398438 C 93.199219 24.898438 92.199219 23.898438 91 23.199219 C 88.398438 21.898438 85.300781 22.699219 83.300781 24 C 81.101562 25.5 80.5 27.601562 79.5 30.5 C 78.601562 33.5 76.800781 40.800781 80 43.199219 C 80.898438 43.800781 81.800781 43.898438 83.300781 44.101562 C 83.800781 44.199219 84.5 44.199219 85.398438 44.199219 C 85.5 44.199219 85.601562 44.300781 85.699219 44.398438 L 85.800781 46.601562 Z M 98.699219 32.898438 Z M 98.699219 32.898438 "/>
<path style=" stroke:none;fill-rule:nonzero;fill:rgb(6.666667%,6.666667%,2.745098%);fill-opacity:1;" d="M 95.199219 30.800781 C 94.300781 28.601562 93.199219 27.601562 92.398438 27.101562 C 89.601562 25.398438 86.699219 27 85.101562 25 C 85.101562 25 85.101562 25 83.699219 22.398438 C 85.601562 19.800781 88.398438 18.199219 90.800781 18.699219 C 94.199219 19.5 97.300781 24.800781 95.199219 30.800781 Z M 95.199219 30.800781 "/>
<path style=" stroke:none;fill-rule:nonzero;fill:rgb(6.666667%,6.666667%,2.745098%);fill-opacity:1;" d="M 95.199219 31.101562 L 95.101562 30.898438 C 94.398438 29.199219 93.5 28 92.300781 27.300781 C 91 26.5 89.601562 26.398438 88.5 26.398438 C 87.101562 26.300781 85.898438 26.300781 85 25.199219 C 85 25.199219 84.101562 23.601562 83.601562 22.601562 C 85.601562 19.898438 88.5 18.398438 90.800781 18.898438 C 92.300781 19.199219 93.699219 20.398438 94.699219 22.101562 C 96.199219 24.699219 96.398438 27.898438 95.300781 31.101562 Z M 83.800781 22.5 C 85.101562 24.800781 85.199219 25 85.199219 25 C 86 26 87.199219 26.101562 88.5 26.101562 C 89.699219 26.199219 91.101562 26.199219 92.398438 27 C 93.601562 27.699219 94.5 28.898438 95.199219 30.5 C 96.199219 27.5 95.898438 24.300781 94.5 21.898438 C 93.601562 20.199219 92.199219 19.101562 90.699219 18.800781 C 88.601562 18.398438 85.800781 19.800781 83.800781 22.5 Z M 83.800781 22.5 "/>
<path style=" stroke:none;fill-rule:nonzero;fill:rgb(6.666667%,6.666667%,2.745098%);fill-opacity:1;" d="M 90.5 43.199219 C 90.5 43.199219 89.101562 45.800781 85.699219 46.601562 L 85.601562 44.601562 C 87 44.601562 88.800781 44.300781 90.398438 43.199219 Z M 90.5 43.199219 "/>
<path style=" stroke:none;fill-rule:nonzero;fill:rgb(6.666667%,6.666667%,2.745098%);fill-opacity:1;" d="M 85.601562 46.601562 L 85.5 44.398438 L 85.601562 44.398438 C 87.398438 44.300781 89 43.898438 90.398438 43.101562 L 90.699219 43 L 90.601562 43.199219 C 90.601562 43.199219 89.101562 45.800781 85.699219 46.601562 Z M 85.699219 44.601562 L 85.800781 46.398438 C 88.5 45.800781 89.898438 44 90.300781 43.300781 C 89 44.101562 87.398438 44.601562 85.699219 44.601562 Z M 85.699219 44.601562 "/>
<path style=" stroke:none;fill-rule:nonzero;fill:rgb(6.666667%,6.666667%,2.745098%);fill-opacity:1;" d="M 81.199219 35.300781 C 81.101562 34.398438 81.199219 33.5 81.601562 32.601562 C 81.898438 31.898438 82.5 31.199219 83.101562 30.699219 L 83.398438 31 C 82.800781 31.5 82.300781 32.101562 82 32.800781 C 81.601562 33.601562 81.5 34.398438 81.601562 35.199219 Z M 81.199219 35.300781 "/>
<path style=" stroke:none;fill-rule:nonzero;fill:rgb(100%,100%,100%);fill-opacity:1;" d="M 98.300781 87.101562 C 96.800781 86 93.199219 83.800781 88.601562 84 C 87 84.101562 85.199219 84.699219 81.601562 85.898438 C 80 86.398438 78.601562 87 78.699219 87.5 C 78.699219 87.800781 79.300781 88 79.699219 88.199219 C 78.800781 88.199219 78.101562 88.699219 78.101562 89.300781 C 78.101562 89.699219 78.398438 90 78.5 90.101562 C 78.5 90.101562 77 91.601562 78.898438 92.300781 C 78.898438 92.300781 77.601562 93.699219 79.898438 94.398438 C 82.199219 95.101562 89 94 89 94 C 89 94 96 94.398438 99.101562 92.800781 C 99.398438 92.601562 99.898438 92.300781 100.101562 91.800781 C 101 90.199219 98.699219 87.5 98.300781 87.101562 Z M 98.300781 87.101562 "/>
<path style=" stroke:none;fill-rule:nonzero;fill:rgb(6.666667%,6.666667%,2.745098%);fill-opacity:1;" d="M 82.101562 95 C 81.101562 95 80.300781 94.898438 79.699219 94.699219 C 78.898438 94.398438 78.398438 94 78.199219 93.5 C 78.101562 93.101562 78.300781 92.699219 78.398438 92.398438 C 77.898438 92.199219 77.601562 91.898438 77.5 91.5 C 77.398438 90.898438 77.699219 90.398438 78 90.101562 C 77.800781 89.898438 77.699219 89.601562 77.699219 89.199219 C 77.699219 88.699219 78.101562 88.300781 78.699219 88 C 78.5 87.898438 78.300781 87.699219 78.300781 87.5 C 78.199219 86.800781 79.300781 86.300781 81.398438 85.601562 C 85 84.398438 86.898438 83.699219 88.5 83.699219 C 92.699219 83.5 96.199219 85.300781 98.398438 86.800781 C 99 87.5 101.101562 90.101562 100.101562 92 C 99.898438 92.398438 99.5 92.800781 99 93.101562 C 95.898438 94.699219 89.300781 94.300781 88.800781 94.300781 C 88.5 94.5 84.898438 95 82.101562 95 Z M 79.601562 88.5 C 78.800781 88.5 78.300781 88.898438 78.300781 89.398438 C 78.300781 89.699219 78.5 89.898438 78.601562 90 C 78.699219 90.101562 78.699219 90.199219 78.601562 90.300781 C 78.398438 90.5 78 91 78.101562 91.398438 C 78.199219 91.699219 78.398438 91.898438 78.898438 92.101562 C 79 92.101562 79 92.199219 79.101562 92.300781 C 79.101562 92.398438 79.101562 92.5 79 92.5 C 79 92.5 78.601562 93 78.699219 93.398438 C 78.800781 93.699219 79.199219 94 79.898438 94.199219 C 82.101562 94.898438 88.800781 93.800781 88.898438 93.800781 C 88.898438 93.800781 88.898438 93.800781 89 93.800781 C 89.101562 93.800781 96 94.199219 99 92.601562 C 99.398438 92.398438 99.699219 92.101562 99.898438 91.800781 C 100.699219 90.199219 98.699219 87.699219 98.199219 87.199219 C 96.101562 85.699219 92.699219 84 88.601562 84.199219 C 87 84.300781 85.199219 84.898438 81.601562 86.101562 C 80.898438 86.300781 80.101562 86.601562 79.5 86.898438 C 78.800781 87.300781 78.800781 87.398438 78.800781 87.5 C 78.800781 87.5 78.800781 87.699219 79.601562 87.898438 C 79.699219 87.898438 79.800781 88 79.800781 88.199219 C 79.800781 88.398438 79.699219 88.5 79.601562 88.5 Z M 79.601562 88.5 "/>
<path style=" stroke:none;fill-rule:nonzero;fill:rgb(6.666667%,6.666667%,2.745098%);fill-opacity:1;" d="M 86.199219 86.601562 C 86.199219 86.5 86 86.398438 85.898438 86.398438 L 79.601562 88 C 79.5 88 79.398438 88.199219 79.398438 88.300781 C 79.398438 88.398438 79.5 88.5 79.601562 88.5 C 79.601562 88.5 79.601562 88.5 79.699219 88.5 L 86.101562 86.898438 C 86.199219 86.898438 86.199219 86.699219 86.199219 86.601562 Z M 86.199219 86.601562 "/>
<path style=" stroke:none;fill-rule:nonzero;fill:rgb(6.666667%,6.666667%,2.745098%);fill-opacity:1;" d="M 85.699219 88.398438 L 78.300781 89.898438 C 78.199219 89.898438 78.101562 90.101562 78.101562 90.199219 C 78.101562 90.300781 78.199219 90.398438 78.300781 90.398438 L 85.699219 88.898438 C 85.800781 88.898438 85.898438 88.699219 85.898438 88.601562 C 86 88.5 85.898438 88.398438 85.699219 88.398438 Z M 85.699219 88.398438 "/>
<path style=" stroke:none;fill-rule:nonzero;fill:rgb(6.666667%,6.666667%,2.745098%);fill-opacity:1;" d="M 85.199219 90.898438 L 78.800781 92.101562 C 78.699219 92.101562 78.601562 92.300781 78.601562 92.398438 C 78.601562 92.5 78.699219 92.601562 78.800781 92.601562 L 85.199219 91.398438 C 85.300781 91.398438 85.398438 91.199219 85.398438 91.101562 C 85.5 91 85.300781 90.898438 85.199219 90.898438 Z M 85.199219 90.898438 "/>
<path style=" stroke:none;fill-rule:nonzero;fill:rgb(100%,100%,100%);fill-opacity:1;" d="M 98.808594 27.914062 C 96.847656 27.335938 94.472656 29.53125 93.503906 32.816406 C 92.535156 36.101562 93.339844 39.230469 95.300781 39.808594 C 97.261719 40.386719 99.632812 38.195312 100.601562 34.910156 C 101.570312 31.625 100.765625 28.492188 98.808594 27.914062 Z M 98.808594 27.914062 "/>
<path style=" stroke:none;fill-rule:nonzero;fill:rgb(6.666667%,6.666667%,2.745098%);fill-opacity:1;" d="M 95.898438 40.199219 C 95.699219 40.199219 95.398438 40.199219 95.199219 40.101562 C 93.101562 39.5 92.300781 36.199219 93.300781 32.800781 C 94.300781 29.398438 96.800781 27.101562 98.898438 27.699219 C 101 28.300781 101.800781 31.601562 100.800781 35 C 99.898438 38.101562 97.800781 40.199219 95.898438 40.199219 Z M 98.199219 28.101562 C 96.5 28.101562 94.601562 30.101562 93.800781 32.898438 C 92.898438 36.101562 93.601562 39.101562 95.398438 39.601562 C 97.199219 40.101562 99.398438 38 100.398438 34.800781 C 101.300781 31.601562 100.601562 28.601562 98.800781 28.101562 C 98.601562 28.101562 98.398438 28.101562 98.199219 28.101562 Z M 100.601562 34.898438 Z M 100.601562 34.898438 "/>
<path style=" stroke:none;fill-rule:nonzero;fill:rgb(100%,100%,100%);fill-opacity:1;" d="M 98.101562 28.601562 C 98.101562 28.601562 100.5 24.300781 97.898438 22.300781 C 95.300781 20.199219 91.601562 17.699219 84.601562 20.300781 C 84.601562 20.300781 84.699219 18 91.101562 18.398438 C 97.5 18.800781 101 22.101562 101.601562 23.898438 C 102.101562 25.699219 101.101562 29.898438 101.101562 29.898438 C 101.101562 29.898438 98.800781 30.699219 98.101562 28.601562 Z M 98.101562 28.601562 "/>
<path style=" stroke:none;fill-rule:nonzero;fill:rgb(6.666667%,6.666667%,2.745098%);fill-opacity:1;" d="M 100.101562 30.300781 C 99.699219 30.300781 99.300781 30.199219 98.898438 30 C 98.398438 29.699219 98 29.300781 97.800781 28.601562 C 97.800781 28.5 97.800781 28.5 97.800781 28.398438 C 97.800781 28.398438 100.101562 24.300781 97.699219 22.398438 C 94.800781 20.101562 91.300781 17.898438 84.699219 20.5 C 84.601562 20.5 84.5 20.5 84.5 20.5 C 84.398438 20.5 84.398438 20.398438 84.398438 20.300781 C 84.398438 20.199219 84.398438 19.800781 85 19.300781 C 85.699219 18.699219 87.398438 17.898438 91.199219 18.199219 C 97.5 18.601562 101.300781 21.800781 101.898438 23.898438 C 102.398438 25.800781 101.398438 29.898438 101.398438 30 C 101.398438 30.101562 101.300781 30.101562 101.199219 30.199219 C 101.199219 30.199219 100.699219 30.300781 100.101562 30.300781 Z M 98.398438 28.601562 C 98.601562 29.101562 98.800781 29.398438 99.199219 29.601562 C 99.800781 29.898438 100.601562 29.800781 100.898438 29.699219 C 101.101562 29 101.800781 25.5 101.398438 24 C 101 22.5 97.800781 19.101562 91.199219 18.699219 C 87 18.398438 85.601562 19.398438 85.199219 19.898438 C 92.300781 17.398438 96.101562 20.5 98.199219 22.101562 C 100.601562 24.101562 98.699219 28 98.398438 28.601562 Z M 98.398438 28.601562 "/>
<path style=" stroke:none;fill-rule:nonzero;fill:rgb(6.666667%,6.666667%,2.745098%);fill-opacity:1;" d="M 88.601562 43 C 87.199219 43 85.5 42.800781 83.601562 42.199219 C 83.398438 42.101562 83.300781 41.898438 83.300781 41.699219 C 83.398438 41.5 83.601562 41.398438 83.800781 41.398438 C 87.398438 42.5 90.601562 42.5 92.898438 41.199219 C 94.699219 40.300781 95.398438 39 95.398438 39 C 95.5 38.800781 95.699219 38.699219 95.898438 38.800781 C 96.101562 38.898438 96.199219 39.101562 96.101562 39.300781 C 96.101562 39.398438 95.300781 40.800781 93.300781 41.800781 C 92.300781 42.5 90.800781 43 88.601562 43 Z M 88.601562 43 "/>
<path style=" stroke:none;fill-rule:nonzero;fill:rgb(6.666667%,6.666667%,2.745098%);fill-opacity:1;" d="M 84.800781 40.898438 C 84.800781 41.839844 84.039062 42.601562 83.101562 42.601562 C 82.160156 42.601562 81.398438 41.839844 81.398438 40.898438 C 81.398438 39.960938 82.160156 39.199219 83.101562 39.199219 C 84.039062 39.199219 84.800781 39.960938 84.800781 40.898438 Z M 84.800781 40.898438 "/>
<path style=" stroke:none;fill-rule:nonzero;fill:rgb(6.666667%,6.666667%,2.745098%);fill-opacity:1;" d="M 83.101562 42.699219 C 82.101562 42.699219 81.300781 41.898438 81.300781 40.898438 C 81.300781 39.898438 82.101562 39.101562 83.101562 39.101562 C 84.101562 39.101562 84.898438 39.898438 84.898438 40.898438 C 84.898438 41.898438 84.101562 42.699219 83.101562 42.699219 Z M 83.101562 39.300781 C 82.199219 39.300781 81.5 40 81.5 40.898438 C 81.5 41.800781 82.199219 42.5 83.101562 42.5 C 84 42.5 84.699219 41.800781 84.699219 40.898438 C 84.699219 40 84 39.300781 83.101562 39.300781 Z M 83.101562 39.300781 "/>
<path style=" stroke:none;fill-rule:nonzero;fill:rgb(100%,100%,100%);fill-opacity:1;" d="M 100.484375 28.429688 C 98.523438 27.851562 96.152344 30.046875 95.183594 33.332031 C 94.214844 36.617188 95.019531 39.746094 96.976562 40.324219 C 98.9375 40.902344 101.3125 38.707031 102.28125 35.425781 C 103.25 32.140625 102.445312 29.007812 100.484375 28.429688 Z M 100.484375 28.429688 "/>
<path style=" stroke:none;fill-rule:nonzero;fill:rgb(6.666667%,6.666667%,2.745098%);fill-opacity:1;" d="M 97.601562 40.699219 C 97.398438 40.699219 97.101562 40.699219 96.898438 40.601562 C 94.898438 40 94 36.699219 95 33.300781 C 96 29.898438 98.5 27.601562 100.601562 28.199219 C 102.699219 28.800781 103.5 32.101562 102.5 35.5 C 101.601562 38.601562 99.5 40.699219 97.601562 40.699219 Z M 99.898438 28.601562 C 98.199219 28.601562 96.300781 30.601562 95.5 33.398438 C 94.601562 36.601562 95.300781 39.601562 97.101562 40.101562 C 98.898438 40.601562 101.101562 38.5 102.101562 35.300781 C 103 32.101562 102.300781 29.101562 100.5 28.601562 C 100.300781 28.699219 100.101562 28.601562 99.898438 28.601562 Z M 102.300781 35.5 Z M 102.300781 35.5 "/>
<path style=" stroke:none;fill-rule:nonzero;fill:rgb(100%,100%,100%);fill-opacity:1;" d="M 104.601562 70.699219 C 107.898438 74.800781 111.300781 78.898438 114.601562 83 C 108.101562 83.199219 101.5 83.398438 95 83.699219 C 95.300781 87 95.5 90.300781 95.800781 93.601562 L 127.800781 93.601562 C 130.601562 93.601562 132.398438 90.800781 131.300781 88.199219 C 129.199219 83.601562 126.699219 78.5 123.5 73.300781 C 117.898438 64.199219 111.898438 56.898438 106.5 51.199219 C 106 51.300781 105.199219 51.601562 104.398438 52.101562 C 104 52.398438 102.398438 53.601562 101.601562 57.101562 C 101.601562 57.199219 101.5 57.398438 101.5 57.5 C 100.5 62.199219 101.699219 67.101562 104.601562 70.699219 Z M 104.601562 70.699219 "/>
<path style=" stroke:none;fill-rule:nonzero;fill:rgb(6.666667%,6.666667%,2.745098%);fill-opacity:1;" d="M 127.800781 93.898438 L 95.800781 93.898438 C 95.699219 93.898438 95.601562 93.800781 95.601562 93.699219 L 94.800781 83.800781 C 94.800781 83.699219 94.800781 83.699219 94.898438 83.601562 C 94.898438 83.601562 95 83.5 95.101562 83.5 L 114.199219 82.898438 L 104.5 70.898438 C 101.398438 67.101562 100.300781 62.199219 101.300781 57.601562 C 101.300781 57.5 101.398438 57.300781 101.398438 57.199219 C 102.199219 54.101562 103.398438 52.699219 104.300781 52 C 104.898438 51.601562 105.699219 51.199219 106.5 51 C 106.601562 51 106.699219 51 106.699219 51.101562 C 113.199219 57.898438 118.898438 65.300781 123.699219 73.199219 C 126.601562 78 129.199219 83 131.5 88.101562 C 132.101562 89.398438 131.898438 90.800781 131.199219 92 C 130.5 93.199219 129.199219 93.898438 127.800781 93.898438 Z M 96 93.398438 L 127.800781 93.398438 C 129 93.398438 130.101562 92.800781 130.800781 91.800781 C 131.5 90.800781 131.601562 89.5 131.101562 88.398438 C 128.800781 83.300781 126.199219 78.300781 123.300781 73.5 C 118.5 65.601562 112.800781 58.300781 106.398438 51.601562 C 105.699219 51.800781 105.101562 52.101562 104.5 52.398438 C 103.300781 53.199219 102.300781 55 101.800781 57.300781 C 101.800781 57.398438 101.699219 57.5 101.699219 57.699219 C 100.699219 62.199219 101.800781 66.898438 104.800781 70.601562 L 114.800781 82.898438 C 114.898438 83 114.898438 83.101562 114.800781 83.199219 C 114.800781 83.300781 114.699219 83.300781 114.601562 83.300781 L 95.300781 83.898438 Z M 96 93.398438 "/>
<path style=" stroke:none;fill-rule:nonzero;fill:rgb(100%,100%,100%);fill-opacity:1;" d="M 89.300781 54.101562 C 88.5 54.199219 87.800781 54.101562 87.398438 54 C 87.101562 53.898438 86.800781 53.800781 86.398438 53.601562 C 86.101562 53.398438 85.699219 53 85.5 52.5 C 84.5 50.300781 83.898438 47.800781 83.898438 47.800781 C 84.300781 47.300781 84.800781 46.800781 85.199219 46.398438 C 85.199219 46.898438 85.398438 48 86.199219 49.199219 C 87 50.398438 88.101562 51 88.699219 51.300781 L 88.699219 51.5 C 89 52.300781 89.199219 53.199219 89.300781 54.101562 Z M 89.300781 54.101562 "/>
<path style=" stroke:none;fill-rule:nonzero;fill:rgb(6.666667%,6.666667%,2.745098%);fill-opacity:1;" d="M 88.5 54.398438 C 88.101562 54.398438 87.699219 54.398438 87.398438 54.300781 C 87.101562 54.199219 86.699219 54.101562 86.300781 53.800781 C 85.898438 53.5 85.601562 53.101562 85.300781 52.601562 C 84.300781 50.398438 83.699219 47.898438 83.699219 47.800781 C 83.699219 47.699219 83.699219 47.699219 83.699219 47.601562 C 83.699219 47.601562 83.699219 47.601562 83.699219 47.5 C 84 47.199219 84.300781 46.898438 84.601562 46.5 L 85 46 C 85.101562 45.898438 85.199219 45.898438 85.300781 45.898438 C 85.398438 45.898438 85.5 46 85.5 46.101562 C 85.601562 46.800781 85.800781 47.800781 86.398438 48.800781 C 87.101562 49.898438 88.101562 50.5 88.800781 50.800781 C 88.898438 50.800781 88.898438 50.898438 88.898438 51 L 88.898438 51.199219 L 89.5 53.898438 C 89.5 54 89.5 54 89.5 54.101562 C 89.5 54.199219 89.398438 54.199219 89.300781 54.199219 C 89.101562 54.398438 88.800781 54.398438 88.5 54.398438 Z M 84.199219 47.898438 C 84.300781 48.398438 84.898438 50.5 85.699219 52.398438 C 85.898438 52.800781 86.199219 53.199219 86.5 53.398438 C 86.800781 53.601562 87.199219 53.699219 87.398438 53.800781 C 87.898438 53.898438 88.398438 54 88.898438 53.898438 L 88.398438 51.5 L 88.398438 51.398438 C 87.699219 51.101562 86.699219 50.398438 85.898438 49.300781 C 85.300781 48.5 85.101562 47.601562 85 46.898438 L 85 47 C 84.800781 47.300781 84.5 47.601562 84.199219 47.898438 Z M 84.199219 47.898438 "/>
<path style=" stroke:none;fill-rule:nonzero;fill:rgb(100%,100%,100%);fill-opacity:1;" d="M 97.601562 47.5 C 95.800781 49.800781 92.601562 54 92 54.300781 C 91.699219 54.398438 91.199219 54.398438 90.800781 54.398438 C 90 54.300781 89.101562 54 89.101562 54 L 89.101562 51.398438 C 90.398438 50.800781 92 49.898438 93.699219 48.699219 C 94.601562 48 95.398438 47.300781 96.101562 46.601562 C 96.5 46.800781 97 47.199219 97.601562 47.5 Z M 97.601562 47.5 "/>
<path style=" stroke:none;fill-rule:nonzero;fill:rgb(6.666667%,6.666667%,2.745098%);fill-opacity:1;" d="M 91.199219 54.601562 C 91.101562 54.601562 90.898438 54.601562 90.800781 54.601562 C 89.898438 54.5 89.101562 54.199219 89.101562 54.199219 C 89 54.199219 88.898438 54.101562 88.898438 54 L 88.898438 51.398438 C 88.898438 51.300781 89 51.199219 89 51.199219 C 90.601562 50.5 92.101562 49.601562 93.5 48.5 C 94.300781 47.898438 95.101562 47.199219 95.800781 46.398438 C 95.898438 46.300781 96 46.300781 96.101562 46.398438 L 97.601562 47.300781 C 97.699219 47.300781 97.699219 47.398438 97.699219 47.5 C 97.699219 47.601562 97.699219 47.601562 97.699219 47.699219 C 94.5 52 92.5 54.300781 92 54.5 C 91.800781 54.601562 91.5 54.601562 91.199219 54.601562 Z M 89.300781 53.800781 C 89.601562 53.898438 90.199219 54 90.800781 54.101562 C 91.300781 54.101562 91.601562 54.101562 91.898438 54 C 92.101562 53.898438 92.898438 53.300781 97.199219 47.5 L 96 46.800781 C 95.300781 47.5 94.5 48.199219 93.699219 48.800781 C 92.300781 49.898438 90.800781 50.800781 89.199219 51.5 L 89.199219 53.800781 Z M 89.300781 53.800781 "/>
<path style=" stroke:none;fill-rule:nonzero;fill:rgb(100%,100%,100%);fill-opacity:1;" d="M 99.699219 48.699219 C 99.300781 49.699219 98.601562 50.800781 97.699219 52 C 95.699219 54.398438 93.398438 55.699219 92 56.300781 C 91.5 55.5 91.101562 54.800781 90.800781 54.300781 C 90.398438 53.5 90.199219 53.101562 90.199219 52.800781 C 90.199219 52.699219 90.101562 52.300781 89.800781 51.898438 C 89.601562 51.601562 89.300781 51.5 89.101562 51.398438 C 90.398438 50.800781 92 49.898438 93.699219 48.699219 C 94.601562 48 95.398438 47.300781 96.101562 46.601562 C 96.601562 46.898438 97.101562 47.199219 97.601562 47.5 C 98.300781 47.898438 99 48.300781 99.699219 48.699219 Z M 99.699219 48.699219 "/>
<path style=" stroke:none;fill-rule:nonzero;fill:rgb(6.666667%,6.666667%,2.745098%);fill-opacity:1;" d="M 92 56.601562 C 91.898438 56.601562 91.800781 56.601562 91.800781 56.5 C 91.300781 55.699219 90.898438 55.101562 90.601562 54.5 C 90.199219 53.800781 90 53.300781 89.898438 52.898438 C 89.898438 52.800781 89.800781 52.398438 89.601562 52.101562 C 89.5 51.898438 89.300781 51.800781 89 51.601562 C 88.898438 51.601562 88.898438 51.5 88.898438 51.398438 C 88.898438 51.300781 89 51.199219 89 51.199219 C 90.601562 50.5 92.101562 49.601562 93.5 48.5 C 94.300781 47.898438 95.101562 47.199219 95.800781 46.398438 C 95.898438 46.300781 96 46.300781 96.101562 46.398438 L 99.800781 48.601562 C 99.898438 48.699219 99.898438 48.800781 99.898438 48.898438 C 99.398438 50.101562 98.699219 51.199219 97.800781 52.199219 C 96.300781 54 94.300781 55.601562 92 56.601562 Z M 89.601562 51.398438 C 89.699219 51.5 89.800781 51.601562 89.898438 51.699219 C 90.199219 52.101562 90.300781 52.601562 90.300781 52.699219 C 90.398438 53 90.601562 53.5 90.898438 54.199219 C 91.199219 54.699219 91.5 55.300781 92 56 C 94.101562 55 96 53.601562 97.398438 51.898438 C 98.199219 51 98.800781 50 99.300781 48.898438 L 96 46.898438 C 95.300781 47.601562 94.5 48.300781 93.699219 48.898438 C 92.5 49.800781 91.101562 50.699219 89.601562 51.398438 Z M 89.601562 51.398438 "/>
<path style=" stroke:none;fill-rule:nonzero;fill:rgb(100%,100%,100%);fill-opacity:1;" d="M 89.101562 51.398438 C 89 51.398438 88.898438 51.398438 88.800781 51.5 C 88.601562 51.601562 88.300781 51.699219 88.101562 51.898438 C 87.601562 52.398438 87.800781 53.101562 87.601562 53.898438 C 87.601562 54 87.601562 54 87.5 54.101562 C 87.300781 54.699219 86.898438 55.398438 86 56.101562 C 85.300781 55.300781 84.601562 54.199219 83.898438 52.800781 C 83.300781 51.5 82.898438 50.300781 82.601562 49.300781 C 83.101562 48.800781 83.5 48.300781 84 47.800781 C 84.398438 47.300781 84.898438 46.800781 85.300781 46.398438 C 85.300781 46.898438 85.5 48 86.300781 49.199219 C 87.101562 50.398438 88.199219 51 88.800781 51.300781 C 88.898438 51.300781 89 51.300781 89.101562 51.398438 Z M 89.101562 51.398438 "/>
<path style=" stroke:none;fill-rule:nonzero;fill:rgb(6.666667%,6.666667%,2.745098%);fill-opacity:1;" d="M 85.898438 56.300781 C 85.800781 56.300781 85.800781 56.300781 85.699219 56.199219 C 84.898438 55.199219 84.199219 54.101562 83.601562 52.898438 C 83 51.800781 82.601562 50.601562 82.300781 49.398438 C 82.300781 49.300781 82.300781 49.199219 82.398438 49.199219 L 83.699219 47.699219 C 84 47.398438 84.300781 47.101562 84.601562 46.699219 L 85 46.199219 C 85.101562 46.101562 85.199219 46.101562 85.300781 46.101562 C 85.398438 46.101562 85.5 46.199219 85.5 46.300781 C 85.601562 47 85.800781 48 86.398438 49 C 87.101562 50.101562 88.101562 50.699219 88.800781 51 C 88.898438 51.101562 89 51.101562 89.101562 51.101562 C 89.199219 51.101562 89.300781 51.199219 89.300781 51.300781 C 89.300781 51.398438 89.199219 51.5 89.101562 51.5 C 89 51.5 88.898438 51.5 88.800781 51.601562 C 88.5 51.699219 88.300781 51.800781 88.199219 52 C 87.898438 52.300781 87.898438 52.699219 87.800781 53.101562 C 87.800781 53.300781 87.800781 53.601562 87.699219 53.800781 C 87.699219 53.898438 87.699219 53.898438 87.601562 54 C 87.398438 54.800781 86.800781 55.5 86 56.101562 C 86.101562 56.300781 86 56.300781 85.898438 56.300781 Z M 82.898438 49.398438 C 83.199219 50.5 83.601562 51.699219 84.101562 52.699219 C 84.601562 53.800781 85.300781 54.800781 86 55.699219 C 86.601562 55.199219 87.101562 54.601562 87.199219 54 C 87.199219 53.898438 87.199219 53.898438 87.300781 53.800781 C 87.398438 53.601562 87.398438 53.300781 87.398438 53.101562 C 87.398438 52.601562 87.5 52.101562 87.898438 51.699219 C 88 51.5 88.199219 51.398438 88.398438 51.300781 C 87.699219 51 86.800781 50.300781 86.101562 49.300781 C 85.5 48.5 85.300781 47.601562 85.199219 46.898438 L 85 47 C 84.699219 47.300781 84.398438 47.601562 84.101562 48 Z M 82.898438 49.398438 "/>
<path style=" stroke:none;fill-rule:nonzero;fill:rgb(100%,100%,100%);fill-opacity:1;" d="M 87.800781 100.300781 C 87.601562 100.300781 87.5 100.101562 87.601562 100 C 87.898438 98.699219 87.398438 91 87 83.601562 C 86.601562 76.300781 86.101562 68.699219 86.300781 66.300781 C 86.699219 61.398438 88.800781 53.898438 88.800781 53.800781 C 88.800781 53.699219 89 53.601562 89.101562 53.601562 C 89.199219 53.601562 89.300781 53.800781 89.300781 53.898438 C 89.300781 54 87.199219 61.398438 86.800781 66.300781 C 86.601562 68.699219 87 76.199219 87.5 83.5 C 88 91.300781 88.398438 98.699219 88.101562 100 C 88.101562 100.300781 88 100.300781 87.800781 100.300781 Z M 87.800781 100.300781 "/>
<path style=" stroke:none;fill-rule:nonzero;fill:rgb(6.666667%,6.666667%,2.745098%);fill-opacity:1;" d="M 120.5 85.398438 C 118.199219 83.300781 114.699219 83.199219 114.601562 83.199219 L 114.601562 82.800781 C 114.800781 82.800781 118.398438 82.800781 120.800781 85.101562 Z M 120.5 85.398438 "/>
<path style=" stroke:none;fill-rule:nonzero;fill:rgb(6.666667%,6.666667%,2.745098%);fill-opacity:1;" d="M 118 68.800781 C 115.800781 64.699219 109.101562 57.5 109 57.398438 L 109.300781 57.101562 C 109.398438 57.199219 116.101562 64.398438 118.300781 68.601562 Z M 118 68.800781 "/>
<path style=" stroke:none;fill-rule:nonzero;fill:rgb(6.666667%,6.666667%,2.745098%);fill-opacity:1;" d="M 118.457031 69.992188 L 118.777344 69.75 L 120.757812 72.390625 L 120.4375 72.628906 Z M 118.457031 69.992188 "/>
<path style=" stroke:none;fill-rule:nonzero;fill:rgb(6.666667%,6.666667%,2.745098%);fill-opacity:1;" d="M 98.699219 85.5 L 98.699219 85.101562 C 99.199219 85.101562 109.898438 83.898438 112.398438 85.101562 L 112.199219 85.5 C 109.800781 84.300781 98.800781 85.5 98.699219 85.5 Z M 98.699219 85.5 "/>
<path style=" stroke:none;fill-rule:nonzero;fill:rgb(100%,100%,100%);fill-opacity:1;" d="M 90.5 65 L 99.601562 65 L 99.601562 67.398438 L 90.5 67.398438 Z M 90.5 65 "/>
<path style=" stroke:none;fill-rule:nonzero;fill:rgb(6.666667%,6.666667%,2.745098%);fill-opacity:1;" d="M 99.699219 67.5 L 90.601562 67.5 C 90.5 67.5 90.398438 67.398438 90.398438 67.300781 L 90.398438 65 C 90.398438 64.898438 90.5 64.800781 90.601562 64.800781 L 99.699219 64.800781 C 99.800781 64.800781 99.898438 64.898438 99.898438 65 L 99.898438 67.398438 C 99.898438 67.398438 99.800781 67.5 99.699219 67.5 Z M 90.800781 67.101562 L 99.5 67.101562 L 99.5 65.199219 L 90.800781 65.199219 Z M 90.800781 67.101562 "/>
<path style=" stroke:none;fill-rule:nonzero;fill:rgb(100%,100%,100%);fill-opacity:1;" d="M 7.699219 97 L 153.699219 97 L 153.699219 119.699219 L 7.699219 119.699219 Z M 7.699219 97 "/>
<path style=" stroke:none;fill-rule:nonzero;fill:rgb(6.666667%,6.666667%,2.745098%);fill-opacity:1;" d="M 153.699219 120 L 7.699219 120 C 7.5 120 7.398438 119.800781 7.398438 119.699219 L 7.398438 97 C 7.398438 96.800781 7.601562 96.699219 7.699219 96.699219 L 153.699219 96.699219 C 153.898438 96.699219 154 96.898438 154 97 L 154 119.699219 C 154.101562 119.800781 153.898438 120 153.699219 120 Z M 8.101562 119.300781 L 153.398438 119.300781 L 153.398438 97.300781 L 8.101562 97.300781 Z M 8.101562 119.300781 "/>
<path style=" stroke:none;fill-rule:nonzero;fill:rgb(100%,100%,100%);fill-opacity:1;" d="M 3.300781 93.898438 L 157.699219 93.898438 L 157.699219 100.101562 L 3.300781 100.101562 Z M 3.300781 93.898438 "/>
<path style=" stroke:none;fill-rule:nonzero;fill:rgb(6.666667%,6.666667%,2.745098%);fill-opacity:1;" d="M 157.699219 100.5 L 3.300781 100.5 C 3.101562 100.5 3 100.300781 3 100.199219 L 3 94 C 3 93.800781 3.199219 93.699219 3.300781 93.699219 L 157.699219 93.699219 C 157.898438 93.699219 158 93.898438 158 94 L 158 100.199219 C 158 100.300781 157.898438 100.5 157.699219 100.5 Z M 3.601562 99.800781 L 157.300781 99.800781 L 157.300781 94.300781 L 3.601562 94.300781 Z M 3.601562 99.800781 "/>
<path style=" stroke:none;fill-rule:nonzero;fill:rgb(6.666667%,6.666667%,2.745098%);fill-opacity:1;" d="M 17 86.101562 L 10.300781 52.601562 C 10.101562 51.699219 10.800781 51 11.699219 51 L 62.5 51 C 63.199219 51 63.699219 51.5 63.898438 52.101562 C 66.300781 63.300781 68.601562 74.5 71 85.601562 C 71.199219 86.5 70.5 87.300781 69.601562 87.300781 C 52.5 87.300781 35.5 87.199219 18.398438 87.199219 C 17.699219 87.199219 17.101562 86.699219 17 86.101562 Z M 17 86.101562 "/>
<path style=" stroke:none;fill-rule:nonzero;fill:rgb(6.666667%,6.666667%,2.745098%);fill-opacity:1;" d="M 69.601562 87.398438 L 18.398438 87.300781 C 17.699219 87.300781 17.101562 86.800781 17 86.101562 L 10.300781 52.601562 C 10.199219 52.199219 10.300781 51.699219 10.601562 51.398438 C 10.898438 51.101562 11.300781 50.898438 11.699219 50.898438 L 62.5 50.898438 C 63.199219 50.898438 63.800781 51.398438 63.898438 52.101562 L 71 85.601562 C 71.101562 86 71 86.5 70.699219 86.800781 C 70.398438 87.199219 70 87.398438 69.601562 87.398438 Z M 11.699219 51.101562 C 11.300781 51.101562 10.898438 51.300781 10.699219 51.601562 C 10.5 51.898438 10.398438 52.300781 10.398438 52.699219 L 17.101562 86.199219 C 17.199219 86.800781 17.800781 87.199219 18.398438 87.199219 L 69.601562 87.300781 C 70 87.300781 70.398438 87.101562 70.601562 86.800781 C 70.800781 86.5 70.898438 86.101562 70.898438 85.699219 L 63.800781 52.199219 C 63.699219 51.601562 63.101562 51.199219 62.5 51.199219 L 11.699219 51.199219 Z M 11.699219 51.101562 "/>
<path style=" stroke:none;fill-rule:nonzero;fill:rgb(6.666667%,6.666667%,2.745098%);fill-opacity:1;" d="M 33.300781 75.5 L 37.300781 91.699219 L 48 91.699219 L 43.5 73 Z M 33.300781 75.5 "/>
<path style=" stroke:none;fill-rule:nonzero;fill:rgb(6.666667%,6.666667%,2.745098%);fill-opacity:1;" d="M 48.101562 91.800781 L 37.199219 91.800781 L 37.199219 91.699219 L 33.300781 75.398438 L 43.699219 72.898438 Z M 37.300781 91.601562 L 47.800781 91.601562 L 43.398438 73.101562 L 33.398438 75.5 Z M 37.300781 91.601562 "/>
<path style=" stroke:none;fill-rule:nonzero;fill:rgb(6.666667%,6.666667%,2.745098%);fill-opacity:1;" d="M 54.800781 93.601562 L 31.300781 93.601562 C 31.300781 91.898438 32.601562 90.601562 34.300781 90.601562 L 51.800781 90.601562 C 53.398438 90.601562 54.800781 92 54.800781 93.601562 Z M 54.800781 93.601562 "/>
<path style=" stroke:none;fill-rule:nonzero;fill:rgb(6.666667%,6.666667%,2.745098%);fill-opacity:1;" d="M 54.898438 93.699219 L 31.199219 93.699219 L 31.199219 93.601562 C 31.199219 91.898438 32.601562 90.5 34.300781 90.5 L 51.800781 90.5 C 53.5 90.5 54.898438 91.898438 54.898438 93.699219 Z M 31.300781 93.5 L 54.601562 93.5 C 54.601562 91.898438 53.300781 90.699219 51.699219 90.699219 L 34.300781 90.699219 C 32.699219 90.699219 31.398438 92 31.300781 93.5 Z M 31.300781 93.5 "/>
<path style=" stroke:none;fill-rule:nonzero;fill:rgb(6.666667%,6.666667%,2.745098%);fill-opacity:1;" d="M 11.398438 102.300781 L 37.398438 102.300781 L 37.398438 102.699219 L 11.398438 102.699219 Z M 11.398438 102.300781 "/>
<path style=" stroke:none;fill-rule:nonzero;fill:rgb(6.666667%,6.666667%,2.745098%);fill-opacity:1;" d="M 39.898438 102.300781 L 43 102.300781 L 43 102.699219 L 39.898438 102.699219 Z M 39.898438 102.300781 "/>
<path style=" stroke:none;fill-rule:nonzero;fill:rgb(6.666667%,6.666667%,2.745098%);fill-opacity:1;" d="M 89 114.800781 L 119.601562 114.800781 L 119.601562 115.199219 L 89 115.199219 Z M 89 114.800781 "/>
<path style=" stroke:none;fill-rule:nonzero;fill:rgb(6.666667%,6.666667%,2.745098%);fill-opacity:1;" d="M 122.699219 114.800781 L 125.601562 114.800781 L 125.601562 115.199219 L 122.699219 115.199219 Z M 122.699219 114.800781 "/>
<path style=" stroke:none;fill-rule:nonzero;fill:rgb(100%,100%,100%);fill-opacity:1;" d="M 120 49.5 C 117.5 49.5 115.5 47.5 115.5 45 L 115.5 34.300781 L 115.398438 34.300781 L 115.398438 27.199219 C 115.398438 26.199219 116.800781 25.898438 117.199219 26.800781 L 119.101562 30.800781 L 143.300781 30.800781 C 145.800781 30.800781 147.800781 32.800781 147.800781 35.300781 L 147.800781 45 C 147.800781 47.5 145.800781 49.5 143.300781 49.5 Z M 120 49.5 "/>
<path style=" stroke:none;fill-rule:nonzero;fill:rgb(6.666667%,6.666667%,2.745098%);fill-opacity:1;" d="M 143.398438 49.699219 L 120 49.699219 C 117.398438 49.699219 115.199219 47.601562 115.199219 44.898438 L 115.199219 34.5 C 115.199219 34.5 115.101562 34.398438 115.101562 34.300781 L 115.101562 27.199219 C 115.101562 26.601562 115.5 26.199219 116 26 C 116.601562 25.898438 117.101562 26.101562 117.300781 26.601562 L 119.199219 30.5 L 143.300781 30.5 C 145.898438 30.5 148.101562 32.601562 148.101562 35.300781 L 148.101562 45 C 148.101562 47.601562 146 49.699219 143.398438 49.699219 Z M 115.699219 34.199219 C 115.699219 34.199219 115.800781 34.300781 115.800781 34.398438 L 115.800781 45 C 115.800781 47.398438 117.699219 49.300781 120.101562 49.300781 L 143.5 49.300781 C 145.898438 49.300781 147.800781 47.398438 147.800781 45 L 147.800781 35.398438 C 147.800781 33 145.898438 31.101562 143.5 31.101562 L 119.300781 31.101562 C 119.199219 31.101562 119.101562 31 119.101562 31 L 117.199219 27 C 117 26.601562 116.699219 26.601562 116.398438 26.601562 C 116.101562 26.699219 115.898438 26.898438 115.898438 27.300781 L 115.898438 34.199219 Z M 115.699219 34.199219 "/>
<path style=" stroke:none;fill-rule:nonzero;fill:rgb(90.196078%,23.137255%,16.862745%);fill-opacity:1;" d="M 64.398438 4.300781 C 67.300781 4.300781 69.601562 6.601562 69.601562 9.5 L 69.601562 21.898438 L 69.699219 21.800781 L 69.699219 30 C 69.699219 31.199219 68.101562 31.5 67.601562 30.5 L 65.300781 25.898438 L 37.300781 25.898438 C 34.398438 25.898438 32.101562 23.601562 32.101562 20.699219 L 32.101562 9.5 C 32.101562 6.601562 34.398438 4.300781 37.300781 4.300781 Z M 64.398438 4.300781 "/>
<path style=" stroke:none;fill-rule:nonzero;fill:rgb(6.666667%,6.666667%,2.745098%);fill-opacity:1;" d="M 68.601562 31.398438 C 68.101562 31.398438 67.601562 31.199219 67.398438 30.601562 L 65.199219 26.101562 L 37.300781 26.101562 C 34.300781 26.101562 31.800781 23.601562 31.800781 20.601562 L 31.800781 9.5 C 31.800781 6.5 34.300781 4 37.300781 4 L 64.398438 4 C 67.398438 4 69.898438 6.5 69.898438 9.5 L 69.898438 21.300781 L 70 21.199219 L 70 30 C 70 30.699219 69.5 31.199219 68.898438 31.300781 C 68.800781 31.398438 68.699219 31.398438 68.601562 31.398438 Z M 37.300781 4.5 C 34.601562 4.5 32.300781 6.699219 32.300781 9.5 L 32.300781 20.601562 C 32.300781 23.300781 34.5 25.601562 37.300781 25.601562 L 65.5 25.601562 L 67.800781 30.398438 C 68 30.800781 68.398438 30.898438 68.699219 30.898438 C 69 30.800781 69.398438 30.601562 69.398438 30.101562 L 69.398438 22.5 L 69.300781 22.601562 L 69.300781 9.601562 C 69.300781 6.898438 67.101562 4.601562 64.300781 4.601562 L 37.300781 4.601562 Z M 37.300781 4.5 "/>
<path style=" stroke:none;fill-rule:nonzero;fill:rgb(90.196078%,23.137255%,16.862745%);fill-opacity:1;" d="M 125.628906 39.070312 C 124.757812 38.929688 123.933594 39.519531 123.792969 40.394531 C 123.652344 41.265625 124.242188 42.085938 125.117188 42.230469 C 125.988281 42.371094 126.808594 41.777344 126.953125 40.90625 C 127.09375 40.035156 126.5 39.210938 125.628906 39.070312 Z M 125.628906 39.070312 "/>
<path style=" stroke:none;fill-rule:nonzero;fill:rgb(6.666667%,6.666667%,2.745098%);fill-opacity:1;" d="M 125.398438 42.5 C 124.398438 42.5 123.5 41.699219 123.5 40.601562 C 123.5 39.601562 124.300781 38.699219 125.398438 38.699219 C 126.398438 38.699219 127.300781 39.5 127.300781 40.601562 C 127.300781 41.699219 126.398438 42.5 125.398438 42.5 Z M 125.398438 39.398438 C 124.699219 39.398438 124.101562 40 124.101562 40.699219 C 124.101562 41.398438 124.699219 42 125.398438 42 C 126.101562 42 126.699219 41.398438 126.699219 40.699219 C 126.699219 40 126.101562 39.398438 125.398438 39.398438 Z M 125.398438 39.398438 "/>
<path style=" stroke:none;fill-rule:nonzero;fill:rgb(90.196078%,23.137255%,16.862745%);fill-opacity:1;" d="M 134 40.699219 C 134 41.582031 133.285156 42.300781 132.398438 42.300781 C 131.515625 42.300781 130.800781 41.582031 130.800781 40.699219 C 130.800781 39.816406 131.515625 39.101562 132.398438 39.101562 C 133.285156 39.101562 134 39.816406 134 40.699219 Z M 134 40.699219 "/>
<path style=" stroke:none;fill-rule:nonzero;fill:rgb(6.666667%,6.666667%,2.745098%);fill-opacity:1;" d="M 132.398438 42.601562 C 131.398438 42.601562 130.5 41.800781 130.5 40.699219 C 130.5 39.699219 131.300781 38.800781 132.398438 38.800781 C 133.398438 38.800781 134.300781 39.601562 134.300781 40.699219 C 134.300781 41.699219 133.398438 42.601562 132.398438 42.601562 Z M 132.398438 39.398438 C 131.699219 39.398438 131.101562 40 131.101562 40.699219 C 131.101562 41.398438 131.699219 42 132.398438 42 C 133.101562 42 133.699219 41.398438 133.699219 40.699219 C 133.699219 40 133.101562 39.398438 132.398438 39.398438 Z M 132.398438 39.398438 "/>
<path style=" stroke:none;fill-rule:nonzero;fill:rgb(90.196078%,23.137255%,16.862745%);fill-opacity:1;" d="M 141 40.800781 C 141 41.683594 140.285156 42.398438 139.398438 42.398438 C 138.515625 42.398438 137.800781 41.683594 137.800781 40.800781 C 137.800781 39.917969 138.515625 39.199219 139.398438 39.199219 C 140.285156 39.199219 141 39.917969 141 40.800781 Z M 141 40.800781 "/>
<path style=" stroke:none;fill-rule:nonzero;fill:rgb(6.666667%,6.666667%,2.745098%);fill-opacity:1;" d="M 139.398438 42.601562 C 138.398438 42.601562 137.5 41.800781 137.5 40.699219 C 137.5 39.699219 138.300781 38.800781 139.398438 38.800781 C 140.398438 38.800781 141.300781 39.601562 141.300781 40.699219 C 141.300781 41.800781 140.398438 42.601562 139.398438 42.601562 Z M 139.398438 39.5 C 138.699219 39.5 138.101562 40.101562 138.101562 40.800781 C 138.101562 41.5 138.699219 42.101562 139.398438 42.101562 C 140.101562 42.101562 140.699219 41.5 140.699219 40.800781 C 140.699219 40.101562 140.101562 39.5 139.398438 39.5 Z M 139.398438 39.5 "/>
<path style=" stroke:none;fill-rule:nonzero;fill:rgb(100%,100%,100%);fill-opacity:1;" d="M 138.300781 74.898438 C 138.300781 75.300781 138.398438 75.800781 138.398438 76.199219 C 138.800781 76.199219 139.199219 76.101562 139.601562 76 C 140.398438 75.800781 141.101562 75.398438 141.601562 75.101562 C 141.300781 74.699219 141.101562 74.199219 140.800781 73.800781 C 141.601562 73.101562 142.398438 72.398438 143.199219 71.699219 L 144.5 72.398438 C 145.101562 71.601562 145.5 70.699219 145.898438 69.699219 L 144.199219 69.300781 L 144.199219 68.601562 C 144.300781 68 144.398438 67.398438 144.398438 66.699219 C 144.398438 66.398438 144.398438 66.101562 144.300781 65.800781 L 146.199219 65.199219 C 146 64.101562 145.601562 63.101562 145.101562 62.199219 L 143.5 63.199219 C 143 62.199219 142.199219 61.300781 141.300781 60.601562 L 142 59 C 141.199219 58.5 140.199219 58 139.199219 57.800781 C 139 58.300781 138.699219 58.800781 138.5 59.300781 C 137.800781 59.101562 137.101562 59 136.300781 59.101562 C 136 59.101562 135.601562 59.101562 135.300781 59.199219 C 135.101562 58.699219 134.898438 58.199219 134.699219 57.699219 C 133.601562 57.898438 132.5 58.300781 131.5 58.800781 C 131.800781 59.300781 132.101562 59.800781 132.300781 60.300781 C 131.300781 60.898438 130.5 61.800781 129.800781 62.699219 L 128 62 C 127.5 62.800781 127.101562 63.699219 126.800781 64.699219 L 128.800781 65.101562 C 128.699219 65.699219 128.601562 66.398438 128.601562 67.101562 C 128.601562 67.601562 128.699219 68.101562 128.800781 68.601562 L 126.800781 69.300781 C 127 70.199219 127.398438 71 127.800781 71.699219 L 129.601562 70.898438 L 129.800781 71.101562 C 130.199219 71.800781 130.800781 72.398438 131.398438 72.898438 L 131.898438 73.5 L 130.898438 74.898438 C 131.898438 75.5 133.101562 76 134.300781 76.199219 L 135 75 C 136.101562 74.898438 137.199219 74.898438 138.300781 74.898438 Z M 137.199219 71.699219 C 134.101562 72.199219 131.398438 69.699219 131.699219 66.5 C 131.898438 64.398438 133.5 62.601562 135.699219 62.300781 C 138.800781 61.800781 141.5 64.300781 141.199219 67.5 C 141 69.699219 139.398438 71.398438 137.199219 71.699219 Z M 137.199219 71.699219 "/>
<path style=" stroke:none;fill-rule:nonzero;fill:rgb(6.666667%,6.666667%,2.745098%);fill-opacity:1;" d="M 134.5 76.699219 C 134.5 76.699219 134.398438 76.699219 134.5 76.699219 C 133.199219 76.5 132 76 130.898438 75.300781 C 130.800781 75.300781 130.800781 75.199219 130.800781 75.101562 C 130.800781 75 130.800781 74.898438 130.800781 74.898438 L 131.601562 73.699219 L 131.199219 73.300781 C 130.601562 72.800781 130 72.199219 129.5 71.5 L 127.898438 72.199219 C 127.800781 72.300781 127.601562 72.199219 127.5 72.101562 C 127 71.300781 126.699219 70.5 126.398438 69.601562 C 126.398438 69.5 126.398438 69.300781 126.601562 69.300781 L 128.300781 68.699219 C 128.199219 68.300781 128.199219 67.800781 128.199219 67.398438 C 128.199219 66.800781 128.199219 66.199219 128.300781 65.601562 L 126.601562 65.199219 C 126.5 65.199219 126.5 65.101562 126.398438 65.101562 C 126.398438 65 126.300781 65 126.398438 64.898438 C 126.699219 63.898438 127.101562 63 127.601562 62.101562 C 127.699219 62 127.800781 61.898438 128 62 L 129.601562 62.601562 C 130.199219 61.699219 130.898438 61 131.800781 60.398438 L 131.101562 59.101562 C 131 59 131.101562 58.800781 131.199219 58.699219 C 132.199219 58.101562 133.300781 57.699219 134.5 57.5 C 134.601562 57.5 134.800781 57.601562 134.800781 57.699219 L 135.300781 59 C 135.601562 59 135.800781 58.898438 136.101562 58.898438 C 136.800781 58.898438 137.5 58.898438 138.101562 59.101562 L 138.699219 57.800781 C 138.800781 57.699219 138.898438 57.601562 139 57.601562 C 140 57.898438 141 58.300781 141.800781 58.898438 C 141.898438 59 142 59.101562 141.898438 59.300781 L 141.300781 60.699219 C 142.101562 61.300781 142.800781 62.101562 143.300781 63 L 144.601562 62.199219 C 144.699219 62.199219 144.699219 62.101562 144.800781 62.199219 C 144.898438 62.199219 144.898438 62.300781 145 62.300781 C 145.601562 63.300781 146 64.300781 146.199219 65.398438 C 146.199219 65.5 146.101562 65.699219 146 65.699219 L 144.398438 66.199219 C 144.398438 66.398438 144.398438 66.601562 144.398438 66.898438 C 144.398438 67.5 144.398438 68.199219 144.199219 68.800781 L 144.199219 69.300781 L 145.601562 69.601562 C 145.699219 69.601562 145.699219 69.699219 145.800781 69.699219 C 145.800781 69.800781 145.800781 69.898438 145.800781 69.898438 C 145.5 70.898438 145 71.800781 144.398438 72.699219 C 144.300781 72.800781 144.101562 72.898438 144 72.800781 L 142.898438 72.199219 L 140.898438 74 L 141.601562 75.101562 C 141.699219 75.199219 141.601562 75.398438 141.5 75.5 C 140.800781 75.898438 140.101562 76.199219 139.398438 76.398438 C 139 76.5 138.601562 76.601562 138.199219 76.699219 C 138.101562 76.699219 138 76.699219 138 76.601562 C 137.898438 76.601562 137.898438 76.5 137.898438 76.398438 L 137.800781 75.300781 L 135 75.300781 L 134.601562 76.5 C 134.699219 76.601562 134.601562 76.699219 134.5 76.699219 Z M 131.5 75 C 132.398438 75.5 133.300781 75.898438 134.300781 76.101562 L 134.699219 74.898438 C 134.699219 74.800781 134.800781 74.699219 135 74.699219 L 138.300781 74.699219 C 138.5 74.699219 138.601562 74.800781 138.601562 75 L 138.699219 76 C 139 76 139.300781 75.898438 139.5 75.800781 C 140.101562 75.601562 140.699219 75.398438 141.199219 75.101562 L 140.5 74 C 140.398438 73.898438 140.398438 73.699219 140.601562 73.601562 L 143 71.5 C 143.101562 71.398438 143.199219 71.398438 143.300781 71.5 L 144.300781 72.101562 C 144.699219 71.398438 145.101562 70.699219 145.398438 70 L 144 69.699219 C 143.898438 69.699219 143.800781 69.601562 143.800781 69.398438 L 143.800781 68.699219 C 143.800781 68.699219 143.800781 68.601562 143.800781 68.601562 C 143.898438 68 144 67.398438 144 66.800781 C 144 66.5 144 66.199219 143.898438 66 C 143.898438 65.898438 144 65.699219 144.101562 65.699219 L 145.699219 65.199219 C 145.5 64.398438 145.199219 63.601562 144.800781 62.800781 L 143.5 63.601562 C 143.398438 63.601562 143.300781 63.699219 143.300781 63.601562 C 143.199219 63.601562 143.199219 63.5 143.101562 63.5 C 142.601562 62.5 141.800781 61.699219 141 61 C 140.898438 60.898438 140.898438 60.800781 140.898438 60.601562 L 141.5 59.300781 C 140.800781 58.898438 140.101562 58.5 139.300781 58.300781 L 138.699219 59.601562 C 138.601562 59.699219 138.5 59.800781 138.398438 59.800781 C 137.699219 59.601562 137 59.5 136.300781 59.601562 C 136 59.601562 135.699219 59.601562 135.300781 59.699219 C 135.199219 59.699219 135 59.601562 135 59.5 L 134.5 58.199219 C 133.601562 58.398438 132.699219 58.699219 131.898438 59.101562 L 132.601562 60.300781 C 132.699219 60.398438 132.601562 60.601562 132.5 60.699219 C 131.601562 61.300781 130.699219 62.101562 130.101562 63.101562 C 130 63.199219 129.898438 63.300781 129.699219 63.199219 L 128.101562 62.601562 C 127.699219 63.300781 127.398438 64 127.199219 64.699219 L 128.898438 65 C 129 65 129.101562 65.101562 129.101562 65.300781 C 129.101562 65.300781 129.101562 65.398438 129.101562 65.398438 C 129 66 128.898438 66.699219 128.898438 67.300781 C 128.898438 67.800781 129 68.300781 129.101562 68.699219 C 129.101562 68.800781 129.101562 69 128.898438 69 L 127.199219 69.601562 C 127.398438 70.300781 127.699219 70.898438 128 71.5 L 129.601562 70.800781 C 129.699219 70.800781 129.800781 70.800781 129.898438 70.898438 L 130.101562 71.101562 C 130.5 71.800781 131.101562 72.300781 131.699219 72.800781 L 132.199219 73.398438 C 132.300781 73.5 132.300781 73.699219 132.199219 73.800781 Z M 136.5 72.101562 C 135.199219 72.101562 134 71.601562 133.101562 70.699219 C 132 69.601562 131.398438 68.101562 131.5 66.5 C 131.699219 64.199219 133.398438 62.398438 135.699219 62 C 137.300781 61.800781 138.800781 62.199219 140 63.300781 C 141.101562 64.398438 141.699219 65.898438 141.601562 67.5 C 141.398438 69.800781 139.699219 71.601562 137.398438 72 C 137 72.101562 136.800781 72.101562 136.5 72.101562 Z M 136.5 62.601562 C 136.300781 62.601562 136 62.601562 135.800781 62.699219 C 133.800781 63 132.300781 64.601562 132.101562 66.601562 C 132 68 132.5 69.300781 133.5 70.300781 C 134.5 71.199219 135.898438 71.699219 137.300781 71.5 C 139.300781 71.199219 140.800781 69.601562 141 67.601562 C 141.101562 66.199219 140.601562 64.898438 139.601562 63.898438 C 138.699219 63 137.601562 62.601562 136.5 62.601562 Z M 136.5 62.601562 "/>
<path style=" stroke:none;fill-rule:nonzero;fill:rgb(90.196078%,23.137255%,16.862745%);fill-opacity:1;" d="M 152.199219 83.101562 C 152.300781 83.398438 152.300781 83.800781 152.398438 84.101562 C 152.699219 84 153 84 153.300781 83.800781 C 153.898438 83.601562 154.398438 83.199219 154.800781 83 C 154.601562 82.699219 154.300781 82.398438 154.101562 82 C 154.699219 81.398438 155.199219 80.800781 155.800781 80.199219 L 156.800781 80.699219 C 157.199219 80 157.5 79.300781 157.699219 78.5 L 156.398438 78.300781 L 156.300781 77.699219 C 156.398438 77.199219 156.398438 76.699219 156.300781 76.199219 C 156.300781 76 156.199219 75.699219 156.199219 75.5 L 157.601562 74.898438 C 157.398438 74.101562 157 73.300781 156.5 72.699219 L 155.300781 73.601562 C 154.800781 72.800781 154.199219 72.199219 153.398438 71.699219 L 153.898438 70.398438 C 153.199219 70 152.5 69.800781 151.699219 69.601562 C 151.5 70 151.398438 70.398438 151.199219 70.800781 C 150.601562 70.699219 150.101562 70.699219 149.5 70.800781 C 149.199219 70.800781 149 70.898438 148.699219 70.898438 C 148.5 70.5 148.300781 70.101562 148.101562 69.699219 C 147.199219 69.898438 146.398438 70.300781 145.699219 70.800781 C 146 71.199219 146.199219 71.5 146.5 71.898438 C 145.800781 72.5 145.199219 73.199219 144.699219 74 L 143.199219 73.601562 C 142.800781 74.300781 142.601562 75 142.5 75.800781 L 144.101562 76 C 144 76.5 144 77 144.101562 77.601562 C 144.101562 78 144.199219 78.398438 144.300781 78.800781 L 142.800781 79.5 C 143 80.199219 143.398438 80.800781 143.800781 81.300781 L 145.199219 80.601562 L 145.300781 80.699219 C 145.699219 81.199219 146.199219 81.601562 146.699219 82 L 147.101562 82.398438 L 146.398438 83.601562 C 147.199219 84 148.199219 84.300781 149.199219 84.398438 L 149.5 83.300781 C 150.5 83.300781 151.300781 83.199219 152.199219 83.101562 Z M 151.199219 80.699219 C 148.800781 81.300781 146.601562 79.5 146.601562 77 C 146.601562 75.300781 147.800781 73.898438 149.398438 73.5 C 151.800781 72.898438 154 74.699219 154 77.199219 C 154 78.800781 152.800781 80.300781 151.199219 80.699219 Z M 151.199219 80.699219 "/>
<path style=" stroke:none;fill-rule:nonzero;fill:rgb(6.666667%,6.666667%,2.745098%);fill-opacity:1;" d="M 149.601562 84.898438 L 149.300781 84.898438 C 148.300781 84.800781 147.300781 84.5 146.398438 84.101562 L 146.101562 84 L 146.800781 82.800781 L 146.601562 82.601562 C 146.101562 82.199219 145.601562 81.800781 145.199219 81.300781 L 143.800781 82.101562 L 143.601562 81.898438 C 143.199219 81.300781 142.800781 80.699219 142.601562 80 L 142.5 79.699219 L 144 79 C 143.898438 78.699219 143.898438 78.398438 143.800781 78 C 143.699219 77.5 143.699219 77.101562 143.800781 76.601562 L 142.199219 76.398438 L 142.300781 76.101562 C 142.398438 75.300781 142.699219 74.5 143.101562 73.800781 L 143.199219 73.601562 L 144.699219 74 C 145.101562 73.300781 145.601562 72.699219 146.199219 72.199219 L 145.398438 71.101562 L 145.699219 70.898438 C 146.5 70.398438 147.300781 70 148.199219 69.800781 L 148.398438 69.699219 L 149 70.898438 C 149.199219 70.898438 149.398438 70.800781 149.601562 70.800781 C 150.101562 70.699219 150.601562 70.699219 151.199219 70.800781 L 151.699219 69.601562 L 152 69.601562 C 152.800781 69.800781 153.601562 70 154.300781 70.398438 L 154.5 70.5 L 154 71.800781 C 154.601562 72.199219 155.199219 72.699219 155.601562 73.300781 L 156.699219 72.398438 L 156.898438 72.699219 C 157.398438 73.398438 157.800781 74.199219 158 75 L 158.101562 75.300781 L 156.699219 75.898438 C 156.699219 76.101562 156.800781 76.199219 156.800781 76.398438 C 156.898438 76.898438 156.898438 77.398438 156.800781 77.898438 L 156.800781 78.199219 L 158.199219 78.398438 L 158.101562 78.699219 C 157.898438 79.5 157.601562 80.300781 157.199219 81 L 157.101562 81.199219 L 156 80.699219 L 154.601562 82.101562 L 155.300781 83.101562 L 155.101562 83.300781 C 154.601562 83.699219 154.101562 84 153.5 84.199219 C 153.199219 84.300781 152.898438 84.398438 152.5 84.5 L 152.199219 84.601562 L 152 83.5 L 149.898438 83.699219 Z M 147 83.601562 C 147.699219 83.898438 148.398438 84.101562 149.101562 84.199219 L 149.398438 83.101562 L 152.5 82.800781 L 152.699219 83.800781 C 152.898438 83.699219 153.101562 83.699219 153.300781 83.601562 C 153.699219 83.398438 154.101562 83.199219 154.5 83 L 153.800781 82.101562 L 155.800781 80 L 156.800781 80.398438 C 157.101562 79.898438 157.300781 79.398438 157.398438 78.898438 L 156.199219 78.699219 L 156.101562 77.898438 C 156.199219 77.398438 156.199219 77 156.101562 76.5 C 156.101562 76.300781 156 76.101562 156 75.898438 L 155.898438 75.601562 L 157.300781 75 C 157.101562 74.398438 156.898438 73.898438 156.5 73.398438 L 155.300781 74.300781 L 155.101562 74 C 154.601562 73.300781 154 72.699219 153.300781 72.199219 L 153.101562 72.101562 L 153.601562 70.898438 C 153.101562 70.601562 152.5 70.5 151.898438 70.300781 L 151.398438 71.5 L 151.199219 71.5 C 150.699219 71.398438 150.101562 71.398438 149.601562 71.5 C 149.398438 71.5 149.101562 71.601562 148.898438 71.601562 L 148.699219 71.699219 L 148.199219 70.5 C 147.601562 70.699219 147 71 146.398438 71.300781 L 147.101562 72.398438 L 146.898438 72.601562 C 146.199219 73.101562 145.601562 73.800781 145.199219 74.601562 L 145.101562 74.800781 L 143.601562 74.398438 C 143.398438 74.898438 143.199219 75.398438 143.101562 75.898438 L 144.601562 76.101562 L 144.699219 76.398438 C 144.601562 76.898438 144.601562 77.398438 144.699219 77.898438 C 144.699219 78.300781 144.800781 78.601562 144.898438 79 L 145 79.300781 L 143.5 80 C 143.699219 80.398438 143.898438 80.898438 144.199219 81.300781 L 145.5 80.601562 L 145.800781 80.898438 C 146.199219 81.398438 146.601562 81.800781 147.101562 82.101562 L 147.699219 82.699219 Z M 150.300781 81.101562 C 149.398438 81.101562 148.5 80.800781 147.800781 80.199219 C 146.800781 79.398438 146.300781 78.300781 146.300781 77 C 146.300781 75.199219 147.601562 73.601562 149.300781 73.199219 C 150.5 72.898438 151.800781 73.199219 152.800781 73.898438 C 153.800781 74.699219 154.300781 75.800781 154.300781 77.101562 C 154.300781 78.898438 153 80.5 151.300781 80.898438 C 150.898438 81.101562 150.601562 81.101562 150.300781 81.101562 Z M 151.101562 80.398438 L 151.199219 80.699219 L 151.101562 80.398438 C 152.601562 80 153.699219 78.699219 153.699219 77.101562 C 153.699219 76 153.199219 75 152.398438 74.398438 C 151.601562 73.699219 150.5 73.5 149.5 73.800781 C 148 74.199219 146.898438 75.5 146.898438 77.101562 C 146.898438 78.199219 147.398438 79.199219 148.199219 79.800781 C 149 80.398438 150.101562 80.699219 151.101562 80.398438 Z M 151.101562 80.398438 "/>
<path style=" stroke:none;fill-rule:nonzero;fill:rgb(100%,100%,100%);fill-opacity:1;" d="M 76.699219 65.199219 C 76.5 65.199219 76.398438 65.101562 76.5 64.898438 C 76.898438 60.699219 79.5 53.898438 79.5 53.898438 C 79.5 53.800781 79.699219 53.699219 79.800781 53.800781 C 79.898438 53.800781 80 54 79.898438 54.101562 C 79.898438 54.199219 77.300781 60.898438 76.898438 65 C 76.898438 65.101562 76.800781 65.199219 76.699219 65.199219 Z M 76.699219 65.199219 "/>
<path style=" stroke:none;fill-rule:nonzero;fill:rgb(100%,100%,100%);fill-opacity:1;" d="M 76.699219 69.398438 C 76.601562 69.398438 76.601562 69.398438 76.699219 69.398438 C 76.5 69.300781 76.398438 69.199219 76.5 69.101562 C 76.699219 68.699219 76.601562 67.101562 76.5 66.199219 C 76.5 66.101562 76.601562 65.898438 76.699219 65.898438 C 76.800781 65.898438 77 66 77 66.101562 C 77 66.300781 77.300781 68.5 77 69.199219 C 76.898438 69.300781 76.800781 69.398438 76.699219 69.398438 Z M 76.699219 69.398438 "/>
<path style=" stroke:none;fill-rule:nonzero;fill:rgb(100%,100%,100%);fill-opacity:1;" d="M 95.898438 81.898438 C 95.800781 81.898438 95.800781 81.898438 95.699219 81.800781 C 95.601562 81.699219 95.601562 81.601562 95.699219 81.5 C 98.101562 78.601562 100.300781 73.398438 100.398438 73.300781 C 100.5 73.199219 100.601562 73.101562 100.699219 73.199219 C 100.800781 73.300781 100.898438 73.398438 100.800781 73.5 C 100.800781 73.601562 98.5 78.800781 96.101562 81.800781 C 96 81.898438 95.898438 81.898438 95.898438 81.898438 Z M 95.898438 81.898438 "/>
<path style=" stroke:none;fill-rule:nonzero;fill:rgb(100%,100%,100%);fill-opacity:1;" d="M 100.699219 78.699219 C 100.601562 78.699219 100.601562 78.699219 100.601562 78.699219 C 100.5 78.601562 100.5 78.5 100.601562 78.398438 C 101.699219 76.898438 102.800781 71.898438 102.800781 71.800781 C 102.800781 71.699219 103 71.601562 103.101562 71.601562 C 103.199219 71.601562 103.300781 71.800781 103.300781 71.898438 C 103.300781 72.101562 102.199219 77.101562 101 78.699219 C 100.898438 78.601562 100.800781 78.699219 100.699219 78.699219 Z M 100.699219 78.699219 "/>
<path style=" stroke:none;fill-rule:nonzero;fill:rgb(100%,100%,100%);fill-opacity:1;" d="M 37.398438 10.398438 L 45.800781 10.398438 C 46.199219 10.398438 46.601562 10.699219 46.601562 11.199219 C 46.601562 11.601562 46.300781 12 45.800781 12 L 37.398438 12 C 37 12 36.601562 11.699219 36.601562 11.199219 C 36.601562 11 36.699219 10.800781 36.800781 10.699219 C 37 10.5 37.199219 10.398438 37.398438 10.398438 Z M 37.398438 10.398438 "/>
<path style=" stroke:none;fill-rule:nonzero;fill:rgb(6.666667%,6.666667%,2.745098%);fill-opacity:1;" d="M 45.898438 12.101562 L 37.5 12.101562 C 37.199219 12.101562 37 12 36.800781 11.800781 C 36.601562 11.601562 36.5 11.398438 36.5 11.101562 C 36.5 10.800781 36.601562 10.601562 36.800781 10.398438 C 37 10.199219 37.199219 10.101562 37.5 10.101562 L 45.898438 10.101562 C 46.398438 10.101562 46.898438 10.5 46.898438 11.101562 C 46.898438 11.699219 46.398438 12.101562 45.898438 12.101562 Z M 37.398438 10.601562 C 37.300781 10.601562 37.101562 10.699219 37 10.699219 C 36.898438 10.800781 36.898438 10.898438 36.898438 11 C 36.898438 11.101562 36.898438 11.300781 37 11.398438 C 37.101562 11.5 37.199219 11.601562 37.398438 11.601562 L 45.800781 11.601562 C 46.101562 11.601562 46.300781 11.398438 46.300781 11.101562 C 46.300781 10.800781 46.101562 10.601562 45.800781 10.601562 Z M 37.398438 10.601562 "/>
<path style=" stroke:none;fill-rule:nonzero;fill:rgb(100%,100%,100%);fill-opacity:1;" d="M 65 11.199219 C 65 11.398438 64.898438 11.601562 64.800781 11.699219 C 64.699219 11.800781 64.5 11.898438 64.300781 11.898438 L 50.398438 11.898438 C 50 11.898438 49.601562 11.601562 49.601562 11.101562 C 49.601562 10.699219 49.898438 10.300781 50.398438 10.300781 L 64.300781 10.300781 C 64.699219 10.398438 65 10.699219 65 11.199219 Z M 65 11.199219 "/>
<path style=" stroke:none;fill-rule:nonzero;fill:rgb(6.666667%,6.666667%,2.745098%);fill-opacity:1;" d="M 64.300781 12.101562 L 50.398438 12.101562 C 49.898438 12.101562 49.398438 11.699219 49.398438 11.101562 C 49.398438 10.601562 49.800781 10.101562 50.398438 10.101562 L 64.300781 10.101562 C 64.601562 10.101562 64.800781 10.199219 65 10.398438 C 65.199219 10.601562 65.300781 10.800781 65.300781 11.101562 C 65.300781 11.398438 65.199219 11.601562 65 11.800781 C 64.800781 12 64.601562 12.101562 64.300781 12.101562 Z M 50.398438 10.601562 C 50.101562 10.601562 49.898438 10.800781 49.898438 11.101562 C 49.898438 11.398438 50.101562 11.601562 50.398438 11.601562 L 64.300781 11.601562 C 64.398438 11.601562 64.601562 11.5 64.699219 11.5 C 64.800781 11.398438 64.800781 11.300781 64.800781 11.199219 C 64.800781 11.101562 64.800781 10.898438 64.699219 10.800781 C 64.601562 10.699219 64.5 10.601562 64.300781 10.601562 Z M 65 11.199219 Z M 65 11.199219 "/>
<path style=" stroke:none;fill-rule:nonzero;fill:rgb(100%,100%,100%);fill-opacity:1;" d="M 37.398438 14.601562 L 41 14.601562 C 41.398438 14.601562 41.800781 14.898438 41.800781 15.398438 C 41.800781 15.800781 41.5 16.199219 41 16.199219 L 37.398438 16.199219 C 37 16.199219 36.601562 15.898438 36.601562 15.398438 C 36.601562 15.199219 36.699219 15 36.800781 14.898438 C 37 14.699219 37.199219 14.601562 37.398438 14.601562 Z M 37.398438 14.601562 "/>
<path style=" stroke:none;fill-rule:nonzero;fill:rgb(6.666667%,6.666667%,2.745098%);fill-opacity:1;" d="M 41 16.300781 L 37.398438 16.300781 C 37.101562 16.300781 36.898438 16.199219 36.699219 16 C 36.5 15.800781 36.398438 15.601562 36.398438 15.300781 C 36.398438 15 36.5 14.800781 36.699219 14.601562 C 36.898438 14.398438 37.101562 14.300781 37.398438 14.300781 L 41 14.300781 C 41.5 14.300781 42 14.699219 42 15.300781 C 42 15.898438 41.601562 16.300781 41 16.300781 Z M 37.398438 14.800781 C 37.300781 14.800781 37.101562 14.898438 37 14.898438 C 36.898438 15 36.898438 15.101562 36.898438 15.199219 C 36.898438 15.300781 36.898438 15.5 37 15.601562 C 37.101562 15.699219 37.199219 15.800781 37.398438 15.800781 L 41 15.800781 C 41.300781 15.800781 41.5 15.601562 41.5 15.300781 C 41.5 15 41.300781 14.800781 41 14.800781 Z M 37.398438 14.800781 "/>
<path style=" stroke:none;fill-rule:nonzero;fill:rgb(100%,100%,100%);fill-opacity:1;" d="M 55.800781 15.300781 C 55.800781 15.699219 55.5 16.101562 55 16.101562 L 44 16.101562 C 43.601562 16.101562 43.199219 15.800781 43.199219 15.300781 C 43.199219 14.898438 43.5 14.5 44 14.5 L 55 14.5 C 55.398438 14.601562 55.800781 14.898438 55.800781 15.300781 Z M 55.800781 15.300781 "/>
<path style=" stroke:none;fill-rule:nonzero;fill:rgb(6.666667%,6.666667%,2.745098%);fill-opacity:1;" d="M 55 16.300781 L 44 16.300781 C 43.5 16.300781 43 15.898438 43 15.300781 C 43 14.699219 43.398438 14.300781 44 14.300781 L 55 14.300781 C 55.5 14.300781 56 14.699219 56 15.300781 C 56 15.898438 55.601562 16.300781 55 16.300781 Z M 44 14.800781 C 43.699219 14.800781 43.5 15 43.5 15.300781 C 43.5 15.601562 43.699219 15.800781 44 15.800781 L 55 15.800781 C 55.300781 15.800781 55.5 15.601562 55.5 15.300781 C 55.5 15 55.300781 14.800781 55 14.800781 Z M 44 14.800781 "/>
<path style=" stroke:none;fill-rule:nonzero;fill:rgb(100%,100%,100%);fill-opacity:1;" d="M 65 15.300781 C 65 15.5 64.898438 15.699219 64.800781 15.800781 C 64.699219 15.898438 64.5 16 64.300781 16 L 59.5 16 C 59.101562 16 58.699219 15.699219 58.699219 15.199219 C 58.699219 14.800781 59 14.398438 59.5 14.398438 L 64.199219 14.398438 C 64.699219 14.601562 65 14.898438 65 15.300781 Z M 65 15.300781 "/>
<path style=" stroke:none;fill-rule:nonzero;fill:rgb(6.666667%,6.666667%,2.745098%);fill-opacity:1;" d="M 64.300781 16.300781 L 59.5 16.300781 C 59 16.300781 58.5 15.898438 58.5 15.300781 C 58.5 14.699219 58.898438 14.300781 59.5 14.300781 L 64.199219 14.300781 C 64.5 14.300781 64.699219 14.398438 64.898438 14.601562 C 65.101562 14.800781 65.199219 15 65.199219 15.300781 C 65.199219 15.601562 65.101562 15.800781 64.898438 16 C 64.800781 16.199219 64.601562 16.300781 64.300781 16.300781 Z M 59.5 14.800781 C 59.199219 14.800781 59 15 59 15.300781 C 59 15.601562 59.199219 15.800781 59.5 15.800781 L 64.300781 15.800781 C 64.398438 15.800781 64.601562 15.699219 64.699219 15.699219 C 64.800781 15.601562 64.800781 15.5 64.800781 15.398438 C 64.800781 15.300781 64.800781 15.101562 64.699219 15 C 64.601562 14.898438 64.5 14.800781 64.300781 14.800781 Z M 65 15.300781 Z M 65 15.300781 "/>
<path style=" stroke:none;fill-rule:nonzero;fill:rgb(100%,100%,100%);fill-opacity:1;" d="M 23.101562 17.300781 C 20.199219 17.300781 17.898438 19.601562 17.898438 22.5 L 17.898438 34.898438 L 17.800781 34.800781 L 17.800781 43 C 17.800781 44.199219 19.398438 44.5 19.898438 43.5 L 22.199219 38.898438 L 50.300781 38.898438 C 53.199219 38.898438 55.5 36.601562 55.5 33.699219 L 55.5 22.601562 C 55.5 19.699219 53.199219 17.398438 50.300781 17.398438 L 23.101562 17.398438 Z M 23.101562 17.300781 "/>
<path style=" stroke:none;fill-rule:nonzero;fill:rgb(6.666667%,6.666667%,2.745098%);fill-opacity:1;" d="M 18.898438 44.398438 C 18.800781 44.398438 18.699219 44.398438 18.601562 44.398438 C 18.101562 44.300781 17.601562 43.800781 17.601562 43.101562 L 17.601562 34.898438 C 17.601562 34.800781 17.601562 34.800781 17.699219 34.699219 L 17.699219 22.601562 C 17.699219 19.601562 20.199219 17.101562 23.199219 17.101562 L 50.300781 17.101562 C 53.300781 17.101562 55.800781 19.601562 55.800781 22.601562 L 55.800781 33.699219 C 55.800781 36.699219 53.300781 39.199219 50.300781 39.199219 L 22.300781 39.199219 L 20.101562 43.699219 C 19.898438 44.199219 19.398438 44.398438 18.898438 44.398438 Z M 18.101562 35.101562 L 18.101562 43.101562 C 18.101562 43.601562 18.5 43.898438 18.800781 43.898438 C 19.101562 44 19.5 43.898438 19.800781 43.398438 L 22.101562 38.800781 C 22.101562 38.699219 22.199219 38.699219 22.300781 38.699219 L 50.398438 38.699219 C 53.199219 38.699219 55.398438 36.5 55.398438 33.699219 L 55.398438 22.601562 C 55.398438 19.800781 53.199219 17.601562 50.398438 17.601562 L 23.101562 17.601562 C 20.300781 17.601562 18.101562 19.800781 18.101562 22.601562 L 18.101562 35 C 18.101562 35 18.101562 35.101562 18.101562 35.101562 Z M 18.101562 35.101562 "/>
<path style=" stroke:none;fill-rule:nonzero;fill:rgb(6.666667%,6.666667%,2.745098%);fill-opacity:1;" d="M 24 23.101562 L 38 23.101562 C 38.398438 23.101562 38.800781 23.398438 38.800781 23.898438 C 38.800781 24.300781 38.5 24.699219 38 24.699219 L 24 24.699219 C 23.601562 24.699219 23.199219 24.398438 23.199219 23.898438 C 23.199219 23.699219 23.300781 23.5 23.398438 23.398438 C 23.601562 23.101562 23.800781 23.101562 24 23.101562 Z M 24 23.101562 "/>
<path style=" stroke:none;fill-rule:nonzero;fill:rgb(6.666667%,6.666667%,2.745098%);fill-opacity:1;" d="M 38 24.699219 L 24 24.699219 C 23.800781 24.699219 23.5 24.601562 23.398438 24.398438 C 23.199219 24.199219 23.199219 24 23.199219 23.800781 C 23.199219 23.601562 23.300781 23.398438 23.398438 23.199219 C 23.601562 23 23.800781 23 24 23 L 38 23 C 38.5 23 38.800781 23.398438 38.800781 23.800781 C 38.800781 24.300781 38.398438 24.699219 38 24.699219 Z M 24 23.199219 C 23.800781 23.199219 23.699219 23.300781 23.5 23.398438 C 23.398438 23.5 23.300781 23.699219 23.300781 23.898438 C 23.300781 24.101562 23.398438 24.199219 23.5 24.398438 C 23.601562 24.5 23.800781 24.601562 24 24.601562 L 38 24.601562 C 38.398438 24.601562 38.699219 24.300781 38.699219 23.898438 C 38.699219 23.5 38.398438 23.199219 38 23.199219 Z M 24 23.199219 "/>
<path style=" stroke:none;fill-rule:nonzero;fill:rgb(6.666667%,6.666667%,2.745098%);fill-opacity:1;" d="M 51.601562 23.800781 C 51.601562 24 51.5 24.199219 51.398438 24.300781 C 51.300781 24.398438 51.101562 24.5 50.898438 24.5 L 43.300781 24.5 C 42.898438 24.5 42.5 24.199219 42.5 23.699219 C 42.5 23.300781 42.800781 22.898438 43.300781 22.898438 L 50.800781 22.898438 C 51.199219 23.101562 51.601562 23.398438 51.601562 23.800781 Z M 51.601562 23.800781 "/>
<path style=" stroke:none;fill-rule:nonzero;fill:rgb(6.666667%,6.666667%,2.745098%);fill-opacity:1;" d="M 50.800781 24.699219 L 43.199219 24.699219 C 42.699219 24.699219 42.398438 24.300781 42.398438 23.898438 C 42.398438 23.398438 42.800781 23.101562 43.199219 23.101562 L 50.699219 23.101562 C 50.898438 23.101562 51.199219 23.199219 51.300781 23.398438 C 51.5 23.601562 51.5 23.800781 51.5 24 C 51.5 24.199219 51.398438 24.398438 51.300781 24.601562 C 51.300781 24.601562 51.101562 24.699219 50.800781 24.699219 Z M 43.199219 23.199219 C 42.800781 23.199219 42.5 23.5 42.5 23.898438 C 42.5 24.300781 42.800781 24.601562 43.199219 24.601562 L 50.800781 24.601562 C 51 24.601562 51.101562 24.5 51.300781 24.398438 C 51.398438 24.300781 51.5 24.101562 51.5 24 C 51.5 23.800781 51.398438 23.699219 51.300781 23.5 C 51.199219 23.398438 51 23.300781 50.800781 23.300781 L 43.199219 23.300781 Z M 43.199219 23.199219 "/>
<path style=" stroke:none;fill-rule:nonzero;fill:rgb(6.666667%,6.666667%,2.745098%);fill-opacity:1;" d="M 24 27.199219 L 28 27.199219 C 28.398438 27.199219 28.800781 27.5 28.800781 28 C 28.800781 28.398438 28.5 28.800781 28 28.800781 L 24 28.800781 C 23.601562 28.800781 23.199219 28.5 23.199219 28 C 23.199219 27.800781 23.300781 27.601562 23.398438 27.5 C 23.601562 27.300781 23.800781 27.199219 24 27.199219 Z M 24 27.199219 "/>
<path style=" stroke:none;fill-rule:nonzero;fill:rgb(6.666667%,6.666667%,2.745098%);fill-opacity:1;" d="M 28 28.800781 L 24 28.800781 C 23.800781 28.800781 23.5 28.699219 23.398438 28.5 C 23.199219 28.300781 23.199219 28.101562 23.199219 27.898438 C 23.199219 27.699219 23.300781 27.5 23.398438 27.300781 C 23.601562 27.101562 23.800781 27.101562 24 27.101562 L 28 27.101562 C 28.5 27.101562 28.800781 27.5 28.800781 27.898438 C 28.898438 28.5 28.5 28.800781 28 28.800781 Z M 24 27.300781 C 23.800781 27.300781 23.699219 27.398438 23.5 27.5 C 23.398438 27.601562 23.300781 27.800781 23.300781 28 C 23.300781 28.199219 23.398438 28.300781 23.5 28.5 C 23.601562 28.601562 23.800781 28.699219 24 28.699219 L 28 28.699219 C 28.398438 28.699219 28.699219 28.398438 28.699219 28 C 28.699219 27.601562 28.398438 27.300781 28 27.300781 Z M 24 27.300781 "/>
<path style=" stroke:none;fill-rule:nonzero;fill:rgb(6.666667%,6.666667%,2.745098%);fill-opacity:1;" d="M 51.601562 28 C 51.601562 28.199219 51.5 28.398438 51.398438 28.5 C 51.300781 28.601562 51.101562 28.699219 50.898438 28.699219 L 33.300781 28.699219 C 32.898438 28.699219 32.5 28.398438 32.5 27.898438 C 32.5 27.5 32.800781 27.101562 33.300781 27.101562 L 50.800781 27.101562 C 51.199219 27.199219 51.601562 27.601562 51.601562 28 Z M 51.601562 28 "/>
<path style=" stroke:none;fill-rule:nonzero;fill:rgb(6.666667%,6.666667%,2.745098%);fill-opacity:1;" d="M 50.800781 28.800781 L 33.300781 28.800781 C 32.800781 28.800781 32.5 28.398438 32.5 28 C 32.5 27.5 32.898438 27.199219 33.300781 27.199219 L 50.800781 27.199219 C 51 27.199219 51.300781 27.300781 51.398438 27.5 C 51.601562 27.699219 51.601562 27.898438 51.601562 28.101562 C 51.601562 28.300781 51.5 28.5 51.398438 28.699219 C 51.300781 28.800781 51.101562 28.800781 50.800781 28.800781 Z M 33.300781 27.300781 C 32.898438 27.300781 32.601562 27.601562 32.601562 28 C 32.601562 28.398438 32.898438 28.699219 33.300781 28.699219 L 50.800781 28.699219 C 51 28.699219 51.101562 28.601562 51.300781 28.5 C 51.398438 28.398438 51.5 28.199219 51.5 28 C 51.5 27.800781 51.398438 27.699219 51.300781 27.5 C 51.199219 27.398438 51 27.300781 50.800781 27.300781 Z M 33.300781 27.300781 "/>
</g>
</svg>
