<svg width="161" height="120" viewBox="0 0 161 120" fill="none" xmlns="http://www.w3.org/2000/svg">
<g clip-path="url(#clip0_33_3929)">
<path d="M80.7506 119.942C43.9486 119.942 14.1147 94.8108 14.1147 63.81C14.1147 32.8091 43.9486 7.67798 80.7506 7.67798C117.553 7.67798 147.386 32.8091 147.386 63.81C147.386 94.8108 117.553 119.942 80.7506 119.942Z" fill="#E5EDF3"/>
<path d="M43.6099 25.585H60.2996C60.9665 25.585 61.5071 26.1222 61.5071 26.785V48.324C61.5071 48.9867 60.9665 49.524 60.2996 49.524H43.6099C42.943 49.524 42.4024 48.9867 42.4024 48.324V26.785C42.4024 26.1222 42.943 25.585 43.6099 25.585Z" fill="white"/>
<path d="M67.4217 25.7229H84.1113C84.7782 25.7229 85.3188 26.2602 85.3188 26.9229V48.4619C85.3188 49.1246 84.7782 49.6619 84.1113 49.6619H67.4217C66.7548 49.6619 66.2142 49.1246 66.2142 48.4619V26.9229C66.2142 26.2602 66.7548 25.7229 67.4217 25.7229Z" fill="white"/>
<path d="M21.8748 112.604H141.333C142 112.604 142.54 113.141 142.54 113.804V118.971C142.54 119.634 142 120.171 141.333 120.171H21.8748C21.2079 120.171 20.6673 119.634 20.6673 118.971V113.804C20.6673 113.141 21.2079 112.604 21.8748 112.604Z" fill="#08446B"/>
<path d="M71.5211 46.2C71.5211 46.2 87.7881 42.417 85.5724 51.772C83.3566 61.127 74.7743 54.385 72.3492 51.29C71.5271 50.24 70.9002 49.881 70.3669 49.915C69.3748 49.98 68.9099 51.087 67.5726 52.39C66.5671 53.3585 65.3915 54.1357 64.104 54.683C63.1742 53.459 61.9356 52.87 61.1044 53.174C60.7358 53.3143 60.4197 53.5639 60.1988 53.889C60.0311 54.1706 59.9484 54.494 59.9603 54.821C60.0519 56.138 62.1358 56.545 62.174 57.779C62.1776 58.0033 62.1221 58.2246 62.013 58.421C61.042 63.472 59.3555 65.828 57.9518 67.043C57.4346 67.491 54.7912 69.657 54.7912 69.657C54.7912 69.657 48.4689 70.826 45.3546 70.138C42.2402 69.45 41.1283 67.868 40.2317 65.738C39.6703 64.406 38.6217 61.787 39.6672 59.338C40.2348 58.007 41.6204 57.124 44.3845 55.419C49.0304 52.554 50.1202 52.825 51.9526 50.833C53.7849 48.841 53.1439 48.069 54.9522 46.385C57.502 44.01 60.7683 43.685 61.8903 43.572C66.7444 43.085 70.3921 45.412 71.5211 46.2Z" fill="#151414"/>
<path d="M73.6443 59.9341C73.6443 59.9341 74.0136 66.7221 74.9364 69.3341C75.8591 71.9461 76.2737 73.4631 76.2737 73.4631C76.2737 73.4631 75.996 74.2891 75.4425 73.3251C74.8891 72.3611 73.6886 70.5251 71.8894 69.9781C70.0903 69.4311 66.2132 70.1611 65.2905 69.9781C64.3677 69.7951 63.9059 68.7851 64.3214 67.8221C64.737 66.8591 65.6135 66.0341 65.6135 66.0341C65.6135 66.0341 69.398 67.2261 70.4586 66.2171C71.5192 65.2081 73.6443 59.9341 73.6443 59.9341Z" fill="#151414"/>
<path d="M55.923 69.8629C55.923 69.8629 48.3319 68.6249 43.2101 71.7889C38.0883 74.9529 36.6342 82.3829 36.1492 83.8269C35.6642 85.2709 32.896 95.7999 31.9984 101.369C31.1009 106.938 31.5828 109.211 34.9749 111.343C38.367 113.475 39.82 113.201 39.82 113.201L63.5625 113.132C62.9318 112.32 62.5398 111.35 62.4298 110.33C62.3199 109.31 62.4963 108.28 62.9396 107.354L63.9781 106.39C63.9781 106.39 64.0938 107.606 68.4307 106.69C72.7677 105.774 71.3388 104.763 73.9228 106.369C76.5069 107.975 80.2904 111.688 80.2904 111.688L86.4285 111.459C86.4285 111.459 85.9666 108.799 87.0745 107.79L88.1814 106.781C88.1814 106.781 84.6746 82.3149 82.6671 77.5689C80.6597 72.8229 75.1203 69.8689 72.0764 69.6579C69.0325 69.4469 66.542 69.4509 66.542 69.4509L55.923 69.8629Z" fill="#F15342"/>
<path d="M77.766 53.8579C77.5647 55.2239 76.5585 61.3209 72.7669 64.6809C71.8462 65.4969 70.3288 66.8359 68.1996 66.8239C67.2799 66.8239 66.5423 66.5239 65.9375 66.2859L64.7844 69.4999C64.7844 69.4999 62.2456 70.2799 59.9845 69.4999C57.7235 68.7199 57.8161 67.3909 57.8161 67.3909L62.0615 57.6679C62.0615 57.6679 58.9079 56.4299 60.1999 53.8929C60.1999 53.8929 61.5533 52.2719 62.8765 53.1589C64.1997 54.0459 64.1072 54.6869 64.1072 54.6869C64.1072 54.6869 67.5224 52.8869 68.6604 51.1409C69.7985 49.3949 69.9213 48.8479 69.9213 48.8479C72.2334 50.9483 74.8873 52.6437 77.77 53.8619L77.766 53.8579Z" fill="#FFA5B0"/>
<path opacity="0.37" d="M75.7051 97.8831L75.8591 107.083C75.8591 107.083 76.167 103.108 76.2284 100.846C76.2898 98.5841 75.7051 97.8831 75.7051 97.8831Z" fill="#87170A"/>
<path d="M67.2988 69.6339C67.2988 69.6339 65.5449 68.5339 65.2219 68.5339C64.8989 68.5339 62.9609 69.6809 61.9224 69.6579C60.7663 69.7144 59.6283 69.3563 58.7155 68.6489C58.4227 68.4189 57.9105 68.0079 57.8964 67.4219C57.8936 67.2936 57.913 67.1658 57.9538 67.0439L54.5969 69.6809L55.6958 71.6929C56.7624 73.6499 56.9757 73.9109 57.3772 74.1059C58.4156 74.6109 59.2227 73.4869 59.9844 72.7759C60.7461 72.0649 61.0228 71.0109 61.7383 71.1479C62.4537 71.2849 63.7226 73.4639 64.5759 73.8999C65.4292 74.3359 66.8148 71.9999 67.2988 69.6339Z" fill="white"/>
<path d="M104.7 111.435C104.7 111.435 100.273 107.354 96.7176 106.435C93.1625 105.516 87.4883 106.848 87.4883 106.848C87.4883 106.848 85.827 107.88 85.7575 109.531C85.6881 111.182 85.7344 111.531 85.7344 111.531L104.7 111.435Z" fill="#FDAAB4"/>
<path d="M66.6761 111.519H78.4895C78.9057 111.519 79.2432 111.854 79.2432 112.268C79.2432 112.682 78.9057 113.017 78.4895 113.017H66.6761C66.2599 113.017 65.9224 112.682 65.9224 112.268C65.9224 111.854 66.2599 111.519 66.6761 111.519Z" fill="#1B2E35"/>
<path opacity="0.37" d="M48.956 75.0911C48.956 75.0911 50.4322 84.1711 49.3706 89.3541C48.309 94.5371 46.3257 102.194 46.3257 102.194C46.3257 102.194 48.956 87.9321 49.0043 84.6761C49.0526 81.4201 48.956 75.0911 48.956 75.0911Z" fill="#87170A"/>
<path opacity="0.37" d="M62.9377 106.322L42.1023 101.713C42.1023 101.713 46.5298 103.02 52.7625 104.671C58.9953 106.322 62.9377 106.322 62.9377 106.322Z" fill="#87170A"/>
<path opacity="0.37" d="M87.6111 106.627C89.3761 106.627 80.1357 105.527 80.1357 105.527C80.1357 105.527 86.473 106.627 87.6111 106.627Z" fill="#87170A"/>
<path d="M65.9857 48.5695L68.1231 50.3537C68.4256 50.6063 68.4649 51.0548 68.2107 51.3555C67.9566 51.6561 67.5053 51.6951 67.2027 51.4426L65.0654 49.6584C64.7628 49.4058 64.7236 48.9573 64.9777 48.6566C65.2319 48.356 65.6832 48.317 65.9857 48.5695Z" fill="#F980C0"/>
<path d="M64.1613 49.9499L66.2986 51.7341C66.6012 51.9867 66.6404 52.4352 66.3863 52.7358C66.1321 53.0365 65.6808 53.0755 65.3783 52.8229L63.2409 51.0387C62.9384 50.7862 62.8991 50.3377 63.1533 50.037C63.4074 49.7363 63.8587 49.6973 64.1613 49.9499Z" fill="#F980C0"/>
<path opacity="0.4" d="M64.5916 81.4617C64.0393 81.4617 63.5916 81.014 63.5916 80.4617C63.5916 79.9094 64.0393 79.4617 64.5916 79.4617C65.1438 79.4617 65.5916 79.9094 65.5916 80.4617C65.5916 81.014 65.1438 81.4617 64.5916 81.4617Z" stroke="#FEF2F0" stroke-miterlimit="10"/>
<path opacity="0.4" d="M53.9998 76.9998C53.4475 76.9998 52.9998 76.552 52.9998 75.9998C52.9998 75.4475 53.4475 74.9998 53.9998 74.9998C54.552 74.9998 54.9998 75.4475 54.9998 75.9998C54.9998 76.552 54.552 76.9998 53.9998 76.9998Z" stroke="#FEF2F0" stroke-miterlimit="10"/>
<path opacity="0.4" d="M70.9998 74.9998C70.4475 74.9998 69.9998 74.552 69.9998 73.9998C69.9998 73.4475 70.4475 72.9998 70.9998 72.9998C71.552 72.9998 71.9998 73.4475 71.9998 73.9998C71.9998 74.552 71.552 74.9998 70.9998 74.9998Z" stroke="#FEF2F0" stroke-miterlimit="10"/>
<path opacity="0.4" d="M56.9651 85.3474C56.4128 85.3474 55.9651 84.8997 55.9651 84.3474C55.9651 83.7951 56.4128 83.3474 56.9651 83.3474C57.5174 83.3474 57.9651 83.7951 57.9651 84.3474C57.9651 84.8997 57.5174 85.3474 56.9651 85.3474Z" stroke="#FEF2F0" stroke-miterlimit="10"/>
<path opacity="0.4" d="M63.4251 91.0349C62.8728 91.0349 62.425 90.5872 62.425 90.0349C62.425 89.4826 62.8728 89.0349 63.4251 89.0349C63.9773 89.0349 64.425 89.4826 64.425 90.0349C64.425 90.5872 63.9773 91.0349 63.4251 91.0349Z" stroke="#FEF2F0" stroke-miterlimit="10"/>
<path opacity="0.4" d="M43.1209 80.2576C42.5686 80.2576 42.1208 79.8099 42.1208 79.2576C42.1208 78.7053 42.5686 78.2576 43.1209 78.2576C43.6731 78.2576 44.1208 78.7053 44.1208 79.2576C44.1208 79.8099 43.6731 80.2576 43.1209 80.2576Z" stroke="#FEF2F0" stroke-miterlimit="10"/>
<path opacity="0.4" d="M44.9998 87.9998C44.4475 87.9998 43.9998 87.552 43.9998 86.9998C43.9998 86.4475 44.4475 85.9998 44.9998 85.9998C45.552 85.9998 45.9998 86.4475 45.9998 86.9998C45.9998 87.552 45.552 87.9998 44.9998 87.9998Z" stroke="#FEF2F0" stroke-miterlimit="10"/>
<path opacity="0.4" d="M52.9998 94.9998C52.4475 94.9998 51.9998 94.552 51.9998 93.9998C51.9998 93.4475 52.4475 92.9998 52.9998 92.9998C53.552 92.9998 53.9998 93.4475 53.9998 93.9998C53.9998 94.552 53.552 94.9998 52.9998 94.9998Z" stroke="#FEF2F0" stroke-miterlimit="10"/>
<path opacity="0.4" d="M58.9998 101C58.4475 101 57.9998 100.552 57.9998 99.9998C57.9998 99.4475 58.4475 98.9998 58.9998 98.9998C59.552 98.9998 59.9998 99.4475 59.9998 99.9998C59.9998 100.552 59.552 101 58.9998 101Z" stroke="#FEF2F0" stroke-miterlimit="10"/>
<path opacity="0.4" d="M84.3176 102.602C83.7653 102.602 83.3176 102.155 83.3176 101.602C83.3176 101.05 83.7653 100.602 84.3176 100.602C84.8699 100.602 85.3176 101.05 85.3176 101.602C85.3176 102.155 84.8699 102.602 84.3176 102.602Z" stroke="#FEF2F0" stroke-miterlimit="10"/>
<path opacity="0.4" d="M72.5046 102.787C71.9524 102.787 71.5046 102.339 71.5046 101.787C71.5046 101.235 71.9524 100.787 72.5046 100.787C73.0569 100.787 73.5046 101.235 73.5046 101.787C73.5046 102.339 73.0569 102.787 72.5046 102.787Z" stroke="#FEF2F0" stroke-miterlimit="10"/>
<path opacity="0.4" d="M37.5261 102.42C36.9738 102.42 36.5261 101.972 36.5261 101.42C36.5261 100.867 36.9738 100.42 37.5261 100.42C38.0784 100.42 38.5261 100.867 38.5261 101.42C38.5261 101.972 38.0784 102.42 37.5261 102.42Z" stroke="#FEF2F0" stroke-miterlimit="10"/>
<path opacity="0.4" d="M52.6624 108.565C52.1101 108.565 51.6624 108.117 51.6624 107.565C51.6624 107.013 52.1101 106.565 52.6624 106.565C53.2146 106.565 53.6624 107.013 53.6624 107.565C53.6624 108.117 53.2146 108.565 52.6624 108.565Z" stroke="#FEF2F0" stroke-miterlimit="10"/>
<path opacity="0.4" d="M42.9998 109C42.4475 109 41.9998 108.552 41.9998 108C41.9998 107.447 42.4475 107 42.9998 107C43.552 107 43.9998 107.447 43.9998 108C43.9998 108.552 43.552 109 42.9998 109Z" stroke="#FEF2F0" stroke-miterlimit="10"/>
<path opacity="0.4" d="M39.8337 93.7976C39.2815 93.7976 38.8337 93.3499 38.8337 92.7976C38.8337 92.2453 39.2815 91.7976 39.8337 91.7976C40.386 91.7976 40.8337 92.2453 40.8337 92.7976C40.8337 93.3499 40.386 93.7976 39.8337 93.7976Z" stroke="#FEF2F0" stroke-miterlimit="10"/>
<path d="M81.3733 113C81.3733 113 76.8089 106.9 73.1472 105.525C69.4855 104.15 63.6381 106.142 63.6381 106.142C63.6381 106.142 61.9275 107.685 61.8551 110.154C61.7826 112.623 61.8309 113.137 61.8309 113.137L81.3733 113Z" fill="#FDAAB4"/>
<path d="M65.9375 66.286C65.9375 66.286 63.5839 64.941 62.9691 63.657C62.3542 62.373 61.7686 59.957 61.7686 59.957C61.7686 59.957 61.0924 61.394 61.2464 62.557C61.4003 63.72 61.677 65.4 63.123 66.532C64.569 67.664 65.4303 67.785 65.4303 67.785L65.9375 66.286Z" fill="#EB8793"/>
<path d="M69.9342 48.6719C69.8417 48.6719 72.5183 51.6989 74.6103 53.4409C76.7023 55.1829 78.0235 55.7999 78.0235 55.7999C78.0235 55.7999 79.4081 55.3719 78.1161 52.5889C76.824 49.8059 70.056 48.6759 70.056 48.6759L69.9342 48.6719Z" fill="#151414"/>
<path d="M71.4749 54.3621C71.4749 54.3621 71.1056 53.6291 70.0661 53.0551C69.0266 52.4811 67.8051 53.2161 67.8051 53.2161" stroke="#4F2926" stroke-miterlimit="10"/>
<path d="M77.1743 56.9761C77.1743 56.9761 76.2979 56.0131 75.513 55.8071C75.0395 55.6858 74.5376 55.7431 74.1042 55.9681" stroke="#4F2926" stroke-miterlimit="10"/>
<path d="M72.0747 56.0129C72.0747 56.0129 71.9519 60.7219 70.7827 60.9359C69.6134 61.1499 69.3367 59.6819 69.3367 59.6819" stroke="#4F2926" stroke-miterlimit="10"/>
<path d="M74.285 59.8164C73.8781 59.6959 73.6878 59.1327 73.86 58.5584C74.0322 57.9841 74.5016 57.6162 74.9085 57.7367C75.3154 57.8572 75.5057 58.4204 75.3335 58.9947C75.1614 59.569 74.692 59.9368 74.285 59.8164Z" fill="#4F2926"/>
<path d="M69.2863 57.3708C68.8793 57.2503 68.6891 56.6871 68.8612 56.1128C69.0334 55.5386 69.5028 55.1707 69.9097 55.2911C70.3166 55.4116 70.5069 55.9748 70.3348 56.5491C70.1626 57.1234 69.6932 57.4913 69.2863 57.3708Z" fill="#4F2926"/>
<path d="M70.4526 63.2439C70.4526 63.2439 69.1294 63.3659 67.93 62.6319C66.7305 61.8979 67.284 60.8589 67.284 60.8589" stroke="#4F2926" stroke-miterlimit="10"/>
<path d="M65.8448 60.278C64.8506 60.278 64.0447 59.4672 64.0447 58.467C64.0447 57.4668 64.8506 56.656 65.8448 56.656C66.839 56.656 67.645 57.4668 67.645 58.467C67.645 59.4672 66.839 60.278 65.8448 60.278Z" fill="#EB8793"/>
<path d="M72.3212 63.6864C71.9608 63.3282 72.1507 62.5589 72.7452 61.9681C73.3398 61.3772 74.1139 61.1885 74.4742 61.5466C74.8346 61.9048 74.6447 62.6741 74.0502 63.2649C73.4556 63.8558 72.6815 64.0445 72.3212 63.6864Z" fill="#EB8793"/>
<path d="M75.3289 72.4999C74.8137 72.2789 73.7873 71.9339 72.7981 72.3319C71.7114 72.7689 71.2505 73.8679 70.8983 74.7469C70.2382 76.3949 69.3215 78.8609 68.3606 82.1079C67.5898 84.6739 66.8512 87.3969 66.168 90.2709C65.5642 92.8149 65.054 95.2709 64.6224 97.6309C64.6537 97.8075 64.7264 97.9743 64.8347 98.1179C64.8347 98.1179 65.378 98.8179 67.1138 98.5709C69.2149 98.2709 73.2811 81.4679 75.3289 72.4999Z" fill="#465A65"/>
<path d="M116.314 73.8221C116.314 73.8221 116.745 72.3851 115.268 72.2941C113.791 72.2031 73.582 72.2631 73.582 72.2631C73.582 72.2631 73.2137 72.2631 72.4751 73.5781C71.7365 74.8931 65.3065 96.8781 65.3065 96.8781C65.3065 96.8781 64.6304 97.7641 65.8298 98.4981C67.0293 99.2321 108.373 98.5001 108.373 98.5001C108.373 98.5001 109.178 97.9501 109.327 97.3381C109.476 96.7261 116.314 73.8221 116.314 73.8221Z" fill="#08446B"/>
<path d="M90.8875 82.1382C89.6555 82.1382 88.6567 81.1049 88.6567 79.8302C88.6567 78.5555 89.6555 77.5222 90.8875 77.5222C92.1196 77.5222 93.1184 78.5555 93.1184 79.8302C93.1184 81.1049 92.1196 82.1382 90.8875 82.1382Z" fill="#81A7BB"/>
<path d="M102.486 112.971L95.0102 87.9319C95.0102 87.9319 92.9645 85.1959 90.3814 86.6939C87.7984 88.1919 88.1979 91.0039 88.382 92.2269C88.5661 93.4499 94.4738 112.956 94.4738 112.956L102.486 112.971Z" fill="#81A7BB"/>
<path d="M78.9966 111.427H106.07C106.528 111.427 106.9 111.796 106.9 112.252V112.253C106.9 112.709 106.528 113.078 106.07 113.078H78.9966C78.5381 113.078 78.1664 112.709 78.1664 112.253V112.252C78.1664 111.796 78.5381 111.427 78.9966 111.427Z" fill="#81A7BB"/>
<path d="M140.043 94.656L137.678 113.259L129.368 113.43L127.233 94.656H140.043Z" fill="#7BA1BF"/>
<path d="M134.555 64.733C134.555 64.733 132.09 63.309 130.973 63.907C129.855 64.505 134.612 65.957 134.842 66.441C135.071 66.925 134.756 69.346 134.068 69.802C133.379 70.258 132.348 69.887 131.603 69.061C130.859 68.235 129.483 67.523 128.308 67.922C127.133 68.321 126.76 69.545 126.818 70.086C126.875 70.627 126.36 71.596 125.672 72.137C124.983 72.678 122.72 70.737 122.552 70.314C122.384 69.891 124.472 67.808 124.787 67.353C125.102 66.898 124.787 66.153 124.157 66.553C123.527 66.953 121.75 69.344 121.75 69.344C121.75 69.344 120.718 68.689 119.716 67.123C119.118 66.1991 118.691 65.1767 118.455 64.104C118.455 64.104 120.203 63.649 119.916 62.994C119.629 62.339 118.025 62.68 118.025 62.68L117.767 60.858C117.767 60.858 122.093 60.772 122.208 60.146C122.323 59.52 120.604 59.32 118.887 59.434C117.171 59.548 117.369 59.462 117.369 59.462L117.283 57.383C117.283 57.383 119.117 57.412 118.916 56.783C118.714 56.154 117.168 56.183 117.168 56.183L117.053 54.105C117.053 54.105 118.887 54.332 118.887 53.763C118.887 53.194 117.168 52.851 117.168 52.851C117.168 52.851 117.455 51.086 118.257 50.232L119.062 49.377C119.062 49.377 120.465 49.092 121.411 49.434C121.411 49.434 121.296 51.034 121.554 51.086C121.812 51.138 122.762 49.662 122.762 49.662L125.312 51.171C125.312 51.171 124.022 52.225 124.396 52.624C124.769 53.023 126.101 52 126.101 52L129.053 54.819C129.053 54.819 126.474 54.933 125.933 55.503C125.393 56.073 125.676 56.303 126.048 56.303C126.42 56.303 129.688 55.962 129.688 55.962C129.688 55.962 130.806 57.044 131.235 57.727C131.665 58.41 132.267 59.464 132.267 59.464C132.267 59.464 130.261 59.236 129.974 59.891C129.688 60.546 130.432 60.717 131.378 60.746C132.324 60.775 132.696 60.632 132.696 60.632C132.696 60.632 134.555 62.426 134.555 64.733Z" fill="#2A5E25"/>
<path d="M129.177 60.2239C129.177 60.2239 129.043 59.7679 128.68 59.6919C128.317 59.6159 126.35 59.3919 126.025 59.9769C125.7 60.5619 125.986 60.6408 126.885 60.6218C127.784 60.6028 129.33 60.8879 129.177 60.2239Z" fill="white"/>
<path d="M132.02 67.4761C132.02 67.4761 132.516 67.4381 132.459 66.8121C132.401 66.1861 129.403 65.2361 128.906 65.3311C128.409 65.4261 128.101 65.5591 128.238 65.8431C128.374 66.1271 131.795 67.8371 132.02 67.4761Z" fill="white"/>
<path d="M125.07 63.0151C125.07 63.0151 123.733 62.6151 122.663 63.0711C121.593 63.5271 120.449 64.1541 121.001 64.6661C121.552 65.1781 123.35 63.9071 124.115 63.6601C124.88 63.4131 125.261 63.3561 125.07 63.0151Z" fill="white"/>
<path d="M126.216 65.0999C126.216 65.0999 125.127 65.1379 125.127 65.7069C125.127 66.2759 125.682 66.4859 126.063 66.1819C126.444 65.8779 126.732 65.4259 126.216 65.0999Z" fill="white"/>
<path d="M122.567 56.9771C122.567 56.9771 122.319 56.0471 121.077 56.1231C119.835 56.1991 119.529 56.5981 119.72 56.8821C119.912 57.1661 122.433 57.8891 122.567 56.9771Z" fill="white"/>
<path d="M124.21 59.958C124.21 59.958 124.038 59.35 123.656 59.426C123.274 59.502 123.045 59.673 123.103 60.015C123.16 60.357 124.153 60.926 124.21 59.958Z" fill="white"/>
<path d="M133.294 94.221C133.294 94.221 131.574 79.057 130.108 73.8C128.642 68.543 125.208 60.857 125.208 60.857L120.823 52.657C120.823 52.657 123.833 57.641 124.949 59.777C126.065 61.913 129.534 70.94 129.907 71.937C130.279 72.934 132.062 81.079 132.322 82.731C132.581 84.383 133.781 94.036 133.781 94.321C133.781 94.606 133.294 94.221 133.294 94.221Z" fill="#2A5E25"/>
<path d="M141.946 81.1378C141.946 81.1378 141.837 78.1198 141.289 77.4228C140.74 76.7258 139.834 76.6458 138 77.4528C136.166 78.2598 135.642 76.0998 135.642 75.7268C135.642 75.3538 136.819 71.8558 137.089 71.6168C137.36 71.3778 139.285 72.4528 139.628 72.3078C139.971 72.1628 140.28 71.9388 139.86 71.4668C139.439 70.9948 138.12 70.5318 138.12 70.5318C138.12 70.5318 139.2 68.3998 139.347 68.3098C139.495 68.2198 142.586 70.4078 142.887 70.2478C143.189 70.0878 143.491 69.7738 143.12 69.1898C142.749 68.6058 140.403 67.3658 140.356 67.1718C140.308 66.9778 142.731 64.4328 142.887 64.3658C143.043 64.2988 143.942 65.5908 144.323 65.0268C144.705 64.4628 143.525 63.8178 143.525 63.8178L144.727 63.0618C144.727 63.0618 145.567 64.2228 146.009 63.7258C146.451 63.2288 145.74 62.6638 145.74 62.6638C145.74 62.6638 148.547 61.2908 149.222 62.4288C149.639 63.1694 149.895 63.9893 149.971 64.8348C149.971 64.8348 148.274 65.0888 148.462 65.5348C148.65 65.9808 149.865 65.6838 149.865 65.6838L149.306 67.8698C149.306 67.8698 147.844 67.4368 147.486 67.8358C147.128 68.2348 147.698 68.5508 149.064 68.4678L148.942 69.4168C148.942 69.4168 147.26 69.4168 147.62 69.8218C147.98 70.2268 148.835 69.8958 148.835 69.8958C148.835 69.8958 148.075 73.2818 147.516 73.7958C146.958 74.3098 144.646 73.2768 144.555 73.7178C144.463 74.1588 147.22 74.8498 147.126 75.1378C147.031 75.4258 145.736 78.5108 145.736 78.5108C145.736 78.5108 145.032 77.5108 144.166 77.3178C143.301 77.1248 143.83 77.7698 144.368 78.8738C144.905 79.9778 144.944 80.1468 143.772 81.0448C142.6 81.9428 142.118 81.4678 141.946 81.1378Z" fill="#3E8E37"/>
<path d="M141.487 74.9769C141.487 74.9769 141.653 74.6379 141.235 74.3409C140.818 74.0439 138.743 73.8059 138.358 73.9279C137.974 74.0499 136.774 74.4949 137.345 74.9549C137.916 75.4149 139.004 74.7069 140.22 74.9769C141.435 75.2469 141.145 75.2459 141.487 74.9769Z" fill="white"/>
<path d="M142.731 73.4089C142.731 73.4089 142.52 73.7919 142.058 73.5849C141.597 73.3779 140.914 72.9849 140.75 72.6849C140.586 72.3849 140.65 72.1679 141.037 72.0849C141.424 72.0019 142.103 72.5009 142.334 72.7129C142.566 72.9249 142.847 73.2819 142.731 73.4089Z" fill="white"/>
<path d="M145.011 68.6999C145.011 68.6999 145.027 68.3379 144.727 67.8919C144.427 67.4459 143.44 66.3779 142.988 66.3059C142.536 66.2339 142.294 66.3209 142.361 66.8059C142.429 67.2909 144.325 68.8839 144.654 68.8529C144.983 68.8219 145.011 68.6999 145.011 68.6999Z" fill="white"/>
<path d="M146.02 76.1799C146.02 76.1799 146.134 75.6799 145.308 75.3199C144.483 74.9599 143.762 74.5819 143.421 75.0199C143.08 75.4579 144.89 76.3789 145.197 76.4049C145.504 76.4309 145.796 76.5689 146.02 76.1799Z" fill="white"/>
<path d="M147.043 69.9899C147.043 69.9899 146.675 69.7129 146.325 69.8769C145.975 70.0409 145.587 70.4819 145.903 70.6769C146.219 70.8719 147.679 70.5999 147.043 69.9899Z" fill="white"/>
<path d="M146.856 65.52C146.856 65.52 146.979 64.57 146.39 64.541C145.802 64.512 145.699 65.141 146.129 65.565C146.558 65.989 146.856 65.52 146.856 65.52Z" fill="white"/>
<path d="M131.145 81.2779C131.145 81.2779 128.308 80.1959 127.449 80.4239C126.589 80.6519 126.159 81.4489 126.188 83.4419C126.217 85.4349 124.009 85.0659 123.666 84.9229C123.323 84.7799 120.547 82.3319 120.428 81.9899C120.309 81.6479 122.058 80.3099 122.058 79.9399C122.058 79.5699 121.972 79.1989 121.37 79.3989C120.768 79.5989 119.823 80.6229 119.823 80.6229C119.823 80.6229 118.279 78.7999 118.249 78.6299C118.22 78.4599 121.459 76.4939 121.43 76.1519C121.401 75.8099 121.229 75.4119 120.543 75.5259C119.856 75.6399 117.792 77.2909 117.59 77.2629C117.389 77.2349 115.986 74.0159 115.986 73.8459C115.986 73.6759 117.533 73.3609 117.161 72.7919C116.788 72.2229 115.728 73.0479 115.728 73.0479L115.499 71.6479C115.499 71.6479 116.903 71.3339 116.616 70.7359C116.33 70.1379 115.528 70.5659 115.528 70.5659C115.528 70.5659 115.355 67.4659 116.674 67.2909C117.523 67.1989 118.382 67.2861 119.195 67.5469C119.195 67.5469 118.766 69.1989 119.253 69.1989C119.74 69.1989 119.945 67.9789 119.945 67.9789L121.746 69.3459C121.746 69.3459 120.771 70.5139 121.001 70.9979C121.23 71.4819 121.746 71.0829 122.208 69.7979L123.039 70.2819C123.039 70.2819 122.38 71.8199 122.896 71.6489C123.413 71.4779 123.441 70.5669 123.441 70.5669C123.441 70.5669 126.273 72.5929 126.531 73.2999C126.789 74.0069 124.927 75.7209 125.299 75.9769C125.672 76.2329 127.391 73.9879 127.621 74.1869C127.85 74.3859 130.2 76.7789 130.2 76.7789C130.2 76.7789 128.992 77.0349 128.48 77.7469C127.968 78.4589 128.767 78.2309 129.998 78.1739C131.23 78.1169 131.407 78.1459 131.775 79.5739C132.144 81.0019 131.517 81.2499 131.145 81.2779Z" fill="#3E8E37"/>
<path d="M125.261 79.2848C125.261 79.2848 125.012 78.9998 124.573 79.2658C124.133 79.5318 123.103 81.3348 123.063 81.7338C123.024 82.1328 122.968 83.4048 123.617 83.0628C124.266 82.7208 124.037 81.4488 124.763 80.4428C125.488 79.4368 125.379 79.6998 125.261 79.2848Z" fill="white"/>
<path d="M124.296 77.5329C124.296 77.5329 124.569 77.8749 124.195 78.2169C123.822 78.5589 123.189 79.0279 122.849 79.0569C122.509 79.0859 122.333 78.9429 122.405 78.5569C122.478 78.1709 123.21 77.7449 123.494 77.6169C123.778 77.4889 124.225 77.3769 124.296 77.5329Z" fill="white"/>
<path d="M120.829 73.6C120.829 73.6 120.499 73.444 119.969 73.544C119.439 73.644 118.063 74.127 117.82 74.512C117.576 74.897 117.562 75.152 118.035 75.281C118.508 75.41 120.729 74.298 120.829 73.981C120.928 73.664 120.829 73.6 120.829 73.6Z" fill="white"/>
<path d="M128.15 75.611C128.15 75.611 127.734 75.311 127.076 75.924C126.418 76.537 125.786 77.049 126.059 77.533C126.332 78.017 127.892 76.722 128.036 76.451C128.18 76.18 128.423 75.967 128.15 75.611Z" fill="white"/>
<path d="M122.821 72.2509C122.821 72.2509 122.418 72.4789 122.433 72.8629C122.449 73.2469 122.706 73.7739 123.007 73.5629C123.308 73.3519 123.637 71.9089 122.821 72.2509Z" fill="white"/>
<path d="M132.09 94.307C132.09 94.307 131.014 88.839 128.397 83.67C125.781 78.501 121.392 73.247 120.489 72.137C119.587 71.027 117.136 68.637 117.136 68.637C117.136 68.637 121.22 72.482 123.928 75.685C126.635 78.888 131.063 88.372 131.192 88.671C131.321 88.97 132.653 94.523 132.653 94.523L132.09 94.307Z" fill="#2A5E25"/>
<path d="M144.011 70.969C144.011 70.969 141.719 74.529 140.087 77.576C138.455 80.623 134.986 90.59 134.754 91.616C134.522 92.642 134.209 94.435 134.209 94.435L134.667 94.292C134.667 94.292 136.158 87.292 138.163 82.759C140.169 78.226 144.011 70.969 144.011 70.969Z" fill="#2A5E25"/>
<path d="M133.638 95.147C130.101 95.147 127.233 94.9272 127.233 94.656C127.233 94.3849 130.101 94.165 133.638 94.165C137.175 94.165 140.043 94.3849 140.043 94.656C140.043 94.9272 137.175 95.147 133.638 95.147Z" fill="#E5EDF3"/>
<path d="M123.124 54.073C123.124 54.073 124.606 53.091 123.936 52.179C123.265 51.267 122.135 52.705 122.135 53.161C122.135 53.617 122.561 54.213 123.124 54.073Z" fill="white"/>
</g>
<defs>
<clipPath id="clip0_33_3929">
<rect width="161" height="120" fill="white" transform="matrix(-1 0 0 1 161 0)"/>
</clipPath>
</defs>
</svg>
