<svg width="140" height="140" viewBox="0 0 140 140" fill="none" xmlns="http://www.w3.org/2000/svg">
<g clip-path="url(#clip0_33_3597)">
<path d="M70 140C108.66 140 140 108.66 140 70C140 31.3401 108.66 0 70 0C31.3401 0 0 31.3401 0 70C0 108.66 31.3401 140 70 140Z" fill="#E4F4E2"/>
<path d="M44.1429 25.8196C44.097 25.8196 44.0664 25.789 44.0664 25.7431V10.6108H85.179V14.9179C85.179 14.9638 85.1484 14.9944 85.1025 14.9944C85.0566 14.9944 85.026 14.9638 85.026 14.9179V10.7638H44.2194V25.7431C44.2194 25.7813 44.1812 25.8196 44.1429 25.8196Z" fill="#9FD89A"/>
<path d="M8.61459 59.6337C8.56869 59.6337 8.53809 59.6031 8.53809 59.5572V19.0337H41.7556C41.8015 19.0337 41.8321 19.0643 41.8321 19.1102C41.8321 19.1561 41.8015 19.1867 41.7556 19.1867H8.69109V59.5572C8.69109 59.6031 8.65284 59.6337 8.61459 59.6337Z" fill="#9FD89A"/>
<path d="M15.2704 61.447H2.54037C2.49447 61.447 2.46387 61.4163 2.46387 61.3704C2.46387 61.3245 2.49447 61.2939 2.54037 61.2939H15.2704C15.3163 61.2939 15.3469 61.3245 15.3469 61.3704C15.3469 61.4163 15.3163 61.447 15.2704 61.447Z" fill="#D6EED4"/>
<path d="M11.6824 86.2187C11.6365 86.2187 11.6059 86.1881 11.6059 86.1422V66.3815H2.54037C2.49447 66.3815 2.46387 66.3509 2.46387 66.305C2.46387 66.2591 2.49447 66.2285 2.54037 66.2285H11.7589V86.1422C11.7589 86.1881 11.7207 86.2187 11.6824 86.2187Z" fill="#D6EED4"/>
<path d="M66.0759 16.6621H49.0234V20.5408H66.0759V16.6621Z" fill="#9FD89A"/>
<path d="M66.0759 23.1265H49.0234V27.0052H66.0759V23.1265Z" fill="#9FD89A"/>
<path d="M66.0759 29.5835H49.0234V33.4622H66.0759V29.5835Z" fill="#9FD89A"/>
<path d="M66.0759 36.04H49.0234V39.9187H66.0759V36.04Z" fill="#9FD89A"/>
<path d="M66.0759 42.5049H49.0234V46.3836H66.0759V42.5049Z" fill="#9FD89A"/>
<path d="M72.5859 16.6621H68.2559V20.5408H72.5859V16.6621Z" fill="#9FD89A"/>
<path d="M72.5859 23.1265H68.2559V27.0052H72.5859V23.1265Z" fill="#9FD89A"/>
<path d="M72.5859 29.5835H68.2559V33.4622H72.5859V29.5835Z" fill="#9FD89A"/>
<path d="M72.5859 36.04H68.2559V39.9187H72.5859V36.04Z" fill="#9FD89A"/>
<path d="M72.5859 42.5049H68.2559V46.3836H72.5859V42.5049Z" fill="#9FD89A"/>
<path d="M17.3898 55.5716H13.3428V23.0503H17.3898V55.5716ZM13.4958 55.4186H17.2368V23.2033H13.4958V55.4186Z" fill="#D6EED4"/>
<path d="M24.3741 55.5716H20.3271V23.0503H24.3741V55.5716ZM20.4802 55.4186H24.2211V23.2033H20.4802V55.4186Z" fill="#D6EED4"/>
<path d="M31.3663 55.5716H27.3193V23.0503H31.3663V55.5716ZM27.4723 55.4186H31.2133V23.2033H27.4723V55.4186Z" fill="#D6EED4"/>
<path d="M38.3517 55.5716H34.3047V23.0503H38.3517V55.5716ZM34.4577 55.4186H38.1987V23.2033H34.4577V55.4186Z" fill="#D6EED4"/>
<path d="M125.518 94.2665C125.518 96.6457 123.59 98.5659 121.218 98.5659H82.2936C79.9144 98.5659 77.9941 96.6381 77.9941 94.2665V20.9616C77.9941 18.5823 79.922 16.6621 82.2936 16.6621H121.218C123.597 16.6621 125.518 18.59 125.518 20.9616V94.2665Z" fill="#40484C"/>
<path d="M82.5539 21.2217C81.261 21.2217 80.2129 22.2698 80.2129 23.5627V92.5681C80.2129 93.861 81.261 94.9091 82.5539 94.9091H120.951C122.243 94.9091 123.292 93.861 123.292 92.5681V23.5627C123.292 22.2698 122.243 21.2217 120.951 21.2217H82.5539Z" fill="#F2E6DC"/>
<path d="M107.28 19.1867H96.2249C96.179 19.1867 96.1484 19.1561 96.1484 19.1102C96.1484 19.0643 96.179 19.0337 96.2249 19.0337H107.28C107.325 19.0337 107.356 19.0643 107.356 19.1102C107.356 19.1561 107.325 19.1867 107.28 19.1867Z" fill="#F2E6DC"/>
<path d="M117.776 27.7017H85.7363V59.741H117.776V27.7017Z" fill="#EFBC73"/>
<path d="M109.62 58.5249C109.574 58.5249 109.543 58.4942 109.543 58.4483V53.0779L102.734 46.2691H90.2109V28.9871C90.2109 28.9412 90.2415 28.9106 90.2874 28.9106C90.3333 28.9106 90.3639 28.9412 90.3639 28.9871V46.1161H102.803L109.704 53.0167V58.4483C109.696 58.4942 109.658 58.5249 109.62 58.5249Z" fill="white"/>
<path d="M103.813 58.4485C103.79 58.4485 103.775 58.4409 103.759 58.4256L94.0283 48.6944V44.2496L104.984 33.2944H116.145C116.191 33.2944 116.222 33.325 116.222 33.3709C116.222 33.4168 116.191 33.4474 116.145 33.4474H105.045L94.1813 44.3108V48.6256L103.867 58.3108C103.897 58.3414 103.897 58.3873 103.867 58.4179C103.851 58.4409 103.836 58.4485 103.813 58.4485Z" fill="white"/>
<path d="M111.273 43.7979H100.776V30.4099H87.3578C87.3119 30.4099 87.2812 30.3793 87.2812 30.3334C87.2812 30.2875 87.3119 30.2569 87.3578 30.2569H100.929V43.6372H111.119V29.4383C111.119 29.3924 111.15 29.3618 111.196 29.3618C111.242 29.3618 111.273 29.3924 111.273 29.4383V43.7979Z" fill="white"/>
<path d="M89.1556 58.525C89.1097 58.525 89.0791 58.4944 89.0791 58.4485V54.4397H97.7851L101.893 50.3315H116.153C116.199 50.3315 116.23 50.3621 116.23 50.408C116.23 50.4539 116.199 50.4845 116.153 50.4845H101.962L97.854 54.5927H89.2398V58.4485C89.2321 58.4944 89.2015 58.525 89.1556 58.525Z" fill="white"/>
<path d="M93.7028 55.0962C94.2375 54.5615 94.2375 53.6944 93.7028 53.1596C93.168 52.6249 92.3009 52.6249 91.7661 53.1596C91.2314 53.6944 91.2314 54.5615 91.7662 55.0962C92.3009 55.631 93.168 55.631 93.7028 55.0962Z" fill="#D87355"/>
<path d="M92.7365 40.3091C90.449 40.3091 88.5977 42.1604 88.5977 44.4479C88.5977 46.7353 92.7365 51.7845 92.7365 51.7845C92.7365 51.7845 96.8753 46.7353 96.8753 44.4479C96.8829 42.1604 95.0239 40.3091 92.7365 40.3091Z" fill="#D87355"/>
<path d="M92.7369 47.2784C94.3001 47.2784 95.5675 46.0111 95.5675 44.4478C95.5675 42.8845 94.3001 41.6172 92.7369 41.6172C91.1736 41.6172 89.9062 42.8845 89.9062 44.4478C89.9062 46.0111 91.1736 47.2784 92.7369 47.2784Z" fill="white"/>
<path d="M97.8164 54.5923H92.7367C92.6908 54.5923 92.6602 54.5617 92.6602 54.5158C92.6602 54.4698 92.6908 54.4392 92.7367 54.4392H97.7858L101.871 50.354C101.886 50.3387 101.902 50.3311 101.925 50.3311H116.146C116.192 50.3311 116.223 50.3617 116.223 50.4076C116.223 50.4535 116.192 50.4841 116.146 50.4841H101.955L97.87 54.5693C97.8547 54.5846 97.8394 54.5923 97.8164 54.5923Z" fill="#D87355"/>
<path d="M117.776 63.2373H60.123V70.2679H117.776V63.2373Z" fill="#8B865C"/>
<path d="M117.768 72.5322H71.8359V76.0514H117.768V72.5322Z" fill="#E6D0BE"/>
<path d="M69.3952 72.5322H60.123V76.0514H69.3952V72.5322Z" fill="white"/>
<path d="M117.768 78.3081H71.8359V81.8272H117.768V78.3081Z" fill="#E6D0BE"/>
<path d="M69.3952 78.3081H60.123V81.8272H69.3952V78.3081Z" fill="white"/>
<path d="M117.768 84.0918H71.8359V87.6109H117.768V84.0918Z" fill="#E6D0BE"/>
<path d="M69.3952 84.0918H60.123V87.6109H69.3952V84.0918Z" fill="white"/>
<path d="M51.8998 39.0242C51.8998 39.0242 50.8517 40.8296 51.6244 42.2908C51.9304 42.8646 52.3741 43.1171 52.8637 43.4384C53.3686 43.775 56.6965 45.963 57.3774 48.8242C57.5151 49.4133 57.7446 50.3772 57.3085 51.234C56.3905 53.0548 53.1697 52.9936 49.3063 53.0548C39.4069 53.2078 38.2287 53.9728 32.032 53.1848C27.5184 52.6111 25.6287 51.8996 24.6189 50.2854C23.9151 49.1608 23.6167 47.6384 24.0069 45.5881C25.2921 38.9553 32.8047 39.246 35.6429 36.5837C38.4888 33.9214 40.4932 31.1674 45.3817 30.9531C50.2703 30.7389 55.7479 33.3553 55.2123 37.5706C55.197 37.7007 55.1435 38.2209 54.7533 38.634C53.8888 39.552 52.1599 39.093 51.8998 39.0242Z" fill="#363E44"/>
<path d="M25.4371 50.1326C25.4218 50.1326 25.4065 50.1326 25.3989 50.1249C22.8973 48.5872 21.8415 46.4299 22.4382 44.0506C22.8361 42.467 23.9224 40.9217 25.506 39.69C27.0896 38.4583 28.9563 37.7239 30.7617 37.6168C36.7672 37.2648 38.6721 34.6331 38.6951 34.6025C38.718 34.5643 38.7639 34.5566 38.8022 34.5872C38.8404 34.6102 38.8481 34.6561 38.8175 34.6943C38.7945 34.7249 38.3279 35.3905 37.0962 36.102C35.9639 36.7599 33.9519 37.5861 30.7694 37.7698C27.1432 37.984 23.3945 40.8758 22.5912 44.0889C22.0098 46.3993 23.035 48.5031 25.483 49.9949C25.5213 50.0178 25.529 50.0637 25.506 50.102C25.4907 50.1249 25.4601 50.1326 25.4371 50.1326Z" fill="#363E44"/>
<path d="M21.2136 63.1074C21.2136 63.1074 18.1229 76.2965 20.5556 92.2091H63.4813C63.4813 92.2091 57.1928 76.9697 57.1928 69.2123L21.2136 63.1074Z" fill="white"/>
<path d="M17.366 67.8198C17.366 67.8198 16.1037 82.7761 25.5212 84.3215C34.9463 85.8668 33.4775 68.6231 33.4775 68.6231L17.366 67.8198Z" fill="#F2BE98"/>
<path d="M15.2695 69.6559C15.2695 69.6559 26.852 70.3904 34.7548 74.2002C42.6575 78.01 65.8837 74.4068 72.0116 68.5773C72.0116 68.5773 65.134 48.9543 43.1548 48.9849C21.1679 49.0155 16.9985 59.9095 15.2695 69.6559Z" fill="white"/>
<path d="M37.0498 50.7828L41.2881 39.9424L47.3547 41.7784L45.7405 50.6681L37.0498 50.7828Z" fill="#F2BE98"/>
<path d="M46.9493 50.714C46.9493 51.479 44.5471 52.0987 41.5865 52.0987C38.6258 52.0987 36.2236 51.479 36.2236 50.714C36.2236 49.949 38.6258 49.1304 41.5865 49.1304C44.5471 49.1304 46.9493 49.949 46.9493 50.714Z" fill="#F2BE98"/>
<path d="M52.0973 37.0578C52.0973 37.0578 51.2252 45.5496 47.6372 45.8173C45.4645 45.978 43.4755 43.484 42.9935 42.3135C42.5115 41.143 42.9935 39.2228 42.9935 39.2228C42.9935 39.2228 43.7203 39.9037 44.3094 39.4523C44.8984 39.0009 44.2175 36.1627 46.7957 36.2851C49.3738 36.3998 49.6492 37.4938 52.0973 37.0578Z" fill="#F2BE98"/>
<path d="M46.7197 45.9476C46.712 45.9476 46.7044 45.9476 46.6967 45.9476C45.4956 45.6187 44.3557 44.5782 43.759 43.6908C43.7361 43.6526 43.7437 43.6067 43.782 43.5837C43.8202 43.5608 43.8661 43.5684 43.8891 43.6067C44.4705 44.4711 45.5798 45.481 46.7426 45.8023C46.7809 45.8099 46.8038 45.8558 46.7962 45.8941C46.7809 45.9247 46.7503 45.9476 46.7197 45.9476Z" fill="#363E44"/>
<path d="M35.9785 49.4438C35.9785 49.4438 41.0812 50.0711 42.2517 42.9258C42.9556 38.611 45.1588 36.5531 45.9621 34.7706C46.7654 32.9957 38.0517 38.2821 35.9785 49.4438Z" fill="#363E44"/>
<path d="M44.2028 40.0878C44.4246 40.7763 44.2104 42.0233 43.5219 42.2375C42.8334 42.4593 41.9383 41.5643 41.7164 40.8834C41.4946 40.1949 41.8771 39.4681 42.558 39.2462C43.2465 39.0244 43.9809 39.4069 44.2028 40.0878Z" fill="#F2BE98"/>
<path d="M51.9072 39.9727C51.8996 39.988 51.9072 40.0033 51.8996 40.0186C51.869 40.2634 51.8384 40.5158 51.8537 40.7606C51.8613 40.8677 51.9072 40.9442 51.9225 41.0437C51.9378 41.1202 51.9455 41.189 51.9608 41.2579C52.6799 40.8907 53.116 40.2634 53.116 40.2634C53.116 40.2634 52.5805 40.0109 51.9072 39.9727Z" fill="white"/>
<path d="M51.1191 40.0417C50.2011 40.2788 49.5967 41.0668 49.5049 41.1969C49.5125 41.2122 49.5125 41.2198 49.5202 41.2351C49.6961 41.3116 50.5836 41.6788 51.4863 41.4417C51.6546 41.3958 51.8153 41.3346 51.9606 41.2581C51.9912 41.1969 52.0142 41.1357 52.0371 41.0745C52.1595 40.6919 52.106 40.2941 51.9147 39.9652C51.6546 39.9575 51.3869 39.9728 51.1191 40.0417Z" fill="#363E44"/>
<path d="M47.0642 40.126C46.9724 40.4014 46.9495 40.6233 47.0336 40.8834C47.6992 41.0517 48.2959 40.9599 48.2959 40.9599C48.2959 40.9599 48.0205 40.1031 47.332 39.5293C47.2019 39.7053 47.1331 39.9348 47.0642 40.126Z" fill="white"/>
<path d="M47.0182 40.8832C47.3548 40.5313 47.4772 40.0188 47.3319 39.5368C47.2554 39.4756 47.1712 39.4144 47.0871 39.3608C46.2073 38.81 45.1133 38.9783 45.1133 38.9783C45.1133 38.9783 45.4422 40.0417 46.322 40.5849C46.5439 40.7302 46.7887 40.822 47.0182 40.8832Z" fill="#363E44"/>
<path d="M42.4124 41.0207C42.3818 41.0207 42.3512 40.9977 42.3359 40.9671C42.3206 40.9212 42.3129 40.8753 42.3053 40.8218C42.2823 40.6305 42.3206 40.4393 42.42 40.2939C42.5195 40.1409 42.6648 40.0414 42.8332 40.0185C42.9173 40.0108 43.0015 40.0185 43.0856 40.0414C43.1239 40.0567 43.1468 40.1026 43.1315 40.1409C43.1162 40.1792 43.0703 40.2021 43.0321 40.1868C42.9709 40.1638 42.9097 40.1562 42.8485 40.1639C42.726 40.1792 42.6189 40.2557 42.5424 40.3704C42.4659 40.4928 42.4353 40.6458 42.4506 40.7988C42.4583 40.8371 42.4659 40.8753 42.4736 40.9136C42.4889 40.9518 42.4659 40.9977 42.42 41.013C42.4277 41.0207 42.42 41.0207 42.4124 41.0207Z" fill="#363E44"/>
<path d="M49.106 42.4055C49.083 42.4055 49.0601 42.3979 49.0448 42.3749C49.0218 42.3443 49.0218 42.2908 49.0601 42.2678C49.1595 42.1913 49.2131 42.1072 49.2284 42.0154C49.236 41.9236 49.1978 41.8547 49.1442 41.7553C49.0983 41.6711 49.0448 41.5793 49.0065 41.4493C48.953 41.2886 48.9453 41.1127 48.9683 40.9214C48.9759 40.8831 49.0142 40.8525 49.0524 40.8525C49.0907 40.8602 49.1213 40.8984 49.1213 40.9367C49.0983 41.0973 49.1136 41.258 49.1519 41.3957C49.1825 41.5105 49.236 41.5946 49.2743 41.6635C49.3355 41.7706 49.3967 41.8777 49.3814 42.0154C49.3661 42.1454 49.2896 42.2602 49.1595 42.3673C49.1366 42.3979 49.1213 42.4055 49.106 42.4055Z" fill="#363E44"/>
<path d="M48.0735 43.4843C47.9587 43.4843 47.8516 43.4537 47.7598 43.3925C47.4844 43.2165 47.4309 42.834 47.4309 42.8187C47.4232 42.7805 47.4538 42.7422 47.4997 42.7346C47.5456 42.7269 47.5762 42.7575 47.5839 42.8034C47.5839 42.8034 47.6298 43.1324 47.844 43.2701C47.9587 43.3466 48.1117 43.3542 48.2953 43.3007C48.3336 43.2854 48.3795 43.3083 48.3948 43.3542C48.4101 43.3925 48.3871 43.4384 48.3412 43.4537C48.2418 43.469 48.15 43.4843 48.0735 43.4843Z" fill="#363E44"/>
<path d="M71.4761 63.1074C71.4761 63.1074 78.6827 75.4473 70.6346 79.1041C60.3832 83.7632 54.2324 73.4047 54.2324 73.4047L71.4761 63.1074Z" fill="#F2BE98"/>
<path d="M64.0861 76.1586H44.8916L54.5921 53.8198H73.7867L64.0861 76.1586Z" fill="#1A3B17"/>
<path d="M44.3638 74.9499C44.3561 74.9499 44.3408 74.9499 44.3332 74.9423C44.2949 74.927 44.2796 74.8811 44.2949 74.8428L53.7813 52.9937C53.7966 52.9631 53.8195 52.9478 53.8501 52.9478H72.5856C72.6315 52.9478 72.6621 52.9784 72.6621 53.0243C72.6621 53.0702 72.6315 53.1008 72.5856 53.1008H53.9037L44.4403 74.904C44.425 74.9346 44.3944 74.9499 44.3638 74.9499Z" fill="#245320"/>
<path d="M63.7722 59.2975C63.9252 58.1576 66.5186 58.0046 69.0279 58.0505C70.8716 58.0811 72.9678 58.257 72.9678 59.7335C72.9678 61.4549 70.3667 61.4549 68.676 61.3095C66.1744 61.1029 63.6192 60.4068 63.7722 59.2975Z" fill="#F2BE98"/>
<path d="M62.9383 61.891C63.1066 60.6899 65.9295 60.5292 68.6683 60.5751C70.6804 60.6057 72.9678 60.7893 72.9678 62.3576C72.9678 64.1784 70.1372 64.1708 68.2935 64.0254C65.5547 63.7959 62.7776 63.0615 62.9383 61.891Z" fill="#F2BE98"/>
<path d="M62.8466 64.997C62.9461 63.75 65.4248 63.4746 67.8423 63.421C69.6171 63.3828 71.6445 63.4822 71.7133 65.1041C71.7898 66.9861 69.2958 67.0932 67.6587 67.0014C65.2335 66.8713 62.7472 66.221 62.8466 64.997Z" fill="#F2BE98"/>
<path d="M63.4666 67.6058C63.5431 66.573 65.4863 66.3512 67.3836 66.3053C68.7759 66.2746 70.3672 66.3665 70.4207 67.7052C70.4896 69.2659 68.5234 69.3501 67.2459 69.2736C65.3486 69.1665 63.3978 68.6156 63.4666 67.6058Z" fill="#F2BE98"/>
<path d="M67.7126 69.3577C67.5061 69.3577 67.2995 69.3501 67.07 69.3348C67.0241 69.3348 66.9935 69.2965 67.0012 69.2506C67.0012 69.2047 67.0394 69.1741 67.0853 69.1818C68.5312 69.2659 69.5487 69.067 70.023 68.6004C70.2525 68.3708 70.3673 68.0725 70.352 67.7053C70.3367 67.3763 70.2296 67.1162 70.0154 66.9096L69.9159 66.8102L70.0536 66.7796C71.14 66.5271 71.6755 65.961 71.6372 65.0965C71.6143 64.6299 71.4307 64.2779 71.0711 64.0178L70.9258 63.9107L71.1017 63.8801C71.3695 63.8342 71.6143 63.7654 71.8208 63.6889C71.8591 63.6736 71.905 63.6965 71.9203 63.7348C71.9356 63.773 71.9126 63.8189 71.8744 63.8342C71.6984 63.8954 71.5072 63.9566 71.293 64.0025C71.6066 64.2779 71.7749 64.6452 71.7902 65.0965C71.8285 66.0069 71.3006 66.6113 70.2143 66.902C70.3979 67.1162 70.4897 67.384 70.505 67.7053C70.5203 68.1107 70.3979 68.455 70.1301 68.7151C69.6864 69.1435 68.8831 69.3577 67.7126 69.3577Z" fill="#363E44"/>
<path d="M72.0115 61.126L66.6716 60.8506C66.6257 60.8506 66.5951 60.8124 66.6027 60.7741C66.6027 60.7282 66.641 60.6976 66.6792 60.7053L72.0115 60.9807C72.0574 60.9807 72.088 61.0189 72.0803 61.0572C72.088 61.0954 72.0497 61.126 72.0115 61.126Z" fill="#363E44"/>
<path d="M71.254 64.0251L66.0671 63.6962C66.0212 63.6962 65.9906 63.6579 65.9982 63.612C65.9982 63.5661 66.0365 63.5355 66.0824 63.5432L71.2616 63.8721C71.3075 63.8721 71.3381 63.9104 71.3305 63.9563C71.3305 63.9945 71.2999 64.0251 71.254 64.0251Z" fill="#363E44"/>
<path d="M70.1224 66.9247L64.8285 66.6799C64.7826 66.6799 64.752 66.6416 64.752 66.6034C64.752 66.5575 64.7902 66.5269 64.8285 66.5269L70.1148 66.7717C70.1607 66.7717 70.1913 66.8099 70.1913 66.8482C70.1989 66.8941 70.1607 66.9247 70.1224 66.9247Z" fill="#363E44"/>
<path d="M39.8341 54.9444C33.5609 59.7028 19.6221 79.3258 19.6221 79.3258L23.4778 83.74L24.962 84.3673C29.7969 86.4099 35.3816 84.3367 37.7226 79.6471L44.7303 65.1728C44.7303 65.1728 46.0155 65.4941 46.551 64.9968C47.1937 64.4001 47.3008 63.1837 47.3008 63.1837C47.3008 63.1837 48.1117 62.9771 48.41 62.0897C48.6855 61.2864 48.1117 60.6744 48.1117 60.6744C48.1117 60.6744 48.7849 59.7258 48.3335 58.7618C47.6603 57.3236 44.8909 56.811 44.8909 56.811C44.8909 56.811 51.5543 57.3925 51.4702 55.6405C51.3937 54.0187 42.1521 53.1848 39.8341 54.9444Z" fill="#F2BE98"/>
<path d="M21.0531 77.4207C21.0378 77.4207 21.0225 77.413 21.0072 77.4054C20.9766 77.3824 20.9689 77.3289 20.9919 77.2983C22.0323 75.8753 23.6618 73.6491 25.5667 71.1551C25.5897 71.1245 25.6432 71.1169 25.6738 71.1398C25.7044 71.1628 25.7121 71.2163 25.6891 71.2469C23.7919 73.7409 22.1547 75.9671 21.1143 77.3901C21.099 77.413 21.076 77.4207 21.0531 77.4207Z" fill="#363E44"/>
<path d="M48.1045 60.7432C48.0816 60.7432 48.0586 60.7279 48.0433 60.7126C47.7297 60.2688 47.0411 59.4579 45.863 59.0601C45.0062 58.7694 44.2258 58.8076 43.7209 58.8995C43.6827 58.9071 43.6368 58.8765 43.6291 58.8382C43.6215 58.8 43.6521 58.7541 43.6903 58.7464C44.2105 58.6546 45.0138 58.6087 45.9012 58.9147C47.1176 59.3279 47.8368 60.1617 48.1581 60.6284C48.181 60.6667 48.1734 60.7126 48.1351 60.7355C48.1351 60.7355 48.1198 60.7432 48.1045 60.7432Z" fill="#363E44"/>
<path d="M47.3391 63.2068C47.3162 63.2068 47.2932 63.1992 47.2779 63.1762C46.9107 62.7172 46.467 62.35 45.9621 62.0746C45.1741 61.6462 44.4091 61.5544 43.8965 61.5544C43.8888 61.5544 43.8812 61.5544 43.8812 61.5544C43.8353 61.5544 43.8047 61.5238 43.8047 61.4779C43.8047 61.432 43.8353 61.4014 43.8812 61.4014C43.8888 61.4014 43.8965 61.4014 43.9041 61.4014C44.432 61.4014 45.22 61.4932 46.0386 61.9369C46.5588 62.2199 47.0178 62.6025 47.4003 63.0768C47.4233 63.1074 47.4233 63.1609 47.385 63.1839C47.3774 63.2068 47.3621 63.2068 47.3391 63.2068Z" fill="#363E44"/>
<path d="M44.6916 65.2111C44.684 65.2111 44.6763 65.2111 44.661 65.2034C44.6228 65.1881 44.5998 65.1422 44.6151 65.104L45.0053 64.1171C45.0206 64.0788 45.0665 64.0559 45.1048 64.0712C45.143 64.0865 45.166 64.1324 45.1507 64.1707L44.7605 65.1575C44.7528 65.1881 44.7222 65.2111 44.6916 65.2111Z" fill="#363E44"/>
<path d="M128.874 123.913H16.9805V92.3633H127.209L131.001 116.11L128.874 123.913Z" fill="#EFBC73"/>
<path d="M41.0581 96.1479H25.665V114.933H41.0581V96.1479Z" fill="#4D4D4F"/>
<path d="M58.0405 96.1479H42.6475V114.933H58.0405V96.1479Z" fill="#4D4D4F"/>
<path d="M88.4829 96.1479H73.0898V114.933H88.4829V96.1479Z" fill="#4D4D4F"/>
<path d="M105.465 96.1479H90.0723V114.933H105.465V96.1479Z" fill="#4D4D4F"/>
<path d="M126.735 96.1479H120.466V114.933H129.735L126.735 96.1479Z" fill="#4D4D4F"/>
<path d="M71.4789 114.823L59.6641 105.238V96.1479H71.4789V114.823Z" fill="#4D4D4F"/>
<path d="M71.4789 117.741L59.6641 108.155V123.913H71.4789V117.741Z" fill="#4D4D4F"/>
<path d="M118.876 114.823L107.055 105.238V96.1479H118.876V114.823Z" fill="#4D4D4F"/>
<path d="M118.876 117.741L107.055 108.155V123.913H118.876V117.741Z" fill="#4D4D4F"/>
<path d="M45.6326 124.8C46.1214 121.787 44.0758 118.949 41.0635 118.46C38.0512 117.971 35.2129 120.017 34.7241 123.029C34.2352 126.041 36.2808 128.88 39.2931 129.369C42.3054 129.857 45.1437 127.812 45.6326 124.8Z" fill="#151414"/>
<path d="M37.0654 123.913C37.0654 125.626 38.4632 127.024 40.1768 127.024C41.8905 127.024 43.2882 125.626 43.2882 123.913C43.2882 122.199 41.8905 120.801 40.1768 120.801C38.4632 120.801 37.0654 122.199 37.0654 123.913ZM37.4531 123.913C37.4531 122.413 38.677 121.189 40.1768 121.189C41.6767 121.189 42.9006 122.413 42.9006 123.913C42.9006 125.413 41.6767 126.636 40.1768 126.636C38.677 126.636 37.4531 125.413 37.4531 123.913Z" fill="#F7F1EB" stroke="white" stroke-width="0.25"/>
<path d="M57.7829 125.386C58.5974 122.445 56.8736 119.401 53.9327 118.587C50.9918 117.772 47.9475 119.496 47.133 122.437C46.3185 125.378 48.0423 128.422 50.9832 129.236C53.9241 130.051 56.9684 128.327 57.7829 125.386Z" fill="#151414"/>
<path d="M49.3477 123.913C49.3477 125.627 50.7454 127.025 52.4591 127.025C54.1798 127.025 55.5705 125.627 55.5705 123.913C55.5705 122.2 54.1727 120.802 52.4591 120.802C50.7454 120.802 49.3477 122.2 49.3477 123.913ZM49.7353 123.913C49.7353 122.413 50.9592 121.189 52.4591 121.189C53.9656 121.189 55.1828 122.413 55.1828 123.913C55.1828 125.413 53.9589 126.637 52.4591 126.637C50.9592 126.637 49.7353 125.413 49.7353 123.913Z" fill="#F7F1EB" stroke="white" stroke-width="0.25"/>
<path d="M101.621 125.387C102.435 122.446 100.711 119.402 97.7706 118.587C94.8297 117.773 91.7854 119.496 90.9709 122.437C90.1564 125.378 91.8802 128.422 94.8211 129.237C97.762 130.051 100.806 128.328 101.621 125.387Z" fill="#151414"/>
<path d="M93.1875 123.913C93.1875 125.626 94.5853 127.024 96.2989 127.024C98.0196 127.024 99.4103 125.626 99.4103 123.913C99.4103 122.199 98.0125 120.801 96.2989 120.801C94.5853 120.801 93.1875 122.199 93.1875 123.913ZM93.5751 123.913C93.5751 122.413 94.799 121.189 96.2989 121.189C97.8055 121.189 99.0227 122.413 99.0227 123.913C99.0227 125.413 97.7988 126.636 96.2989 126.636C94.799 126.636 93.5751 125.413 93.5751 123.913Z" fill="#F7F1EB" stroke="white" stroke-width="0.25"/>
<path d="M32.4832 3.6416H2.54004V29.6908H32.4832V3.6416Z" fill="#398232"/>
<path d="M26.5693 23.5172H8.45346C8.40755 23.5172 8.37695 23.4866 8.37695 23.4407V7.48226C8.37695 7.43636 8.40755 7.40576 8.45346 7.40576H26.5693C26.6152 7.40576 26.6458 7.43636 26.6458 7.48226V23.4407C26.6458 23.4866 26.6076 23.5172 26.5693 23.5172ZM8.52996 23.3642H26.4928V7.55877H8.52996V23.3642Z" fill="white"/>
<path d="M25.7056 18.1236H9.31869C9.27279 18.1236 9.24219 18.093 9.24219 18.0471V9.70834C9.24219 9.66244 9.27279 9.63184 9.31869 9.63184H25.7056C25.7515 9.63184 25.7821 9.66244 25.7821 9.70834V18.0471C25.7821 18.093 25.7515 18.1236 25.7056 18.1236ZM9.39519 17.9706H25.6291V9.78484H9.39519V17.9706Z" fill="white"/>
<path d="M21.176 22.5841H13.847C13.8011 22.5841 13.7705 22.5535 13.7705 22.5076V21.2835C13.7705 21.2376 13.8011 21.207 13.847 21.207H21.176C21.2219 21.207 21.2525 21.2376 21.2525 21.2835V22.5076C21.2525 22.5458 21.2219 22.5841 21.176 22.5841ZM13.9235 22.4311H21.0995V21.36H13.9235V22.4311Z" fill="white"/>
<path d="M11.3041 20.2265C11.4322 19.6837 11.0961 19.1398 10.5533 19.0116C10.0106 18.8835 9.46667 19.2196 9.33851 19.7623C9.21034 20.3051 9.54645 20.849 10.0892 20.9772C10.632 21.1053 11.1759 20.7692 11.3041 20.2265Z" fill="white"/>
<path d="M11.9421 22.2934C12.2801 22.2934 12.5541 22.0194 12.5541 21.6814C12.5541 21.3433 12.2801 21.0693 11.9421 21.0693C11.6041 21.0693 11.3301 21.3433 11.3301 21.6814C11.3301 22.0194 11.6041 22.2934 11.9421 22.2934Z" fill="white"/>
<path d="M24.9342 20.9708C25.477 20.8426 25.8131 20.2987 25.6849 19.756C25.5567 19.2132 25.0128 18.8771 24.4701 19.0052C23.9273 19.1334 23.5912 19.6773 23.7194 20.2201C23.8475 20.7628 24.3914 21.099 24.9342 20.9708Z" fill="white"/>
<path d="M23.0808 22.2934C23.4188 22.2934 23.6928 22.0194 23.6928 21.6814C23.6928 21.3433 23.4188 21.0693 23.0808 21.0693C22.7428 21.0693 22.4688 21.3433 22.4688 21.6814C22.4688 22.0194 22.7428 22.2934 23.0808 22.2934Z" fill="white"/>
<path d="M11.7891 24.2285H9.16504V26.8526H11.7891V24.2285Z" fill="#F7F1EB"/>
<path d="M25.8584 24.2285H23.2344V26.8526H25.8584V24.2285Z" fill="#F7F1EB"/>
<path d="M7.64288 11.2231H5.63086V16.6166H7.64288V11.2231Z" fill="#F7F1EB"/>
<path d="M7.7885 18.4143C7.76555 18.4143 7.75025 18.4067 7.73494 18.3914L6.5874 17.2438C6.5568 17.2132 6.5568 17.1673 6.5874 17.1367C6.61801 17.1061 6.66391 17.1061 6.69451 17.1367L7.84205 18.2843C7.87265 18.3149 7.87265 18.3608 7.84205 18.3914C7.82675 18.4067 7.81145 18.4143 7.7885 18.4143Z" fill="white"/>
<path d="M27.3766 16.6094H29.3887V11.2159H27.3766V16.6094Z" fill="#F7F1EB"/>
<path d="M27.2357 18.4143C27.2127 18.4143 27.1974 18.4067 27.1821 18.3914C27.1515 18.3608 27.1515 18.3149 27.1821 18.2843L28.3297 17.1367C28.3603 17.1061 28.4062 17.1061 28.4368 17.1367C28.4674 17.1673 28.4674 17.2132 28.4368 17.2438L27.2892 18.3914C27.2739 18.4067 27.251 18.4143 27.2357 18.4143Z" fill="white"/>
</g>
<defs>
<clipPath id="clip0_33_3597">
<rect width="140" height="140" fill="white"/>
</clipPath>
</defs>
</svg>
