<svg width="89" height="88" viewBox="0 0 89 88" fill="none" xmlns="http://www.w3.org/2000/svg">
<path d="M16.6977 72.1876H9.85156C9.85156 65.4501 15.3285 59.9501 22.0377 59.9501H76.67C79.6823 59.9501 82.01 57.4752 82.01 54.5877C82.01 51.5627 79.5454 49.2251 76.67 49.2251H32.8546V42.3501H76.8069C83.5162 42.3501 88.9931 47.8502 88.9931 54.5877C88.9931 61.3251 83.5162 66.8251 76.8069 66.8251H22.1746C19.1623 66.8251 16.6977 69.1626 16.6977 72.1876Z" fill="#D6EED4"/>
<path d="M61.0616 84.425H22.1754C15.4662 84.425 9.98926 78.925 9.98926 72.1875H16.8354C16.8354 75.2125 19.3 77.55 22.1754 77.55H61.1985V84.425H61.0616Z" fill="#D6EED4"/>
<path d="M56.1326 27.3625C56.1326 12.2375 43.8095 0 28.7479 0C13.6864 0 1.36328 12.2375 1.36328 27.3625C1.36328 34.925 4.37559 41.6625 9.30482 46.75L28.611 66V65.8625L47.9172 46.6125C53.1203 41.6625 56.1326 34.925 56.1326 27.3625Z" fill="#48A43F"/>
<path d="M28.6935 14.4573L17.2568 25.7233L28.6675 37.4045L40.1041 26.1385L28.6935 14.4573Z" fill="white"/>
<path d="M61.061 88L67.9072 81.2625L61.061 74.25L54.2148 80.9875L61.061 88Z" fill="#FFB728"/>
</svg>
